<?xml version="1.0" encoding="utf-8"?>
<!-- Generator: Adobe Illustrator 28.0.0, SVG Export Plug-In . SVG Version: 6.00 Build 0)  -->
<svg version="1.1" id="Layer_1" xmlns="http://www.w3.org/2000/svg" xmlns:xlink="http://www.w3.org/1999/xlink" x="0px" y="0px"
	 viewBox="0 0 200 200" style="enable-background:new 0 0 200 200;" xml:space="preserve">
<style type="text/css">
	.st0{fill:#FFFFFF;}
	.st1{fill:#735096;}
	.st2{fill:#B795C5;}
	.st3{fill:#4F5659;}
	.st4{font-family:'Arial-BoldMT';}
	.st5{font-size:27.9886px;}
</style>
<g>
	<circle class="st0" cx="100.08" cy="99.82" r="95"/>
	<g>
		<path class="st1" d="M100.08,4.82c-52.47,0-95,42.53-95,95c0,52.47,42.53,95,95,95c52.47,0,95-42.53,95-95
			C195.08,47.36,152.55,4.82,100.08,4.82z M100.08,180.33c-44.39,0-80.51-36.11-80.51-80.51c0-44.39,36.12-80.51,80.51-80.51
			c44.39,0,80.51,36.12,80.51,80.51C180.59,144.21,144.47,180.33,100.08,180.33z"/>
		<path class="st2" d="M99.75,99.33l66.88-37.22c-13.17-23.24-37.95-38.79-66.57-38.79c-0.23,0-0.47,0.01-0.7,0.02L99.75,99.33z"/>
		<g>
			<rect x="99.46" y="23.33" class="st3" width="1.24" height="13.58"/>
			<rect x="23.59" y="99.2" class="st3" width="13.58" height="1.24"/>
			<rect x="99.46" y="162.73" class="st3" width="1.24" height="13.57"/>
			<rect x="162.99" y="99.2" class="st3" width="13.58" height="1.24"/>
			
				<rect x="153.65" y="64.35" transform="matrix(0.8658 -0.5004 0.5004 0.8658 -10.9779 89.0092)" class="st3" width="13.58" height="1.24"/>
			
				<rect x="128.14" y="38.84" transform="matrix(0.5008 -0.8656 0.8656 0.5008 33.2023 136.4856)" class="st3" width="13.58" height="1.24"/>
			<rect x="39.1" y="58.18" transform="matrix(0.5 -0.866 0.866 0.5 -36.4076 66.8808)" class="st3" width="1.24" height="13.58"/>
			<rect x="64.61" y="32.67" transform="matrix(0.866 -0.5 0.5 0.866 -10.99 37.8997)" class="st3" width="1.24" height="13.58"/>
			
				<rect x="159.82" y="127.88" transform="matrix(0.5 -0.866 0.866 0.5 -36.4051 206.2841)" class="st3" width="1.24" height="13.58"/>
			
				<rect x="134.31" y="153.39" transform="matrix(0.8661 -0.4999 0.4999 0.8661 -62.0089 88.9132)" class="st3" width="1.24" height="13.58"/>
			
				<rect x="32.93" y="134.05" transform="matrix(0.8656 -0.5007 0.5007 0.8656 -62.0919 37.9823)" class="st3" width="13.58" height="1.24"/>
			
				<rect x="58.44" y="159.56" transform="matrix(0.5008 -0.8656 0.8656 0.5008 -106.0863 136.4223)" class="st3" width="13.58" height="1.24"/>
			<g>
				<polygon class="st3" points="92.01,28.99 91.47,23.82 92.7,23.68 93.24,28.86 				"/>
				
					<rect x="84.1" y="24.94" transform="matrix(0.9782 -0.2075 0.2075 0.9782 -3.8723 18.1826)" class="st3" width="1.24" height="5.2"/>
				
					<rect x="76.63" y="26.95" transform="matrix(0.9512 -0.3087 0.3087 0.9512 -5.3483 25.2851)" class="st3" width="1.24" height="5.2"/>
				
					<rect x="69.41" y="29.72" transform="matrix(0.9138 -0.4061 0.4061 0.9138 -7.0906 31.2229)" class="st3" width="1.24" height="5.2"/>
			</g>
			<g>
				<polygon class="st3" points="92.7,175.95 91.47,175.82 92.01,170.65 93.24,170.78 				"/>
				
					<rect x="82.12" y="171.47" transform="matrix(0.2065 -0.9784 0.9784 0.2065 -101.1621 219.443)" class="st3" width="5.2" height="1.24"/>
				
					<rect x="74.65" y="169.47" transform="matrix(0.3084 -0.9513 0.9513 0.3084 -108.3759 191.1208)" class="st3" width="5.2" height="1.24"/>
				
					<rect x="67.43" y="166.7" transform="matrix(0.4068 -0.9135 0.9135 0.4068 -111.3103 163.2214)" class="st3" width="5.2" height="1.24"/>
			</g>
			<g>
				<polygon class="st3" points="107.46,175.95 106.91,170.78 108.15,170.65 108.69,175.82 				"/>
				
					<rect x="114.82" y="169.49" transform="matrix(0.9782 -0.2078 0.2078 0.9782 -33.242 27.7461)" class="st3" width="1.24" height="5.2"/>
				
					<rect x="122.29" y="167.49" transform="matrix(0.9511 -0.3087 0.3087 0.9511 -46.5079 46.2554)" class="st3" width="1.24" height="5.2"/>
				
					<rect x="129.51" y="164.72" transform="matrix(0.9138 -0.4061 0.4061 0.9138 -56.7358 67.266)" class="st3" width="1.24" height="5.2"/>
			</g>
			<g>
				
					<rect x="105.2" y="25.72" transform="matrix(0.1057 -0.9944 0.9944 0.1057 70.221 130.7511)" class="st3" width="5.2" height="1.24"/>
				
					<rect x="112.84" y="26.93" transform="matrix(0.2068 -0.9784 0.9784 0.2068 64.6226 134.7962)" class="st3" width="5.2" height="1.24"/>
				
					<rect x="120.31" y="28.93" transform="matrix(0.3086 -0.9512 0.9512 0.3086 56.8779 137.3426)" class="st3" width="5.2" height="1.24"/>
				
					<rect x="127.53" y="31.7" transform="matrix(0.406 -0.9139 0.9139 0.406 47.7651 138.1232)" class="st3" width="5.2" height="1.24"/>
			</g>
			<g>
				
					<rect x="23.99" y="106.92" transform="matrix(0.9945 -0.105 0.105 0.9945 -11.1461 3.3873)" class="st3" width="5.2" height="1.24"/>
				
					<rect x="25.2" y="114.56" transform="matrix(0.9783 -0.2073 0.2073 0.9783 -23.2756 8.267)" class="st3" width="5.2" height="1.24"/>
				
					<rect x="27.21" y="122.03" transform="matrix(0.9512 -0.3086 0.3086 0.9512 -36.3932 15.1831)" class="st3" width="5.2" height="1.24"/>
				
					<rect x="29.98" y="129.25" transform="matrix(0.914 -0.4058 0.4058 0.914 -49.8973 24.3928)" class="st3" width="5.2" height="1.24"/>
			</g>
			<g>
				
					<rect x="172.94" y="104.94" transform="matrix(0.1047 -0.9945 0.9945 0.1047 48.4361 268.8883)" class="st3" width="1.24" height="5.2"/>
				
					<rect x="171.73" y="112.58" transform="matrix(0.2076 -0.9782 0.9782 0.2076 23.8932 259.8612)" class="st3" width="1.24" height="5.2"/>
				
					<rect x="169.73" y="120.05" transform="matrix(0.3087 -0.9511 0.9511 0.3087 1.0978 246.8141)" class="st3" width="1.24" height="5.2"/>
				
					<rect x="166.96" y="127.27" transform="matrix(0.4063 -0.9137 0.9137 0.4063 -19.1776 230.2276)" class="st3" width="1.24" height="5.2"/>
			</g>
			<g>
				<polygon class="st3" points="171.04,92.98 170.91,91.75 176.08,91.21 176.21,92.44 				"/>
				
					<rect x="169.75" y="83.84" transform="matrix(0.9783 -0.2073 0.2073 0.9783 -13.7623 37.556)" class="st3" width="5.2" height="1.24"/>
				
					<rect x="167.75" y="76.37" transform="matrix(0.9513 -0.3084 0.3084 0.9513 -15.4387 56.2831)" class="st3" width="5.2" height="1.24"/>
				
					<rect x="164.98" y="69.15" transform="matrix(0.9139 -0.406 0.406 0.9139 -13.8921 74.05)" class="st3" width="5.2" height="1.24"/>
			</g>
			<g>
				
					<rect x="56.61" y="37.02" transform="matrix(0.8147 -0.5798 0.5798 0.8147 -12.3713 40.5252)" class="st3" width="1.24" height="5.2"/>
				
					<rect x="50.55" y="41.83" transform="matrix(0.7497 -0.6618 0.6618 0.7497 -16.5943 44.9896)" class="st3" width="1.24" height="5.2"/>
				
					<rect x="45.03" y="47.25" transform="matrix(0.6765 -0.7364 0.7364 0.6765 -21.9401 49.7457)" class="st3" width="1.24" height="5.2"/>
				
					<rect x="40.11" y="53.21" transform="matrix(0.5961 -0.8029 0.8029 0.5961 -28.3597 55.244)" class="st3" width="1.24" height="5.2"/>
			</g>
			<g>
				
					<rect x="142.31" y="157.42" transform="matrix(0.8147 -0.5799 0.5799 0.8147 -66.3095 112.5432)" class="st3" width="1.24" height="5.2"/>
				
					<rect x="148.36" y="152.61" transform="matrix(0.7497 -0.6618 0.6618 0.7497 -65.4226 137.4403)" class="st3" width="1.24" height="5.2"/>
				
					<rect x="153.88" y="147.19" transform="matrix(0.6765 -0.7364 0.7364 0.6765 -60.3325 162.2367)" class="st3" width="1.24" height="5.2"/>
				
					<rect x="158.81" y="141.23" transform="matrix(0.5962 -0.8028 0.8028 0.5962 -51.0952 186.0686)" class="st3" width="1.24" height="5.2"/>
			</g>
			<g>
				
					<rect x="37.28" y="142.05" transform="matrix(0.8142 -0.5806 0.5806 0.8142 -75.4246 49.668)" class="st3" width="5.2" height="1.24"/>
				
					<rect x="42.09" y="148.1" transform="matrix(0.7499 -0.6615 0.6615 0.7499 -87.2072 66.754)" class="st3" width="5.2" height="1.24"/>
				
					<rect x="47.51" y="153.62" transform="matrix(0.6765 -0.7365 0.7365 0.6765 -97.3838 86.7994)" class="st3" width="5.2" height="1.24"/>
				
					<rect x="53.47" y="158.55" transform="matrix(0.5961 -0.8029 0.8029 0.5961 -105.1525 109.3022)" class="st3" width="5.2" height="1.24"/>
			</g>
			<g>
				
					<rect x="157.68" y="56.35" transform="matrix(0.8148 -0.5798 0.5798 0.8148 -3.3446 103.4776)" class="st3" width="5.2" height="1.24"/>
				
					<rect x="152.87" y="50.3" transform="matrix(0.7496 -0.6619 0.6619 0.7496 5.2265 115.6467)" class="st3" width="5.2" height="1.24"/>
				
					<rect x="147.45" y="44.78" transform="matrix(0.676 -0.7369 0.7369 0.676 15.1691 125.2875)" class="st3" width="5.2" height="1.24"/>
				
					<rect x="141.49" y="39.85" transform="matrix(0.5961 -0.8029 0.8029 0.5961 25.7022 132.0322)" class="st3" width="5.2" height="1.24"/>
			</g>
			<g>
				
					<rect x="25.98" y="89.5" transform="matrix(0.1046 -0.9945 0.9945 0.1046 -67.7784 108.9151)" class="st3" width="1.24" height="5.2"/>
				
					<rect x="27.18" y="81.86" transform="matrix(0.2076 -0.9782 0.9782 0.2076 -60.586 94.1212)" class="st3" width="1.24" height="5.2"/>
				
					<rect x="29.19" y="74.39" transform="matrix(0.3087 -0.9511 0.9511 0.3087 -52.622 81.5682)" class="st3" width="1.24" height="5.2"/>
				
					<rect x="31.96" y="67.17" transform="matrix(0.4062 -0.9138 0.9138 0.4062 -44.4069 71.1959)" class="st3" width="1.24" height="5.2"/>
			</g>
		</g>
		<g>
			<path class="st2" d="M147,99.82c0,25.91-21.01,46.92-46.92,46.92c-25.91,0-46.92-21.01-46.92-46.92
				c0-25.91,21.01-46.92,46.92-46.92C125.99,52.9,147,73.91,147,99.82z"/>
			<path class="st0" d="M100.08,147.78c-26.45,0-47.97-21.52-47.97-47.97c0-26.45,21.52-47.97,47.97-47.97
				c26.45,0,47.96,21.52,47.96,47.97C148.04,126.27,126.53,147.78,100.08,147.78z M100.08,53.95c-25.29,0-45.87,20.58-45.87,45.87
				s20.58,45.87,45.87,45.87c25.29,0,45.87-20.58,45.87-45.87S125.37,53.95,100.08,53.95z"/>
		</g>
		
			<ellipse transform="matrix(0.9951 -0.0985 0.0985 0.9951 -9.3489 10.3468)" class="st0" cx="100.07" cy="99.82" rx="40.04" ry="40.04"/>
		<g>
			<path class="st3" d="M82.59,119.58l-4.13-13.47h-0.11c0.15,2.74,0.22,4.57,0.22,5.48v7.98h-3.25v-17.16h4.95l4.06,13.13h0.07
				l4.31-13.13h4.95v17.16h-3.39v-8.12c0-0.38,0.01-0.82,0.02-1.33c0.01-0.5,0.06-1.83,0.16-3.99h-0.11l-4.43,13.44H82.59z"/>
			<path class="st3" d="M98.6,119.58v-17.16h3.64v17.16H98.6z"/>
			<path class="st3" d="M122.39,119.58h-4.63l-7.47-12.98h-0.11c0.15,2.29,0.22,3.93,0.22,4.91v8.08h-3.25v-17.16h4.59l7.45,12.86
				h0.08c-0.12-2.23-0.18-3.81-0.18-4.73v-8.12h3.28V119.58z"/>
		</g>
		<text transform="matrix(1 0 0 1 84.5078 97.243)" class="st3 st4 st5">10</text>
	</g>
</g>
</svg>
