<?xml version="1.0" encoding="utf-8"?>
<!-- Generator: Adobe Illustrator 28.0.0, SVG Export Plug-In . SVG Version: 6.00 Build 0)  -->
<svg version="1.1" id="Layer_1" xmlns="http://www.w3.org/2000/svg" xmlns:xlink="http://www.w3.org/1999/xlink" x="0px" y="0px"
	 viewBox="0 0 200 200" style="enable-background:new 0 0 200 200;" xml:space="preserve">
<style type="text/css">
	.st0{fill:#FFFFFF;}
	.st1{fill:#735096;}
	.st2{fill:#B795C5;}
	.st3{fill:#4F5659;}
	.st4{font-family:'Arial-BoldMT';}
	.st5{font-size:26.2498px;}
</style>
<g>
	<circle class="st0" cx="100" cy="100" r="95"/>
	<g>
		<g>
			<path class="st1" d="M100,5C47.53,5,5,47.53,5,100c0,52.47,42.53,95,95,95c52.47,0,95-42.53,95-95C195,47.54,152.47,5,100,5z
				 M100,180.51c-44.4,0-80.51-36.12-80.51-80.51c0-44.39,36.12-80.51,80.51-80.51c44.39,0,80.51,36.12,80.51,80.51
				C180.51,144.39,144.39,180.51,100,180.51z"/>
			<path class="st2" d="M176.95,100.37c-0.17-42.55-34.71-76.99-77.3-76.99c-0.06,0-0.11,0-0.17,0v76.98H176.95z"/>
			<g>
				<rect x="99.38" y="23.51" class="st3" width="1.24" height="13.58"/>
				<rect x="23.51" y="99.38" class="st3" width="13.58" height="1.24"/>
				<rect x="99.38" y="162.91" class="st3" width="1.24" height="13.58"/>
				<rect x="162.91" y="99.38" class="st3" width="13.58" height="1.24"/>
				
					<rect x="153.57" y="64.53" transform="matrix(0.8659 -0.5003 0.5003 0.8659 -11.0838 88.9609)" class="st3" width="13.58" height="1.24"/>
				
					<rect x="128.06" y="39.02" transform="matrix(0.5005 -0.8657 0.8657 0.5005 33.0419 136.5446)" class="st3" width="13.58" height="1.24"/>
				<rect x="39.02" y="58.36" transform="matrix(0.5 -0.866 0.866 0.5 -36.6039 66.9)" class="st3" width="1.24" height="13.58"/>
				
					<rect x="64.53" y="32.85" transform="matrix(0.8661 -0.5 0.5 0.8661 -11.0907 37.8803)" class="st3" width="1.24" height="13.58"/>
				
					<rect x="159.74" y="128.06" transform="matrix(0.5 -0.866 0.866 0.5 -36.6038 206.2985)" class="st3" width="1.24" height="13.58"/>
				
					<rect x="134.23" y="153.57" transform="matrix(0.866 -0.5 0.5 0.866 -62.1112 88.9025)" class="st3" width="1.24" height="13.58"/>
				
					<rect x="32.85" y="134.23" transform="matrix(0.8658 -0.5004 0.5004 0.8658 -62.162 37.9345)" class="st3" width="13.58" height="1.24"/>
				
					<rect x="58.36" y="159.74" transform="matrix(0.5006 -0.8657 0.8657 0.5006 -106.2868 136.4804)" class="st3" width="13.58" height="1.24"/>
				<g>
					
						<rect x="91.66" y="23.92" transform="matrix(0.9945 -0.1046 0.1046 0.9945 -2.2669 9.7945)" class="st3" width="1.24" height="5.2"/>
					
						<rect x="84.02" y="25.13" transform="matrix(0.9782 -0.2076 0.2076 0.9782 -3.9124 18.1785)" class="st3" width="1.24" height="5.2"/>
					
						<rect x="76.55" y="27.13" transform="matrix(0.9512 -0.3087 0.3087 0.9512 -5.4081 25.2725)" class="st3" width="1.24" height="5.2"/>
					
						<rect x="69.33" y="29.9" transform="matrix(0.9138 -0.4062 0.4062 0.9138 -7.1709 31.2174)" class="st3" width="1.24" height="5.2"/>
				</g>
				<g>
					
						<rect x="89.68" y="172.86" transform="matrix(0.1057 -0.9944 0.9944 0.1057 -89.9863 246.9084)" class="st3" width="5.2" height="1.24"/>
					
						<rect x="82.04" y="171.65" transform="matrix(0.207 -0.9783 0.9783 0.207 -101.4231 219.4234)" class="st3" width="5.2" height="1.24"/>
					
						<rect x="74.57" y="169.65" transform="matrix(0.3081 -0.9513 0.9513 0.3081 -108.5969 191.2173)" class="st3" width="5.2" height="1.24"/>
					
						<rect x="67.35" y="166.88" transform="matrix(0.4061 -0.9138 0.9138 0.4061 -111.5252 163.4036)" class="st3" width="5.2" height="1.24"/>
				</g>
				<g>
					
						<rect x="107.1" y="170.88" transform="matrix(0.9945 -0.1046 0.1046 0.9945 -17.5545 12.2188)" class="st3" width="1.24" height="5.2"/>
					
						<rect x="114.74" y="169.67" transform="matrix(0.9782 -0.2075 0.2075 0.9782 -33.2416 27.6931)" class="st3" width="1.24" height="5.2"/>
					
						<rect x="122.21" y="167.67" transform="matrix(0.9512 -0.3086 0.3086 0.9512 -46.5522 46.219)" class="st3" width="1.24" height="5.2"/>
					
						<rect x="129.43" y="164.9" transform="matrix(0.9137 -0.4063 0.4063 0.9137 -56.8389 67.2929)" class="st3" width="1.24" height="5.2"/>
				</g>
				<g>
					
						<rect x="105.12" y="25.9" transform="matrix(0.1053 -0.9944 0.9944 0.1053 70.0066 130.8469)" class="st3" width="5.2" height="1.24"/>
					
						<rect x="112.76" y="27.11" transform="matrix(0.2071 -0.9783 0.9783 0.2071 64.3432 134.8439)" class="st3" width="5.2" height="1.24"/>
					
						<rect x="120.23" y="29.11" transform="matrix(0.3087 -0.9512 0.9512 0.3087 56.6423 137.3871)" class="st3" width="5.2" height="1.24"/>
					
						<rect x="127.45" y="31.88" transform="matrix(0.4062 -0.9138 0.9138 0.4062 47.5246 138.1364)" class="st3" width="5.2" height="1.24"/>
				</g>
				<g>
					
						<rect x="23.92" y="107.1" transform="matrix(0.9944 -0.1055 0.1055 0.9944 -11.217 3.3987)" class="st3" width="5.2" height="1.24"/>
					
						<rect x="25.13" y="114.74" transform="matrix(0.9783 -0.207 0.207 0.9783 -23.2765 8.2364)" class="st3" width="5.2" height="1.24"/>
					
						<rect x="27.13" y="122.21" transform="matrix(0.9512 -0.3085 0.3085 0.9512 -36.444 15.1623)" class="st3" width="5.2" height="1.24"/>
					
						<rect x="29.9" y="129.43" transform="matrix(0.9137 -0.4064 0.4064 0.9137 -50.043 24.4275)" class="st3" width="5.2" height="1.24"/>
				</g>
				<g>
					
						<rect x="172.86" y="105.12" transform="matrix(0.1048 -0.9945 0.9945 0.1048 48.1732 268.9617)" class="st3" width="1.24" height="5.2"/>
					<polygon class="st3" points="174.69,116.51 169.6,115.43 169.86,114.22 174.95,115.3 					"/>
					
						<rect x="169.65" y="120.23" transform="matrix(0.3087 -0.9512 0.9512 0.3087 0.8728 246.8668)" class="st3" width="1.24" height="5.2"/>
					
						<rect x="166.88" y="127.45" transform="matrix(0.406 -0.9139 0.9139 0.406 -19.3599 230.3191)" class="st3" width="1.24" height="5.2"/>
				</g>
				<g>
					<polygon class="st3" points="170.96,93.17 170.83,91.93 176,91.39 176.14,92.62 					"/>
					
						<rect x="169.67" y="84.02" transform="matrix(0.9784 -0.2067 0.2067 0.9784 -13.7734 37.4332)" class="st3" width="5.2" height="1.24"/>
					
						<rect x="167.67" y="76.55" transform="matrix(0.951 -0.3091 0.3091 0.951 -15.5145 56.4121)" class="st3" width="5.2" height="1.24"/>
					
						<rect x="164.9" y="69.33" transform="matrix(0.9139 -0.4059 0.4059 0.9139 -13.9729 74.0032)" class="st3" width="5.2" height="1.24"/>
				</g>
				<g>
					
						<rect x="56.53" y="37.2" transform="matrix(0.8147 -0.5798 0.5798 0.8147 -12.4905 40.5147)" class="st3" width="1.24" height="5.2"/>
					
						<rect x="50.48" y="42.01" transform="matrix(0.7498 -0.6617 0.6617 0.7498 -16.7336 44.9718)" class="st3" width="1.24" height="5.2"/>
					
						<rect x="44.96" y="47.43" transform="matrix(0.6765 -0.7364 0.7364 0.6765 -22.0985 49.7438)" class="st3" width="1.24" height="5.2"/>
					
						<rect x="40.03" y="53.39" transform="matrix(0.5962 -0.8029 0.8029 0.5962 -28.5365 55.2468)" class="st3" width="1.24" height="5.2"/>
				</g>
				<g>
					
						<rect x="142.23" y="157.6" transform="matrix(0.8147 -0.5798 0.5798 0.8147 -66.4227 112.504)" class="st3" width="1.24" height="5.2"/>
					
						<rect x="148.28" y="152.79" transform="matrix(0.7497 -0.6617 0.6617 0.7497 -65.5607 137.4204)" class="st3" width="1.24" height="5.2"/>
					
						<rect x="153.81" y="147.37" transform="matrix(0.6766 -0.7364 0.7364 0.6766 -60.4914 162.2242)" class="st3" width="1.24" height="5.2"/>
					
						<rect x="158.73" y="141.41" transform="matrix(0.5963 -0.8027 0.8027 0.5963 -51.2769 186.0534)" class="st3" width="1.24" height="5.2"/>
				</g>
				<g>
					
						<rect x="37.2" y="142.23" transform="matrix(0.8145 -0.5801 0.5801 0.8145 -75.4837 49.5814)" class="st3" width="5.2" height="1.24"/>
					
						<rect x="42.01" y="148.28" transform="matrix(0.7497 -0.6617 0.6617 0.7497 -87.369 66.7836)" class="st3" width="5.2" height="1.24"/>
					
						<rect x="47.43" y="153.81" transform="matrix(0.676 -0.7369 0.7369 0.676 -97.5896 86.9028)" class="st3" width="5.2" height="1.24"/>
					
						<rect x="53.39" y="158.73" transform="matrix(0.5959 -0.803 0.803 0.5959 -105.3408 109.3501)" class="st3" width="5.2" height="1.24"/>
				</g>
				<g>
					
						<rect x="157.6" y="56.53" transform="matrix(0.8144 -0.5803 0.5803 0.8144 -3.4365 103.563)" class="st3" width="5.2" height="1.24"/>
					
						<rect x="152.79" y="50.48" transform="matrix(0.7496 -0.6619 0.6619 0.7496 5.09 115.6461)" class="st3" width="5.2" height="1.24"/>
					
						<rect x="147.37" y="44.96" transform="matrix(0.6762 -0.7367 0.7367 0.6762 14.9804 125.237)" class="st3" width="5.2" height="1.24"/>
					
						<rect x="141.41" y="40.03" transform="matrix(0.5959 -0.8031 0.8031 0.5959 25.5519 132.0768)" class="st3" width="5.2" height="1.24"/>
				</g>
				<g>
					
						<rect x="25.9" y="89.68" transform="matrix(0.1045 -0.9945 0.9945 0.1045 -68.0277 109.0029)" class="st3" width="1.24" height="5.2"/>
					
						<rect x="27.11" y="82.04" transform="matrix(0.2077 -0.9782 0.9782 0.2077 -60.8253 94.1831)" class="st3" width="1.24" height="5.2"/>
					
						<rect x="29.11" y="74.57" transform="matrix(0.3087 -0.9512 0.9512 0.3087 -52.8483 81.6199)" class="st3" width="1.24" height="5.2"/>
					
						<rect x="31.88" y="67.35" transform="matrix(0.4062 -0.9138 0.9138 0.4062 -44.6186 71.2333)" class="st3" width="1.24" height="5.2"/>
				</g>
			</g>
			<g>
				<circle class="st2" cx="100" cy="100" r="46.92"/>
				<path class="st0" d="M100,148.17c-26.56,0-48.17-21.61-48.17-48.17c0-26.56,21.61-48.17,48.17-48.17
					c26.56,0,48.17,21.61,48.17,48.17C148.17,126.56,126.56,148.17,100,148.17z M100,54.33c-25.18,0-45.67,20.49-45.67,45.67
					s20.49,45.67,45.67,45.67c25.18,0,45.67-20.49,45.67-45.67S125.18,54.33,100,54.33z"/>
			</g>
			
				<ellipse transform="matrix(0.2798 -0.9601 0.9601 0.2798 -23.9824 168.0315)" class="st0" cx="100" cy="100" rx="40.04" ry="40.04"/>
			<g>
				<path class="st3" d="M82.52,119.76l-4.13-13.47h-0.11c0.15,2.74,0.22,4.57,0.22,5.48v7.98h-3.25V102.6h4.95l4.06,13.13h0.07
					l4.31-13.13h4.95v17.16h-3.39v-8.12c0-0.38,0.01-0.83,0.02-1.33c0.01-0.5,0.06-1.83,0.16-3.99h-0.11l-4.43,13.44H82.52z"/>
				<path class="st3" d="M98.52,119.76V102.6h3.64v17.16H98.52z"/>
				<path class="st3" d="M122.31,119.76h-4.63l-7.47-12.98h-0.11c0.15,2.29,0.22,3.93,0.22,4.91v8.08h-3.25V102.6h4.59l7.45,12.85
					h0.08c-0.12-2.23-0.18-3.81-0.18-4.73v-8.12h3.28V119.76z"/>
			</g>
		</g>
		<text transform="matrix(1 0 0 1 83.4924 97.8252)" class="st3 st4 st5">20</text>
	</g>
</g>
</svg>
