<?xml version="1.0" encoding="utf-8"?>
<!-- Generator: Adobe Illustrator 28.0.0, SVG Export Plug-In . SVG Version: 6.00 Build 0)  -->
<svg version="1.1" id="Layer_1" xmlns="http://www.w3.org/2000/svg" xmlns:xlink="http://www.w3.org/1999/xlink" x="0px" y="0px"
	 viewBox="0 0 200 200" style="enable-background:new 0 0 200 200;" xml:space="preserve">
<style type="text/css">
	.st0{fill:#FFFFFF;}
	.st1{fill:#735096;}
	.st2{fill:#B795C5;}
	.st3{fill:#4F5659;}
	.st4{font-family:'Arial-BoldMT';}
	.st5{font-size:29.3955px;}
</style>
<g>
	<circle class="st0" cx="100" cy="100" r="95"/>
	<g>
		<path class="st1" d="M100,5C47.53,5,5,47.53,5,100c0,52.47,42.53,95,95,95c52.47,0,95-42.53,95-95C195,47.54,152.47,5,100,5z
			 M100,180.51c-44.39,0-80.51-36.11-80.51-80.51c0-44.39,36.12-80.51,80.51-80.51c44.39,0,80.51,36.12,80.51,80.51
			C180.51,144.39,144.39,180.51,100,180.51z"/>
		<path class="st2" d="M100,23.48c-0.09,0-0.18,0.01-0.27,0.01v153.02c0.09,0,0.18,0.01,0.27,0.01c42.26,0,76.52-34.26,76.52-76.52
			S142.26,23.48,100,23.48z"/>
		<g>
			<rect x="99.38" y="23.51" class="st3" width="1.24" height="13.58"/>
			<rect x="23.51" y="99.38" class="st3" width="13.58" height="1.24"/>
			<rect x="99.38" y="162.91" class="st3" width="1.24" height="13.57"/>
			<rect x="162.91" y="99.38" class="st3" width="13.58" height="1.24"/>
			
				<rect x="153.57" y="64.53" transform="matrix(0.8658 -0.5004 0.5004 0.8658 -11.0791 88.9943)" class="st3" width="13.58" height="1.24"/>
			
				<rect x="128.06" y="39.02" transform="matrix(0.5008 -0.8656 0.8656 0.5008 33.0081 136.5091)" class="st3" width="13.58" height="1.24"/>
			<rect x="39.02" y="58.36" transform="matrix(0.5 -0.866 0.866 0.5 -36.6037 66.8996)" class="st3" width="1.24" height="13.58"/>
			<rect x="64.53" y="32.85" transform="matrix(0.866 -0.5 0.5 0.866 -11.0907 37.8839)" class="st3" width="1.24" height="13.58"/>
			
				<rect x="159.74" y="128.06" transform="matrix(0.5 -0.866 0.866 0.5 -36.6048 206.2964)" class="st3" width="1.24" height="13.58"/>
			
				<rect x="134.23" y="153.57" transform="matrix(0.8661 -0.4999 0.4999 0.8661 -62.1097 88.8982)" class="st3" width="1.24" height="13.58"/>
			
				<rect x="32.85" y="134.23" transform="matrix(0.8658 -0.5004 0.5004 0.8658 -62.1623 37.9351)" class="st3" width="13.58" height="1.24"/>
			
				<rect x="58.36" y="159.74" transform="matrix(0.5008 -0.8655 0.8655 0.5008 -106.2803 136.4342)" class="st3" width="13.58" height="1.24"/>
			<g>
				
					<rect x="91.66" y="23.92" transform="matrix(0.9945 -0.1046 0.1046 0.9945 -2.2668 9.794)" class="st3" width="1.24" height="5.2"/>
				
					<rect x="84.02" y="25.13" transform="matrix(0.9782 -0.2076 0.2076 0.9782 -3.9124 18.1791)" class="st3" width="1.24" height="5.2"/>
				
					<rect x="76.55" y="27.13" transform="matrix(0.9511 -0.3087 0.3087 0.9511 -5.4084 25.2763)" class="st3" width="1.24" height="5.2"/>
				
					<rect x="69.33" y="29.9" transform="matrix(0.9138 -0.4062 0.4062 0.9138 -7.1709 31.2175)" class="st3" width="1.24" height="5.2"/>
			</g>
			<g>
				
					<rect x="89.68" y="172.86" transform="matrix(0.1055 -0.9944 0.9944 0.1055 -89.9694 246.9504)" class="st3" width="5.2" height="1.24"/>
				
					<rect x="82.04" y="171.65" transform="matrix(0.2071 -0.9783 0.9783 0.2071 -101.4305 219.3956)" class="st3" width="5.2" height="1.24"/>
				
					<rect x="74.57" y="169.65" transform="matrix(0.3084 -0.9513 0.9513 0.3084 -108.6025 191.1719)" class="st3" width="5.2" height="1.24"/>
				
					<rect x="67.35" y="166.88" transform="matrix(0.4057 -0.914 0.914 0.4057 -111.5271 163.4794)" class="st3" width="5.2" height="1.24"/>
			</g>
			<g>
				
					<rect x="107.1" y="170.88" transform="matrix(0.9945 -0.1047 0.1047 0.9945 -17.5651 12.2271)" class="st3" width="1.24" height="5.2"/>
				
					<rect x="114.74" y="169.67" transform="matrix(0.9782 -0.2078 0.2078 0.9782 -33.2741 27.7264)" class="st3" width="1.24" height="5.2"/>
				
					<rect x="122.21" y="167.67" transform="matrix(0.9511 -0.3087 0.3087 0.9511 -46.5677 46.2401)" class="st3" width="1.24" height="5.2"/>
				
					<rect x="129.43" y="164.9" transform="matrix(0.9137 -0.4064 0.4064 0.9137 -56.8436 67.3012)" class="st3" width="1.24" height="5.2"/>
			</g>
			<g>
				
					<rect x="105.12" y="25.9" transform="matrix(0.1053 -0.9944 0.9944 0.1053 70.0084 130.8478)" class="st3" width="5.2" height="1.24"/>
				
					<rect x="112.76" y="27.11" transform="matrix(0.2072 -0.9783 0.9783 0.2072 64.3361 134.8407)" class="st3" width="5.2" height="1.24"/>
				
					<rect x="120.23" y="29.11" transform="matrix(0.3092 -0.951 0.951 0.3092 56.5792 137.3489)" class="st3" width="5.2" height="1.24"/>
				
					<rect x="127.45" y="31.88" transform="matrix(0.4063 -0.9137 0.9137 0.4063 47.5181 138.1313)" class="st3" width="5.2" height="1.24"/>
			</g>
			<g>
				
					<rect x="23.92" y="107.1" transform="matrix(0.9945 -0.1047 0.1047 0.9945 -11.1289 3.3669)" class="st3" width="5.2" height="1.24"/>
				
					<rect x="25.13" y="114.74" transform="matrix(0.9783 -0.2072 0.2072 0.9783 -23.3008 8.2479)" class="st3" width="5.2" height="1.24"/>
				
					<rect x="27.13" y="122.21" transform="matrix(0.9512 -0.3087 0.3087 0.9512 -36.4655 15.1756)" class="st3" width="5.2" height="1.24"/>
				
					<rect x="29.9" y="129.43" transform="matrix(0.9139 -0.406 0.406 0.9139 -50.0011 24.395)" class="st3" width="5.2" height="1.24"/>
			</g>
			<g>
				
					<rect x="172.86" y="105.12" transform="matrix(0.1047 -0.9945 0.9945 0.1047 48.1864 268.9725)" class="st3" width="1.24" height="5.2"/>
				
					<rect x="171.65" y="112.76" transform="matrix(0.2077 -0.9782 0.9782 0.2077 23.6513 259.9251)" class="st3" width="1.24" height="5.2"/>
				
					<rect x="169.65" y="120.23" transform="matrix(0.3087 -0.9511 0.9511 0.3087 0.8716 246.8649)" class="st3" width="1.24" height="5.2"/>
				
					<rect x="166.88" y="127.45" transform="matrix(0.406 -0.9139 0.9139 0.406 -19.3591 230.3215)" class="st3" width="1.24" height="5.2"/>
			</g>
			<g>
				
					<rect x="170.88" y="91.66" transform="matrix(0.9944 -0.1053 0.1053 0.9944 -8.7513 18.7784)" class="st3" width="5.2" height="1.24"/>
				
					<rect x="169.67" y="84.02" transform="matrix(0.9784 -0.2067 0.2067 0.9784 -13.775 37.4396)" class="st3" width="5.2" height="1.24"/>
				
					<rect x="167.67" y="76.55" transform="matrix(0.9511 -0.3089 0.3089 0.9511 -15.5098 56.3706)" class="st3" width="5.2" height="1.24"/>
				
					<rect x="164.9" y="69.33" transform="matrix(0.9139 -0.406 0.406 0.9139 -13.9725 74.0274)" class="st3" width="5.2" height="1.24"/>
			</g>
			<g>
				
					<rect x="56.53" y="37.2" transform="matrix(0.8148 -0.5798 0.5798 0.8148 -12.4906 40.5084)" class="st3" width="1.24" height="5.2"/>
				
					<rect x="50.48" y="42.01" transform="matrix(0.7496 -0.6618 0.6618 0.7496 -16.7337 44.9875)" class="st3" width="1.24" height="5.2"/>
				
					<rect x="44.96" y="47.43" transform="matrix(0.6766 -0.7364 0.7364 0.6766 -22.0983 49.7419)" class="st3" width="1.24" height="5.2"/>
				
					<rect x="40.03" y="53.39" transform="matrix(0.5961 -0.8029 0.8029 0.5961 -28.5366 55.255)" class="st3" width="1.24" height="5.2"/>
			</g>
			<g>
				
					<rect x="142.23" y="157.6" transform="matrix(0.8148 -0.5798 0.5798 0.8148 -66.4202 112.4927)" class="st3" width="1.24" height="5.2"/>
				
					<rect x="148.28" y="152.79" transform="matrix(0.7497 -0.6618 0.6618 0.7497 -65.5621 137.4367)" class="st3" width="1.24" height="5.2"/>
				
					<rect x="153.81" y="147.37" transform="matrix(0.6765 -0.7364 0.7364 0.6765 -60.4906 162.2372)" class="st3" width="1.24" height="5.2"/>
				
					<rect x="158.73" y="141.41" transform="matrix(0.5962 -0.8029 0.8029 0.5962 -51.2699 186.0895)" class="st3" width="1.24" height="5.2"/>
			</g>
			<g>
				
					<rect x="37.2" y="142.23" transform="matrix(0.8145 -0.5801 0.5801 0.8145 -75.4885 49.5873)" class="st3" width="5.2" height="1.24"/>
				
					<rect x="42.01" y="148.28" transform="matrix(0.7499 -0.6615 0.6615 0.7499 -87.3459 66.7469)" class="st3" width="5.2" height="1.24"/>
				
					<rect x="47.43" y="153.81" transform="matrix(0.676 -0.7369 0.7369 0.676 -97.5905 86.9054)" class="st3" width="5.2" height="1.24"/>
				
					<rect x="53.39" y="158.73" transform="matrix(0.596 -0.803 0.803 0.596 -105.3378 109.3397)" class="st3" width="5.2" height="1.24"/>
			</g>
			<g>
				
					<rect x="157.6" y="56.53" transform="matrix(0.8146 -0.58 0.58 0.8146 -3.4537 103.5035)" class="st3" width="5.2" height="1.24"/>
				
					<rect x="152.79" y="50.48" transform="matrix(0.7501 -0.6613 0.6613 0.7501 5.0366 115.5226)" class="st3" width="5.2" height="1.24"/>
				
					<rect x="147.37" y="44.96" transform="matrix(0.6765 -0.7365 0.7365 0.6765 14.9544 125.193)" class="st3" width="5.2" height="1.24"/>
				
					<rect x="141.41" y="40.03" transform="matrix(0.596 -0.803 0.803 0.596 25.5453 132.0689)" class="st3" width="5.2" height="1.24"/>
			</g>
			<g>
				
					<rect x="25.9" y="89.68" transform="matrix(0.1046 -0.9945 0.9945 0.1046 -68.0281 108.9992)" class="st3" width="1.24" height="5.2"/>
				
					<rect x="27.11" y="82.04" transform="matrix(0.2078 -0.9782 0.9782 0.2078 -60.8264 94.1747)" class="st3" width="1.24" height="5.2"/>
				
					<rect x="29.11" y="74.57" transform="matrix(0.3087 -0.9511 0.9511 0.3087 -52.8481 81.6194)" class="st3" width="1.24" height="5.2"/>
				
					<rect x="31.88" y="67.35" transform="matrix(0.4061 -0.9138 0.9138 0.4061 -44.6184 71.2407)" class="st3" width="1.24" height="5.2"/>
			</g>
		</g>
		<g>
			<path class="st2" d="M146.92,100c0,25.91-21.01,46.92-46.92,46.92c-25.91,0-46.92-21.01-46.92-46.92S74.09,53.08,100,53.08
				C125.91,53.08,146.92,74.09,146.92,100z"/>
			<path class="st0" d="M100,147.97c-26.45,0-47.97-21.52-47.97-47.96c0-26.45,21.52-47.97,47.97-47.97
				c26.45,0,47.96,21.52,47.96,47.97C147.97,126.45,126.45,147.97,100,147.97z M100,54.13c-25.29,0-45.87,20.58-45.87,45.87
				c0,25.29,20.58,45.87,45.87,45.87c25.29,0,45.87-20.58,45.87-45.87C145.87,74.71,125.29,54.13,100,54.13z"/>
		</g>
		
			<ellipse transform="matrix(0.2298 -0.9732 0.9732 0.2298 -20.3003 174.3504)" class="st0" cx="100" cy="100" rx="40.04" ry="40.04"/>
		<g>
			<path class="st3" d="M82.82,119.76l-4.13-13.46h-0.11c0.15,2.74,0.22,4.57,0.22,5.48v7.98h-3.25V102.6h4.95l4.06,13.12h0.07
				l4.31-13.12h4.95v17.16h-3.39v-8.13c0-0.38,0.01-0.82,0.02-1.32c0.01-0.5,0.06-1.83,0.16-3.99h-0.11l-4.43,13.44H82.82z"/>
			<path class="st3" d="M98.82,119.76V102.6h3.64v17.16H98.82z"/>
			<path class="st3" d="M122.61,119.76h-4.63l-7.47-12.98h-0.11c0.15,2.29,0.22,3.93,0.22,4.91v8.08h-3.25V102.6h4.59l7.45,12.85
				h0.08c-0.12-2.23-0.18-3.81-0.18-4.73v-8.12h3.28V119.76z"/>
		</g>
		<text transform="matrix(1 0 0 1 82.7317 97.2521)" class="st3 st4 st5">30</text>
	</g>
</g>
</svg>
