<?xml version="1.0" encoding="utf-8"?>
<!-- Generator: Adobe Illustrator 28.0.0, SVG Export Plug-In . SVG Version: 6.00 Build 0)  -->
<svg version="1.1" id="Layer_1" xmlns="http://www.w3.org/2000/svg" xmlns:xlink="http://www.w3.org/1999/xlink" x="0px" y="0px"
	 viewBox="0 0 200 200" style="enable-background:new 0 0 200 200;" xml:space="preserve">
<style type="text/css">
	.st0{fill:#FFFFFF;}
	.st1{fill:#735096;}
	.st2{fill:#B795C5;}
	.st3{fill:#4F5659;}
	.st4{font-family:'Arial-BoldMT';}
	.st5{font-size:31.18px;}
</style>
<g>
	<circle class="st0" cx="100.08" cy="99.82" r="95"/>
	<g>
		<path class="st1" d="M100.08,4.82c-52.47,0-95,42.53-95,95c0,52.47,42.53,95,95,95c52.46,0,95-42.53,95-95
			C195.08,47.36,152.55,4.82,100.08,4.82z M100.08,180.33c-44.39,0-80.51-36.11-80.51-80.51c0-44.39,36.11-80.51,80.51-80.51
			c44.39,0,80.51,36.12,80.51,80.51C180.59,144.21,144.47,180.33,100.08,180.33z"/>
		<path class="st2" d="M100.08,23.3c-0.26,0-0.22,0.02-0.48,0.02v76.22H23.57c0,0.09-0.01,0.19-0.01,0.28
			c0,42.26,34.26,76.52,76.52,76.52s76.52-34.26,76.52-76.52S142.34,23.3,100.08,23.3z"/>
		<g>
			<rect x="99.46" y="23.33" class="st3" width="1.24" height="13.58"/>
			<rect x="23.59" y="99.2" class="st3" width="13.58" height="1.24"/>
			<rect x="99.46" y="162.73" class="st3" width="1.24" height="13.57"/>
			<rect x="162.99" y="99.2" class="st3" width="13.58" height="1.24"/>
			
				<rect x="153.65" y="64.35" transform="matrix(0.866 -0.5001 0.5001 0.866 -10.9871 88.9464)" class="st3" width="13.58" height="1.24"/>
			
				<rect x="128.14" y="38.84" transform="matrix(0.5013 -0.8653 0.8653 0.5013 33.1514 136.432)" class="st3" width="13.58" height="1.24"/>
			<rect x="39.1" y="58.18" transform="matrix(0.5 -0.866 0.866 0.5 -36.408 66.8787)" class="st3" width="1.24" height="13.58"/>
			
				<rect x="64.61" y="32.67" transform="matrix(0.8661 -0.4999 0.4999 0.8661 -10.9897 37.8947)" class="st3" width="1.24" height="13.58"/>
			
				<rect x="159.82" y="127.88" transform="matrix(0.5001 -0.866 0.866 0.5001 -36.4108 206.2696)" class="st3" width="1.24" height="13.58"/>
			
				<rect x="134.31" y="153.39" transform="matrix(0.8661 -0.4999 0.4999 0.8661 -62.0087 88.9122)" class="st3" width="1.24" height="13.58"/>
			
				<rect x="32.93" y="134.05" transform="matrix(0.8659 -0.5002 0.5002 0.8659 -62.0315 37.9187)" class="st3" width="13.58" height="1.24"/>
			
				<rect x="58.44" y="159.56" transform="matrix(0.5013 -0.8653 0.8653 0.5013 -106.0727 136.3268)" class="st3" width="13.58" height="1.24"/>
			<g>
				
					<rect x="91.74" y="23.74" transform="matrix(0.9946 -0.1042 0.1042 0.9946 -2.2419 9.7695)" class="st3" width="1.24" height="5.2"/>
				
					<rect x="84.1" y="24.95" transform="matrix(0.9782 -0.2075 0.2075 0.9782 -3.8718 18.1782)" class="st3" width="1.24" height="5.2"/>
				
					<rect x="76.63" y="26.95" transform="matrix(0.9512 -0.3087 0.3087 0.9512 -5.3489 25.2914)" class="st3" width="1.24" height="5.2"/>
				
					<rect x="69.41" y="29.72" transform="matrix(0.9138 -0.4062 0.4062 0.9138 -7.0907 31.2277)" class="st3" width="1.24" height="5.2"/>
			</g>
			<g>
				
					<rect x="89.76" y="172.68" transform="matrix(0.1056 -0.9944 0.9944 0.1056 -89.728 246.8464)" class="st3" width="5.2" height="1.24"/>
				
					<rect x="82.12" y="171.47" transform="matrix(0.2071 -0.9783 0.9783 0.2071 -101.1916 219.3291)" class="st3" width="5.2" height="1.24"/>
				
					<rect x="74.65" y="169.47" transform="matrix(0.3082 -0.9513 0.9513 0.3082 -108.3721 191.1614)" class="st3" width="5.2" height="1.24"/>
				
					<rect x="67.43" y="166.7" transform="matrix(0.4062 -0.9138 0.9138 0.4062 -111.3131 163.3396)" class="st3" width="5.2" height="1.24"/>
			</g>
			<g>
				
					<rect x="107.18" y="170.7" transform="matrix(0.9945 -0.1044 0.1044 0.9945 -17.5054 12.2029)" class="st3" width="1.24" height="5.2"/>
				
					<rect x="114.82" y="169.49" transform="matrix(0.9781 -0.2079 0.2079 0.9781 -33.256 27.7604)" class="st3" width="1.24" height="5.2"/>
				
					<rect x="122.29" y="167.49" transform="matrix(0.9511 -0.3089 0.3089 0.9511 -46.5276 46.282)" class="st3" width="1.24" height="5.2"/>
				
					<rect x="129.51" y="164.72" transform="matrix(0.9137 -0.4064 0.4064 0.9137 -56.7709 67.3311)" class="st3" width="1.24" height="5.2"/>
			</g>
			<g>
				
					<rect x="105.2" y="25.72" transform="matrix(0.1054 -0.9944 0.9944 0.1054 70.2472 130.7605)" class="st3" width="5.2" height="1.24"/>
				
					<rect x="112.84" y="26.93" transform="matrix(0.2071 -0.9783 0.9783 0.2071 64.5821 134.7773)" class="st3" width="5.2" height="1.24"/>
				
					<rect x="120.31" y="28.93" transform="matrix(0.3092 -0.951 0.951 0.3092 56.8046 137.2984)" class="st3" width="5.2" height="1.24"/>
				
					<rect x="127.53" y="31.7" transform="matrix(0.406 -0.9139 0.9139 0.406 47.7593 138.1188)" class="st3" width="5.2" height="1.24"/>
			</g>
			<g>
				
					<rect x="24" y="106.92" transform="matrix(0.9946 -0.104 0.104 0.9946 -11.0437 3.3504)" class="st3" width="5.2" height="1.24"/>
				<polygon class="st3" points="25.39,116.33 25.13,115.12 30.22,114.04 30.48,115.25 				"/>
				
					<rect x="27.21" y="122.03" transform="matrix(0.9513 -0.3084 0.3084 0.9513 -36.3696 15.1689)" class="st3" width="5.2" height="1.24"/>
				
					<rect x="29.98" y="129.25" transform="matrix(0.9135 -0.4069 0.4069 0.9135 -50.0225 24.491)" class="st3" width="5.2" height="1.24"/>
			</g>
			<g>
				<polygon class="st3" points="176.08,108.43 170.91,107.89 171.04,106.65 176.21,107.2 				"/>
				<polygon class="st3" points="174.77,116.33 169.68,115.25 169.94,114.04 175.02,115.12 				"/>
				<polygon class="st3" points="172.63,124.04 167.69,122.44 168.07,121.26 173.01,122.87 				"/>
				
					<rect x="166.96" y="127.27" transform="matrix(0.406 -0.9139 0.9139 0.406 -19.1486 230.2843)" class="st3" width="1.24" height="5.2"/>
			</g>
			<g>
				<polygon class="st3" points="171.04,92.99 170.91,91.75 176.08,91.21 176.21,92.44 				"/>
				
					<rect x="169.75" y="83.84" transform="matrix(0.9785 -0.2064 0.2064 0.9785 -13.723 37.4001)" class="st3" width="5.2" height="1.24"/>
				
					<rect x="167.75" y="76.37" transform="matrix(0.9514 -0.3079 0.3079 0.9514 -15.4294 56.1984)" class="st3" width="5.2" height="1.24"/>
				
					<rect x="164.98" y="69.15" transform="matrix(0.9135 -0.4069 0.4069 0.9135 -13.8883 74.218)" class="st3" width="5.2" height="1.24"/>
			</g>
			<g>
				
					<rect x="56.61" y="37.02" transform="matrix(0.8147 -0.5799 0.5799 0.8147 -12.3712 40.5346)" class="st3" width="1.24" height="5.2"/>
				
					<rect x="50.56" y="41.83" transform="matrix(0.7496 -0.6618 0.6618 0.7496 -16.5946 44.9931)" class="st3" width="1.24" height="5.2"/>
				
					<rect x="45.03" y="47.25" transform="matrix(0.6765 -0.7364 0.7364 0.6765 -21.9398 49.746)" class="st3" width="1.24" height="5.2"/>
				
					<rect x="40.11" y="53.21" transform="matrix(0.596 -0.803 0.803 0.596 -28.3599 55.2548)" class="st3" width="1.24" height="5.2"/>
			</g>
			<g>
				
					<rect x="142.31" y="157.42" transform="matrix(0.8147 -0.5799 0.5799 0.8147 -66.3073 112.5323)" class="st3" width="1.24" height="5.2"/>
				
					<rect x="148.36" y="152.61" transform="matrix(0.7497 -0.6618 0.6618 0.7497 -65.4241 137.4525)" class="st3" width="1.24" height="5.2"/>
				
					<rect x="153.88" y="147.19" transform="matrix(0.6765 -0.7364 0.7364 0.6765 -60.3324 162.2355)" class="st3" width="1.24" height="5.2"/>
				
					<rect x="158.81" y="141.23" transform="matrix(0.5963 -0.8028 0.8028 0.5963 -51.0996 186.0487)" class="st3" width="1.24" height="5.2"/>
			</g>
			<g>
				
					<rect x="37.28" y="142.05" transform="matrix(0.815 -0.5794 0.5794 0.815 -75.2831 49.4931)" class="st3" width="5.2" height="1.24"/>
				
					<rect x="42.09" y="148.1" transform="matrix(0.7501 -0.6614 0.6614 0.7501 -87.189 66.7257)" class="st3" width="5.2" height="1.24"/>
				
					<rect x="47.51" y="153.63" transform="matrix(0.6761 -0.7368 0.7368 0.6761 -97.419 86.8757)" class="st3" width="5.2" height="1.24"/>
				
					<rect x="53.47" y="158.55" transform="matrix(0.5961 -0.8029 0.8029 0.5961 -105.1525 109.3021)" class="st3" width="5.2" height="1.24"/>
			</g>
			<g>
				
					<rect x="157.68" y="56.35" transform="matrix(0.8149 -0.5795 0.5795 0.8149 -3.3587 103.4304)" class="st3" width="5.2" height="1.24"/>
				
					<rect x="152.87" y="50.3" transform="matrix(0.7498 -0.6617 0.6617 0.7498 5.2129 115.6159)" class="st3" width="5.2" height="1.24"/>
				
					<rect x="147.45" y="44.78" transform="matrix(0.6765 -0.7365 0.7365 0.6765 15.1122 125.1912)" class="st3" width="5.2" height="1.24"/>
				
					<rect x="141.49" y="39.85" transform="matrix(0.5958 -0.8031 0.8031 0.5958 25.741 132.0835)" class="st3" width="5.2" height="1.24"/>
			</g>
			<g>
				
					<rect x="25.98" y="89.5" transform="matrix(0.1046 -0.9945 0.9945 0.1046 -67.778 108.9153)" class="st3" width="1.24" height="5.2"/>
				<polygon class="st3" points="30.22,85.6 25.13,84.52 25.39,83.31 30.48,84.39 				"/>
				
					<rect x="29.19" y="74.39" transform="matrix(0.3087 -0.9511 0.9511 0.3087 -52.6215 81.5699)" class="st3" width="1.24" height="5.2"/>
				
					<rect x="31.96" y="67.17" transform="matrix(0.406 -0.9139 0.9139 0.406 -44.4064 71.2107)" class="st3" width="1.24" height="5.2"/>
			</g>
		</g>
		<g>
			<path class="st2" d="M147,99.82c0,25.91-21.01,46.92-46.92,46.92c-25.91,0-46.92-21.01-46.92-46.92S74.17,52.9,100.08,52.9
				C125.99,52.9,147,73.91,147,99.82z"/>
			<path class="st0" d="M100.08,147.78c-26.45,0-47.96-21.52-47.96-47.96c0-26.45,21.52-47.97,47.96-47.97
				c26.45,0,47.96,21.52,47.96,47.97C148.04,126.27,126.53,147.78,100.08,147.78z M100.08,53.95c-25.29,0-45.87,20.58-45.87,45.87
				c0,25.29,20.58,45.87,45.87,45.87s45.87-20.58,45.87-45.87C145.95,74.53,125.37,53.95,100.08,53.95z"/>
		</g>
		<path class="st0" d="M140.12,99.82c0,22.12-17.93,40.04-40.04,40.04c-22.11,0-40.04-17.93-40.04-40.04
			c0-22.12,17.93-40.04,40.04-40.04C122.19,59.78,140.12,77.7,140.12,99.82z"/>
		<g>
			<path class="st3" d="M82.68,119.58l-4.13-13.46h-0.11c0.15,2.74,0.22,4.57,0.22,5.48v7.98h-3.25v-17.16h4.95l4.06,13.12h0.07
				l4.31-13.12h4.96v17.16h-3.39v-8.13c0-0.38,0.01-0.82,0.02-1.32c0.01-0.5,0.06-1.83,0.16-3.99h-0.1l-4.43,13.44H82.68z"/>
			<path class="st3" d="M98.69,119.58v-17.16h3.64v17.16H98.69z"/>
			<path class="st3" d="M122.47,119.58h-4.62l-7.47-12.98h-0.11c0.15,2.29,0.22,3.93,0.22,4.91v8.08h-3.25v-17.16h4.59l7.46,12.85
				h0.08c-0.12-2.23-0.18-3.81-0.18-4.73v-8.12h3.28V119.58z"/>
		</g>
		<text transform="matrix(1 0 0 1 81.2399 96.7471)" class="st3 st4 st5">45</text>
	</g>
</g>
</svg>
