<svg id="Group_8505" data-name="Group 8505" xmlns="http://www.w3.org/2000/svg" xmlns:xlink="http://www.w3.org/1999/xlink" width="26.672" height="14.967" viewBox="0 0 26.672 14.967">
  <defs>
    <clipPath id="clip-path">
      <rect id="Rectangle_4377" data-name="Rectangle 4377" width="26.672" height="14.967" fill="none"/>
    </clipPath>
    <clipPath id="clip-path-3">
      <rect id="Rectangle_4374" data-name="Rectangle 4374" width="19.194" height="9.563" fill="none"/>
    </clipPath>
    <clipPath id="clip-path-4">
      <rect id="Rectangle_4375" data-name="Rectangle 4375" width="26.672" height="13.336" fill="none"/>
    </clipPath>
  </defs>
  <g id="Group_8504" data-name="Group 8504" clip-path="url(#clip-path)">
    <g id="Group_8503" data-name="Group 8503">
      <g id="Group_8502" data-name="Group 8502" clip-path="url(#clip-path)">
        <path id="Path_4161" data-name="Path 4161" d="M24.887,6.668A13.336,13.336,0,0,0,0,13.337H4.755a8.581,8.581,0,0,1,17.161,0h4.755a13.274,13.274,0,0,0-1.785-6.669" transform="translate(0 -0.001)" fill="#fff"/>
        <path id="Path_4162" data-name="Path 4162" d="M144.264,5.906l2.379-4.121A13.274,13.274,0,0,0,139.974,0V4.756a8.538,8.538,0,0,1,4.29,1.15" transform="translate(-126.638)" fill="#f7b11e"/>
        <path id="Path_4163" data-name="Path 4163" d="M26,22.858l-2.379-4.121a13.4,13.4,0,0,0-4.882,4.882L22.857,26A8.619,8.619,0,0,1,26,22.858" transform="translate(-16.951 -16.952)" fill="#fdeb48"/>
        <path id="Path_4164" data-name="Path 4164" d="M76.646,4.756V0a13.274,13.274,0,0,0-6.669,1.785l2.379,4.121a8.538,8.538,0,0,1,4.29-1.15" transform="translate(-63.31 -0.001)" fill="#fed137"/>
        <path id="Path_4165" data-name="Path 4165" d="M188.138,26l4.121-2.379a13.4,13.4,0,0,0-4.882-4.882L185,22.857a8.619,8.619,0,0,1,3.14,3.14" transform="translate(-167.372 -16.951)" fill="#f26d24"/>
        <path id="Path_4166" data-name="Path 4166" d="M219.11,76.646h4.755a13.274,13.274,0,0,0-1.785-6.669l-4.121,2.379a8.537,8.537,0,0,1,1.15,4.29" transform="translate(-197.194 -63.31)" fill="#d72626"/>
        <path id="Path_4167" data-name="Path 4167" d="M4.755,76.646a8.538,8.538,0,0,1,1.15-4.29L1.785,69.977A13.274,13.274,0,0,0,0,76.646Z" transform="translate(0 -63.31)" fill="#99c817"/>
        <g id="Group_8498" data-name="Group 8498" transform="translate(3.739 3.773)" style="mix-blend-mode: color-burn;isolation: isolate">
          <g id="Group_8497" data-name="Group 8497">
            <g id="Group_8496" data-name="Group 8496" clip-path="url(#clip-path-3)">
              <path id="Path_4168" data-name="Path 4168" d="M57.152,44.4a9.6,9.6,0,0,0-17.908,4.764H40.26a8.581,8.581,0,0,1,17.161,0h1.016A9.549,9.549,0,0,0,57.152,44.4" transform="translate(-39.244 -39.603)" fill="#919191"/>
            </g>
          </g>
        </g>
        <path id="Path_4169" data-name="Path 4169" d="M134.462,66.8l1.06,1.06,7.1-8.163Z" transform="translate(-121.651 -54.014)" fill="#303030"/>
        <path id="Path_4170" data-name="Path 4170" d="M126.1,124.458a1.632,1.632,0,1,1-1.632-1.632,1.632,1.632,0,0,1,1.632,1.632" transform="translate(-111.136 -111.124)" fill="#303030"/>
        <path id="Path_4171" data-name="Path 4171" d="M130.118,128.945a1.16,1.16,0,1,1-1.16-1.16,1.16,1.16,0,0,1,1.16,1.16" transform="translate(-115.622 -115.61)" fill="#fff"/>
        <path id="Path_4172" data-name="Path 4172" d="M133.058,132.23a.814.814,0,1,1-.814-.814.814.814,0,0,1,.814.814" transform="translate(-118.908 -118.895)" fill="#303030"/>
        <g id="Group_8501" data-name="Group 8501" style="mix-blend-mode: soft-light;isolation: isolate">
          <g id="Group_8500" data-name="Group 8500">
            <g id="Group_8499" data-name="Group 8499" clip-path="url(#clip-path-4)">
              <path id="Path_4173" data-name="Path 4173" d="M1.785,7.2a13.338,13.338,0,0,1,23.1,0,13.262,13.262,0,0,1,1.773,6.134h.012A13.336,13.336,0,1,0,0,13.337H.012A13.263,13.263,0,0,1,1.785,7.2" transform="translate(0 -0.001)" fill="#fff"/>
            </g>
          </g>
        </g>
      </g>
    </g>
  </g>
</svg>
