<?xml version="1.0" encoding="utf-8"?>
<!-- Generator: Adobe Illustrator 28.0.0, SVG Export Plug-In . SVG Version: 6.00 Build 0)  -->
<svg version="1.1" id="Layer_1" xmlns="http://www.w3.org/2000/svg" xmlns:xlink="http://www.w3.org/1999/xlink" x="0px" y="0px"
	 viewBox="0 0 200 200" style="enable-background:new 0 0 200 200;" xml:space="preserve">
<style type="text/css">
	.st0{fill:#EF9F79;}
	.st1{fill:#1A1A1A;}
	.st2{fill:#161E3A;}
	.st3{fill:#10182E;}
	.st4{fill:#E08967;}
	.st5{fill:#676767;}
	.st6{fill:#653530;}
	.st7{fill:#2B203E;}
	.st8{fill:#F07A6E;}
	.st9{fill:#8D633A;}
	.st10{fill:#7D502A;}
	.st11{fill:#333333;}
	.st12{fill:#262728;}
	.st13{fill:#222A4E;}
	.st14{fill:#DADEEA;}
	.st15{fill:#BBBBBF;}
	.st16{fill:#CED1D9;}
	.st17{fill:#3F1D1B;}
	.st18{fill:#757DBB;}
	.st19{fill:#293560;}
	.st20{fill:#C1282D;}
	.st21{fill:#FFFFFF;}
	.st22{fill:#47201D;}
	.st23{fill:#F79421;}
	.st24{opacity:0.69;}
	.st25{opacity:0.43;clip-path:url(#SVGID_00000144327234146932652060000005498322929084317331_);fill:#FFFFFF;}
	.st26{opacity:0.43;clip-path:url(#SVGID_00000094578208409741551160000004199290460044212389_);fill:#FFFFFF;}
	.st27{fill:none;stroke:#412312;stroke-width:0.4799;stroke-miterlimit:10;}
	.st28{fill:#412312;}
</style>
<g>
	
		<rect x="79.24" y="34.96" transform="matrix(0.4067 -0.9136 0.9136 0.4067 14.5457 96.9983)" class="st0" width="5.42" height="4.68"/>
	<path class="st1" d="M83.02,37.13l-2.22-1.28c-1.41-0.82-1.9-2.64-1.09-4.05l4.81-8.33c0.82-1.41,2.64-1.9,4.05-1.09l2.22,1.28
		c1.41,0.82,1.9,2.64,1.09,4.05l-4.81,8.33C86.26,37.46,84.44,37.95,83.02,37.13z"/>
	<path class="st2" d="M89.5,47.6l-12.28,9.62l7.28-16.81c0,0-4.86-3.36-6.35-2.43L67.69,61.52c0,0,0,5.79,4.3,5.79
		c4.3,0,14.57-6.54,14.57-6.54L89.5,47.6z"/>
	<path class="st3" d="M83.03,53.03c-0.39,2.32-1.14,3.98-2.25,6.1c-0.79,2.44-1.96,4.66-3.5,6.66c4.43-1.93,9.27-5.02,9.27-5.02
		l3.36-13.38L83.03,53.03z"/>
	<g>
		<g>
			<path class="st4" d="M103.33,31.47c0,0-1.61,9.47-1.06,11.56c0.55,2.09,4.71,3.84,4.71,3.84s-8.98,6.36-12.38,4.43
				c-3.4-1.93-4.53-2.89-4.53-2.89s2.66-0.35,3.05-1.87s0.15-14.61,0.15-14.61L103.33,31.47z"/>
			<path class="st0" d="M85.43,28.35c0,0,0.51,6.08,1.06,8.17c0.55,2.09,5.07,5.36,6.2,5.94c1.13,0.58,2.84,0.22,2.84,0.22
				s5.35-3.74,6.12-5.25c0.77-1.51,1.98-7.95,1.98-7.95s1.41-8.34-0.09-10.44c-1.5-2.1-5.82-6.51-10.95-5.23s-6.76,1.93-7.08,6
				C85.37,21.6,85.43,28.35,85.43,28.35z"/>
			<path class="st5" d="M86.64,25.01l4.04,0.04c0,0,0.35-0.23,0.12-0.69c-0.23-0.46-2.99-0.84-3.57-0.5
				C86.65,24.2,86.41,24.78,86.64,25.01z"/>
			<path class="st5" d="M100.63,25.31l-4.57-0.05c0,0-0.39-0.26-0.12-0.78c0.27-0.52,3.4-0.88,4.05-0.48
				C100.64,24.4,100.9,25.05,100.63,25.31z"/>
			<path class="st6" d="M92.2,167.13c0,0-5.6,8.54-8.82,9.3c0,0-2.85,2.47-1.33,4.17c1.52,1.71,4.17,1.71,5.88,1.33
				c1.71-0.38,7.4-6.07,7.4-6.07l0.38-0.95l0.57,0.95l2.09-1.52l-1.14-7.78L92.2,167.13z"/>
			<path class="st6" d="M108.43,170.54l0.19,6.26l2.09,3.23l0.38,0.19c0,0,0.76,7.4,0.95,7.78c0.19,0.38,0.19,1.33,1.33,2.28
				c1.14,0.95,3.98,2.28,5.88,0.38c1.9-1.9,2.09-3.8,2.09-3.8s-5.31-12.33-5.5-13.47c-0.19-1.14-0.95-3.8-0.95-3.8L108.43,170.54z"
				/>
			<path class="st7" d="M90.27,27.73c-0.01,0.73-0.44,1.32-0.96,1.32c-0.52-0.01-0.94-0.6-0.94-1.34c0.01-0.73,0.44-1.32,0.96-1.32
				C89.86,26.4,90.28,27,90.27,27.73z"/>
			<path class="st7" d="M98.81,27.82c-0.01,0.73-0.44,1.32-0.96,1.32c-0.52-0.01-0.94-0.6-0.94-1.34c0.01-0.73,0.44-1.32,0.96-1.32
				C98.4,26.48,98.82,27.08,98.81,27.82z"/>
			<g>
				<path class="st8" d="M92.27,33.25c-0.5-0.09-1.1-0.24-1.28-0.64c-0.14-0.31-0.01-0.71,0.43-1.2c0.75-0.86,0.14-5.25-0.15-6.87
					l0.38-0.05c0,0.01,0.27,1.5,0.42,3.09c0.2,2.18,0.09,3.53-0.34,4.01c-0.34,0.4-0.47,0.7-0.38,0.9c0.09,0.2,0.41,0.34,1.01,0.45
					L92.27,33.25z"/>
			</g>
			<path class="st9" d="M84.81,89.4c0,0-1.66,6.4-1.81,13.42c-0.14,6.36,7.08,54.61,8.44,63.64c0.13,0.85,0.83,1.51,1.69,1.58
				l2.21,0.19c1.42,0.12,2.62-1.02,2.58-2.44l-1.45-55.39l11.58,60.52c0,0,5.8,2.5,7.4-0.76c0.74-1.5-1.43-67.44-2.72-73.35
				c-1.28-5.91-5.95-10-5.95-10L84.81,89.4z"/>
			<path class="st10" d="M91.1,139.21c-1.25,0-2.48-0.08-3.69-0.23c1.73,12.13,3.43,23.54,4.03,27.48c0.13,0.85,0.83,1.51,1.69,1.58
				l2.21,0.19c1.42,0.12,2.62-1.02,2.58-2.44l-0.79-27.12C95.19,139.11,93.18,139.29,91.1,139.21z"/>
			<path class="st10" d="M112.4,130.38c-2.73,2.94-5.96,5.01-9.7,6.23c-0.56,0.29-0.29,0.56-0.87,0.8l6.21,33.5
				c0,0,5.8,2.5,7.4-0.76c0.42-0.85-0.1-22.48-0.86-42.09C113.92,128.88,113.19,129.65,112.4,130.38z"/>
			<path class="st11" d="M104.5,27.66c0,0-2.08-0.78-1.87-2.87c0.21-2.09-0.5-6.65-1.07-7.22C101,17,89.8,18.22,86.2,16.95
				l-0.83,6.63l-0.49-7.5c0,0-1.7-0.59-0.35-2.47c1.35-1.88,3.09-5.28,8.21-5.23c5.12,0.05,11.57,0.68,13.82,3.17
				c2.25,2.49,4.72,2.51,4.72,2.51l-1.92,2.07c0,0-0.83,7.58-2.38,10.32L104.5,27.66z"/>
			<path class="st5" d="M84.92,16.61l0.46,6.98l0.76-6.15C85.73,17.17,85.32,16.9,84.92,16.61z"/>
			<path class="st5" d="M104.53,18.88c-0.74,0.39-1.49,0.71-2.26,0.97c0.3,1.63,0.5,3.72,0.37,4.95c-0.21,2.09,1.87,2.87,1.87,2.87
				l2.48-1.21c1.43-2.54,2.25-9.23,2.37-10.2C107.91,17.42,106.31,18.3,104.53,18.88z"/>
			<path class="st12" d="M85.85,89.64c0,0,0,2.91,3.23,4.62c3.23,1.71,7.97,2.66,10.44,2.09c2.47-0.57,9.68-4.17,10.06-6.26
				l-0.06,0.06L85.85,89.64z"/>
			
				<rect x="100.84" y="92.74" transform="matrix(0.9747 -0.2234 0.2234 0.9747 -18.5595 25.0452)" class="st13" width="1.14" height="3.61"/>
			
				<rect x="90.02" y="91.79" transform="matrix(0.9124 0.4092 -0.4092 0.9124 46.2352 -28.8763)" class="st13" width="1.14" height="3.61"/>
			
				<rect x="104.44" y="91.42" transform="matrix(0.9022 -0.4314 0.4314 0.9022 -29.9399 54.4227)" class="st13" width="1.14" height="3.61"/>
			
				<rect x="86.42" y="90.09" transform="matrix(0.733 0.6802 -0.6802 0.733 85.7262 -34.6358)" class="st13" width="1.14" height="3.61"/>
			<path class="st0" d="M103.67,26.25c0,0,0.68-1.99,2.38-1.02c1.7,0.97,1.29,3.81,0.33,4.75c-0.96,0.94-2.68,2.82-3.06,2.63
				c-0.38-0.19-0.75-0.77-0.75-0.77L103.67,26.25z"/>
			<path class="st14" d="M91.54,46.63l4.09,4.97l9.07-5.79l11.71,5.71c0,0-4.93,18.55-5.16,22.34c-0.14,2.33-0.03,7.89,0.08,11.83
				c0.07,2.65-1.58,5.06-4.09,5.92c-3.16,1.08-7.43,2.27-10.42,2.03c-2.46-0.2-5.12-0.81-7.26-1.41c-2.58-0.72-4.44-2.96-4.65-5.63
				c-0.58-7.2-1.55-21.47-0.66-26.48c1.21-6.82,4.25-11.78,4.25-11.78L91.54,46.63z"/>
			<polygon class="st15" points="95.52,51.57 92.3,50.24 89.83,51.57 92.3,47.77 			"/>
			<polygon class="st14" points="96.29,52.08 96.89,48.86 103.79,42.29 106.78,46.87 100.45,53.64 			"/>
			<path class="st14" d="M93.34,43.8l-1.8,1.51c-0.78,1.7-1.71,6.26-1.71,6.26l2.28-2.85l3.05,2.68
				C95.16,51.4,92.16,47.67,93.34,43.8z"/>
			<polygon class="st15" points="100.84,51.95 96.85,48.91 95.71,51.57 97.8,50.81 			"/>
			<g>
				<path class="st16" d="M96.21,97.07l-2.95-0.32c-0.62-0.07-1.07-0.63-1-1.24l0.11-0.97c0.07-0.62,0.63-1.07,1.24-1l2.95,0.32
					c0.62,0.07,1.07,0.63,1,1.24l-0.11,0.97C97.39,96.69,96.83,97.14,96.21,97.07z"/>
				<path class="st12" d="M96.14,96.75l-2.74-0.3c-0.51-0.06-0.88-0.52-0.82-1.02l0.09-0.8c0.06-0.51,0.52-0.88,1.02-0.82l2.74,0.3
					c0.51,0.06,0.88,0.52,0.82,1.02l-0.09,0.8C97.11,96.44,96.65,96.81,96.14,96.75z"/>
			</g>
			<g>
				<path class="st17" d="M91.67,168.08c-0.65,0.52-1.49,0.79-2.22,1.18c-0.71,0.37-1.4,0.82-1.92,1.43
					c-0.28,0.33-0.59,0.73-0.51,1.19c0.04,0.25,0.23,0.46,0.5,0.45c0.2-0.01,0.42-0.11,0.61-0.17c0.75-0.26,1.48-0.62,2.06-1.16
					c0.32-0.3,0.57-0.65,0.78-1.03c0.21-0.37,0.39-0.76,0.73-1.04c-0.17-0.1-0.35-0.2-0.52-0.3c-0.31,1.15-0.18,2.39,0.34,3.46
					c0.13,0.26,0.29,0.6,0.63,0.59c0.3-0.01,0.49-0.29,0.54-0.55c0.13-0.61,0.13-1.27,0.09-1.89c-0.05-0.72-0.19-1.44-0.42-2.13
					c-0.05-0.16-0.22-0.27-0.38-0.22c-0.16,0.04-0.27,0.22-0.22,0.38c0.34,1.01,0.47,2.07,0.39,3.13c-0.01,0.2-0.02,0.49-0.09,0.64
					c-0.01,0.01-0.01,0.05-0.01,0.02c0,0.04-0.06,0,0.01,0c0.01,0,0.2-0.1,0.15,0c0.01-0.02,0.01,0.06,0-0.01
					c-0.01-0.05-0.06-0.1-0.08-0.14c-0.03-0.06-0.07-0.13-0.1-0.19c-0.2-0.41-0.33-0.87-0.38-1.32c-0.06-0.54-0.02-1.09,0.12-1.61
					c0.09-0.32-0.29-0.49-0.52-0.3c-0.56,0.46-0.74,1.18-1.18,1.73c-0.43,0.54-1.04,0.91-1.67,1.18c-0.14,0.06-0.28,0.11-0.42,0.16
					c-0.08,0.03-0.17,0.06-0.25,0.08c-0.04,0.01-0.08,0.03-0.13,0.04c-0.03,0.01-0.06,0.02-0.08,0.03c-0.1,0.02-0.06,0.05,0.12,0.1
					c-0.01,0.03-0.01-0.08-0.01-0.07c0-0.03,0-0.04,0.01-0.07c0.02-0.08,0.06-0.15,0.11-0.22c0.09-0.14,0.2-0.28,0.31-0.4
					c0.48-0.53,1.09-0.92,1.72-1.25c0.78-0.41,1.63-0.71,2.33-1.26c0.13-0.11,0.11-0.33,0-0.44
					C91.98,167.95,91.8,167.97,91.67,168.08L91.67,168.08z"/>
			</g>
			<g>
				<path class="st17" d="M112.95,172.02c-0.13,1.08-0.64,2.09-0.97,3.11c-0.34,1.05-0.6,2.17-0.51,3.29
					c0.04,0.48,0.1,1.04,0.45,1.4c0.19,0.19,0.5,0.34,0.76,0.21c0.24-0.12,0.34-0.42,0.46-0.64c0.49-0.96,0.88-2,0.95-3.09
					c0.04-0.6-0.05-1.19-0.21-1.77c-0.16-0.57-0.36-1.13-0.3-1.73c-0.19,0.05-0.39,0.11-0.58,0.16c0.76,1.34,2,2.37,3.44,2.89
					c0.35,0.13,0.84,0.34,1.14,0.02c0.29-0.32,0.07-0.77-0.14-1.06c-0.49-0.65-1.04-1.25-1.66-1.78c-0.7-0.6-1.47-1.12-2.29-1.54
					c-0.15-0.08-0.34-0.04-0.43,0.11c-0.08,0.14-0.04,0.35,0.11,0.43c1.29,0.65,2.43,1.55,3.36,2.64c0.1,0.12,0.2,0.25,0.3,0.37
					c0.09,0.11,0.2,0.25,0.24,0.37c0-0.01,0.03,0.1,0.02,0.06c0,0,0-0.01,0-0.01c0,0.04,0,0.04,0,0.01c0,0,0.07-0.11,0.07-0.07
					c0-0.01,0.08,0.06-0.04-0.01c-0.05-0.03-0.15-0.04-0.21-0.06c-0.1-0.03-0.19-0.06-0.29-0.09c-0.6-0.21-1.17-0.54-1.66-0.94
					c-0.58-0.47-1.06-1.03-1.43-1.67c-0.07-0.12-0.22-0.18-0.35-0.14c-0.14,0.04-0.22,0.16-0.23,0.3c-0.1,1,0.44,1.9,0.51,2.88
					c0.07,0.95-0.19,1.91-0.57,2.77c-0.1,0.23-0.21,0.45-0.32,0.67c-0.05,0.11-0.11,0.21-0.17,0.31c-0.1,0.17,0.03-0.07,0.07,0.03
					c0-0.01-0.07-0.04-0.07-0.04c-0.13-0.1-0.18-0.28-0.22-0.43c-0.05-0.22-0.08-0.44-0.09-0.67c-0.06-1.01,0.17-2.01,0.48-2.97
					c0.36-1.1,0.88-2.17,1.01-3.33c0.02-0.17-0.16-0.31-0.31-0.31C113.08,171.71,112.97,171.85,112.95,172.02L112.95,172.02z"/>
			</g>
			<path class="st18" d="M92.56,49.27c0,0,2.36,1.04,4.24-0.42l1.74,1.39l-1.95,3.41l0.83,10.22l-3.96,6.05c0,0-1.88-4.17-1.88-4.59
				s2.09-11.89,2.09-11.89l-1.46-3.13L92.56,49.27z"/>
			<path class="st2" d="M107.23,46.98c0,0-12.73,17.32-13.14,20.45c0,0-3.43-13.32-3.58-19.01c-0.01-0.55,0.33-1.14,0.05-1.41
				c-0.02-0.02-2.32,1.44-2.32,1.44s-4.8,4.8-4.59,20.65c0.16,11.99,1.54,21.36,0.21,24.2c-3.34,7.09-0.21,12.1-0.21,12.1
				s8.76,0.83,10.43-11.06c2.04,6.5,6.89,9.57,10.01,10.01c8.76,1.25,10.01-0.63,10.01-0.63l-2.92-15.65c0,0,0.67-16.65,1.9-20.42
				c1.23-3.78,5.22-14.08,2.48-17.13L107.23,46.98z"/>
		</g>
		<g>
			<path class="st19" d="M93.47,94.58c-2.27-12.15-1.68-18.92-0.83-20.84c2.32-5.21,12.9-11.36,14.46-12.25l-5.57-2.21l6.54-2.68
				l0.62-8.49l0.21,0.02l-0.63,8.62l-6.18,2.53l5.49,2.18l-0.19,0.11c-0.12,0.07-12.1,6.72-14.56,12.26
				c-0.85,1.9-1.42,8.6,0.84,20.72L93.47,94.58z"/>
		</g>
		<g>
			<path class="st19" d="M92.63,73.8c-1.07-5.26-2.71-8.82-3.89-10.88c-1.28-2.23-2.32-3.24-2.33-3.25l-0.13-0.13l4.52-1.23
				l-4.2-2.28l2.31-8.1l0.2,0.06l-2.27,7.94l4.51,2.45l-4.67,1.27c0.32,0.34,1.19,1.33,2.24,3.15c1.19,2.08,2.84,5.66,3.92,10.96
				L92.63,73.8z"/>
		</g>
	</g>
	<path class="st7" d="M90.16,27.43c-0.01,0.73-0.44,1.32-0.96,1.32c-0.52-0.01-0.94-0.6-0.94-1.34c0.01-0.73,0.44-1.32,0.96-1.32
		C89.75,26.1,90.16,26.7,90.16,27.43z"/>
	<path class="st20" d="M90.08,35.02l7.02-0.12c0,0,0.76,0.2-0.39,1.51c-1.15,1.32-5.13,0.9-5.13,0.9S89.88,36.54,90.08,35.02z"/>
	<path class="st21" d="M90.08,34.91l7.02-0.01c0,0,0.76,0.09-0.39,0.64c-1.14,0.55-5.13,0.35-5.13,0.35S89.89,35.55,90.08,34.91z"/>
	<path class="st0" d="M83.85,27.34h-2.43c-0.46,0-0.84-0.38-0.84-0.84l0,0c0-0.46,0.38-0.84,0.84-0.84h2.43
		c0.46,0,0.84,0.38,0.84,0.84l0,0C84.69,26.96,84.31,27.34,83.85,27.34z"/>
	<path class="st0" d="M82.73,29.02H80.3c-0.46,0-0.84-0.38-0.84-0.84l0,0c0-0.46,0.38-0.84,0.84-0.84h2.43
		c0.46,0,0.84,0.38,0.84,0.84l0,0C83.57,28.64,83.19,29.02,82.73,29.02z"/>
	<path class="st0" d="M82.23,30.7H79.3c-0.32,0-0.59-0.26-0.59-0.59v-0.51c0-0.32,0.26-0.59,0.59-0.59h2.93
		c0.32,0,0.59,0.26,0.59,0.59v0.51C82.82,30.44,82.55,30.7,82.23,30.7z"/>
	<path class="st0" d="M81.04,32.38h-2.43c-0.46,0-0.84-0.38-0.84-0.84l0,0c0-0.46,0.38-0.84,0.84-0.84h2.43
		c0.46,0,0.84,0.38,0.84,0.84l0,0C81.89,32.01,81.51,32.38,81.04,32.38z"/>
	<path class="st6" d="M122.6,114.18c0,0-0.45-5.32-1.12-6.29c-0.49-0.71-4.18,1.26-4.14,1.26c0.03,0-1.17,0.49-0.81,1.03
		c0.02,0.03,0.05,0.44,0.07,0.47c0.62,0.79,3.55-1.31,3.76-0.95c0.56,0.93,0.56,4.48,0.93,5.04
		C121.52,115.09,122.6,114.18,122.6,114.18z"/>
	<path class="st0" d="M114.19,101.85l-2.43,3.92c0,0-2.24,2.61-1.87,4.48s1.31,1.31,1.31,1.31v4.67c0,0,1.31,1.49,1.87,0.56
		c0.56-0.93,5.04-1.31,5.98-3.17c0.93-1.87-1.12-7.1-1.12-7.1l0.37-2.24L114.19,101.85z"/>
	<path class="st2" d="M116.28,51.27c0,0,9.68,21.06,10.25,25.81c0.57,4.74-8.04,28.89-8.04,28.89s-5.12-0.76-5.31-3.42l4.25-26.43
		l-6.07-9.49C111.35,66.64,109.26,53.93,116.28,51.27z"/>
	<g>
		<path class="st6" d="M99.44,125.39l28.76-14.94c0,0,1.49-0.19,1.49,0.37c0,0.56,2.61,22.41,2.61,22.41l-28.57,18.86
			c0,0-4.11,0.37-3.74-0.19c0.37-0.56-0.93-26.15-0.93-26.15L99.44,125.39z"/>
		<path class="st22" d="M103.74,152.09c0,0-4.11,0.37-3.74-0.19c0.23-0.34-0.7-18.35-0.89-25.91c-0.02-0.71,1.03-0.81,1.14-0.1
			L103.74,152.09z"/>
		<g>
			<path class="st22" d="M118.68,133.7c-1.3,0-17.44-1.7-18.12-1.77l0.02-0.19c0.17,0.02,16.82,1.77,18.11,1.77
				c1.14,0,2-0.59,2.56-0.98c0.07-0.05,0.13-0.09,0.19-0.13c0.41-0.29,5.45-9.69,8.75-15.93l0.17,0.09c-0.84,1.6-8.24,15.63-8.81,16
				c-0.06,0.04-0.12,0.08-0.19,0.13C120.76,133.09,119.88,133.7,118.68,133.7z"/>
		</g>
		<circle class="st23" cx="119.47" cy="130.94" r="1.26"/>
	</g>
	<path class="st6" d="M109.71,122.21c0,0-1.87-6.91-1.49-8.03c0.27-0.82,2.23-2.23,3.27-2.93c0.54-0.36,1.26,0.15,1.06,0.77
		c-0.01,0.04-0.03,0.07-0.04,0.11c-0.37,0.93-2.43,2.05-2.61,2.8c-0.19,0.75,1.31,5.6,1.31,6.35
		C111.21,122.02,109.71,122.21,109.71,122.21z"/>
	<path class="st11" d="M89.19,34.08c0,0,0.14-0.76,1.78-0.74s4.2-0.52,4.8-0.22c0.6,0.31,1.62,0.66,1.55,1.42
		c0,0-6.16,0.99-8.24,0.81C89.08,35.35,88.68,35.06,89.19,34.08z"/>
	<g>
		<g class="st24">
			<defs>
				<circle id="SVGID_1_" class="st24" cx="89.24" cy="27.41" r="3.12"/>
			</defs>
			<clipPath id="SVGID_00000152257151725010393460000017321748642842650533_">
				<use xlink:href="#SVGID_1_"  style="overflow:visible;"/>
			</clipPath>
			
				<circle style="opacity:0.43;clip-path:url(#SVGID_00000152257151725010393460000017321748642842650533_);fill:#FFFFFF;" cx="89.24" cy="27.41" r="3.12"/>
			
				<rect x="83.05" y="25.84" transform="matrix(0.6328 -0.7743 0.7743 0.6328 11.7851 77.566)" style="opacity:0.43;clip-path:url(#SVGID_00000152257151725010393460000017321748642842650533_);fill:#FFFFFF;" width="9.25" height="1.02"/>
			
				<rect x="84.23" y="27.01" transform="matrix(0.6328 -0.7743 0.7743 0.6328 11.43 78.8561)" style="opacity:0.43;clip-path:url(#SVGID_00000152257151725010393460000017321748642842650533_);fill:#FFFFFF;" width="9.25" height="0.74"/>
		</g>
		<g class="st24">
			<defs>
				<circle id="SVGID_00000062178568029133429560000013008655862370992786_" class="st24" cx="97.03" cy="27.52" r="3.12"/>
			</defs>
			<clipPath id="SVGID_00000026865770211846287650000003419557431553580456_">
				<use xlink:href="#SVGID_00000062178568029133429560000013008655862370992786_"  style="overflow:visible;"/>
			</clipPath>
			
				<circle style="opacity:0.43;clip-path:url(#SVGID_00000026865770211846287650000003419557431553580456_);fill:#FFFFFF;" cx="97.03" cy="27.52" r="3.12"/>
			
				<rect x="90.85" y="25.96" transform="matrix(0.6328 -0.7743 0.7743 0.6328 14.5618 83.6445)" style="opacity:0.43;clip-path:url(#SVGID_00000026865770211846287650000003419557431553580456_);fill:#FFFFFF;" width="9.25" height="1.02"/>
			
				<rect x="92.03" y="27.12" transform="matrix(0.6328 -0.7743 0.7743 0.6328 14.2067 84.9346)" style="opacity:0.43;clip-path:url(#SVGID_00000026865770211846287650000003419557431553580456_);fill:#FFFFFF;" width="9.25" height="0.74"/>
		</g>
		<circle class="st27" cx="89.22" cy="27.43" r="3.15"/>
		
			<rect x="92.41" y="26.79" transform="matrix(0.9999 0.0143 -0.0143 0.9999 0.4026 -1.3277)" class="st28" width="1.46" height="1.46"/>
		<path class="st28" d="M100.17,26.42l1.46,0.02l-0.01,0.94c0,0-0.94,0.3-1.26,0.92L100.17,26.42z"/>
		<path class="st28" d="M86.24,26.22l-1.14-0.02l-0.01,0.94c0,0,0.73,0.32,0.97,0.95L86.24,26.22z"/>
		<polygon class="st9" points="101.62,26.44 104.13,25.78 103.91,26.47 101.61,27.38 		"/>
		
			<ellipse transform="matrix(0.9895 -0.1442 0.1442 0.9895 -2.941 14.2884)" class="st27" cx="97.1" cy="27.43" rx="3.15" ry="3.15"/>
	</g>
</g>
</svg>
