<?xml version="1.0" encoding="utf-8"?>
<!-- Generator: Adobe Illustrator 28.0.0, SVG Export Plug-In . SVG Version: 6.00 Build 0)  -->
<svg version="1.1" id="Layer_1" xmlns="http://www.w3.org/2000/svg" xmlns:xlink="http://www.w3.org/1999/xlink" x="0px" y="0px"
	 viewBox="0 0 200 200" style="enable-background:new 0 0 200 200;" xml:space="preserve">
<style type="text/css">
	.st0{fill:#EDBB29;}
	.st1{fill:#2A2B2A;}
	.st2{fill:#3E413A;}
	.st3{fill:#D6E3DD;}
	.st4{fill:#C7C6C5;stroke:#3E413A;stroke-width:0.1;stroke-miterlimit:10;}
	.st5{fill:#E69E24;}
	.st6{fill:#F39320;}
	.st7{fill:#E18026;}
	.st8{fill:#F7D878;}
	.st9{fill:#131313;}
	.st10{fill:#E0E9EE;}
	.st11{fill:none;stroke:#E18026;stroke-miterlimit:10;}
	.st12{fill:#444544;}
	.st13{opacity:0.57;clip-path:url(#XMLID_00000148648459016752228220000004322249678704948878_);}
	.st14{fill:#FFFFFF;}
	.st15{opacity:0.56;clip-path:url(#XMLID_00000183235037165268806860000007445645384753633671_);}
</style>
<g id="XMLID_145_">
	<path id="XMLID_662_" class="st0" d="M193.09,114.52c0,0-0.06,0.94-0.22,2.27c-0.38,3.13-1.33,8.46-3.46,8.97
		c0,0-4.41,0.96-5.26,0.44c0,0,0.35-14.89-11.85-18.71c-7.22-2.26-21.25-2.35-23.33,19.31c0,0-82.49-1.99-88.06-1.08
		c0,0-2.17-0.39-1.72-3.77c0,0,0.04-0.73-0.04-1.9c-0.28-4.52-2.22-15.72-14.27-18.28c0,0-17.27-3.97-20.94,15.44
		c-0.17,0.91-0.31,1.87-0.41,2.89c-0.12,1.01-0.19,2.07-0.23,3.19c0,0-6.63,1.54-9.36-0.7c0,0-6.85,0.04-6.98-0.32l-0.28-1.91
		c0,0,0.07-0.08,0.18-0.22c0.61-0.75,2.45-3.18,0.86-3.37c0,0-1.27-5.66-0.43-11.73c0.92-6.6,4.34-13.67,14.61-14.48
		c0,0,24.78-5.01,31.56-8.48c12.34-6.32,33.24-19.53,63.89-17.81c13.24,0.74,35.08,0.47,52.77,5.22c0,0,0.82,1.06,1.19,2.53
		c0,0,12.25,12.96,12.96,13.61c0.59,0.55,1.17,1.09,1.71,1.63c0.85,0.84,1.62,1.69,2.26,2.58c2.05,2.83,2.82,6.11,0.67,11.06
		C188.92,100.88,194.46,110.07,193.09,114.52z"/>
	<g id="XMLID_141_">
		<g id="XMLID_139_">
			<g>
				<path id="XMLID_00000140714331275806912260000006935195545190205874_" class="st1" d="M27.54,124.05l-4.24-0.78
					c0,0-1.62-21.63,17.82-21.99c7.39-0.14,19.88,4.81,18.14,23.37c0,0-1.65,3.15-5.02,3.65c0,0,9.61-16.64-8.93-23.04
					C38.77,103.01,25.86,107.86,27.54,124.05z"/>
				<path id="XMLID_00000158725010114951142150000004554926758585531019_" class="st1" d="M151.61,126.57l-2.73,0.14
					c0,0-1.48-19.36,17.08-20.78c7.37-0.57,19.67,5.62,18.18,20.26c0,0-0.27-1.47-2.49-0.77c0,0,0.11-10.26-10.87-14.71
					C164.38,108.12,151.89,110.61,151.61,126.57z"/>
			</g>
		</g>
		<g id="XMLID_22_">
			<g id="XMLID_585_">
				
					<ellipse id="XMLID_610_" transform="matrix(0.0465 -0.9989 0.9989 0.0465 -79.2833 155.7311)" class="st2" cx="41.93" cy="119.39" rx="14.95" ry="15.44"/>
				<path id="XMLID_607_" class="st3" d="M52.53,120.21c-0.28,6.07-5.5,10.76-11.64,10.47c-6.15-0.29-10.9-5.44-10.62-11.51
					c0.28-6.07,5.5-10.76,11.64-10.47C48.06,108.98,52.81,114.14,52.53,120.21z"/>
				<path id="XMLID_604_" class="st2" d="M49.22,119.75c-0.2,4.26-3.79,7.56-8.01,7.36c-4.23-0.2-7.49-3.81-7.3-8.08
					c0.2-4.26,3.79-7.56,8.01-7.36S49.42,115.49,49.22,119.75z"/>
				<path id="XMLID_603_" class="st3" d="M50.96,121.6l0.32-2.92l-6.02-0.31c-0.03-0.11-0.07-0.22-0.11-0.32l4.71-3.5l-1.83-2.3
					l-4.46,3.97c-0.1-0.06-0.2-0.11-0.3-0.16l0.94-5.94l-2.92-0.3l-0.41,5.91c-0.15,0.03-0.3,0.06-0.45,0.11l-3.68-4.77l-2.22,1.92
					l3.92,4.24c-0.18,0.25-0.34,0.53-0.45,0.82l-5.93-0.52l-0.09,2.94l5.94,0c0.03,0.09,0.06,0.19,0.1,0.28l-4.7,3.89l2,2.15
					l4.28-4.23c0.16,0.09,0.33,0.17,0.5,0.25l-1.25,5.88l2.89,0.52l0.81-6.21c0.11-0.03,0.22-0.06,0.33-0.1l-0.07,0.05l3.47,5.02
					l2.36-1.75l-3.9-4.7c0.16-0.23,0.3-0.47,0.41-0.74L50.96,121.6z"/>
				<g id="XMLID_586_">
					<path id="XMLID_599_" class="st4" d="M40.87,117.42c-0.02,0.46-0.41,0.82-0.87,0.8c-0.46-0.02-0.82-0.41-0.8-0.87
						c0.02-0.46,0.41-0.82,0.87-0.8C40.53,116.56,40.89,116.95,40.87,117.42z"/>
					<path id="XMLID_595_" class="st4" d="M44.45,117.98c-0.02,0.46-0.41,0.82-0.87,0.8c-0.46-0.02-0.82-0.41-0.8-0.87
						c0.02-0.46,0.41-0.82,0.87-0.8C44.11,117.13,44.47,117.52,44.45,117.98z"/>
					<path id="XMLID_591_" class="st4" d="M43.81,121.52c-0.02,0.46-0.41,0.82-0.87,0.8c-0.46-0.02-0.82-0.41-0.8-0.87
						c0.02-0.46,0.41-0.82,0.87-0.8C43.47,120.67,43.83,121.06,43.81,121.52z"/>
					<path id="XMLID_587_" class="st4" d="M40.2,120.95c-0.02,0.46-0.41,0.82-0.87,0.8c-0.46-0.02-0.82-0.41-0.8-0.87
						c0.02-0.46,0.41-0.82,0.87-0.8C39.86,120.1,40.22,120.49,40.2,120.95z"/>
				</g>
			</g>
			<g id="XMLID_373_">
				<path id="XMLID_398_" class="st2" d="M182.21,124.46c-0.38,8.25-7.6,14.62-16.12,14.22c-8.52-0.4-15.11-7.4-14.73-15.65
					c0.38-8.25,7.6-14.62,16.12-14.22C176,109.2,182.59,116.21,182.21,124.46z"/>
				<path id="XMLID_395_" class="st3" d="M177.39,124.56c-0.28,6.07-5.5,10.76-11.64,10.47c-6.15-0.29-10.9-5.44-10.62-11.51
					c0.28-6.07,5.5-10.76,11.64-10.47C172.91,113.33,177.67,118.49,177.39,124.56z"/>
				<path id="XMLID_392_" class="st2" d="M174.08,124.1c-0.2,4.26-3.79,7.56-8.01,7.36c-4.23-0.2-7.49-3.81-7.3-8.08
					c0.2-4.26,3.79-7.56,8.01-7.36C171.01,116.22,174.28,119.84,174.08,124.1z"/>
				<path id="XMLID_391_" class="st3" d="M175.82,125.95l0.32-2.92l-6.02-0.31c-0.03-0.11-0.07-0.22-0.11-0.32l4.71-3.5l-1.83-2.3
					l-4.46,3.97c-0.1-0.06-0.2-0.11-0.3-0.16l0.94-5.94l-2.92-0.3l-0.41,5.91c-0.15,0.03-0.3,0.06-0.45,0.11l-3.68-4.77l-2.22,1.92
					l3.92,4.24c-0.18,0.25-0.34,0.53-0.45,0.82l-5.93-0.52l-0.09,2.94l5.94,0c0.03,0.09,0.06,0.19,0.1,0.28l-4.7,3.89l2,2.15
					l4.28-4.23c0.16,0.09,0.33,0.17,0.5,0.25l-1.25,5.88l2.89,0.52l0.81-6.21c0.11-0.03,0.22-0.06,0.33-0.1l-0.07,0.05l3.47,5.02
					l2.36-1.75l-3.9-4.7c0.16-0.23,0.3-0.47,0.41-0.74L175.82,125.95z"/>
				<g id="XMLID_374_">
					<path id="XMLID_387_" class="st4" d="M165.73,121.77c-0.02,0.46-0.41,0.82-0.87,0.8c-0.46-0.02-0.82-0.41-0.8-0.87
						c0.02-0.46,0.41-0.82,0.87-0.8C165.39,120.91,165.75,121.3,165.73,121.77z"/>
					<path id="XMLID_383_" class="st4" d="M169.3,122.33c-0.02,0.46-0.41,0.82-0.87,0.8c-0.46-0.02-0.82-0.41-0.8-0.87
						c0.02-0.46,0.41-0.82,0.87-0.8C168.97,121.48,169.33,121.87,169.3,122.33z"/>
					<path id="XMLID_379_" class="st4" d="M168.67,125.87c-0.02,0.46-0.41,0.82-0.87,0.8c-0.46-0.02-0.82-0.41-0.8-0.87
						c0.02-0.46,0.41-0.82,0.87-0.8C168.33,125.02,168.69,125.41,168.67,125.87z"/>
					<path id="XMLID_375_" class="st4" d="M165.05,125.3c-0.02,0.46-0.41,0.82-0.87,0.8c-0.46-0.02-0.82-0.41-0.8-0.87
						c0.02-0.46,0.41-0.82,0.87-0.8C164.72,124.45,165.07,124.84,165.05,125.3z"/>
				</g>
			</g>
		</g>
	</g>
	<g id="XMLID_143_">
		<path id="XMLID_659_" class="st5" d="M185.99,87.24c-0.01,0-0.02,0-0.04,0c-1.85,0.21-8.57-1.46-8.57-1.46
			c-3.77-0.12-8.27-0.15-13.3-0.11C135.98,85.91,91.11,88.35,62,90.1c-16.83,1.02-28.4,1.81-28.4,1.81
			c-8.44,6.02-26.24,13.15-26.24,13.15l-0.06-0.03c0.92-6.6,4.34-13.67,14.61-14.48c0,0,4.31-0.87,9.83-2.14
			c7.71-1.77,17.77-4.32,21.73-6.34c12.34-6.32,33.24-19.53,63.89-17.81c13.24,0.74,35.08,0.47,52.77,5.22c0,0,0.82,1.06,1.19,2.53
			c0,0,0,0,0.01,0.01c0.31,0.32,10.73,11.35,12.67,13.32c0.14,0.15,0.23,0.24,0.28,0.28C184.88,86.16,185.45,86.7,185.99,87.24z"/>
		<path id="XMLID_653_" class="st6" d="M113.83,93.28c-0.06,1.24-2.71,2.13-5.92,1.98c-3.21-0.15-5.77-1.28-5.71-2.52
			c0.06-1.24,2.71-2.13,5.92-1.98C111.33,90.91,113.89,92.04,113.83,93.28z"/>
		<path id="XMLID_650_" class="st6" d="M159.95,91.16c-0.06,1.24-2.71,2.13-5.92,1.98c-3.21-0.15-5.77-1.28-5.71-2.52
			c0.06-1.24,2.71-2.13,5.92-1.98C157.45,88.78,160.01,89.91,159.95,91.16z"/>
		<path id="XMLID_647_" class="st6" d="M177.43,97.48c-0.1,2.06-1.84,3.65-3.9,3.56c-2.06-0.1-3.65-1.84-3.56-3.9
			c0.1-2.06,1.84-3.65,3.9-3.56C175.93,93.67,177.52,95.42,177.43,97.48z"/>
		<path id="XMLID_641_" class="st0" d="M63.17,80.27c0,0-17.9,9.17-10.44,9.52L62,90.1C62,90.1,61.61,84.57,63.17,80.27z"/>
		<path id="XMLID_635_" class="st3" d="M188.92,100.88c-3.12,0.25-12.78-9.14-12.78-9.14c-3.66-4.83,11.74-1.98,11.74-1.98
			l0.37,0.06C190.3,92.65,191.07,95.93,188.92,100.88z"/>
		<path id="XMLID_626_" class="st3" d="M80,73.09c4.52-1.58,23.69-7.87,36.32-5.88c0.41,0.06,0.67,0.47,0.58,0.87
			c-0.68,2.84-3.14,13.08-4.54,17.43c-0.25,0.78-0.96,1.32-1.78,1.37l-32.45,1.76l-1.9-5.14l2.45-9.1
			C78.9,73.79,79.38,73.3,80,73.09z"/>
		<path id="XMLID_13_" class="st3" d="M80,73.09c4.52-1.58,23.69-7.87,36.32-5.88c0.41,0.06,0.67,0.47,0.58,0.87
			c-0.68,2.84-3.14,13.08-4.54,17.43c-0.25,0.78-0.96,1.32-1.78,1.37l-32.45,1.76l-1.9-5.14l2.45-9.1
			C78.9,73.79,79.38,73.3,80,73.09z"/>
		<path id="XMLID_196_" class="st3" d="M80,73.09c4.52-1.58,23.69-7.87,36.32-5.88c0.41,0.06,0.67,0.47,0.58,0.87
			c-0.68,2.84-3.14,13.08-4.54,17.43c-0.25,0.78-0.96,1.32-1.78,1.37l-32.45,1.76l-1.9-5.14l2.45-9.1
			C78.9,73.79,79.38,73.3,80,73.09z"/>
		<path id="XMLID_199_" class="st3" d="M80,73.09c4.52-1.58,23.69-7.87,36.32-5.88c0.41,0.06,0.67,0.47,0.58,0.87
			c-0.68,2.84-3.14,13.08-4.54,17.43c-0.25,0.78-0.96,1.32-1.78,1.37l-32.45,1.76l-1.9-5.14l2.45-9.1
			C78.9,73.79,79.38,73.3,80,73.09z"/>
		<path id="XMLID_620_" class="st6" d="M23.53,120.09c-0.12,1.01-0.19,2.07-0.23,3.19c0,0-6.63,1.54-9.36-0.7
			c0,0-6.85,0.04-6.98-0.32l-0.28-1.91c0,0,14.19,0.23,16.54-0.24C23.33,120.07,23.44,120.07,23.53,120.09z"/>
		<path id="XMLID_617_" class="st6" d="M13.47,118.55c0,0-4.56,1.91-6.6,1.57c0.61-0.75,2.45-3.18,0.86-3.37
			c0,0,1.94-10.47,6.34-11.14C14.07,105.61,17.02,118.42,13.47,118.55z"/>
		<path id="XMLID_614_" class="st7" d="M13.47,118.55c-0.84-2.81,0.6-12.93,0.6-12.93S17.02,118.42,13.47,118.55z"/>
		<path id="XMLID_574_" class="st5" d="M150.41,110.54c-1.94-0.09-2.92-4.21-2.92-4.21c0.39-4.06-3.7-3.32-5.26-3.74
			c-25.12-6.8-69.82-0.42-79.27-0.27c-0.78,0.01-7.42,2.55-7.41,2.69c-4.22-5.04-11.01-6.47-15.28-6.19
			c-18.27,1.21-16.49,18.27-16.49,18.27s0.06,0.04,0.16,0.11c3.66-19.42,20.94-15.44,20.94-15.44c9.9,2.11,14.61,10.56,14.27,18.28
			c0.04-0.3,8.61,1.41,9.54,1.22l45.96,1.19l25.18,0.66c0,0,4.08,0.85,6.35-4.69c0.11-0.26,0.21-0.53,0.31-0.82
			c0,0,1.77-3.21,4.18-6.27C150.68,110.83,150.6,110.55,150.41,110.54z"/>
		<path id="XMLID_571_" class="st8" d="M69.09,118.95c0,0,36.47-7.48,65.21-2.36L69.09,118.95z"/>
		<path id="XMLID_568_" class="st0" d="M18.76,100.08c0,0,13.39,7.35,34.26-11.3L33.6,91.91C33.6,91.91,25.31,97.03,18.76,100.08z"
			/>
		<path id="XMLID_565_" class="st6" d="M184.01,85.33c-0.17-0.07-0.35-0.15-0.54-0.24c-9.33-4.45-12.05-12.82-12.13-13.08
			C171.64,72.33,182.07,83.36,184.01,85.33z"/>
		<path id="XMLID_493_" class="st9" d="M153.96,66.53c0,0,2.67-2.16,3.13,0.58L153.96,66.53z"/>
		
			<rect id="XMLID_492_" x="158.12" y="60.77" transform="matrix(0.7968 0.6042 -0.6042 0.7968 70.7 -82.6552)" class="st9" width="0.27" height="6.06"/>
		<path id="XMLID_407_" class="st6" d="M192.88,116.79c-0.38,3.13-1.33,8.46-3.46,8.97c0,0-4.41,0.96-5.26,0.44
			c0,0,0.35-14.89-11.85-18.71c-7.22-2.26-21.25-2.35-23.33,19.31c0,0-82.49-1.99-88.06-1.08c0,0-2.17-0.39-1.72-3.77
			c0,0,0.03-0.97-0.05-2.14c0,0,74.31-7.29,87.03-1.38c0,0,7.21-17.64,25.08-13.51c0,0,7.08,1.2,11.72,7.83c0,0,6.15,5.53,9.71,4.09
			C192.76,116.8,192.82,116.79,192.88,116.79z"/>
		<path id="XMLID_363_" class="st8" d="M34.87,90.04c0,0,18.7-3.73,23.67-7.29c0,0-11.98,7.04-5.86,6.62
			c34.1-2.32,111.57-3.95,111.57-3.77c0.19,4.05-130.96,6.34-130.96,6.34S35.33,91.36,34.87,90.04z"/>
		<path id="XMLID_638_" class="st7" d="M170.14,69.47c0,0-5.02,0.8-6.3,1.77c-0.33,0.25-0.77,0.33-1.17,0.21
			c-2.78-0.83-11.78-3.38-21.16-4.42C141.51,67.02,157.23,67.22,170.14,69.47z"/>
		<path id="XMLID_310_" class="st10" d="M33.59,91.91l-0.18,0.18c-0.07,0.08-0.14,0.14-0.21,0.21c-8.06,7.91-19.85,7.09-19.85,7.09
			s-0.11-3.8,3.42-6.64c1.01-0.82,2.3-1.55,3.98-2.09c0.31-0.11,0.63-0.2,0.95-0.28c0,0,4.52-0.71,10.05-1.98l0.07,0.03
			C31.82,88.43,37.58,89.96,33.59,91.91z"/>
		<path id="XMLID_401_" class="st7" d="M146.18,118.42c-2.27,5.55-6.35,4.69-6.35,4.69l-25.18-0.66l-45.96-1.19
			c-0.93,0.18-1.71,0.23-2.37,0.18l-2.5-2.04c0,0,65.9-7.02,81.95-1.1C145.91,118.34,146.05,118.38,146.18,118.42z"/>
		<path id="XMLID_656_" class="st11" d="M156.04,106.39c-1.85,0.91-3.76,2.89-5.37,4.94c-2.41,3.06-4.18,6.27-4.18,6.27
			c-0.1,0.29-0.2,0.57-0.31,0.82c-2.27,5.55-6.35,4.69-6.35,4.69l-25.18-0.66l-45.96-1.19c-0.93,0.18-1.71,0.23-2.37,0.18
			c-3.99-0.32-3.26-4.37-3.26-4.37c-1.8-4.31-2.39-9.27-2.42-13.75c-0.05-7.25,1.34-13.24,1.34-13.24
			c5.69-1.03,30.93-2.17,54.89-3.05c24.29-0.89,47.27-1.52,47.27-1.52C166.71,99.31,156.04,106.39,156.04,106.39z"/>
		<path id="XMLID_404_" class="st11" d="M116.73,87.23c0,0-4.69,28.76-2.2,34.85"/>
	</g>
	<g id="XMLID_137_">
		<path id="XMLID_644_" class="st12" d="M164.15,85.5c0,0.05-0.02,0.11-0.05,0.17c-13.12,0.11-29.89,0.7-47.01,1.47
			C97.53,88.04,77.52,89.17,62,90.1l-0.01-0.03c0,0-0.31-10.43,3.4-12.15c0,0,25.4-14.4,56.43-12.3c10.19,0.69,39.25,1.68,40.14,7.5
			C161.96,73.12,164.2,83.32,164.15,85.5z"/>
		<path id="XMLID_629_" class="st3" d="M125.55,68.87c-0.81,4.18-3.27,16.89-3.25,17.74l30.91-0.7c0,0,6.15-7.84,4.84-13.3
			c-0.16-0.67-20.42-4.8-30.86-5.06C126.39,67.54,125.7,68.09,125.55,68.87z"/>
		<path id="XMLID_623_" class="st3" d="M66.9,79.38c1.97-1.61,6.72-3.5,9.18-4.39c0.38-0.14,0.77,0.19,0.69,0.59
			c-0.4,2.16-1.56,8.06-2.13,8.43c0,0-6.19,1.65-8.55,0.18C66.09,84.19,65.5,80.52,66.9,79.38z"/>
		<path id="XMLID_372_" class="st1" d="M75.18,80.83c0,0,2.4,4.68,0.08,6.61c0,0-6.74,0.85-6.82-3.72
			C68.45,83.72,68.93,79.66,75.18,80.83z"/>
		<g id="XMLID_219_">
			<defs>
				<path id="XMLID_215_" d="M125.55,68.87c-0.81,4.18-3.27,16.89-3.25,17.74l30.91-0.7c0,0,6.15-7.84,4.84-13.3
					c-0.16-0.67-20.42-4.8-30.86-5.06C126.39,67.54,125.7,68.09,125.55,68.87z"/>
			</defs>
			<clipPath id="XMLID_00000040562495302152587980000001058091997490438070_">
				<use xlink:href="#XMLID_215_"  style="overflow:visible;"/>
			</clipPath>
			<g id="XMLID_18_" style="opacity:0.57;clip-path:url(#XMLID_00000040562495302152587980000001058091997490438070_);">
				
					<rect id="XMLID_23_" x="135.76" y="60.22" transform="matrix(0.7458 0.6662 -0.6662 0.7458 85.7109 -72.0413)" class="st14" width="2.99" height="32.13"/>
				
					<rect id="XMLID_20_" x="141.29" y="63.33" transform="matrix(0.7458 0.6662 -0.6662 0.7458 89.6519 -76.1611)" class="st14" width="6.67" height="32.13"/>
			</g>
		</g>
		<path id="XMLID_205_" class="st3" d="M80,73.09c4.52-1.58,23.69-7.87,36.32-5.88c0.41,0.06,0.67,0.47,0.58,0.87
			c-0.68,2.84-3.14,13.08-4.54,17.43c-0.25,0.78-0.96,1.32-1.78,1.37l-32.45,1.76l-1.9-5.14l2.45-9.1
			C78.9,73.79,79.38,73.3,80,73.09z"/>
		<g id="XMLID_217_">
			<defs>
				<path id="XMLID_214_" d="M80,73.09c4.52-1.58,23.69-7.87,36.32-5.88c0.41,0.06,0.67,0.47,0.58,0.87
					c-0.68,2.84-3.14,13.08-4.54,17.43c-0.25,0.78-0.96,1.32-1.78,1.37l-32.45,1.76l-1.9-5.14l2.45-9.1
					C78.9,73.79,79.38,73.3,80,73.09z"/>
			</defs>
			<clipPath id="XMLID_00000053547113353013412870000010533749009535323319_">
				<use xlink:href="#XMLID_214_"  style="overflow:visible;"/>
			</clipPath>
			<g id="XMLID_190_" style="opacity:0.56;clip-path:url(#XMLID_00000053547113353013412870000010533749009535323319_);">
				
					<rect id="XMLID_192_" x="92.09" y="58.47" transform="matrix(0.78 0.6258 -0.6258 0.78 69.3622 -41.3123)" class="st14" width="2.68" height="39.03"/>
				
					<rect id="XMLID_191_" x="98.09" y="60.67" transform="matrix(0.78 0.6258 -0.6258 0.78 72.9115 -47.0134)" class="st14" width="10.46" height="39.03"/>
			</g>
		</g>
	</g>
</g>
</svg>
