<svg id="Group_6289" data-name="Group 6289" xmlns="http://www.w3.org/2000/svg" xmlns:xlink="http://www.w3.org/1999/xlink" width="35.592" height="35.592" viewBox="0 0 35.592 35.592">
  <defs>
    <clipPath id="clip-path">
      <rect id="Rectangle_3086" data-name="Rectangle 3086" width="35.592" height="35.592" fill="none"/>
    </clipPath>
  </defs>
  <g id="Group_6288" data-name="Group 6288" transform="translate(0 0)" clip-path="url(#clip-path)">
    <path id="Path_1905" data-name="Path 1905" d="M35.592,17.8A17.8,17.8,0,1,1,17.8,0a17.8,17.8,0,0,1,17.8,17.8" transform="translate(0 0.001)" fill="#1e4fad"/>
    <path id="Path_1906" data-name="Path 1906" d="M16.608,8.848c.646-.022,1.294,0,1.942-.006h.268V5.475c-.346-.035-.708-.085-1.07-.1-.664-.03-1.329-.063-1.993-.048a4.875,4.875,0,0,0-2.815.87,4.2,4.2,0,0,0-1.69,2.81,9.689,9.689,0,0,0-.117,1.445c-.019.756,0,1.51,0,2.266V13H7.909v3.76h3.2v9.453h3.913V16.778h3.193c.164-1.251.322-2.489.491-3.779h-.717C17.084,13,15,13,15,13s.01-1.863.032-2.672c.032-1.109.688-1.447,1.576-1.479" transform="translate(3.478 2.341)" fill="#fff" fill-rule="evenodd"/>
  </g>
</svg>
