<svg xmlns="http://www.w3.org/2000/svg" xmlns:xlink="http://www.w3.org/1999/xlink" width="30.239" height="30.259" viewBox="0 0 30.239 30.259">
  <defs>
    <clipPath id="clip-path">
      <path id="Path_1768" data-name="Path 1768" d="M122.32,418.314a15.118,15.118,0,0,0,12.774,14.948V422.688h-3.836v-4.37h3.836v-3.329a5.331,5.331,0,0,1,4.732-5.87,5.274,5.274,0,0,1,.976-.014,22.376,22.376,0,0,1,3.382.3v3.721h-1.905A2.184,2.184,0,0,0,139.83,415a1.989,1.989,0,0,0,0,.481v2.833h4.2l-.682,4.372H139.82v10.571a15.119,15.119,0,1,0-17.5-14.944" transform="translate(-122.32 -403.208)" fill="#fff"/>
    </clipPath>
    <linearGradient id="linear-gradient" x1="0.5" x2="0.5" y2="1" gradientUnits="objectBoundingBox">
      <stop offset="0" stop-color="#00a948"/>
      <stop offset="1" stop-color="#005524"/>
    </linearGradient>
  </defs>
  <g id="Group_5905" data-name="Group 5905" transform="translate(-60.26 -481.837)">
    <g id="Group_5904" data-name="Group 5904" transform="translate(60.26 481.837)" clip-path="url(#clip-path)">
      <rect id="Rectangle_2778" data-name="Rectangle 2778" width="31.369" height="30.062" transform="translate(-0.006 -0.008)" fill="#fff"/>
    </g>
    <path id="Path_1660" data-name="Path 1660" d="M138.994,419.841l.672-4.374h-4.191v-2.835a2.182,2.182,0,0,1,1.979-2.361,2.092,2.092,0,0,1,.481.01h1.9v-3.729a22.861,22.861,0,0,0-3.382-.3,5.334,5.334,0,0,0-5.724,4.909,5.422,5.422,0,0,0,.016.974v3.331H126.9v4.374h3.836V430.41a15.077,15.077,0,0,0,4.717,0V419.841Z" transform="translate(-57.714 81.501)" fill="url(#linear-gradient)"/>
  </g>
</svg>
