<svg id="Group_6293" data-name="Group 6293" xmlns="http://www.w3.org/2000/svg" width="35.267" height="35.987" viewBox="0 0 35.267 35.987">
  <g id="Group_6294" data-name="Group 6294" transform="translate(0 0)">
    <path id="Path_1910" data-name="Path 1910" d="M254.2,199.44a15.413,15.413,0,0,0-.38-3.679H236.924v6.678h9.916a8.794,8.794,0,0,1-3.679,5.838l-.034.224,5.342,4.138.37.037A17.594,17.594,0,0,0,254.2,199.44" transform="translate(-218.93 -181.046)" fill="#4285f4"/>
    <path id="Path_1911" data-name="Path 1911" d="M71.166,287.543a17.15,17.15,0,0,0,11.915-4.359l-5.678-4.4a10.648,10.648,0,0,1-6.237,1.8,10.832,10.832,0,0,1-10.236-7.477l-.211.018-5.554,4.3-.073.2a17.981,17.981,0,0,0,16.074,9.917" transform="translate(-53.173 -251.556)" fill="#34a853"/>
    <path id="Path_1912" data-name="Path 1912" d="M41.138,152.215a11.077,11.077,0,0,1-.6-3.559,11.641,11.641,0,0,1,.58-3.559l-.01-.238-5.624-4.367-.184.088a17.956,17.956,0,0,0,0,16.154Z" transform="translate(-33.381 -130.662)" fill="#fbbc05"/>
    <path id="Path_1913" data-name="Path 1913" d="M71.166,36.266a9.972,9.972,0,0,1,6.957,2.679L83.2,33.986a17.288,17.288,0,0,0-12.035-4.678,17.98,17.98,0,0,0-16.074,9.916l5.818,4.518a10.877,10.877,0,0,1,10.256-7.477" transform="translate(-53.173 -29.308)" fill="#ea4335"/>
  </g>
</svg>
