<?xml version="1.0" encoding="utf-8"?>
<!-- Generator: Adobe Illustrator 28.0.0, SVG Export Plug-In . SVG Version: 6.00 Build 0)  -->
<svg version="1.1" id="Layer_1" xmlns="http://www.w3.org/2000/svg" xmlns:xlink="http://www.w3.org/1999/xlink" x="0px" y="0px"
	 viewBox="0 0 200 200" style="enable-background:new 0 0 200 200;" xml:space="preserve">
<style type="text/css">
	.st0{fill:#764622;}
	.st1{opacity:0.6;}
	.st2{fill:#FDCDA5;}
	.st3{fill:#F7C49D;}
	.st4{opacity:0.5;}
	.st5{fill:#F3BD92;}
	.st6{fill:#207D76;}
	.st7{fill:#72C9BD;}
	.st8{fill:#4C2D18;}
	.st9{fill:#FFF9F5;}
	.st10{fill:#DE9C70;}
	.st11{fill:#FFFFFF;}
	.st12{fill:#831618;}
	.st13{fill:#C7C2BE;}
	.st14{fill:#CB5927;}
	.st15{fill:#2B1A11;}
	.st16{opacity:0.7;}
	.st17{fill:#E5DAD1;}
	.st18{fill:#9A653A;}
	.st19{opacity:0.5;fill:#F3BD92;}
</style>
<g>
	<g>
		<path class="st0" d="M116.44,116.59c-17.76,5.48-28.1,1.11-28.1,1.11l0.26,2.65c0,0-4.57,4.82-7.21,11.1l1.63-0.05
			c0,0,7.42-0.97,14.91,6.26l6.29-11.97c0,0-1.76,7.02-2,9.37c0,0,0.97-1.44,6.47-1.13c5.5,0.31,10.9,3.3,10.9,3.3
			s1.53-5.79,1.98-12.9C117.14,122.39,116.46,118.61,116.44,116.59z"/>
		<g class="st1">
			<polygon class="st0" points="82.68,132.18 83.01,131.4 81.38,131.45 			"/>
		</g>
		<path class="st2" d="M76.45,64.66c1.09,0.55,1.14,2.21,1.14,2.21s1.68-2.37,3.41-2.84c1.73-0.47,2.89,0.02,2.82,0.9
			c-0.07,0.88-0.8,1.11-0.8,1.11c1.14-0.07,1.24,0.43,1.24,0.43c3.48,0.1,3.01,2.04,3.01,2.04s0.76,0.17,0.64,1.25
			c-0.15,1.31-2.4,0.68-2.87,1.02c-0.47,0.35-1.07,1.47-1.07,1.47c7.84,3.48,16.02,2.48,22.79-0.86c7.29-3.61,9.65-11.59,9.65-11.59
			c1.78,3.6,6.4,0.1,6.16-4.12c-0.24-4.22-4.15-4.81-5.33-1.21c-1.18,3.6-2.87,3.82-2.87,3.82c1.09-4.93-1.35-10.92-1.35-10.92
			c-2.54-0.49-1.7-6.01-1.7-6.01s-1.18,5.44-2.79,4.61c-1.83-0.95,0.47-9.05,0.47-9.05c-2.41-1.58-2.88-5.6-2.88-5.6
			s0.49,5.86-1.14,5.66c-4.48-0.57-8.87-8.33-8.87-8.33s1.24,4.88-2.18,5.14c-3.42,0.26-5.16-4.02-5.16-4.02
			c-0.05,2.46-3.06,5.47-4.25,4.72c-1.19-0.75,0.86-4.57,0.86-4.57s-6.61,7.34-7.73,6.46c-1.11-0.88,1.45-4.28,1.45-4.28
			c-6.12,6.43-3.56,14.42-3.56,14.42s0.18,1.24,0.52,2.84c0.45,2.14,0.03,4.46-1.38,7.96c-1.42,3.49-1.14,6.29,0.35,8.54
			C74.67,64.82,75.37,64.11,76.45,64.66z"/>
		<path class="st3" d="M73.95,59.65c0.15-0.74,0.39-1.52,0.72-2.33c0.56-1.39,0.97-2.59,1.22-3.67c0,0-0.4-1.47-2.15-1.26
			c-1.75,0.21-3.1,2.44-2.53,5.14C71.79,60.22,73.95,59.65,73.95,59.65z"/>
		<g class="st4">
			<path class="st5" d="M104.64,66.72c-0.34-0.8-0.95-1.51-1.76-2.04c-2.09-1.36-5.53-1.57-9.24,0.63
				c-5.16,3.05-6.86,2.57-10.55,1.89c-1-0.19-1.67-0.49-1.98,0.98c-0.08,0.4-0.03,0.85,0.1,1.26c0.35,1.09,1.31,1.88,2.07,0.65
				c0.82-1.33,2.23-0.99,3.24-0.22c2.59,1.98,6.67,2.07,8.28,0.12c1.6-1.95,3.91-1.78,5.14-0.68c1.33,1.19,2.82,1.25,3.81,0.65
				C104.74,69.38,105.24,68.14,104.64,66.72z"/>
		</g>
		<polygon class="st6" points="120.71,68.73 120.22,69.42 121.11,69.18 		"/>
		<path class="st6" d="M118.92,77.13c0.31,5.45,1.73,7.29,2.65,7.06c0,0,1.41-2.04,1.13-8.4l-3.82,0.44
			C118.89,76.52,118.9,76.82,118.92,77.13z"/>
		<path class="st3" d="M97.39,80.61c3.45,0.21,4.56-4.17,3.7-6.63c-0.28,0.14-0.47,0.24-0.47,0.24l-0.15-0.54
			c-1.89,0.45-3.85,0.71-5.83,0.75l0.16,0.86l0.24,0.93C95.05,76.22,93.94,80.4,97.39,80.61z"/>
		<g>
			<path class="st7" d="M114.79,84.05c0,0,3.25,1.18,6.78,0.14c-0.93,0.23-2.34-1.61-2.65-7.06c-0.31-5.45,1.3-7.71,1.3-7.71
				l0.48-0.69c0,0-7.26,0.33-14.32,2.85l0,0c-0.81,0.39-1.64,0.74-2.49,1.06v0c-0.54,0.21-2.04,0.96-2.81,1.35
				c0.86,2.46-0.25,6.84-3.7,6.63c-3.45-0.21-2.34-4.39-2.34-4.39l-0.24-0.93h-4.41c-2.39,0-3.95,1.01-4.77,1.74
				c0.01,0.03,0.02,0.05,0.03,0.07c1,2.73-2.29,3.41-2.29,3.41c0.13,5.5,0,13,0,13l1.84,0.89l1.18,0.38c0,0-1.59,12.92-1.54,21.27
				c0,0,0.83,1.04,3.48,1.66c0,0,12.24,5.19,33-2.8c0,0,1.49-0.76,1.9-1.25C123.65,113.17,121.99,97.05,114.79,84.05z"/>
			<g>
				<path class="st6" d="M86.45,94.2l-0.05,0.57c0,0-0.32,2.63-0.67,6.27c4.62,1.03,19.63,3.4,34.1-5.07
					c-0.55-1.71-1.18-3.5-1.91-5.31C104.71,96.38,90.29,94.78,86.45,94.2z"/>
				<path class="st6" d="M103.34,114.38c9.63-0.99,16.15-4.47,19.35-6.6c-0.29-1.72-0.68-3.74-1.22-5.94
					c-2.21,2-7.93,5.98-19.27,6.83c-9.68,0.72-14.65-0.55-16.99-1.58c-0.13,1.86-0.24,3.75-0.3,5.56
					C87.92,113.8,93.96,115.34,103.34,114.38z"/>
				<path class="st6" d="M111.66,82.27c-8.84,3.5-19.4,2.17-23.59,1.41c-0.33,1.56-0.61,3.06-0.83,4.43
					c4.2,1.01,16.6,3.17,28.23-2.82l-0.67-1.24C114.79,84.05,113.25,83.57,111.66,82.27z"/>
				<path class="st6" d="M107.9,74.37c-2.33,1.09-4.54,1.82-6.59,2.29c-0.28,2.08-1.55,4.1-3.92,3.95c-2.24-0.13-2.56-1.95-2.51-3.2
					c-2.2,0.01-3.92-0.24-5.01-0.47c-0.37,1.09-0.71,2.21-1.01,3.34c2.9,0.81,9.95,2,20.15-1.43
					C108.22,77.06,107.93,75.57,107.9,74.37z"/>
				<polygon class="st6" points="74.57,89.48 76.78,91.21 77.51,85.99 				"/>
				<path class="st6" d="M83.38,93.5l1.84,0.89l1.18,0.38c0,0,0.17-2.17,0.63-5.31c-1.45-0.29-2.65-0.77-3.59-1.28
					C83.42,91.18,83.38,93.5,83.38,93.5z"/>
				<path class="st6" d="M85.2,79.58c-0.73,0.7-1.81,0.92-1.81,0.92c0.02,0.94,0.04,1.94,0.05,2.94c0.85,0.72,2.23,1.57,4.27,2.04
					c0.27-1.41,0.59-2.89,0.97-4.38C87.2,80.75,86.05,80.16,85.2,79.58z"/>
				<path class="st6" d="M116.89,69.11c-1.28,0.17-2.8,0.42-4.46,0.78c-1.02,2.44-2.81,8.3,0.75,13.42
					c0.93,0.52,1.61,0.74,1.61,0.74s1.3,0.47,3.15,0.55C113.14,77.97,115.54,71.65,116.89,69.11z"/>
			</g>
		</g>
		<g>
			<path class="st8" d="M97.92,137.66c-2.87-2.77-5.74-4.34-8.17-5.22c-0.42,0.91-0.78,1.91-0.78,1.91S94.87,137.28,97.92,137.66z"
				/>
			<g class="st1">
				<polygon class="st0" points="82.68,132.18 83.01,131.4 81.38,131.45 				"/>
			</g>
			<g class="st1">
				<path class="st0" d="M97.92,137.66c-2.87-2.77-5.74-4.34-8.17-5.22c-0.42,0.91-0.78,1.91-0.78,1.91S94.87,137.28,97.92,137.66z"
					/>
			</g>
			<path class="st8" d="M102.21,135.07c0,0,0.48,0.66,2.42,1.21l0.33-2.25C102.7,134.34,102.21,135.07,102.21,135.07z"/>
			<path class="st8" d="M119.57,137.24c0,0-3.28-1.82-7.33-2.77l-0.35,2.97C111.89,137.45,118.11,138.35,119.57,137.24z"/>
			<g class="st1">
				<path class="st0" d="M102.21,135.07c0,0,0.48,0.66,2.42,1.21l0.33-2.25C102.7,134.34,102.21,135.07,102.21,135.07z"/>
			</g>
			<g class="st1">
				<path class="st0" d="M119.57,137.24c0,0-3.28-1.82-7.33-2.77l-0.35,2.97C111.89,137.45,118.11,138.35,119.57,137.24z"/>
			</g>
			<path class="st8" d="M121.55,124.34c0.19-3.02,0.19-6.29-0.22-9.44c-1.69,0.65-3.32,1.21-4.89,1.69
				C116.46,118.61,117.14,122.39,121.55,124.34z"/>
			<g>
				<path class="st8" d="M100.34,123.75c0.15,0.1,0.31,0.2,0.47,0.29c0.15,0.09,0.32,0.17,0.47,0.26c0.16,0.08,0.32,0.16,0.48,0.24
					c0.16,0.08,0.33,0.15,0.49,0.22c0.32,0.15,0.66,0.27,0.99,0.4c0.33,0.13,0.68,0.22,1.02,0.35l0.18,0.07l-0.04,0.16
					c-0.1,0.36-0.21,0.72-0.33,1.07c-0.12,0.36-0.25,0.71-0.39,1.06c0.03-0.38,0.08-0.75,0.14-1.12c0.06-0.37,0.13-0.74,0.2-1.1
					l0.13,0.23c-0.18-0.05-0.36-0.1-0.53-0.15c-0.18-0.06-0.36-0.1-0.53-0.17l-0.51-0.21c-0.17-0.06-0.33-0.16-0.5-0.24
					c-0.16-0.09-0.33-0.17-0.48-0.28c-0.15-0.1-0.32-0.2-0.46-0.31C100.85,124.28,100.57,124.04,100.34,123.75z"/>
			</g>
		</g>
		<path class="st0" d="M115.87,159.66c-0.21-0.58-0.42-1.17-0.63-1.79c-2.26,1.11-4.86,0.82-6.49,0.45
			c0.29,0.75,0.61,1.53,0.95,2.31C111.39,160.82,113.85,160.81,115.87,159.66z"/>
		<path class="st3" d="M115.24,157.87c-2.14-6.28-4.12-14.19-3.35-20.42l0.35-2.97c-1.15-0.27-2.35-0.47-3.57-0.54
			c-1.59-0.09-2.79-0.03-3.71,0.09l-0.33,2.25c0,0-1.08,8.63,4.13,22.05C110.38,158.69,112.98,158.98,115.24,157.87z"/>
		<path class="st9" d="M119.39,171.35c0,0,1.08-1.06,1.18-1.69c0.1-0.62-1.06-1.19-1.06-1.19s-1.79-3.66-3.65-8.81
			c-2.01,1.16-4.47,1.16-6.17,0.98c1.31,3.08,2.94,6.38,4.99,9.87C114.69,170.5,116.74,168.91,119.39,171.35z"/>
		<g>
			<g>
				<path class="st10" d="M95.11,52.06c0,0-0.07-0.29,0.01-0.72c0.03-0.22,0.1-0.47,0.26-0.73c0.08-0.12,0.17-0.25,0.3-0.35
					c0.06-0.05,0.12-0.1,0.2-0.14c0.07-0.04,0.15-0.08,0.23-0.1c0.04-0.01,0.07-0.02,0.13-0.04l0.11-0.02
					c0.07-0.01,0.13-0.02,0.22-0.02c0.16-0.01,0.32,0.01,0.46,0.05c0.29,0.08,0.53,0.26,0.67,0.44c0.14,0.18,0.2,0.37,0.23,0.49
					c0.03,0.12,0.03,0.2,0.03,0.2s-0.03-0.06-0.1-0.17c-0.07-0.1-0.18-0.24-0.33-0.36c-0.08-0.06-0.16-0.12-0.26-0.16
					c-0.09-0.05-0.2-0.07-0.31-0.09c-0.11-0.02-0.23-0.01-0.34-0.01c-0.05,0-0.13,0.01-0.19,0.03l-0.1,0.02l-0.07,0.03
					c-0.06,0.01-0.11,0.03-0.16,0.06c-0.05,0.02-0.1,0.06-0.15,0.09c-0.09,0.07-0.18,0.15-0.25,0.24c-0.07,0.1-0.13,0.19-0.19,0.29
					c-0.05,0.1-0.1,0.2-0.14,0.29C95.19,51.78,95.11,52.06,95.11,52.06z"/>
			</g>
		</g>
		<g>
			<g>
				<path class="st11" d="M95.11,66.7c-2.66,1.3-5.43,2.28-8.09,1.61c-2.06-0.52-3.59-0.04-4.33,0.78c0.34,0.99,1.22,1.7,1.9,0.57
					c0.73-1.22,2.02-0.93,2.96-0.24c2.39,1.77,6.12,1.8,7.56,0c1.44-1.8,3.55-1.68,4.69-0.69c1.24,1.07,2.59,1.1,3.49,0.54
					C102.09,65.34,97.74,65.42,95.11,66.7z"/>
				<path class="st11" d="M102.42,64.45c-1.93-1.21-5.07-1.36-8.43,0.7c-4.67,2.85-6.22,2.44-9.6,1.87
					c-0.91-0.16-1.53-0.42-1.79,0.92c-0.07,0.37-0.02,0.78,0.11,1.15c0.74-0.82,2.27-1.3,4.33-0.78c2.66,0.67,5.42-0.31,8.09-1.61
					c1.85-0.9,4.55-1.2,6.4,0.07C102.19,66.2,102.38,65.25,102.42,64.45z"/>
				<path class="st12" d="M104.05,66.29c-0.32-0.73-0.89-1.36-1.64-1.84c-0.03,0.79-0.23,1.75-0.9,2.32
					c0.78,0.53,1.42,1.34,1.77,2.5C104.18,68.72,104.62,67.58,104.05,66.29z"/>
				<g>
					<path class="st13" d="M82.7,69.09c0,0,0.06-0.05,0.16-0.15c0.09-0.11,0.27-0.23,0.5-0.38c0.12-0.07,0.26-0.13,0.4-0.2
						c0.15-0.07,0.32-0.11,0.5-0.17c0.18-0.06,0.38-0.07,0.59-0.11c0.21-0.03,0.43-0.02,0.67-0.04c0.23,0,0.47,0.03,0.73,0.05
						c0.25,0.04,0.5,0.09,0.76,0.14c0.51,0.08,1.07,0.2,1.64,0.19c0.14,0,0.28,0.01,0.43,0.01c0.14-0.01,0.29-0.03,0.44-0.04
						c0.29-0.02,0.59-0.05,0.88-0.12c0.59-0.1,1.18-0.27,1.77-0.45c0.29-0.1,0.58-0.2,0.86-0.31c0.28-0.12,0.56-0.23,0.84-0.35
						c0.56-0.23,1.09-0.51,1.62-0.73c1.09-0.44,2.18-0.6,3.11-0.57c0.47,0.02,0.89,0.07,1.26,0.17c0.37,0.09,0.68,0.21,0.92,0.32
						c0.24,0.12,0.43,0.22,0.55,0.3c0.12,0.08,0.19,0.12,0.19,0.12s-0.07-0.04-0.19-0.11c-0.12-0.08-0.31-0.17-0.56-0.28
						c-0.25-0.1-0.56-0.2-0.93-0.27c-0.37-0.08-0.79-0.11-1.24-0.12c-0.91-0.01-1.99,0.19-3.04,0.62c-0.53,0.23-1.06,0.5-1.62,0.74
						c-0.28,0.12-0.56,0.24-0.85,0.36c-0.29,0.1-0.58,0.21-0.87,0.32c-0.59,0.18-1.19,0.35-1.8,0.45c-0.3,0.07-0.6,0.09-0.9,0.11
						c-0.15,0.01-0.3,0.02-0.45,0.04c-0.15,0-0.3-0.01-0.44-0.01c-0.6,0.01-1.13-0.13-1.66-0.22c-0.26-0.05-0.5-0.11-0.75-0.15
						c-0.24-0.02-0.48-0.06-0.71-0.07c-0.23,0.01-0.45-0.01-0.66,0.02c-0.2,0.03-0.41,0.04-0.59,0.09c-0.18,0.05-0.35,0.08-0.5,0.15
						c-0.15,0.07-0.29,0.12-0.41,0.18c-0.23,0.14-0.41,0.25-0.51,0.36C82.76,69.04,82.7,69.09,82.7,69.09z"/>
				</g>
			</g>
			<path class="st14" d="M94.72,42.48c0.73-0.13,1.01,1.58,4.93,2.23c1.3,0.22-0.16,1.4-2.7,0.73
				C94.4,44.76,94.22,42.56,94.72,42.48z"/>
			<path class="st14" d="M79.26,45.64c0.2,0.4,1.48,0.11,2.46-0.93c0.99-1.04,1.06-2.18,0.65-2.54c-0.42-0.36-0.65,1.19-1.74,2.18
				C79.54,45.33,79.05,45.22,79.26,45.64z"/>
			<g>
				<g>
					<path class="st10" d="M87.5,56.9c0,0,0.11,0.19,0.17,0.5c0.03,0.15,0.05,0.34,0.04,0.54c0,0.2-0.04,0.41-0.1,0.62
						c-0.04,0.1-0.07,0.21-0.13,0.3c-0.05,0.1-0.1,0.19-0.17,0.27c-0.06,0.09-0.13,0.16-0.2,0.22c-0.07,0.07-0.13,0.12-0.21,0.16
						c-0.14,0.09-0.26,0.14-0.35,0.16c-0.09,0.03-0.14,0.04-0.14,0.04s0.03-0.04,0.1-0.11c0.03-0.03,0.07-0.07,0.11-0.11
						c0.04-0.05,0.08-0.1,0.12-0.16c0.05-0.05,0.09-0.12,0.13-0.19c0.05-0.06,0.09-0.14,0.13-0.21c0.05-0.07,0.07-0.16,0.11-0.24
						c0.04-0.08,0.06-0.17,0.1-0.26c0.12-0.35,0.18-0.73,0.22-1.02C87.48,57.1,87.5,56.9,87.5,56.9z"/>
				</g>
				<g>
					<g>
						<path class="st10" d="M87.43,60.45c0,0-0.09-0.1-0.27-0.25c-0.18-0.15-0.46-0.35-0.82-0.48c-0.36-0.13-0.81-0.13-1.2,0.12
							c-0.05,0.03-0.1,0.06-0.14,0.1c-0.03,0.02-0.09,0.08-0.13,0.12c-0.06,0.07-0.13,0.16-0.17,0.26c-0.09,0.2-0.11,0.44-0.08,0.68
							c0.06,0.48,0.31,0.95,0.61,1.32c0.31,0.37,0.68,0.63,1.04,0.78c0.36,0.15,0.69,0.2,0.93,0.19c0.12,0,0.21,0,0.27-0.01
							c0.06-0.01,0.1-0.01,0.1-0.01c0-0.01-0.13,0.06-0.36,0.1c-0.24,0.04-0.6,0.07-1.01-0.05c-0.41-0.11-0.87-0.37-1.24-0.76
							c-0.37-0.39-0.67-0.92-0.75-1.51c-0.03-0.3,0-0.62,0.13-0.9c0.07-0.14,0.16-0.27,0.28-0.38c0.06-0.05,0.09-0.08,0.17-0.13
							c0.06-0.04,0.12-0.08,0.18-0.11c0.24-0.14,0.52-0.21,0.78-0.2c0.26,0,0.5,0.08,0.69,0.18c0.39,0.2,0.62,0.46,0.78,0.64
							C87.36,60.33,87.43,60.45,87.43,60.45z"/>
					</g>
				</g>
			</g>
			<g>
				<path class="st10" d="M82.32,51.78c0,0-0.11-0.21-0.3-0.47c-0.1-0.13-0.22-0.27-0.37-0.38c-0.15-0.11-0.31-0.2-0.5-0.23
					c-0.08-0.03-0.21-0.03-0.27-0.03c-0.1,0.02-0.23,0-0.31,0.03c-0.07,0.04-0.15,0.02-0.21,0.08c-0.07,0.04-0.14,0.08-0.19,0.13
					c-0.11,0.1-0.17,0.22-0.22,0.31c-0.04,0.09-0.06,0.15-0.06,0.15s-0.02-0.06-0.02-0.16c0.01-0.05,0-0.12,0.02-0.19
					c0.02-0.07,0.03-0.16,0.09-0.24c0.04-0.09,0.11-0.17,0.2-0.25c0.08-0.09,0.21-0.13,0.33-0.18c0.12-0.04,0.22-0.05,0.33-0.07
					l0.04-0.01c0.06-0.01,0.05,0,0.07,0l0.1,0c0.06,0,0.13,0.01,0.19,0.02c0.26,0.06,0.5,0.19,0.66,0.37
					c0.17,0.17,0.27,0.37,0.33,0.54C82.35,51.54,82.32,51.78,82.32,51.78z"/>
			</g>
			<g>
				<path class="st15" d="M82.41,53.89c-0.01,1.16-0.4,2.1-0.88,2.1c-0.48,0-0.86-0.95-0.86-2.11c0.01-1.16,0.4-2.1,0.88-2.1
					C82.03,51.79,82.42,52.73,82.41,53.89z"/>
				<path class="st11" d="M82.26,53.35c0,0.57-0.2,1.03-0.43,1.02c-0.24,0-0.42-0.46-0.42-1.03c0-0.57,0.19-1.03,0.43-1.03
					C82.08,52.33,82.26,52.79,82.26,53.35z"/>
			</g>
			<g>
				<path class="st15" d="M97.56,53.36c-0.01,1.16-0.4,2.1-0.88,2.1c-0.48,0-0.87-0.94-0.86-2.1c0.01-1.16,0.4-2.1,0.88-2.1
					C97.18,51.25,97.57,52.2,97.56,53.36z"/>
				<path class="st11" d="M97.41,52.82c0,0.57-0.2,1.03-0.43,1.02c-0.24,0-0.42-0.46-0.42-1.03c0-0.57,0.2-1.03,0.43-1.02
					C97.22,51.79,97.41,52.25,97.41,52.82z"/>
			</g>
		</g>
		<g>
			<g>
				<path class="st10" d="M74.43,57.96c0,0,0-0.09,0-0.23c0-0.15-0.01-0.35-0.02-0.6c-0.01-0.12-0.03-0.25-0.04-0.39
					c-0.03-0.13-0.05-0.28-0.08-0.42c-0.05-0.14-0.08-0.29-0.14-0.43c-0.07-0.13-0.11-0.29-0.19-0.41
					c-0.04-0.08-0.09-0.14-0.13-0.18c-0.03-0.06-0.09-0.1-0.14-0.15c-0.11-0.08-0.22-0.15-0.34-0.17c-0.12-0.02-0.24-0.02-0.35,0.02
					c-0.11,0.04-0.22,0.1-0.3,0.17c-0.08,0.07-0.15,0.16-0.21,0.24c-0.06,0.08-0.09,0.16-0.13,0.22c-0.05,0.14-0.08,0.21-0.08,0.21
					s-0.01-0.08,0-0.24c0.01-0.07,0.02-0.17,0.06-0.27c0.03-0.1,0.09-0.22,0.17-0.33c0.16-0.22,0.49-0.44,0.88-0.39
					c0.19,0.02,0.37,0.11,0.53,0.22c0.07,0.07,0.15,0.12,0.21,0.2c0.07,0.08,0.13,0.16,0.16,0.22c0.1,0.16,0.15,0.33,0.22,0.5
					c0.07,0.16,0.08,0.34,0.12,0.5c0.02,0.16,0.02,0.32,0.03,0.47c0,0.15-0.02,0.29-0.03,0.42c-0.04,0.26-0.09,0.46-0.14,0.61
					C74.46,57.88,74.43,57.96,74.43,57.96z"/>
			</g>
			<g>
				<path class="st10" d="M74.51,57.39c0,0-0.09-0.11-0.18-0.27c-0.05-0.08-0.1-0.16-0.16-0.26c-0.06-0.08-0.12-0.18-0.19-0.25
					c-0.03-0.04-0.07-0.06-0.1-0.1c-0.04-0.01-0.06-0.06-0.1-0.07c-0.07-0.04-0.15-0.06-0.24-0.07c-0.17-0.02-0.31,0-0.32-0.01
					c0,0,0.02-0.03,0.06-0.07c0.04-0.04,0.11-0.11,0.21-0.15c0.05-0.03,0.11-0.05,0.18-0.05c0.07-0.01,0.14-0.01,0.22,0.01
					c0.15,0.03,0.3,0.12,0.4,0.24c0.2,0.23,0.27,0.51,0.27,0.71C74.57,57.25,74.51,57.39,74.51,57.39z"/>
			</g>
		</g>
		<g>
			<g>
				<path class="st10" d="M116.51,57.39c0,0,0.09,0.25,0.14,0.65c0.03,0.2,0.03,0.43,0.03,0.67c-0.01,0.12-0.01,0.25-0.02,0.38
					c-0.01,0.13-0.02,0.26-0.04,0.39c-0.03,0.13-0.05,0.26-0.08,0.39c-0.02,0.13-0.06,0.25-0.1,0.37c-0.09,0.23-0.15,0.45-0.26,0.63
					c-0.2,0.35-0.36,0.56-0.36,0.56s0.04-0.27,0.13-0.64c0.05-0.18,0.07-0.41,0.13-0.64c0.03-0.11,0.05-0.24,0.07-0.36
					c0.02-0.12,0.04-0.25,0.06-0.37c0.03-0.12,0.04-0.25,0.06-0.37c0.01-0.12,0.04-0.24,0.06-0.36c0.02-0.24,0.07-0.46,0.09-0.65
					C116.46,57.65,116.51,57.39,116.51,57.39z"/>
			</g>
		</g>
		<g>
			<g>
				<path class="st10" d="M118.48,59.4c0,0-0.07-0.09-0.16-0.27c-0.08-0.18-0.2-0.44-0.28-0.78c-0.03-0.17-0.07-0.35-0.08-0.55
					c0-0.2-0.03-0.41,0-0.63c0.04-0.21,0.04-0.44,0.11-0.66c0.08-0.22,0.14-0.43,0.24-0.67c0.06-0.1,0.1-0.19,0.16-0.3
					c0.07-0.1,0.14-0.21,0.23-0.3c0.17-0.18,0.37-0.33,0.6-0.41c0.23-0.08,0.47-0.09,0.68-0.04c0.21,0.04,0.39,0.14,0.54,0.25
					c0.15,0.11,0.26,0.22,0.34,0.35c0.08,0.11,0.14,0.23,0.17,0.32c0.04,0.09,0.05,0.17,0.06,0.23c0.01,0.05,0.01,0.08,0.01,0.08
					c-0.01,0-0.03-0.11-0.14-0.27c-0.05-0.08-0.12-0.17-0.22-0.26c-0.09-0.09-0.22-0.17-0.35-0.25c-0.14-0.07-0.29-0.13-0.46-0.14
					c-0.17-0.03-0.34,0.01-0.5,0.07c-0.16,0.06-0.3,0.19-0.43,0.33c-0.07,0.07-0.11,0.15-0.17,0.23c-0.05,0.09-0.1,0.2-0.15,0.29
					c-0.08,0.17-0.15,0.39-0.22,0.58c-0.07,0.2-0.09,0.4-0.14,0.6c-0.04,0.2-0.03,0.39-0.06,0.57c-0.01,0.18,0.01,0.36,0.01,0.52
					c0.02,0.16,0.04,0.31,0.05,0.44c0.03,0.13,0.05,0.25,0.07,0.34C118.44,59.29,118.48,59.4,118.48,59.4z"/>
			</g>
			<g>
				<path class="st10" d="M118.21,58.58c0,0-0.09-0.14-0.13-0.38c-0.02-0.12-0.03-0.27,0.01-0.42c0.01-0.08,0.04-0.16,0.08-0.24
					c0.05-0.08,0.09-0.16,0.17-0.23c0.07-0.07,0.16-0.11,0.24-0.16c0.09-0.04,0.18-0.04,0.26-0.06c0.08,0,0.16,0.01,0.24,0.02
					c0.07,0.02,0.13,0.04,0.19,0.06c0.12,0.04,0.2,0.11,0.25,0.15c0.06,0.04,0.09,0.07,0.09,0.07s-0.04,0.01-0.11,0.01
					c-0.07,0.01-0.16,0-0.27,0.01c-0.05,0.01-0.11,0.01-0.17,0.01c-0.06,0.01-0.11,0.03-0.17,0.03c-0.05,0.02-0.1,0.04-0.15,0.06
					c-0.04,0.03-0.09,0.05-0.12,0.09c-0.04,0.03-0.07,0.08-0.11,0.12c-0.02,0.05-0.06,0.1-0.08,0.16c-0.05,0.11-0.09,0.23-0.12,0.33
					C118.25,58.44,118.21,58.58,118.21,58.58z"/>
			</g>
		</g>
		<g class="st4">
			<path class="st6" d="M114.79,84.05c0,0,3.25,1.18,6.78,0.14c-0.9,0.23-2.25-1.51-2.62-6.58c-0.74,1.67-2.28,3.39-5.47,2.38
				c-5.6-1.77-5.39-7.29-5.39-7.29s-1.24,2.7,0.94,7.91c2.05,4.9,6.87,15.04,7.15,25.64c0.27,10.33-11.02,11.34-17.22,11.23
				c-6.2-0.1-11.02-1.76-11.71-7.99c-0.57-5.03-0.53-12.18,1.07-22.62c1.59-10.45,2.14-11.14-0.37-5.99
				c-1.72,3.52-3.2,6.78-4.5,8.07c-0.02,2.61-0.05,4.53-0.05,4.53l1.84,0.89l1.18,0.38c0,0-1.59,12.92-1.54,21.27
				c0,0,0.83,1.04,3.48,1.66c0,0,12.24,5.19,33-2.8c0,0,1.49-0.76,1.9-1.25C123.65,113.17,121.99,97.05,114.79,84.05z"/>
		</g>
		<g class="st4">
			<path class="st6" d="M76.4,87.31l-1.83,2.17l2.21,1.73l0.39-2.81C76.83,88.08,76.59,87.7,76.4,87.31z"/>
		</g>
		<g class="st4">
			<path class="st5" d="M94.99,78.65c0.44-2.73,3.46-4.69,6.17-1.22c0.31-1.18,0.28-2.47-0.06-3.45c-0.28,0.14-0.47,0.24-0.47,0.24
				l-0.15-0.54c-1.89,0.45-3.85,0.71-5.83,0.75l0.16,0.86l0.24,0.93C95.05,76.22,94.72,77.48,94.99,78.65z"/>
		</g>
		<g>
			<path class="st14" d="M126.59,49.88l2.25,4.08c0,0,5.19-7.19,3.04-17.98c-0.92,1-1.97,3.29-2.42,5.43
				C128.47,46.12,126.59,49.88,126.59,49.88z"/>
			<g class="st16">
				<path class="st14" d="M126.59,49.88l2.25,4.08c0,0,5.19-7.19,3.04-17.98c-0.92,1-1.97,3.29-2.42,5.43
					C128.47,46.12,126.59,49.88,126.59,49.88z"/>
			</g>
			<path class="st14" d="M122.33,23.59c0,0,1.04-1,2.04-1.49c1-0.48-2.52-1.07-4.36,0.45c0,0-0.49-3.34-3.42-4.39
				c-0.87-0.31,0.28,2.7,1.07,3.73c0,0-7.54-6.29-20.93-6.09c-13.38,0.21-22.31,10.38-22.31,10.38s-1.71-2.86-3.42-3.63
				c-1.04-0.47-0.41,4.36,1.76,6.12c0,0-1.21-0.87-4.32-0.21c-3.11,0.66-4.01,2.08-3.94,2.87c0.07,0.8,1.52,2.21,6.23,1.83
				c0,0-7.68,5.39-5.67,8.4c0.35,0.52,4.53-0.14,6.57-2.8c0,0-1.65,5.02,0.05,5.54c1.5,0.46,2.07-2.36,2.18-3.02
				c0.01-0.09,0.02-0.14,0.02-0.14s-0.01,0.05-0.02,0.14c-0.08,0.6-0.28,3.08,1.68,5.22c0,0-2.56-7.99,3.56-14.42
				c0,0-2.57,3.4-1.45,4.28c1.12,0.88,7.73-6.46,7.73-6.46s-2.05,3.81-0.86,4.57c1.19,0.75,4.2-2.26,4.25-4.72
				c0,0,1.74,4.28,5.16,4.02c3.42-0.26,2.18-5.14,2.18-5.14s4.39,7.76,8.87,8.33c1.63,0.21,1.14-5.66,1.14-5.66s0.47,4.02,2.88,5.6
				c0,0-2.3,8.11-0.47,9.05c1.61,0.83,2.79-4.61,2.79-4.61s-0.84,5.52,1.7,6.01c0,0,2.44,5.99,1.35,10.92c0,0,1.7-0.22,2.87-3.82
				c1.18-3.6,5.08-3.01,5.33,1.21c0.24,4.22-4.38,7.71-6.16,4.12c0,0-1.3,4.4-4.95,8.14c7.11-1.45,11.53-5.91,13.63-8.63
				c-0.08-0.27-0.16-0.54-0.24-0.82c-1.73-5.96-1.32-5.88-4.08-7.12c-2.77-1.25-2.15-3.77-1.63-5.74c0.52-1.97-0.31-3.15-0.8-4.32
				c-0.48-1.18-1.11-1.38-2.25-0.93c-1.14,0.45-3.42,1.11-4.12-0.17c-0.69-1.28,0.42-2.94,2.84-3.39c2.42-0.45,3.25,0,3.25,0
				s-1.7-1.42-2.42-1.42c-0.73,0-1.76,0.41-3.39,0.28c-1.63-0.14-2.01-2.01-0.28-2.77c1.73-0.76,4-0.43,4-0.43
				c-1.71-0.62-1.81-2-0.31-2.36c2.05-0.49,4.82,0.84,4.82,0.84s-3.27-1.54-2.46-3c0.81-1.45,3.84-0.31,6.98,2.02
				c3.14,2.33,3.89,4.62,3.89,4.62c0.55-1.43,1.38-1.8,1.38-1.8S128.63,27.43,122.33,23.59z"/>
			<g class="st16">
				<path class="st14" d="M122.33,23.59c0,0,1.04-1,2.04-1.49c1-0.48-2.52-1.07-4.36,0.45c0,0-0.49-3.34-3.42-4.39
					c-0.87-0.31,0.28,2.7,1.07,3.73c0,0-7.54-6.29-20.93-6.09c-13.38,0.21-22.31,10.38-22.31,10.38s-1.71-2.86-3.42-3.63
					c-1.04-0.47-0.41,4.36,1.76,6.12c0,0-1.21-0.87-4.32-0.21c-3.11,0.66-4.01,2.08-3.94,2.87c0.07,0.8,1.52,2.21,6.23,1.83
					c0,0-7.68,5.39-5.67,8.4c0.35,0.52,4.53-0.14,6.57-2.8c0,0-1.65,5.02,0.05,5.54c1.5,0.46,2.07-2.36,2.18-3.02
					c0.01-0.09,0.02-0.14,0.02-0.14s-0.01,0.05-0.02,0.14c-0.08,0.6-0.28,3.08,1.68,5.22c0,0-2.56-7.99,3.56-14.42
					c0,0-2.57,3.4-1.45,4.28c1.12,0.88,7.73-6.46,7.73-6.46s-2.05,3.81-0.86,4.57c1.19,0.75,4.2-2.26,4.25-4.72
					c0,0,1.74,4.28,5.16,4.02c3.42-0.26,2.18-5.14,2.18-5.14s4.39,7.76,8.87,8.33c1.63,0.21,1.14-5.66,1.14-5.66s0.47,4.02,2.88,5.6
					c0,0-2.3,8.11-0.47,9.05c1.61,0.83,2.79-4.61,2.79-4.61s-0.84,5.52,1.7,6.01c0,0,2.44,5.99,1.35,10.92c0,0,1.7-0.22,2.87-3.82
					c1.18-3.6,5.08-3.01,5.33,1.21c0.24,4.22-4.38,7.71-6.16,4.12c0,0-1.3,4.4-4.95,8.14c7.11-1.45,11.53-5.91,13.63-8.63
					c-0.08-0.27-0.16-0.54-0.24-0.82c-1.73-5.96-1.32-5.88-4.08-7.12c-2.77-1.25-2.15-3.77-1.63-5.74c0.52-1.97-0.31-3.15-0.8-4.32
					c-0.48-1.18-1.11-1.38-2.25-0.93c-1.14,0.45-3.42,1.11-4.12-0.17c-0.69-1.28,0.42-2.94,2.84-3.39c2.42-0.45,3.25,0,3.25,0
					s-1.7-1.42-2.42-1.42c-0.73,0-1.76,0.41-3.39,0.28c-1.63-0.14-2.01-2.01-0.28-2.77c1.73-0.76,4-0.43,4-0.43
					c-1.71-0.62-1.81-2-0.31-2.36c2.05-0.49,4.82,0.84,4.82,0.84s-3.27-1.54-2.46-3c0.81-1.45,3.84-0.31,6.98,2.02
					c3.14,2.33,3.89,4.62,3.89,4.62c0.55-1.43,1.38-1.8,1.38-1.8S128.63,27.43,122.33,23.59z M119.6,26.88
					c-2.46-0.66-6.19-0.35-6.19-0.35c2.7,0.21,3.25,2.18,0.93,2.77c-2.33,0.59-4-0.45-4-0.45s1.29,4.24-0.8,4.47
					c-2.09,0.23-4.43-6.02-4.43-6.02s1.8,8.19-1.87,7.39c-3.67-0.79-8.96-9.61-8.96-9.61s1.76,6.29-0.73,6.85
					c-2.49,0.55-5.05-4.53-5.05-4.53c-0.1,3.67-2.07,6.53-2.94,5.26c-0.87-1.28,1.25-6.4,1.25-6.4c-1.32,2.94-7.64,9.23-7.85,7.44
					c-0.21-1.8,2.26-4.44,2.26-4.44c-4.05,2.39-4.93,6.3-5.42,6.15c-0.49-0.16-0.34-1.43-0.34-1.43c-1.35,7.78-2.28,8.15-3.01,7.26
					c-0.73-0.88-0.05-4.66-0.05-4.66c-2.7,3.28-5.29,2.9-3.68,0c1.61-2.9,3.58-4.68,3.58-4.68c-7.83,1.56-6.88-2.16-3.63-3.01
					c3.24-0.85,5.65,0.78,5.65,0.78s-1.94-2.47-2.07-4.41c-0.14-1.94,2.07,0.32,2.65,2.05c0,0,7.47-10.25,19.35-10.98
					c11.88-0.73,22.31,4.05,19.2,4.36c-3.11,0.31-2.33-0.04,0.07,0.9C120.94,24.5,122.06,27.54,119.6,26.88z"/>
			</g>
		</g>
		<g>
			<g class="st1">
				<path class="st0" d="M91.3,119.44c2.59,0.45,11.6,2.28,24.07-1.21c0.41-0.12,0.8-0.2,1.18-0.26c-0.08-0.51-0.11-0.97-0.12-1.37
					c-17.76,5.48-28.1,1.11-28.1,1.11l0.26,2.65C88.59,120.35,88.71,118.99,91.3,119.44z"/>
			</g>
			<g class="st1">
				<path class="st0" d="M121.19,125.81c-0.79,7.59-3.63,8.22-10.48,7.59c-6.85-0.62-7.82-0.83-6.76-5.36
					c1.06-4.53,1.91-1.05-4.51-5.12c-1.04-0.66,2.53,2.53-0.8,7.37c-3.32,4.84-6.5,1.63-11.66,0.62c-4.79-0.93-3.79-3.1-3.63-3.4
					c-0.71,1.21-1.39,2.54-1.98,3.93l1.63-0.05c0,0,7.42-0.97,14.91,6.26l6.29-11.97c0,0-1.76,7.02-2,9.37c0,0,0.97-1.44,6.47-1.13
					c5.5,0.31,10.9,3.3,10.9,3.3s1.53-5.79,1.98-12.9c-0.08-0.04-0.16-0.08-0.24-0.12C121.29,124.72,121.25,125.25,121.19,125.81z"
					/>
			</g>
			<g class="st1">
				<path class="st0" d="M121.33,114.9c-1.69,0.65-3.32,1.21-4.89,1.69c0.01,0.4,0.04,0.87,0.12,1.37c2.94-0.47,4.98,0.81,4.76,6.26
					c0.08,0.04,0.15,0.08,0.24,0.12C121.74,121.32,121.73,118.06,121.33,114.9z"/>
			</g>
		</g>
		<g>
			<path class="st3" d="M93.09,157.4c-0.85-2.23-1.81-5-2.78-8.26c-2.8-9.44-1.35-14.79-1.35-14.79s0.37-1,0.78-1.91
				c-3.91-1.41-6.73-1.05-6.73-1.05l-0.33,0.78c0,0-0.92,5.81-0.54,11.15c0.36,4.94,2.17,10.38,4.19,14.59
				C87.92,158.45,90.63,158.94,93.09,157.4z"/>
			<path class="st0" d="M93.65,158.85c-0.18-0.45-0.37-0.94-0.56-1.45c-2.46,1.53-5.17,1.04-6.76,0.51
				c0.32,0.66,0.63,1.29,0.93,1.87C89.06,160.15,91.89,160.38,93.65,158.85z"/>
			<path class="st9" d="M93.65,166.62c0,0,1.14-0.62,1.87-1.12c0.73-0.49,0.36-1.63,0.36-1.63s-0.91-1.75-2.22-5.02
				c-1.77,1.53-4.59,1.3-6.39,0.94c1.52,2.96,2.77,4.92,2.77,4.92S92.28,164.29,93.65,166.62z"/>
			<g>
				<g class="st4">
					<path class="st5" d="M87.26,135.65c-0.43,3.8-0.04,12.68,4.46,22.4c0.46-0.16,0.91-0.37,1.36-0.65c-0.85-2.23-1.81-5-2.78-8.26
						c-2.8-9.44-1.35-14.79-1.35-14.79s0.37-1,0.78-1.91c-3.91-1.41-6.73-1.05-6.73-1.05l-0.33,0.78c0,0-0.02,0.12-0.05,0.34
						C84.66,131.72,87.61,132.52,87.26,135.65z"/>
				</g>
				<g class="st1">
					<path class="st0" d="M92.46,159.57c0.43-0.18,0.83-0.41,1.19-0.72c-0.18-0.45-0.37-0.94-0.56-1.45
						c-0.45,0.28-0.91,0.49-1.36,0.65C91.96,158.56,92.2,159.06,92.46,159.57z"/>
				</g>
				<g>
					<path class="st17" d="M95.87,163.88c0,0-0.91-1.75-2.22-5.02c-0.36,0.31-0.76,0.54-1.19,0.72c0.37,0.74,0.77,1.48,1.19,2.23
						c1.13,1.98-1.58,2.91-3.78,2.66c0.1,0.16,0.16,0.25,0.16,0.25s2.25-0.42,3.62,1.92c0,0,1.14-0.62,1.87-1.12
						C96.25,165.02,95.87,163.88,95.87,163.88z"/>
				</g>
			</g>
		</g>
		<g class="st1">
			<path class="st0" d="M114.42,160.28c0.5-0.16,0.98-0.36,1.45-0.63c-0.21-0.58-0.42-1.17-0.63-1.79
				c-0.53,0.26-1.07,0.44-1.62,0.56C113.86,159.05,114.13,159.67,114.42,160.28z"/>
		</g>
		<g class="st4">
			<path class="st5" d="M109.89,137.8c0.3,3.48,0.41,12.39,3.73,20.64c0.55-0.12,1.1-0.3,1.62-0.56
				c-2.14-6.28-4.12-14.19-3.35-20.42l0.35-2.97c-1.15-0.27-2.35-0.47-3.57-0.54c-1.59-0.09-2.79-0.03-3.71,0.09l-0.33,2.22
				C106.46,133.62,109.61,134.6,109.89,137.8z"/>
		</g>
		<g>
			<path class="st17" d="M119.51,168.47c0,0-1.79-3.66-3.65-8.81c-0.46,0.27-0.95,0.47-1.45,0.63c0.26,0.55,0.53,1.09,0.82,1.62
				c2.46,4.54,2.6,7.81-0.75,8.26c0.07,0.11,0.13,0.23,0.2,0.34c0,0,2.05-1.59,4.7,0.84c0,0,1.08-1.06,1.18-1.69
				C120.68,169.04,119.51,168.47,119.51,168.47z"/>
		</g>
		<g>
			<g>
				<path class="st18" d="M99.85,170.24c-2.59,4.65-11.93,6.61-17.38,5.92c-5.45-0.69-5.72-2.7-5.72-2.7s-0.9,0.1-0.69,1.8
					c0.21,1.7,5.97,4.16,14.59,1.9c7.64-2.01,10.21-4.76,10-5.71C100.41,170.34,99.85,170.24,99.85,170.24z"/>
				<path class="st18" d="M88.82,170.24c1.56,1.94,3.01,1.49,3.49,0.41c0.48-1.07-1.35-3.68-3.7-4.12c0,0-2.21,0.14-2.77,1.83
					C85.85,168.37,87.26,168.3,88.82,170.24z"/>
				<g class="st1">
					<path class="st0" d="M88.82,168.9c-0.81-1-1.57-1.46-2.12-1.68c-0.37,0.27-0.69,0.64-0.85,1.15c0,0,1.42-0.07,2.97,1.87
						c1.56,1.94,3.01,1.49,3.49,0.41c0.13-0.29,0.09-0.71-0.09-1.16C91.66,170.43,90.29,170.73,88.82,168.9z"/>
				</g>
				<path class="st0" d="M95.87,163.88c0,0,0.37,1.14-0.36,1.63c-0.72,0.49-1.87,1.12-1.87,1.12c-1.37-2.33-3.62-1.92-3.62-1.92
					s-1.35,0.21-1.42,1.83c2.35,0.43,4.18,3.04,3.7,4.12c-0.49,1.07-1.94,1.52-3.49-0.41c-1.56-1.94-2.97-1.87-2.97-1.87
					s-2.18,0.14-5.19,0.97c-3.01,0.83-4.01,2.56-3.91,4.12c0,0,0.28,2.01,5.72,2.7c5.45,0.69,14.79-1.27,17.38-5.92
					c0,0,0.07-1.9-1.14-4.43C97.5,163.29,95.87,163.88,95.87,163.88z"/>
			</g>
			<g class="st1">
				<path class="st0" d="M98.71,165.81c-1.21-2.53-2.84-1.94-2.84-1.94s0.01,0.03,0.02,0.09c0.83,0.32,1.59,0.94,2.02,2.06
					c1.24,3.32-2.7,6.99-11.21,7.61c-5.06,0.37-8.36-0.77-9.34-2.28c-0.49,0.67-0.67,1.41-0.62,2.11c0,0,0.28,2.01,5.72,2.7
					c5.45,0.69,14.79-1.27,17.38-5.92C99.85,170.24,99.92,168.34,98.71,165.81z"/>
			</g>
			<g class="st1">
				<path class="st0" d="M87.54,169.84c1.54,2.04,2.8,2.7,3.98,1.95c0.58-0.37,0.81-0.84,0.84-1.29c-0.01,0.05-0.02,0.1-0.04,0.14
					c-0.49,1.07-1.94,1.52-3.49-0.41c-1.56-1.94-2.97-1.87-2.97-1.87s-0.37,0.02-1,0.11C85.74,168.54,86.8,168.86,87.54,169.84z"/>
			</g>
		</g>
		<g>
			<path class="st18" d="M124.73,172.82c0,0-4.54,8.22-12.79,9.47c-8.25,1.24-8.96-1.66-8.96-1.66s-0.61,0.47-0.35,1.66
				c0.26,1.19,4.05,2.44,9.99,1.66c5.94-0.78,11.44-5.98,12.79-8.3C125.97,174.67,125.46,173.06,124.73,172.82z"/>
			<path class="st0" d="M123.43,169.32c-1.19-2.05-3.92-0.86-3.92-0.86s1.17,0.57,1.06,1.19c-0.1,0.62-1.18,1.69-1.18,1.69
				c-2.65-2.44-4.7-0.84-4.7-0.84s-0.56,0.52-0.82,1.28l0.24,0.04c0,0,2.21-0.1,3.9,1.87c1.7,1.97-0.49,3.84-2.39,2.18
				c-1.9-1.66-4.31-1.89-4.31-1.89s-3.01,1.71-5.65,2.96c-2.65,1.24-2.68,3.68-2.68,3.68s0.71,2.9,8.96,1.66
				c8.25-1.24,12.79-9.47,12.79-9.47S124.62,171.37,123.43,169.32z"/>
			<path class="st18" d="M118.01,173.7c-1.69-1.97-3.9-1.87-3.9-1.87l-0.24-0.04c0,0.01-0.01,0.02-0.01,0.03
				c0,0-1.82,0.21-2.54,2.18c0,0,2.4,0.22,4.31,1.89C117.52,177.54,119.71,175.67,118.01,173.7z"/>
			<g class="st1">
				<path class="st0" d="M118.05,173.75c0.19,1.4-1.47,2.28-2.97,0.97c-1.1-0.96-2.37-1.44-3.25-1.67c-0.2,0.26-0.37,0.57-0.51,0.94
					c0,0,2.4,0.22,4.31,1.89C117.51,177.52,119.66,175.7,118.05,173.75z"/>
			</g>
			<g class="st1">
				<path class="st0" d="M123.43,169.32c-1.19-2.05-3.92-0.86-3.92-0.86s0.41,0.2,0.72,0.5c1.77-0.17,2.12,0.78,2.44,2.82
					c0.42,2.65-3.81,8.07-11.36,8.83c-4.48,0.45-7-0.85-7.37-2.36c-0.95,1.15-0.97,2.37-0.97,2.37s0.71,2.9,8.96,1.66
					c8.25-1.24,12.79-9.47,12.79-9.47S124.62,171.37,123.43,169.32z"/>
			</g>
			<g>
				<g class="st1">
					<path class="st0" d="M118.57,175.49c-0.27,1.03-1.67,1.5-2.94,0.39c-1.9-1.66-4.31-1.89-4.31-1.89s-0.22,0.13-0.6,0.34
						c1.02,0.06,2.81,0.36,4.42,1.66C117.28,177.7,118.65,176.71,118.57,175.49z"/>
				</g>
			</g>
		</g>
		<g>
			<g>
				<path class="st3" d="M87.28,68.52c0,0,0.47-1.94-3.01-2.04c0,0-0.1-0.5-1.24-0.43c0,0,0.72-0.23,0.8-1.11
					c0.07-0.88-1.09-1.37-2.82-0.9c-1.73,0.47-3.41,2.84-3.41,2.84s-0.05-1.66-1.14-2.21c-1.09-0.55-1.78,0.15-1.43,1.19
					c0,0,0.52,1.73-0.03,4.39c-0.56,2.66-0.35,3.39,0.86,5.43c1.21,2.04,2.63,3.63,2.35,5.08c-0.28,1.45-0.69,5.22-0.69,5.22
					l-0.73,5.22c0,0-0.38,5.19,0.21,7.54c0.59,2.35,2.91,2.73,4.15,2.46c1.24-0.28,3.25-2.28,4.08-6.81l-1.84-0.89
					c0,0,0.13-7.5,0-13c0,0,3.29-0.67,2.29-3.41c-1-2.73-2.01-3.77-1.7-4.84c0,0,0.6-1.12,1.07-1.47c0.47-0.35,2.72,0.29,2.87-1.02
					C88.04,68.69,87.28,68.52,87.28,68.52z"/>
				<g>
					<g>
						<path class="st10" d="M74.78,73.3c0,0-0.03-0.13-0.04-0.38c-0.01-0.12,0-0.27,0.01-0.44c0.02-0.17,0.01-0.36,0.07-0.57
							c0.05-0.2,0.09-0.43,0.14-0.66c0.06-0.23,0.15-0.47,0.24-0.71c0.09-0.24,0.17-0.51,0.31-0.74c0.13-0.24,0.26-0.49,0.38-0.74
							l0.2-0.37c0.08-0.11,0.16-0.23,0.23-0.34c0.16-0.22,0.31-0.44,0.46-0.65c0.15-0.21,0.29-0.42,0.45-0.6
							c0.16-0.18,0.31-0.34,0.45-0.49c0.57-0.61,0.96-0.99,0.96-0.99s-0.32,0.45-0.82,1.1c-0.13,0.16-0.26,0.34-0.41,0.52
							c-0.15,0.18-0.26,0.41-0.41,0.61c-0.14,0.21-0.28,0.43-0.43,0.66c-0.07,0.11-0.15,0.22-0.23,0.34l-0.19,0.36
							c-0.13,0.24-0.26,0.48-0.39,0.71c-0.14,0.23-0.22,0.48-0.32,0.71c-0.09,0.24-0.21,0.46-0.28,0.68
							c-0.07,0.22-0.13,0.43-0.19,0.63c-0.07,0.19-0.08,0.38-0.12,0.54c-0.04,0.16-0.06,0.31-0.07,0.42
							C74.77,73.16,74.78,73.3,74.78,73.3z"/>
					</g>
					<g>
						<path class="st10" d="M76.71,71.25c0,0,0.13-0.58,0.5-1.39c0.1-0.2,0.2-0.42,0.33-0.64c0.12-0.22,0.26-0.46,0.42-0.68
							c0.15-0.23,0.34-0.46,0.53-0.68c0.19-0.22,0.41-0.43,0.63-0.64c0.24-0.18,0.46-0.39,0.72-0.53c0.25-0.15,0.5-0.31,0.77-0.4
							c0.13-0.05,0.26-0.1,0.39-0.15c0.13-0.04,0.26-0.06,0.39-0.09c0.25-0.06,0.49-0.11,0.71-0.11c0.22-0.01,0.43-0.03,0.61-0.02
							c0.18,0.02,0.34,0.05,0.46,0.06c0.25,0.04,0.4,0.06,0.4,0.06s-0.15,0-0.4,0c-0.13,0-0.28,0-0.46-0.01
							c-0.18,0.01-0.37,0.05-0.59,0.07c-0.22,0.01-0.44,0.08-0.68,0.15c-0.12,0.04-0.24,0.06-0.36,0.11
							c-0.12,0.05-0.24,0.11-0.36,0.16c-0.25,0.09-0.48,0.25-0.72,0.4c-0.25,0.14-0.45,0.34-0.68,0.51c-0.21,0.2-0.42,0.39-0.61,0.6
							c-0.18,0.22-0.38,0.42-0.53,0.64c-0.17,0.21-0.32,0.43-0.45,0.64c-0.14,0.2-0.25,0.41-0.37,0.6c-0.1,0.19-0.21,0.37-0.28,0.52
							c-0.08,0.16-0.15,0.3-0.2,0.41C76.76,71.12,76.71,71.25,76.71,71.25z"/>
					</g>
					<g>
						<path class="st10" d="M79.38,71.08c0,0,0.11-0.51,0.43-1.23c0.09-0.18,0.18-0.37,0.29-0.57c0.11-0.2,0.23-0.41,0.38-0.6
							c0.14-0.21,0.3-0.41,0.47-0.6c0.17-0.2,0.37-0.37,0.56-0.56c0.22-0.15,0.42-0.34,0.65-0.46c0.23-0.13,0.46-0.26,0.7-0.33
							c0.12-0.04,0.24-0.08,0.35-0.13c0.12-0.03,0.23-0.04,0.35-0.07c0.11-0.02,0.22-0.04,0.33-0.06c0.11-0.02,0.21-0.01,0.31-0.01
							c0.2,0,0.38-0.01,0.54,0.01c0.16,0.03,0.29,0.06,0.41,0.08c0.22,0.05,0.35,0.07,0.35,0.07s-0.13-0.01-0.36-0.01
							c-0.11,0-0.25-0.01-0.41-0.02c-0.16,0-0.33,0.03-0.52,0.04c-0.09,0.01-0.19,0.01-0.3,0.03c-0.1,0.02-0.2,0.05-0.31,0.08
							c-0.1,0.03-0.21,0.05-0.32,0.09c-0.1,0.05-0.21,0.09-0.32,0.13c-0.23,0.08-0.43,0.22-0.64,0.34c-0.22,0.12-0.4,0.3-0.61,0.44
							c-0.18,0.18-0.38,0.34-0.54,0.53c-0.16,0.19-0.33,0.37-0.47,0.56c-0.3,0.38-0.54,0.76-0.73,1.09
							c-0.09,0.17-0.18,0.32-0.26,0.46c-0.07,0.14-0.14,0.26-0.18,0.36C79.43,70.96,79.38,71.08,79.38,71.08z"/>
					</g>
					<g>
						<path class="st10" d="M81.31,72.39c0,0,0.02-0.14,0.09-0.38c0.06-0.24,0.15-0.58,0.31-0.98c0.15-0.4,0.35-0.86,0.63-1.32
							c0.14-0.23,0.31-0.46,0.51-0.67c0.19-0.21,0.46-0.41,0.7-0.53c0.54-0.27,1.11-0.39,1.65-0.43c0.27-0.02,0.53-0.01,0.78,0.02
							c0.25,0.03,0.48,0.06,0.68,0.12c0.21,0.05,0.4,0.12,0.55,0.21c0.16,0.08,0.28,0.17,0.38,0.25c0.09,0.08,0.16,0.16,0.19,0.22
							c0.04,0.06,0.06,0.09,0.06,0.09s-0.02-0.03-0.07-0.08c-0.04-0.05-0.11-0.11-0.21-0.18c-0.1-0.07-0.23-0.14-0.39-0.19
							c-0.08-0.03-0.16-0.06-0.25-0.08c-0.09-0.03-0.19-0.05-0.29-0.07c-0.2-0.04-0.42-0.06-0.66-0.07
							c-0.23-0.01-0.48,0.01-0.74,0.03c-0.25,0.03-0.52,0.08-0.77,0.15c-0.26,0.06-0.51,0.17-0.74,0.28l-0.18,0.1l-0.05,0.03
							l-0.01,0.01c0.01-0.01,0,0,0,0l-0.02,0.02l-0.08,0.06c-0.11,0.07-0.2,0.17-0.3,0.26c-0.18,0.19-0.35,0.4-0.49,0.61
							c-0.29,0.43-0.52,0.85-0.7,1.23C81.51,71.86,81.31,72.39,81.31,72.39z"/>
					</g>
				</g>
			</g>
			<g class="st4">
				<path class="st5" d="M82.44,72.98c-0.33,1.8,1.92,3.67,0.26,5.12c-1.66,1.45-0.49,0.07-0.56,6.11
					c-0.07,6.04,0.14,14.71-1.73,15.61c-1.12,0.54-2.53,0.15-3.45-1.16c0.01,0.03,0.01,0.06,0.02,0.09
					c0.59,2.35,2.91,2.73,4.15,2.46c1.24-0.28,3.25-2.28,4.08-6.81l-1.84-0.89c0,0,0.13-7.5,0-13c0,0,3.29-0.67,2.29-3.41
					c-1-2.73-2.01-3.77-1.7-4.84c0,0,0.6-1.12,1.07-1.47c0.47-0.35,2.72,0.29,2.87-1.02c0.01-0.09,0.01-0.16,0.01-0.23
					c-0.31,0.34-1.01,0.5-2.15,0.51C83.7,70.05,82.77,71.18,82.44,72.98z"/>
			</g>
			<g class="st4">
				<path class="st5" d="M76.45,64.66c-0.15-0.08-0.3-0.13-0.44-0.16c0.52,0.58,0.85,1.7,0.21,3c-0.45,0.93-0.84,1.69-1.15,2.28
					c-0.03,0.15-0.06,0.31-0.09,0.46c-0.22,1.05-0.32,1.8-0.29,2.44c0.16-1.22,0.81-3.17,2.89-5.85
					C77.58,66.62,77.46,65.17,76.45,64.66z"/>
			</g>
		</g>
		<g>
			<g>
				<path class="st3" d="M128.83,53.96l-2.25-4.08c0,0,1.88-3.76,2.87-8.47c0.45-2.15,1.5-4.43,2.42-5.43c0,0,1.94-1.59,1.38-3.04
					c-0.55-1.45-2.97-0.14-2.97-0.14s-0.84,0.37-1.38,1.8c0,0-0.75-2.28-3.89-4.62c-3.14-2.34-6.17-3.48-6.98-2.02
					c-0.8,1.45,2.46,3,2.46,3s-2.78-1.34-4.82-0.84c-1.5,0.36-1.4,1.74,0.31,2.36c0,0-2.27-0.33-4,0.43
					c-1.73,0.76-1.35,2.63,0.28,2.77c1.62,0.14,2.66-0.28,3.39-0.28c0.73,0,2.42,1.42,2.42,1.42s-0.83-0.45-3.25,0
					c-2.42,0.45-3.53,2.11-2.84,3.39c0.69,1.28,2.98,0.62,4.12,0.17c1.14-0.45,1.76-0.24,2.25,0.93c0.48,1.18,1.31,2.35,0.8,4.32
					c-0.52,1.97-1.14,4.5,1.63,5.74c2.76,1.25,2.35,1.17,4.08,7.12c1.73,5.95,3.42,9.58,3.42,9.58s-5.03,0.44-8.06,1.35
					c0,0-1.43,2.01-1.34,6.8l3.82-0.44c0,0,9.66-1.56,11.94-3.08C136.93,71.18,134.51,61.85,128.83,53.96z"/>
				<g>
					<g>
						<path class="st10" d="M116.65,36.6c0,0,0.09-0.04,0.25-0.06c0.08-0.01,0.18-0.02,0.3-0.02c0.11,0,0.25,0,0.38,0.03
							c0.14,0.02,0.29,0.06,0.44,0.11c0.15,0.06,0.32,0.12,0.47,0.21c0.32,0.16,0.63,0.39,0.91,0.64c0.15,0.12,0.27,0.26,0.4,0.39
							c0.13,0.13,0.24,0.28,0.35,0.41c0.22,0.27,0.39,0.55,0.54,0.79c0.08,0.11,0.13,0.23,0.18,0.33c0.05,0.1,0.1,0.19,0.13,0.26
							c0.07,0.14,0.11,0.23,0.11,0.23s-0.06-0.07-0.16-0.2c-0.05-0.06-0.11-0.14-0.18-0.23c-0.07-0.09-0.14-0.19-0.23-0.3
							c-0.09-0.11-0.18-0.22-0.28-0.34c-0.09-0.13-0.21-0.24-0.32-0.37c-0.11-0.13-0.23-0.26-0.36-0.38
							c-0.12-0.12-0.25-0.26-0.39-0.37c-0.13-0.12-0.27-0.24-0.41-0.34c-0.14-0.11-0.28-0.2-0.42-0.29
							c-0.14-0.09-0.28-0.16-0.42-0.23c-0.14-0.06-0.27-0.12-0.4-0.15C117.03,36.56,116.65,36.6,116.65,36.6z"/>
					</g>
					<g>
						<path class="st10" d="M114.34,32.41c0,0,0.18-0.04,0.5-0.06c0.16-0.01,0.35-0.02,0.57-0.01c0.22,0,0.48,0.01,0.75,0.05
							c0.28,0.02,0.57,0.08,0.88,0.14c0.31,0.08,0.63,0.14,0.96,0.27c0.16,0.06,0.33,0.12,0.49,0.18c0.16,0.07,0.32,0.15,0.49,0.23
							c0.34,0.14,0.64,0.35,0.96,0.54c0.31,0.2,0.59,0.45,0.88,0.66c0.27,0.24,0.52,0.5,0.77,0.74c0.23,0.26,0.43,0.52,0.63,0.77
							c0.2,0.25,0.34,0.51,0.49,0.74c0.15,0.23,0.28,0.44,0.37,0.65c0.09,0.2,0.18,0.37,0.25,0.52c0.13,0.29,0.21,0.45,0.21,0.45
							s-0.1-0.15-0.26-0.42c-0.08-0.13-0.18-0.3-0.29-0.49c-0.1-0.19-0.26-0.39-0.42-0.61c-0.16-0.21-0.32-0.47-0.52-0.69
							c-0.2-0.23-0.42-0.47-0.64-0.72c-0.25-0.23-0.5-0.47-0.76-0.7c-0.29-0.2-0.56-0.44-0.86-0.63c-0.3-0.19-0.59-0.39-0.92-0.54
							c-0.16-0.08-0.31-0.16-0.47-0.23c-0.16-0.06-0.32-0.12-0.47-0.19c-0.31-0.13-0.63-0.21-0.92-0.3
							c-0.3-0.07-0.58-0.15-0.85-0.18c-0.53-0.1-0.98-0.13-1.3-0.14C114.52,32.39,114.34,32.41,114.34,32.41z"/>
					</g>
					<g>
						<path class="st10" d="M119.36,30.5c0,0,0.6,0.13,1.44,0.53c0.21,0.1,0.43,0.22,0.66,0.34c0.22,0.14,0.48,0.27,0.71,0.44
							c0.24,0.16,0.49,0.33,0.72,0.53c0.24,0.18,0.47,0.4,0.7,0.6c0.23,0.21,0.43,0.44,0.65,0.66c0.21,0.22,0.39,0.46,0.57,0.68
							c0.18,0.22,0.33,0.46,0.48,0.68c0.16,0.21,0.27,0.44,0.39,0.63c0.11,0.2,0.23,0.38,0.3,0.55c0.08,0.17,0.15,0.32,0.21,0.44
							c0.11,0.25,0.17,0.38,0.17,0.38s-0.08-0.13-0.23-0.36c-0.07-0.11-0.15-0.25-0.25-0.41c-0.09-0.16-0.23-0.32-0.35-0.52
							c-0.13-0.19-0.26-0.4-0.43-0.6c-0.17-0.2-0.33-0.42-0.51-0.64c-0.19-0.21-0.38-0.44-0.58-0.65c-0.21-0.21-0.41-0.44-0.64-0.63
							c-0.23-0.2-0.44-0.42-0.68-0.6c-0.23-0.19-0.46-0.37-0.69-0.54c-0.46-0.34-0.9-0.63-1.29-0.85
							C119.93,30.72,119.36,30.5,119.36,30.5z"/>
					</g>
					<g>
						<path class="st10" d="M130.29,32.79c0,0-0.2,0.17-0.42,0.46c-0.11,0.14-0.24,0.31-0.35,0.51c-0.12,0.19-0.22,0.41-0.3,0.63
							c-0.09,0.22-0.14,0.45-0.19,0.67c-0.02,0.11-0.03,0.22-0.05,0.32c-0.02,0.1-0.02,0.2-0.03,0.29
							c-0.02,0.18-0.02,0.34-0.02,0.45c0,0.11-0.01,0.17-0.01,0.17s-0.02-0.06-0.05-0.17c-0.02-0.11-0.08-0.26-0.09-0.45
							c-0.01-0.1-0.03-0.2-0.03-0.31c0-0.11,0-0.23,0.01-0.35c0.02-0.12,0.03-0.25,0.06-0.37c0.04-0.12,0.07-0.25,0.11-0.37
							c0.1-0.24,0.22-0.48,0.37-0.67c0.07-0.1,0.15-0.19,0.23-0.27c0.08-0.08,0.15-0.15,0.23-0.21
							C130.04,32.88,130.29,32.79,130.29,32.79z"/>
					</g>
				</g>
			</g>
			<g class="st4">
				<path class="st5" d="M128.83,53.96l-2.25-4.08c0,0,1.88-3.76,2.87-8.47c0.45-2.15,1.5-4.43,2.42-5.43c0,0,1.94-1.59,1.38-3.04
					c-0.1-0.25-0.25-0.42-0.44-0.53c0.03,2.1-4.12,3.67-4.88,9.17c-0.97,6.99-3.04,7.26-2.08,8.56c0.97,1.3,7.75,14.47,8.37,18.2
					c0.62,3.73-5.77,6.34-10.94,5.61c-3.45-0.48-3.27-3-2.76-4.62c-0.1,0.03-0.21,0.06-0.3,0.09c0,0-1.43,2.01-1.34,6.8l3.82-0.44
					c0,0,9.66-1.56,11.94-3.08C136.93,71.18,134.51,61.85,128.83,53.96z"/>
			</g>
			<g class="st4">
				<path class="st5" d="M124.6,53.96c-0.83-3.34-4.64-2.51-4.99-4.87c-0.35-2.36,1.3-4.12-0.25-7.6c-1.55-3.48-3.58-1.56-5.7-1.56
					c-1.01,0-1.61-0.37-1.82-0.87c-0.08,0.38-0.03,0.77,0.16,1.13c0.69,1.28,2.98,0.62,4.12,0.17c1.14-0.45,1.76-0.24,2.25,0.93
					c0.48,1.18,1.31,2.35,0.8,4.32c-0.52,1.97-1.14,4.5,1.63,5.74c2.76,1.25,2.35,1.17,4.08,7.12c1.73,5.95,3.42,9.58,3.42,9.58
					l1.56,0.14C129.84,68.21,126.28,60.73,124.6,53.96z"/>
			</g>
		</g>
		<path class="st19" d="M119.29,59.7c-1.35-0.07-1.71-1.45-1.18-3.32c0.52-1.87,3.45-2.31,3,0.79
			C120.81,59.15,119.29,59.7,119.29,59.7z"/>
		<path class="st19" d="M74.31,58.3c0,0,0.92-2.57-0.57-3.53C72.25,53.82,70.98,58.07,74.31,58.3z"/>
	</g>
</g>
</svg>
