<?xml version="1.0" encoding="utf-8"?>
<!-- Generator: Adobe Illustrator 28.0.0, SVG Export Plug-In . SVG Version: 6.00 Build 0)  -->
<svg version="1.1" id="Layer_1" xmlns="http://www.w3.org/2000/svg" xmlns:xlink="http://www.w3.org/1999/xlink" x="0px" y="0px"
	 viewBox="0 0 200 200" style="enable-background:new 0 0 200 200;" xml:space="preserve">
<style type="text/css">
	.st0{fill:#F8CBAB;}
	.st1{fill:#CA8464;}
	.st2{fill:#FFFFFF;}
	.st3{fill:#B8B8B6;}
	.st4{fill:#DAD8CF;}
	.st5{fill:#8BBA40;}
	.st6{fill:#638038;}
	.st7{fill:none;}
	.st8{opacity:0.8;}
	.st9{fill:#486CAE;}
	.st10{fill:#21477C;}
	.st11{opacity:0.5;fill:#486CAE;}
	.st12{fill:#FEE638;}
	.st13{fill:#E6A225;}
	.st14{fill:#D7BD28;}
	.st15{opacity:0.8;fill:#F8CBAB;}
	.st16{opacity:0.4;fill:#FAD8D6;}
	.st17{fill:#7AC2B3;}
	.st18{fill:#FCC498;}
	.st19{fill:#A63F2C;}
	.st20{fill:#231F20;}
	.st21{fill:#010101;}
	.st22{fill:#F3CAAB;}
	.st23{opacity:0.7;fill:#E7B89A;}
	.st24{fill:#F3DCCC;}
	.st25{fill:#D72B3E;}
	.st26{fill:#7B122A;}
	.st27{fill:#7D93A7;}
	.st28{fill:#332C26;}
	.st29{fill:#0D0D0D;}
	.st30{opacity:0.4;}
	.st31{fill:#343332;}
	.st32{fill:#DDDDDC;}
	.st33{opacity:0.4;fill:#FBD0CE;}
	.st34{opacity:0.7;}
	.st35{fill:#E7B89A;}
	.st36{opacity:0.3;fill:#FFFFFF;}
	.st37{opacity:0.5;}
	.st38{opacity:0.15;fill:#FFFFFF;}
</style>
<g>
	<g>
		<g>
			<g>
				<path class="st0" d="M116.84,165.92c-1.85-9.2-4.68-24.88-4.68-24.88s-3.78,1.59-9.9,2.44c0,0,1.65,14.01,4.99,23.7
					C109.26,167.69,113.14,168.2,116.84,165.92z"/>
				<path class="st1" d="M110.71,167.8L110.71,167.8c-1.46,0-2.71-0.25-3.51-0.45c-0.06-0.01-0.11-0.06-0.13-0.11
					c-3.31-9.59-4.99-23.6-5.02-23.74c0-0.09,0.07-0.19,0.17-0.21c6.04-0.83,9.82-2.4,9.86-2.42c0.05-0.02,0.11-0.02,0.16,0.01
					c0.05,0.03,0.09,0.08,0.1,0.13c0.03,0.16,2.85,15.78,4.68,24.88c0.01,0.08-0.02,0.16-0.09,0.2
					C115.09,167.23,113,167.8,110.71,167.8z M107.4,167.02c0.78,0.19,1.95,0.42,3.32,0.42l0,0c2.17,0,4.15-0.54,5.91-1.6
					c-1.71-8.51-4.26-22.57-4.62-24.53c-0.88,0.34-4.39,1.61-9.54,2.34C102.67,145.32,104.32,158.06,107.4,167.02z"/>
			</g>
			<g>
				<path class="st2" d="M112.21,174.4c2.17,0.16,2.17,0.16,2.17,0.16s1.8-2.62,3.65-3.08c-0.28-1.12-0.7-3.1-1.2-5.55
					c-3.7,2.28-7.58,1.77-9.59,1.25c0.72,2.07,1.52,3.95,2.39,5.43C109.64,172.61,110.05,174.23,112.21,174.4z"/>
				<path class="st3" d="M114.39,174.74c-0.01,0-0.01,0-0.01,0l-2.16-0.16c-2.12-0.16-2.67-1.67-2.75-1.89
					c-0.82-1.41-1.62-3.24-2.39-5.45c-0.02-0.07,0-0.14,0.04-0.19c0.05-0.05,0.12-0.07,0.19-0.06c0.77,0.2,1.99,0.44,3.41,0.44
					c2.21,0,4.24-0.55,6.03-1.66c0.05-0.04,0.12-0.04,0.17-0.02c0.06,0.02,0.1,0.07,0.11,0.14c0.53,2.63,0.93,4.49,1.19,5.53
					c0.02,0.06,0.01,0.1-0.02,0.15c-0.03,0.04-0.07,0.07-0.11,0.09c-1.76,0.44-3.52,2.98-3.55,3.01
					C114.5,174.71,114.44,174.74,114.39,174.74z M107.54,167.44c0.72,2.05,1.49,3.76,2.26,5.08c0.01,0.01,0.02,0.02,0.02,0.04
					c0.01,0.06,0.41,1.5,2.4,1.64l2.07,0.16c0.33-0.46,1.86-2.49,3.51-3.01c-0.24-1.04-0.62-2.75-1.1-5.11
					c-1.79,1.05-3.8,1.58-5.99,1.58C109.46,167.8,108.34,167.63,107.54,167.44z"/>
			</g>
		</g>
		<g>
			<g>
				<path class="st0" d="M83.61,168.24c0.19-2.21,0.44-4.87,0.67-7.15c0.5-4.97,2.08-16.94,2.08-16.94s-6.13-0.53-9.06-2.24
					c0,0-2.98,15.17-3.08,26.22C75.66,169,78.73,170.14,83.61,168.24z"/>
				<path class="st1" d="M78.61,169.46L78.61,169.46c-2.12,0-3.61-0.64-4.48-1.17c-0.06-0.04-0.09-0.1-0.09-0.17
					c0.1-10.94,3.05-26.1,3.08-26.25c0.01-0.06,0.06-0.1,0.11-0.13c0.06-0.02,0.12-0.02,0.17,0.01c2.86,1.67,8.91,2.2,8.98,2.21
					c0.05,0.01,0.1,0.03,0.14,0.07c0.02,0.05,0.04,0.1,0.03,0.14c-0.01,0.13-1.58,12.02-2.08,16.93c-0.18,1.87-0.42,4.27-0.66,7.14
					c-0.01,0.08-0.05,0.14-0.12,0.17C81.9,169.11,80.19,169.46,78.61,169.46z M74.42,168.02c0.84,0.5,2.22,1.06,4.19,1.06h0
					c1.5,0,3.12-0.34,4.83-0.98c0.25-2.82,0.47-5.19,0.65-7.03c0.47-4.58,1.85-15.18,2.06-16.75c-1.06-0.1-5.98-0.66-8.71-2.12
					C77.05,144.24,74.53,157.91,74.42,168.02z"/>
			</g>
			<g>
				<path class="st2" d="M83.61,168.24c-4.89,1.9-7.96,0.77-9.39-0.11c-0.01,1.46,0.02,2.86,0.12,4.14
					c0.42,0.39,0.88,0.97,1.18,1.79c2.41-1.32,5.22-0.91,6.62,0.55c1.03-1.65,1.03-1.65,1.03-1.65l0.16-0.04
					c-0.07-0.03-0.13-0.05-0.13-0.05S83.38,170.86,83.61,168.24z"/>
				<path class="st3" d="M82.15,174.79c-0.06,0-0.1-0.02-0.14-0.06c-0.79-0.82-2.02-1.29-3.4-1.29c-1.03,0-2.07,0.27-3,0.78
					c-0.04,0.02-0.1,0.02-0.16,0.01c-0.06-0.02-0.09-0.07-0.11-0.12c-0.24-0.67-0.62-1.24-1.13-1.71c-0.03-0.03-0.05-0.08-0.06-0.12
					c-0.09-1.22-0.14-2.62-0.11-4.15c0-0.07,0.03-0.13,0.09-0.17c0.07-0.03,0.14-0.03,0.19,0c0.82,0.51,2.23,1.12,4.27,1.12
					c1.53,0,3.2-0.35,4.94-1.03c0.07-0.02,0.13-0.01,0.18,0.03c0.05,0.04,0.08,0.1,0.08,0.16c-0.2,2.23-0.35,4.01-0.39,4.5l0,0
					c0.07,0.03,0.11,0.11,0.11,0.19c-0.01,0.08-0.07,0.14-0.15,0.17l-0.08,0.01l-0.98,1.59C82.27,174.75,82.22,174.78,82.15,174.79
					C82.15,174.79,82.15,174.79,82.15,174.79z M78.61,173.06c1.39,0,2.64,0.45,3.5,1.24l0.9-1.45c0.01-0.01,0.01-0.01,0.02-0.02
					c0-0.13,0.16-1.94,0.37-4.31c-1.69,0.62-3.31,0.94-4.8,0.94c-1.91,0-3.3-0.52-4.19-1.01c0,1.37,0.03,2.63,0.11,3.71
					c0.47,0.45,0.84,1,1.09,1.62C76.56,173.31,77.58,173.06,78.61,173.06z"/>
			</g>
			<path class="st4" d="M83.61,168.24c-0.96,0.37-1.84,0.62-2.66,0.79c-0.02,0.13-0.04,0.25-0.06,0.37
				c-0.12,0.71-0.11,1.61-0.41,2.28c-0.43,0.92-1.42,1.62-2.49,1.47c-2.07-0.3-2.16-2.5-2.22-4.3c-0.63-0.21-1.15-0.47-1.55-0.71
				c-0.01,1.46,0.02,2.86,0.12,4.14c0.42,0.39,0.88,0.97,1.18,1.79c2.41-1.32,5.22-0.91,6.62,0.55c1.03-1.65,1.03-1.65,1.03-1.65
				l0.16-0.04c-0.07-0.03-0.13-0.05-0.13-0.05S83.38,170.86,83.61,168.24z"/>
		</g>
		<path class="st1" d="M80.69,147.41c-0.39,0.16-0.76,0.25-1.17,0.2c-0.36-0.04-0.69-0.31-0.97-0.52c-0.1-0.08-0.28,0.2-0.21,0.29
			c0.25,0.31,0.53,0.65,0.96,0.74c0.48,0.1,0.91-0.06,1.33-0.29C80.73,147.77,80.9,147.33,80.69,147.41z"/>
		<path class="st1" d="M110.65,146.71c-0.19,0.2-0.44,0.33-0.71,0.38c-0.36,0.09-0.74-0.18-1.04-0.34c-0.13-0.07-0.33,0.24-0.2,0.34
			c0.39,0.32,0.7,0.58,1.23,0.48c0.39-0.07,0.7-0.35,0.92-0.66C110.98,146.71,110.84,146.51,110.65,146.71z"/>
		<g>
			<path class="st2" d="M115.44,184.84c-3.91-1.01-6.1-1.33-7.25-1.42c0.02,0.49,0.1,0.92,0.27,1.28c0.5,1.09,2.52,0.16,9.06,2.01
				c5.55,1,10.75,1.34,16.21,0.34c4.03-1.01,4.86-2.02,4.86-2.02s0.01-0.45-0.03-1.16C131.86,186.78,121.87,186.51,115.44,184.84z"
				/>
			<path class="st3" d="M126.96,187.85c-2.87,0-5.97-0.31-9.47-0.95c-3.39-0.96-5.52-1.17-6.93-1.31c-1.32-0.13-1.99-0.19-2.28-0.82
				c-0.16-0.35-0.25-0.78-0.28-1.35c-0.01-0.06,0.01-0.11,0.06-0.14c0.03-0.04,0.08-0.07,0.15-0.06c1.16,0.09,3.36,0.41,7.28,1.43
				c3.07,0.79,6.78,1.24,10.46,1.24c3.42,0,8.36-0.37,12.54-2.19c0.06-0.02,0.12-0.02,0.17,0.01c0.06,0.02,0.09,0.09,0.09,0.15
				c0.05,0.7,0.04,1.15,0.04,1.17c0,0.04-0.02,0.09-0.05,0.12c-0.03,0.04-0.92,1.06-4.97,2.07
				C131.54,187.64,129.3,187.85,126.96,187.85z M108.4,183.63c0.04,0.41,0.11,0.72,0.24,0.99c0.18,0.41,0.65,0.47,1.96,0.6
				c1.42,0.14,3.57,0.35,6.98,1.31c3.46,0.63,6.54,0.94,9.39,0.94c2.33,0,4.52-0.2,6.73-0.61c3.41-0.85,4.5-1.71,4.71-1.9
				c0.01-0.13,0-0.41-0.02-0.8c-4.18,1.75-9.06,2.12-12.44,2.12c-3.7,0-7.46-0.45-10.56-1.25
				C111.74,184.07,109.59,183.74,108.4,183.63z"/>
		</g>
		<path class="st4" d="M128.86,185.98c-4.77,0.32-9.69-0.17-13.41-1.14c-3.91-1.01-6.1-1.33-7.25-1.42c0.02,0.49,0.1,0.92,0.27,1.28
			c0.5,1.09,2.52,0.16,9.06,2.01c3.9,0.71,7.64,1.08,11.41,0.89C128.88,187.07,128.86,186.53,128.86,185.98z"/>
		<g>
			<g>
				<path class="st2" d="M138.57,183.87c-0.18-2.71-1.19-9.25-6.85-8.91c-0.36,0-0.71,0-1.05,0c-5.91,2.16-6.36,8.83-6.34,11.08
					C129.27,186.21,134.51,185.63,138.57,183.87z"/>
				<path class="st3" d="M125.96,186.27L125.96,186.27c-0.54,0-1.09-0.01-1.64-0.02c-0.09-0.01-0.17-0.09-0.17-0.19
					c-0.02-2.08,0.39-9.04,6.47-11.26c0.02-0.01,0.04-0.01,0.06-0.01c0.34,0,0.68,0,1.04-0.01c0.13,0,0.28,0,0.41,0
					c5.45,0,6.45,6.37,6.63,9.11c0.01,0.08-0.04,0.15-0.11,0.17C134.41,185.88,129.41,186.27,125.96,186.27z M124.52,185.87
					c0.48,0.01,0.97,0.02,1.44,0.02l0,0c3.38,0,8.26-0.37,12.4-2.13c-0.2-2.77-1.25-8.93-6.64-8.61c-0.35,0-0.68,0-1.01,0.01
					C125.06,177.25,124.53,183.66,124.52,185.87z"/>
			</g>
			<g>
				<path class="st5" d="M130.68,174.97c-5.39,0.03-8.54-0.4-9.64-1.32c-1.21-1.26-1.77-2.61-3-2.18c-1.85,0.46-3.65,3.08-3.65,3.08
					s0,0-2.17-0.16c-2.17-0.17-2.58-1.79-2.58-1.79c-1.94,0.75-1.85,2.44-1.51,5.46c0.24,2.2-0.01,4.02,0.07,5.35
					c1.14,0.09,3.34,0.41,7.25,1.42c2.55,0.66,5.65,1.1,8.89,1.21C124.31,183.8,124.77,177.13,130.68,174.97z"/>
				<path class="st6" d="M124.33,186.24C124.33,186.24,124.33,186.24,124.33,186.24c-3.17-0.11-6.34-0.55-8.94-1.22
					c-3.89-1.01-6.07-1.33-7.22-1.41c-0.09-0.01-0.17-0.09-0.17-0.18c-0.03-0.52-0.01-1.1,0-1.77c0.04-1.04,0.08-2.23-0.07-3.58
					c-0.34-3.07-0.44-4.84,1.63-5.65c0.06-0.02,0.11-0.02,0.16,0.01c0.04,0.01,0.08,0.06,0.09,0.11c0.01,0.06,0.41,1.5,2.4,1.64
					l2.07,0.16c0.35-0.48,1.97-2.64,3.7-3.08c0.16-0.05,0.33-0.08,0.49-0.08c0.76,0,1.28,0.65,1.89,1.4c0.25,0.3,0.5,0.61,0.8,0.93
					c1.01,0.84,3.98,1.25,9.07,1.25h0.44l0,0c0.09,0,0.18,0.06,0.19,0.16c0.01,0.09-0.03,0.18-0.12,0.21
					c-5.85,2.13-6.24,8.89-6.23,10.9c0.01,0.05-0.01,0.1-0.05,0.14C124.44,186.21,124.38,186.24,124.33,186.24z M108.36,183.24
					c1.21,0.11,3.39,0.44,7.12,1.41c2.52,0.65,5.58,1.08,8.66,1.2c0-2.17,0.51-8.24,5.6-10.7c-4.94-0.02-7.76-0.46-8.83-1.36
					c-0.33-0.33-0.6-0.67-0.84-0.97c-0.69-0.85-1.2-1.45-1.98-1.19c-1.77,0.44-3.53,2.99-3.56,3.02c-0.03,0.05-0.09,0.09-0.16,0.08
					l-2.16-0.16c-1.81-0.14-2.48-1.25-2.68-1.72c-1.63,0.73-1.54,2.31-1.22,5.18c0.15,1.38,0.12,2.58,0.08,3.63
					C108.36,182.26,108.36,182.77,108.36,183.24z"/>
			</g>
			<g>
				<path class="st5" d="M130.68,174.97c-5.39,0.03-8.54-0.4-9.64-1.32c-1.21-1.26-1.77-2.61-3-2.18c-1.85,0.46-3.65,3.08-3.65,3.08
					s0,0-2.17-0.16c-2.17-0.17-2.58-1.79-2.58-1.79c-1.94,0.75-1.85,2.44-1.51,5.46c0.02,0.16,0.03,0.32,0.04,0.47
					c0-0.37,0.05-2.52,1.12-3.25c1.17-0.78,3.01,0.5,4.19,0.62c1.17,0.1,1,1.79,1.45,2.95c-0.06-2.51,0.41-4.23,2.22-5.63
					c1.68-1.29,2.29,0.11,1.01,1.06c-1.29,0.95-1.9,2.79-1.41,4.51c0.34,1.45,2.18-0.22,2.96-1.33c0.79-1.12,0.67,1.11,0.84,2.06
					c0.17,0.95,1.79,0.34,2.51-1c0.72-1.34,2.07-0.62,1.57,1.06c-0.51,1.67-0.78,5.91-5.2,4.8c-4.85-1.23-11.16-0.5-11.21-3.41l0,0
					c-0.03,0.93-0.08,1.75-0.03,2.43c1.14,0.09,3.34,0.41,7.25,1.42c2.55,0.66,5.65,1.1,8.89,1.21
					C124.31,183.8,124.77,177.13,130.68,174.97z"/>
			</g>
		</g>
		<g>
			<path class="st2" d="M122.69,177.92c0,0,0.86-2.39,2.94-3.12c0.92-0.43-0.47-2.06-2.64-0.12
				C120.39,177.03,121.46,180.32,122.69,177.92z"/>
			<path class="st3" d="M121.87,178.95L121.87,178.95c-0.25,0-0.44-0.17-0.56-0.46c-0.3-0.78,0-2.53,1.58-3.95
				c0.9-0.81,1.62-0.97,2.07-0.97c0.68,0,1.07,0.36,1.14,0.71c0.07,0.29-0.09,0.55-0.38,0.7c-2,0.69-2.83,2.99-2.84,3.02
				C122.47,178.78,122.1,178.95,121.87,178.95z M124.96,173.94c-0.38,0-1.01,0.15-1.82,0.88c-1.43,1.29-1.73,2.87-1.48,3.53
				c0.04,0.09,0.1,0.22,0.21,0.22l0,0c0.14,0,0.38-0.19,0.67-0.73c0.03-0.08,0.89-2.47,3.04-3.22c0.09-0.03,0.19-0.12,0.16-0.26
				C125.69,174.15,125.4,173.94,124.96,173.94z"/>
		</g>
		<path class="st4" d="M125.46,173.84c-0.26,0.25-0.57,0.47-0.92,0.66c-0.9,0.49-1.57,0.95-2.07,1.87
			c-0.22,0.39-0.43,0.83-0.76,1.14c-0.11,0.1-0.21,0.18-0.32,0.22c-0.04,1.08,0.61,1.54,1.3,0.18c0,0,0.86-2.39,2.94-3.12
			C126.1,174.58,125.98,174.06,125.46,173.84z"/>
		<g>
			<path class="st2" d="M118.41,177.88c0,0,1.47-2.32,3.52-3.71c1.05-0.69-0.5-1.89-2.28-0.23c-1.78,1.67-2.39,2.98-2.32,3.83
				C117.4,178.62,117.87,178.42,118.41,177.88z"/>
			<path class="st3" d="M117.67,178.54L117.67,178.54c-0.21,0-0.48-0.13-0.53-0.75c-0.09-1.05,0.75-2.46,2.38-3.98
				c0.62-0.57,1.28-0.89,1.89-0.89c0.51,0,0.91,0.22,1.02,0.58c0.09,0.29-0.06,0.61-0.4,0.83c-1.99,1.36-3.44,3.63-3.45,3.66
				C118.2,178.38,117.92,178.54,117.67,178.54z M121.41,173.29c-0.29,0-0.9,0.11-1.63,0.79c-1.52,1.42-2.35,2.76-2.26,3.67
				c0.01,0.2,0.07,0.41,0.16,0.41l0,0c0.06,0,0.23-0.04,0.61-0.41c0.03-0.07,1.49-2.33,3.54-3.73c0.2-0.14,0.29-0.29,0.25-0.42
				C122.02,173.45,121.8,173.29,121.41,173.29z"/>
		</g>
		<path class="st4" d="M121.92,173.75c-0.51,0.45-1.21,0.59-1.74,1.03c-0.53,0.46-0.95,0.98-1.4,1.52c-0.34,0.41-0.85,0.92-1.39,0.8
			c-0.06,0.25-0.08,0.47-0.07,0.67c0.08,0.85,0.54,0.65,1.08,0.11c0,0,1.47-2.32,3.52-3.71c0.34-0.22,0.4-0.49,0.27-0.7
			C122.12,173.56,122.03,173.66,121.92,173.75z"/>
		<g>
			<path class="st5" d="M76.18,177.98c5.29-0.14,7.73,2.03,8.85,4.84c-0.04-2.32-0.25-5.07-0.43-6.11
				c-0.25-1.45,0.51-1.76,0.63-2.33c0.11-0.49-1.45-1.25-1.89-1.46l-0.16,0.04c0,0,0,0-1.03,1.65c-1.4-1.46-4.21-1.87-6.62-0.55
				c-0.3-0.82-0.76-1.4-1.18-1.79l0,0c-1.67-0.67-2.21,1.16-2.28,2.86c-2.63,2-3.98,5.74-4.5,8.76
				C67.98,182.9,70.31,178.13,76.18,177.98z"/>
			<path class="st6" d="M67.57,184.07c-0.02,0-0.04,0-0.05,0c-0.09-0.03-0.15-0.12-0.14-0.22c0.32-1.86,1.41-6.42,4.5-8.82
				c0.1-2.38,1.06-3.52,2.5-2.95c0.04,0,0.07,0.01,0.1,0.04c0.49,0.47,0.87,1.02,1.14,1.67c0.94-0.48,1.96-0.73,2.99-0.73
				c1.39,0,2.64,0.45,3.5,1.24l0.9-1.45c0.03-0.04,0.07-0.08,0.12-0.09l0.16-0.03c0.05,0,0.08,0,0.12,0.01
				c1.42,0.67,2.09,1.23,2,1.67c-0.05,0.21-0.17,0.38-0.28,0.56c-0.24,0.36-0.51,0.77-0.35,1.69c0.18,1.02,0.4,3.69,0.43,6.09
				c0.01,0.01,0.01,0.03,0.01,0.06c0,0.11-0.07,0.2-0.19,0.18c-0.09,0.02-0.15-0.04-0.19-0.11c-1.31-3.29-4.12-4.83-8.66-4.71
				c-5.76,0.15-8.04,4.84-8.44,5.79C67.71,184.03,67.64,184.07,67.57,184.07z M73.69,172.3c-1.23,0-1.41,2.17-1.43,2.82
				c0,0.06-0.03,0.11-0.07,0.15c-2.47,1.86-3.63,5.15-4.15,7.31c1.09-1.79,3.55-4.68,8.15-4.79c0.16,0,0.31-0.01,0.46-0.01
				c4.04,0,6.72,1.35,8.17,4.11c-0.07-2.11-0.26-4.31-0.4-5.17c-0.19-1.07,0.16-1.58,0.41-1.97c0.1-0.16,0.19-0.29,0.22-0.44
				c0.03-0.15-0.48-0.62-1.73-1.21h-0.02l-0.98,1.59c-0.03,0.04-0.09,0.08-0.15,0.08c-0.05,0-0.11-0.01-0.15-0.06
				c-0.79-0.82-2.02-1.29-3.4-1.29c-1.03,0-2.07,0.27-3,0.78c-0.04,0.02-0.1,0.02-0.16,0.01c-0.06-0.02-0.09-0.07-0.11-0.12
				c-0.24-0.66-0.61-1.22-1.1-1.68C74.05,172.35,73.86,172.3,73.69,172.3z"/>
		</g>
		<g>
			<path class="st7" d="M68.32,180.89c0.4-1.17,0.92-2.34,1.6-3.38C68.96,178.8,68.01,181.04,68.32,180.89z"/>
			<path class="st5" d="M83.06,178.91c-1-0.97-0.67-2.43,0.14-1.68c0.79,0.75,0.54,0.13-0.05-1.59c-0.67-1.94,1.72-1.81,1.31-0.97
				c-0.43,0.83,0.16,2.31,0.16,2.31l0.02,0c-0.01-0.1-0.03-0.2-0.04-0.28c-0.25-1.45,0.51-1.76,0.63-2.33
				c0.11-0.49-1.45-1.25-1.89-1.46l-0.16,0.04c0,0,0,0-1.03,1.65c-1.4-1.46-4.21-1.87-6.62-0.55c-0.3-0.82-0.76-1.4-1.18-1.79l0,0
				c-1.67-0.67-2.21,1.16-2.28,2.86c-0.21,0.16-0.41,0.35-0.62,0.53c0.49-0.09,0.97-0.09,1.36,0.07c-0.17-1.58-0.03-2.47,0.66-2.54
				c0.7-0.08,0.78,1.72-0.15,2.76c-0.73,0.84,0.37,0.96-1.21,1.73c-1.59,0.77-2.99,2.35-3.68,3.13c-0.05,0.06-0.09,0.09-0.12,0.09
				c-0.34,1.02-0.59,2.04-0.75,3c0.41-0.99,2.74-5.76,8.61-5.91c5.29-0.14,7.73,2.03,8.85,4.84c-0.02-1.45-0.12-3.08-0.22-4.34
				c-0.01,0.07-0.02,0.15-0.02,0.27C84.83,180.42,84.08,179.88,83.06,178.91z"/>
		</g>
		<g>
			<g>
				<path class="st2" d="M84.99,184.94c0.04-0.6,0.05-1.33,0.04-2.13c-1.12-2.8-3.56-4.97-8.85-4.84c-5.87,0.15-8.2,4.92-8.61,5.91
					c-0.1,0.6-0.18,1.17-0.23,1.69c0,0.09-0.01,0.17-0.01,0.25C69.86,186.61,76.28,187.91,84.99,184.94z"/>
				<path class="st3" d="M74.33,186.99L74.33,186.99c-3.22,0-5.61-0.53-7.05-0.97c-0.09-0.02-0.14-0.1-0.14-0.19
					c0.01-0.09,0.01-0.17,0.01-0.26c0.04-0.53,0.11-1.09,0.22-1.71c0.43-1.02,2.81-5.9,8.8-6.06c0.16,0,0.31-0.01,0.46-0.01
					c4.42,0,7.23,1.62,8.56,4.95c0.01,0.02,0.01,0.05,0.01,0.07c0.01,0.85,0,1.57-0.03,2.14c0,0.07-0.05,0.13-0.12,0.17
					C81.42,186.35,77.82,186.99,74.33,186.99z M67.53,185.69c1.42,0.42,3.73,0.91,6.8,0.91l0,0c3.41,0,6.93-0.61,10.48-1.8
					c0.02-0.53,0.03-1.19,0.02-1.96c-1.27-3.15-3.96-4.68-8.19-4.68c-0.15,0-0.3,0-0.46,0c-5.76,0.15-8.04,4.84-8.44,5.79
					c-0.09,0.55-0.17,1.12-0.21,1.63C67.53,185.63,67.53,185.66,67.53,185.69z"/>
			</g>
			<g>
				<path class="st2" d="M67.33,185.83c-0.07,1.81,0.55,3,8.07,2.7c7.88-0.31,9.38-1.06,9.58-3.33c0-0.08,0-0.18,0.01-0.26
					C76.28,187.91,69.86,186.61,67.33,185.83z"/>
				<path class="st3" d="M73.28,188.77c-3.12,0-4.85-0.35-5.62-1.14c-0.51-0.52-0.54-1.17-0.53-1.8c0.01-0.05,0.03-0.1,0.08-0.14
					c0.05-0.03,0.11-0.04,0.16-0.03c1.42,0.44,3.78,0.96,6.95,0.96c3.44,0,7.01-0.62,10.61-1.85c0.05-0.02,0.12,0,0.17,0.03
					c0.05,0.04,0.08,0.1,0.07,0.17v0.07c0,0.07,0,0.13-0.01,0.19c-0.21,2.52-2.12,3.2-9.76,3.51
					C74.65,188.76,73.93,188.77,73.28,188.77z M67.52,186.09c0.01,0.51,0.09,0.93,0.43,1.28c0.82,0.85,3.14,1.16,7.46,0.98
					c7.8-0.31,9.21-1.06,9.38-3.14c-3.54,1.18-7.05,1.78-10.45,1.78C71.29,186.99,68.98,186.51,67.52,186.09z"/>
			</g>
			<path class="st4" d="M77.7,186.6c0.04,0.62,0,1.23-0.09,1.83c5.96-0.37,7.2-1.19,7.37-3.22c0-0.08,0-0.18,0.01-0.26
				C82.33,185.85,79.88,186.35,77.7,186.6z"/>
		</g>
		<g>
			<path class="st2" d="M74.95,175.08c0,0,2.31-1.06,5.13-0.2c1.8,0.59,2.01,1.65,0.45,1.1c-1.56-0.54-4.07-0.47-5.37-0.16
				C73.84,176.13,74.04,175.43,74.95,175.08z"/>
			<path class="st3" d="M81.24,176.32c-0.21,0-0.47-0.06-0.79-0.17c-0.71-0.26-1.72-0.39-2.85-0.39c-0.88,0-1.79,0.09-2.42,0.24
				c-0.23,0.06-0.43,0.09-0.6,0.09c-0.44,0-0.53-0.21-0.55-0.33c-0.06-0.3,0.27-0.64,0.84-0.86c0.04-0.01,1.22-0.54,2.92-0.54
				c0.79,0,1.58,0.11,2.33,0.34c1.03,0.34,1.69,0.87,1.63,1.29C81.74,176.09,81.66,176.32,81.24,176.32z M77.61,175.38
				c1.16,0,2.22,0.14,2.98,0.41c0.69,0.24,0.8,0.12,0.8,0.11c0-0.1-0.4-0.53-1.38-0.85c-0.7-0.21-1.46-0.33-2.21-0.33
				c-1.62,0-2.77,0.52-2.77,0.52c-0.43,0.17-0.61,0.37-0.62,0.44c0.01,0,0.06,0.02,0.18,0.02c0.14,0,0.3-0.02,0.52-0.07
				C75.76,175.48,76.68,175.38,77.61,175.38z"/>
		</g>
		<path class="st4" d="M78.66,175.17c-0.89,0.01-2.11,0.37-3.02,0.15c-0.31-0.08-0.46-0.19-0.53-0.32c-0.1,0.05-0.17,0.08-0.17,0.08
			c-0.9,0.35-1.11,1.06,0.2,0.73c1.3-0.31,3.82-0.38,5.37,0.16c0.77,0.27,1.11,0.15,1.04-0.11
			C80.6,175.61,79.69,175.15,78.66,175.17z"/>
		<g>
			<path class="st2" d="M73.96,177.94c0,0,2.85-1.14,6.63,0.3c1.39,0.7,1.56-1.35-1.14-1.69C74.75,175.97,72.75,177.52,73.96,177.94
				z"/>
			<path class="st3" d="M81.11,178.57L81.11,178.57c-0.19,0-0.39-0.05-0.61-0.17c-1.23-0.45-2.5-0.7-3.77-0.7
				c-1.64,0-2.7,0.41-2.71,0.41c-0.04,0.01-0.09,0.01-0.13,0c-0.49-0.17-0.5-0.47-0.47-0.6c0.1-0.62,1.56-1.28,4.03-1.28
				c0.64,0,1.32,0.04,2.03,0.13c1.74,0.21,2.31,1.09,2.28,1.63C81.74,178.34,81.48,178.57,81.11,178.57z M76.73,177.33
				c1.32,0,2.64,0.24,3.92,0.73c0.19,0.09,0.34,0.14,0.46,0.14l0,0c0.11,0,0.26-0.03,0.27-0.22c0.02-0.32-0.43-1.04-1.95-1.23
				c-0.69-0.09-1.36-0.13-1.98-0.13c-2.49,0-3.61,0.69-3.65,0.97c-0.01,0.07,0.09,0.12,0.17,0.15
				C74.23,177.64,75.25,177.33,76.73,177.33z"/>
		</g>
		<path class="st4" d="M79.11,177.16c-1.1-0.04-2.18,0.1-3.27,0.12c-0.34,0-1.1-0.02-1.16-0.48c-1.1,0.37-1.37,0.91-0.73,1.14
			c0,0,2.85-1.14,6.63,0.3c0.76,0.38,1.15-0.07,0.9-0.6C80.7,177.53,79.97,177.2,79.11,177.16z"/>
		<path class="st6" d="M83.53,176.33c-0.23-0.7-0.64-1.21-1.18-1.7c-0.08-0.08-0.25,0.18-0.17,0.25c0.21,0.23,0.42,0.46,0.6,0.72
			c0.21,0.3,0.33,0.64,0.51,0.97C83.36,176.7,83.57,176.42,83.53,176.33z"/>
		<path class="st6" d="M75.54,174.11c-0.37,0.18-0.8,0.53-0.93,0.94c-0.03,0.11,0.1,0.05,0.12-0.01c0.13-0.35,0.53-0.53,0.82-0.74
			C75.61,174.26,75.67,174.05,75.54,174.11z"/>
		<g class="st8">
			<path class="st0" d="M77.31,141.91c0,0-2.98,15.17-3.08,26.22c1.43,0.88,4.5,2.01,9.39,0.11c0.19-2.21,0.44-4.87,0.67-7.15
				c0.5-4.97,2.08-16.94,2.08-16.94S80.23,143.62,77.31,141.91z M78.55,144.45c0.18-0.51,1.24-0.32,2.57,0.36
				c1.33,0.69,0.69,2.3-1.29,2.11C77.85,146.75,78.55,144.45,78.55,144.45z M81.35,160.23c-0.67,7.32-5.2,9.07-5.54,3.5
				c-0.34-5.56,0.75-11.92,0.75-11.92c0.51-2.95,2.94-3.26,4.62-2.55C82.86,149.97,82.01,152.91,81.35,160.23z"/>
		</g>
		<g class="st8">
			<path class="st0" d="M112.15,141.04c0,0-3.78,1.59-9.9,2.44c0,0,1.65,14.01,4.99,23.7c2.01,0.52,5.89,1.03,9.59-1.25
				C114.99,156.72,112.15,141.04,112.15,141.04z M110.03,144.19c0.77,0.06,1.81,0.58,1.06,1.45c-0.69,0.8-1.64,1.25-2.39,0.3
				c-0.18-0.23-0.26-0.44-0.27-0.65C108.39,144.61,109.24,144.14,110.03,144.19z M113.53,165.31c-2.7,0.61-4.49-4.24-5.1-9.25
				c-0.9-7.49,2.9-9.3,4.65-3.65C113.08,152.41,116.23,164.7,113.53,165.31z"/>
		</g>
		<g>
			<g>
				<path class="st9" d="M98.14,140.52c0,0-0.87-0.13-0.87,0.86c0,1.01,0.2,2.14,0.2,2.14c0.4,0.66,12.25,2.52,20.24-5.13
					c0.61-1.13-0.2-2-0.99-1.4C110.73,141.84,98.14,140.52,98.14,140.52z"/>
				<path class="st10" d="M102.16,144.39c-2.37,0-4.59-0.36-4.85-0.79c-0.01-0.02-0.01-0.04-0.02-0.06c-0.01-0.05-0.2-1.16-0.2-2.17
					c0-0.78,0.5-1.06,0.96-1.06c0.08,0,0.13,0.01,0.13,0.01c0.01,0,1.58,0.17,3.85,0.17c3.76,0,10.66-0.48,14.58-3.66
					c0.51-0.37,1.09-0.27,1.36,0.18c0.23,0.39,0.2,0.92-0.08,1.46c0,0.01-0.02,0.03-0.03,0.05
					C112.52,143.63,105.73,144.39,102.16,144.39z M97.66,143.43c0.22,0.17,1.85,0.58,4.5,0.58c3.51,0,10.18-0.74,15.41-5.74
					c0.2-0.4,0.23-0.79,0.08-1.06c-0.17-0.27-0.49-0.31-0.8-0.07c-3.81,3.09-10.15,3.73-14.81,3.73c-2.29,0-3.89-0.17-3.9-0.17
					c-0.01,0-0.03-0.01-0.08-0.01c-0.27,0-0.58,0.13-0.58,0.68C97.46,142.23,97.61,143.2,97.66,143.43z"/>
			</g>
			<path class="st11" d="M100.69,140.66c-1.55-0.04-2.55-0.14-2.55-0.14s-0.87-0.13-0.87,0.86c0,1.01,0.2,2.14,0.2,2.14
				c0.12,0.21,1.45,0.54,3.44,0.65C100.75,143.01,100.72,141.84,100.69,140.66z"/>
			<path class="st11" d="M116.72,136.99c-0.94,0.75-2.03,1.35-3.21,1.84c0.3,0.74,0.4,1.56,0.4,2.39c1.32-0.75,2.61-1.68,3.8-2.83
				C118.32,137.25,117.52,136.39,116.72,136.99z"/>
			<g>
				<path class="st9" d="M74.17,137.92l-0.87-0.13c0,0-0.46,1.93-0.53,2.46c-0.07,0.54,11.05,7.59,20.64,3.67
					c0.6-1.93,0.53-2.86,0.53-2.86l-0.73,0.06C82.62,144.17,74.17,137.92,74.17,137.92z"/>
				<path class="st10" d="M87.12,145.28c-7.04,0-13.56-3.8-14.43-4.79c-0.05-0.07-0.12-0.17-0.11-0.27c0.07-0.54,0.52-2.4,0.54-2.48
					c0.02-0.1,0.12-0.16,0.21-0.14l0.88,0.13c0.02,0,0.06,0.02,0.08,0.04c0.06,0.04,5.5,4.01,12.99,4.01c2,0,3.98-0.29,5.89-0.85
					l0.77-0.07c0.05,0,0.11,0.01,0.15,0.05c0.04,0.03,0.06,0.08,0.06,0.13c0,0.04,0.07,0.99-0.53,2.93
					c-0.02,0.05-0.06,0.1-0.11,0.12C91.54,144.89,89.4,145.28,87.12,145.28z M72.96,140.24c0.4,0.54,6.73,4.67,14.16,4.67
					c2.2,0,4.27-0.38,6.14-1.14c0.4-1.33,0.48-2.17,0.49-2.52l-0.52,0.04c-1.92,0.56-3.94,0.85-5.97,0.85
					c-7.28,0-12.67-3.69-13.17-4.05L73.45,138C73.33,138.47,73.03,139.76,72.96,140.24z"/>
			</g>
			<path class="st11" d="M76.07,139.08c-1.22-0.65-1.9-1.16-1.9-1.16l-0.87-0.13c0,0-0.46,1.93-0.53,2.46
				c-0.02,0.17,1.07,1,2.9,1.92C75.66,141.12,75.77,140.07,76.07,139.08z"/>
			<path class="st11" d="M93.95,141.05l-0.73,0.06c-1.76,0.51-3.44,0.75-5.05,0.82c-0.1,1.09-0.39,2.13-0.78,3.16
				c2-0.03,4.05-0.37,6.02-1.18C94.01,141.98,93.95,141.05,93.95,141.05z"/>
		</g>
		<g>
			<g>
				<path class="st9" d="M80.61,120.69c-0.46-0.2-0.93-0.43-1.39-0.68c0,0-4.06,2.13-1.99,4.06c-0.68,1.27-1.21,2.73-1.61,4.22
					C80.17,127.79,80.65,122.91,80.61,120.69z"/>
				<path class="st10" d="M75.62,128.47c-0.06,0-0.11-0.02-0.15-0.06c-0.04-0.05-0.06-0.11-0.04-0.17c0.44-1.59,0.96-2.98,1.56-4.13
					c-0.42-0.44-0.6-0.92-0.53-1.43c0.21-1.53,2.56-2.79,2.67-2.84c0.05-0.03,0.12-0.03,0.18,0c0.44,0.24,0.9,0.46,1.38,0.67
					c0.07,0.04,0.12,0.1,0.12,0.18c0.01,2.17-0.44,7.28-5.18,7.78C75.63,128.47,75.63,128.47,75.62,128.47z M79.23,120.22
					c-0.42,0.24-2.23,1.32-2.38,2.51c-0.06,0.44,0.11,0.83,0.52,1.21c0.05,0.05,0.08,0.15,0.04,0.22c-0.58,1.08-1.08,2.4-1.52,3.91
					c4.09-0.64,4.57-5.17,4.56-7.25C80.01,120.62,79.62,120.42,79.23,120.22z"/>
			</g>
			<g>
				<path class="st9" d="M114.48,125.37c-0.48-1.8-0.82-2.91-0.82-2.91s1.53-1.13,0.93-2.47c-0.6-1.33-2.2-3.19-2.2-3.19
					s-1.18,0.61-3.15,1.43C109.29,120.22,109.94,124.38,114.48,125.37z"/>
				<path class="st10" d="M114.48,125.56c-0.02,0-0.03,0-0.04,0c-4.73-1.03-5.34-5.44-5.39-7.3c0-0.08,0.05-0.15,0.12-0.18
					c1.94-0.81,3.13-1.42,3.14-1.43c0.08-0.03,0.18-0.02,0.23,0.04c0.07,0.08,1.62,1.9,2.23,3.25c0.56,1.24-0.53,2.3-0.89,2.6
					c0.1,0.34,0.41,1.35,0.79,2.79c0.02,0.07,0,0.13-0.05,0.18C114.58,125.54,114.52,125.56,114.48,125.56z M109.43,118.38
					c0.07,1.78,0.7,5.67,4.79,6.74c-0.43-1.58-0.73-2.58-0.73-2.59c-0.03-0.08,0-0.16,0.07-0.21c0.01-0.01,1.41-1.06,0.87-2.23
					c-0.51-1.11-1.73-2.62-2.08-3.03C111.99,117.23,110.95,117.74,109.43,118.38z"/>
			</g>
			<g>
				<path class="st9" d="M114.48,125.37c-4.54-0.99-5.2-5.16-5.24-7.13c-5.88,2.46-18.77,6.78-28.62,2.44
					c0.03,2.22-0.44,7.1-4.99,7.6c-1.3,4.68-1.45,9.63-1.45,9.63s8.45,6.25,19.04,3.2c0,0,1.59-5.33,2.2-8.66
					c1.8,5.73,2.73,8.06,2.73,8.06s12.59,1.32,18.58-3.53C116.2,132.45,115.2,128.1,114.48,125.37z"/>
				<path class="st10" d="M87.27,142.15c-7.62,0-13.15-4.04-13.21-4.07c-0.05-0.04-0.08-0.1-0.08-0.16s0.17-5.03,1.46-9.69
					c0.03-0.07,0.08-0.13,0.16-0.13c4.43-0.48,4.85-5.34,4.84-7.4c0-0.07,0.02-0.13,0.09-0.17c0.05-0.04,0.12-0.04,0.17-0.02
					c2.76,1.22,5.99,1.85,9.61,1.85l0,0c7.51-0.01,15.04-2.68,18.87-4.28c0.05-0.02,0.12-0.01,0.17,0.01
					c0.05,0.03,0.08,0.09,0.08,0.16c0.05,1.77,0.64,5.96,5.1,6.94c0.07,0.01,0.12,0.06,0.14,0.13c0.74,2.82,1.73,7.13,2.25,11.65
					c0,0.07-0.02,0.12-0.07,0.16c-3.81,3.09-10.15,3.74-14.81,3.74l0,0c-2.29,0-3.89-0.17-3.9-0.17c-0.07-0.01-0.13-0.05-0.15-0.12
					c-0.01-0.02-0.88-2.2-2.51-7.36c-0.67,3.3-2.04,7.9-2.06,7.94c-0.02,0.06-0.07,0.1-0.13,0.13
					C91.32,141.86,89.3,142.15,87.27,142.15z M74.36,137.82c0.7,0.49,5.91,3.96,12.91,3.96c1.96,0,3.9-0.28,5.8-0.81
					c0.21-0.75,1.61-5.51,2.16-8.54c0.01-0.09,0.08-0.15,0.17-0.15c0.08-0.01,0.17,0.04,0.2,0.13c1.57,4.99,2.48,7.42,2.69,7.94
					c0.39,0.04,1.82,0.16,3.74,0.16c3.74,0,10.57-0.47,14.5-3.59c-0.52-4.39-1.48-8.58-2.2-11.37c-4.4-1.03-5.16-5.04-5.26-7.01
					c-3.93,1.62-11.35,4.2-18.76,4.2l0,0c-3.55,0-6.74-0.59-9.48-1.75c-0.03,2.28-0.63,6.91-5.05,7.48
					C74.62,132.66,74.39,137.11,74.36,137.82z"/>
			</g>
			<path class="st11" d="M109.24,118.25c-5.88,2.46-18.77,6.78-28.62,2.44c0.03,2.22-0.44,7.1-4.99,7.6
				c-0.22,0.79-0.4,1.58-0.56,2.36c0-0.03,0.02-0.06,0.03-0.09c0.51-1.76,1.13-0.88,3.14,0.75c-0.75-2.51,0.64-2.13,1.9-4.15
				c1.25-2.02,1.64-3.53,4.15-2.78c2.52,0.76,13.35,2.52,22.29-2.52c2.64-1.5,2.14,1.26,3.78,3.03c1.64,1.77-0.63,3.27-1.39,4.03
				c-0.75,0.76,1.76-0.51,2.77-1.26c1.01-0.76,2.39-1.89,3.41,0.75c0.04,0.13,0.1,0.24,0.16,0.34c-0.29-1.27-0.57-2.42-0.81-3.37
				C109.94,124.38,109.29,120.22,109.24,118.25z"/>
		</g>
		<g>
			<path class="st12" d="M85.79,78.04c0,0-1.26-0.37-1.51,2.2c-2.52,0.19-5.54,1.71-8.19,5.29c-2.64,3.6-4.98,6.87-4.98,6.87
				s-2.2-0.26-0.06,2.83c2.14,3.08,6.35,8.63,8.26,6.8c0,0-1.08,10.74-0.83,13.69c-2.02,2.08-2.45,3.14,0.75,5.1
				c3.21,1.94,9.93,3.52,18.17,2.07c8.24-1.44,15.65-5.09,16.22-6.97c0.57-1.89-2-3.27-2-3.27s-2.98-18.29-4.4-22.73
				c5.31-2.3,9.04-5.31,9.04-5.31s3.81,0.95,2.69-4.05c-1.1-5-5.15-12.29-7.05-8.64c-3.72,1.66-9.68,3.33-12.84,6.02
				c-1.11-0.87-2.62-1.19-5-1.03C91.68,77.07,85.79,78.04,85.79,78.04z"/>
			<path class="st13" d="M91.07,123.65c-4.72,0-9.18-1-11.92-2.67c-1.59-0.97-2.31-1.72-2.41-2.53c-0.11-0.86,0.48-1.67,1.56-2.79
				c-0.2-2.75,0.59-11.23,0.79-13.23c-0.2,0.1-0.42,0.15-0.66,0.15c-2.05,0-5.22-3.94-7.51-7.25c-0.87-1.23-1.15-2.11-0.87-2.64
				c0.16-0.31,0.52-0.49,0.97-0.49c0,0,0,0,0.01,0c0.38-0.54,2.53-3.55,4.92-6.78c3.12-4.23,6.4-5.18,8.16-5.35
				c0.25-2.02,1.14-2.24,1.52-2.24c0.08,0,0.13,0.01,0.17,0.02c0.51-0.09,5.98-0.97,8.24-1.13c2.36-0.16,3.85,0.14,5.01,0.98
				c2.29-1.89,5.91-3.27,9.13-4.49c1.3-0.5,2.54-0.97,3.59-1.43c0.37-0.68,0.84-1.03,1.4-1.03c2.29,0,5.11,5.89,5.97,9.77
				c0.36,1.63,0.26,2.83-0.33,3.56c-0.79,0.97-2.13,0.8-2.5,0.72c-0.53,0.42-4.06,3.11-8.86,5.22c1.39,4.49,4.11,21.13,4.35,22.5
				c0.45,0.27,2.56,1.6,2.02,3.44c-0.61,2.02-8.28,5.7-16.37,7.12C95.3,123.45,93.16,123.65,91.07,123.65z M79.32,101.84
				c0.02,0,0.04,0,0.08,0.02c0.07,0.04,0.11,0.11,0.1,0.18c-0.01,0.11-1.07,10.76-0.83,13.66c0,0.05,0,0.1-0.05,0.15
				c-1.03,1.06-1.61,1.82-1.51,2.54c0.08,0.68,0.77,1.37,2.23,2.26c2.69,1.63,7.07,2.61,11.73,2.61c2.08,0,4.19-0.18,6.31-0.55
				c8.45-1.49,15.58-5.18,16.08-6.85c0.52-1.72-1.89-3.03-1.93-3.05c-0.05-0.03-0.09-0.08-0.09-0.13c-0.03-0.19-2.99-18.33-4.4-22.7
				c-0.02-0.09,0.02-0.19,0.1-0.23c5.23-2.27,8.96-5.26,9-5.29c0.04-0.04,0.11-0.05,0.17-0.04c0,0,1.44,0.36,2.2-0.58
				c0.51-0.63,0.6-1.73,0.26-3.24c-0.93-4.18-3.76-9.47-5.61-9.47c-0.43,0-0.8,0.29-1.09,0.88c-0.02,0.03-0.06,0.06-0.1,0.09
				c-1.07,0.48-2.34,0.96-3.66,1.47c-3.23,1.23-6.9,2.63-9.14,4.53c-0.08,0.05-0.17,0.06-0.24,0.01c-1.09-0.86-2.53-1.15-4.87-0.99
				c-2.34,0.15-8.19,1.12-8.25,1.13c-0.03,0.01-0.06,0.01-0.09-0.01l0,0c0,0-0.04-0.01-0.11-0.01c-0.28,0-0.97,0.2-1.16,2.05
				c-0.01,0.09-0.08,0.17-0.17,0.17c-1.67,0.12-4.92,0.97-8.04,5.21c-2.61,3.54-4.95,6.82-4.97,6.86c-0.04,0.06-0.11,0.08-0.18,0.08
				c0,0-0.03,0-0.08,0c-0.15,0-0.52,0.03-0.64,0.28c-0.11,0.23-0.17,0.82,0.84,2.26c3.17,4.57,5.72,7.09,7.2,7.09
				c0.3,0,0.54-0.1,0.76-0.31C79.21,101.86,79.26,101.84,79.32,101.84z"/>
		</g>
		<g>
			<path class="st12" d="M118.95,80.55c-1.1-5-5.15-12.29-7.05-8.64c-3.72,1.66-9.68,3.33-12.84,6.02c-1.11-0.87-2.62-1.19-5-1.03
				c-2.37,0.16-8.26,1.13-8.26,1.13s-1.26-0.37-1.51,2.2c-2.52,0.19-5.54,1.71-8.19,5.29c-2.64,3.6-4.98,6.87-4.98,6.87
				s-2.2-0.26-0.06,2.83c2.14,3.08,6.35,8.63,8.26,6.8c0,0-1.08,10.74-0.83,13.69c-2.02,2.08-2.45,3.14,0.75,5.1
				c3.21,1.94,9.93,3.52,18.17,2.07c8.24-1.44,15.65-5.09,16.22-6.97c0.57-1.89-2-3.27-2-3.27s-2.98-18.29-4.4-22.73
				c5.31-2.3,9.04-5.31,9.04-5.31S120.07,85.55,118.95,80.55z M99.02,116.7c-12.72,3.03-16.63-2.02-17.12-9.82
				c-0.51-7.81,0-15.74,1.25-19.52c-1.64,2.14-2.52,3.9-2.77,2.39C80.13,88.25,80,86.6,80,86.6s-0.97,0.73-0.89,3.28
				c0.14,3.9,1.39,9.69-2.26,6.42c-3.73-3.35-4.66-4.29-2.27-3.78c0.38-2.77,1.63-5.41,4.75-8.98c2.69-3.09,4.83-1.85,4.83-1.85
				s0,1.26,2.01,2.78c-0.88-2.65-1.01-3.53,1.01-1.9c2.01,1.64,6.42,1.39,9.19-1.64c2.39-3.01,2.26-0.5,1.01,1.89
				c0,0,2.09-0.5,4.78,3.53C106.45,92.78,111.73,113.68,99.02,116.7z"/>
		</g>
		<g>
			<path class="st0" d="M87.31,78.1l-0.06,2.27c0,0,1.63,2.58,4.53,1.89c2.9-0.69,3.52-2.38,3.52-2.38l-0.25-2.9L87.31,78.1z"/>
			<path class="st1" d="M90.8,82.56L90.8,82.56c-2.36,0-3.67-2.01-3.72-2.09c-0.02-0.03-0.03-0.07-0.02-0.11l0.06-2.26
				c0-0.09,0.07-0.17,0.16-0.18l7.74-1.14c0.05-0.01,0.1,0.01,0.15,0.04c0.05,0.03,0.06,0.08,0.07,0.14l0.26,2.9
				c0,0.02,0,0.05-0.02,0.08c-0.02,0.07-0.7,1.8-3.66,2.51C91.48,82.53,91.14,82.56,90.8,82.56z M87.43,80.32
				c0.21,0.29,1.41,1.87,3.37,1.87l0,0c0.31,0,0.61-0.04,0.93-0.11c2.53-0.6,3.26-2,3.38-2.24l-0.23-2.65l-7.39,1.08L87.43,80.32z"
				/>
		</g>
		<g>
			<path class="st13" d="M81.12,92.92c0.27-1.26,0.58-2.52,0.94-3.75c0.05-0.18-0.16-0.1-0.2,0.01c-0.37,1.05-0.7,2.14-1.01,3.24
				c-0.67-1.32-1.06-2.81-1.24-4.27c-0.01-0.07-0.09,0.02-0.09,0.06c0.07,1.49,0.21,3.67,1.14,4.96c-0.64,2.52-1.06,5.11-1.17,7.66
				c-0.01,0.35,0.39-0.05,0.41-0.23c0.29-2.39,0.64-4.8,1.13-7.17c0.12-0.09,0.22-0.3,0.17-0.41
				C81.16,92.98,81.15,92.95,81.12,92.92z"/>
			<path class="st13" d="M107.39,89.65c-0.39-1.27-0.85-2.65-1.7-3.69c-0.11-0.13-0.09,0.12-0.02,0.23
				c0.73,1.14,0.84,2.59,1.36,3.84C107.1,90.21,107.44,89.81,107.39,89.65z"/>
			<path class="st13" d="M77.99,100.22c-0.72-1.6-1.99-2.82-3.27-3.99c-0.85-0.76-2.19-1.91-3.42-1.85c-0.03,0-0.06,0.06-0.03,0.07
				c1.18,0.16,2.34,1.44,3.19,2.19c1.32,1.15,2.38,2.43,3.22,3.95C77.78,100.75,78.06,100.37,77.99,100.22z"/>
			<path class="st13" d="M117.2,81.45c-1.99-2.61-3.87-4.92-3.87-8.41c0-0.11-0.12,0.01-0.13,0.07c-0.25,3.19,1.22,6.67,3.77,8.66
				C117.08,81.86,117.27,81.55,117.2,81.45z"/>
			<path class="st13" d="M111.64,112.75c-0.01-0.04-0.07,0.03-0.06,0.06c0.23,0.97,0.15,2.11,0.04,3.09
				c-0.03,0.23,0.27-0.01,0.28-0.16C111.97,114.78,112.01,113.65,111.64,112.75z"/>
			<path class="st13" d="M78.53,115.54c0-0.06-0.07,0.01-0.08,0.05c-0.11,0.88-0.01,1.76,0.13,2.64c0.02,0.17,0.25-0.08,0.23-0.2
				C78.7,117.2,78.51,116.39,78.53,115.54z"/>
		</g>
		<g>
			<path class="st7" d="M97.38,82.82c1.25-2.38,1.39-4.9-1.01-1.89c-2.77,3.03-7.18,3.28-9.19,1.64c-2.02-1.64-1.89-0.76-1.01,1.9
				c-2.01-1.52-2.01-2.78-2.01-2.78s-2.14-1.23-4.83,1.85c-3.12,3.57-4.37,6.21-4.75,8.98c-2.39-0.51-1.47,0.43,2.27,3.78
				c3.65,3.27,2.4-2.52,2.26-6.42C79.04,87.33,80,86.6,80,86.6s0.13,1.65,0.37,3.15c0.26,1.51,1.14-0.25,2.77-2.39
				c-1.25,3.78-1.76,11.71-1.25,19.52c0.5,7.8,4.41,12.85,17.12,9.82c12.71-3.02,7.43-23.92,3.15-30.35
				C99.47,82.32,97.38,82.82,97.38,82.82z"/>
			<path class="st14" d="M114,80.93c0.76,3.15,0.38,2.02-2.39,3.91c-2.77,1.89-3.91,1.5-6.92,0.25c3.52,6.92,4.91,26.44,3.9,28.97
				c2.01,1.75,1.01,4.15-1.01,3.15c-4.66,4.28-18.89,6.16-25.31,3.52c-2.88-1.19-1.14-3.4,3.28-2.14c-6.8-2.9-5.3-12.34-3.78-28.46
				c-2.02,8.94-2.52,9.06-4.41,7.68c-1.88-1.39-3.01-4.15-5.41-4.15c-0.86,0-1.43-0.3-1.8-0.68c-0.07,0.41,0.12,1.09,0.92,2.25
				c2.14,3.08,6.35,8.63,8.26,6.8c0,0-1.08,10.74-0.83,13.69c-2.02,2.08-2.45,3.14,0.75,5.1c3.21,1.94,9.93,3.52,18.17,2.07
				c8.24-1.44,15.65-5.09,16.22-6.97c0.57-1.89-2-3.27-2-3.27s-2.98-18.29-4.4-22.73c5.31-2.3,9.04-5.31,9.04-5.31
				s2.69,0.66,2.89-2.08C117.5,83.63,115.33,82.07,114,80.93z"/>
		</g>
		<path class="st12" d="M102.54,78.29c0,0,4.33-3.76,8.09-4.13c-0.1-0.64,1.17-1.48,1.64-1.58c0.47-0.11-0.16,4.86,2.48,7.56
			c1.17,1.22-0.79,0.9-2.01-1c0.8,2.64-0.73,3.28-3.64,4.17C106.19,84.2,99.59,80.58,102.54,78.29z"/>
		<g>
			<path class="st0" d="M72,94.65l-2.99,3.75c0,0-3.64-6.68-5.38-8.37c2.4-2.61,2.01-5.7-0.55-9.34c-2.55-3.64-6.14-5.49-7.33-2.39
				c-2.01-0.38-2.93,0.82-3.1,1.9c-1.68-0.11-2.06,2.29-2.06,2.29c-2.01,0.49-1.47,3.7,0.33,5.32c1.8,1.63,2.82,0.6,2.82,0.6
				s-0.21,4.77,4.08,4.72c3.31,5.92,8.7,14.3,11.63,14.02c2.93-0.27,6.74-4.51,8.16-7.12C75.92,96.99,71.96,94.81,72,94.65z"/>
			<path class="st1" d="M69.31,107.34c-3.35,0-9.19-9.73-11.6-14.03c-1.2-0.01-2.16-0.39-2.88-1.13c-1.06-1.12-1.25-2.73-1.27-3.44
				c-0.18,0.09-0.43,0.17-0.73,0.17c-0.65,0-1.33-0.33-2.04-0.97c-1.23-1.14-1.92-2.98-1.59-4.3c0.17-0.68,0.6-1.14,1.22-1.32
				c0.11-0.49,0.58-2.29,2.07-2.33c0.21-0.94,0.97-1.96,2.54-1.96c0.19,0,0.39,0.01,0.61,0.04c0.54-1.27,1.44-1.54,2.11-1.54
				c1.6,0,3.77,1.58,5.49,4.03c2.67,3.81,2.88,6.9,0.64,9.45c1.6,1.67,4.48,6.82,5.15,8.03l2.82-3.53c0.05-0.06,0.15-0.09,0.24-0.04
				c0.03,0.02,0.06,0.05,0.08,0.08c0.07,0.07,0.3,0.23,0.54,0.39c1.22,0.87,3.77,2.65,5.06,4.98c0.02,0.05,0.02,0.12,0,0.18
				c-1.51,2.78-5.33,6.94-8.31,7.22C69.41,107.34,69.37,107.34,69.31,107.34z M57.82,92.94c0.07,0,0.13,0.04,0.17,0.09
				c1.83,3.27,8.05,13.94,11.32,13.94c0.04,0,0.09-0.01,0.13-0.01c2.7-0.26,6.42-4.17,7.95-6.94c-1.27-2.2-3.7-3.92-4.89-4.75
				c-0.22-0.15-0.37-0.26-0.48-0.35l-2.86,3.59c-0.04,0.05-0.09,0.08-0.16,0.07c-0.07-0.01-0.13-0.05-0.15-0.1
				c-0.04-0.07-3.64-6.68-5.34-8.32c-0.08-0.07-0.08-0.18-0.01-0.26c2.22-2.43,2.03-5.41-0.56-9.12c-1.65-2.35-3.68-3.87-5.18-3.87
				c-0.84,0-1.46,0.48-1.83,1.44c-0.04,0.09-0.12,0.14-0.21,0.12c-0.24-0.05-0.48-0.07-0.69-0.07c-1.41,0-2.05,0.94-2.19,1.81
				c-0.01,0.1-0.09,0.17-0.19,0.16c-1.48-0.09-1.87,2.11-1.87,2.12c-0.01,0.08-0.07,0.14-0.14,0.16c-0.7,0.17-0.97,0.68-1.07,1.08
				c-0.3,1.17,0.35,2.9,1.48,3.92c0.63,0.57,1.23,0.86,1.78,0.86c0.51,0,0.78-0.25,0.78-0.26c0.06-0.06,0.13-0.07,0.21-0.04
				c0.07,0.03,0.13,0.1,0.12,0.18c0,0.02-0.08,2.2,1.18,3.52c0.64,0.67,1.53,1.01,2.63,1.01H57.82L57.82,92.94z"/>
		</g>
		<g>
			<path class="st1" d="M60.66,87.27c-0.94-0.74-1.37-1.75-0.77-3c0.05-0.09,0.05-0.19,0.02-0.29c-0.02-0.08-1.03-0.67-1.11-0.73
				c-1.26-0.96-2.33-2.15-1.7-3.8c0.04-0.13-0.08-0.09-0.11-0.01c-0.87,1.88,0.13,2.89,1.54,4.24c0.43,0.42,1.07,0.53,0.74,1.16
				c-0.01,0.03-0.02,0.06-0.03,0.09c-2.87,0-3.59-4.68-3.48-6.78c0-0.1-0.11,0-0.11,0.05c-0.4,1.75-0.03,3.7,0.75,5.27
				c0.52,1.02,1.55,2.25,2.73,1.9c-0.01,0.14-0.03,0.28-0.04,0.41c-0.07,0.75,0.67,1.68,1.32,1.94
				C60.57,87.77,60.81,87.39,60.66,87.27z"/>
			<path class="st1" d="M64.25,82.74c-0.39-1.08-1.04-1.59-2.16-1.81c-1.71-0.34-2.86-1.64-4.65-1.77c-0.03,0-0.09,0.1-0.04,0.11
				c1.42,0.35,2.36,1.23,3.63,1.86c0.47,0.23,1.09,0.27,1.58,0.46c0.64,0.22,0.97,0.97,1.26,1.53C63.98,83.31,64.3,82.9,64.25,82.74
				z"/>
			<path class="st1" d="M58.51,85.51c-1.32,1.3-3.09-0.18-4.09-1.15c-1.09-1.08-1.61-2.58-1.82-4.07c0-0.02-0.04,0.02-0.03,0.03
				c0.11,1.89,0.71,3.72,2.18,5.01c1.14,1.02,2.7,1.76,3.87,0.48C58.75,85.67,58.73,85.29,58.51,85.51z"/>
			<path class="st1" d="M55.45,86.3c-0.32,0.65-0.61,1.48-1.56,1.24c-0.83-0.21-1.25-0.72-1.81-1.34c-0.89-1-1.38-2.48-1.56-3.79
				c0-0.03-0.06,0.02-0.06,0.05c0.22,1.86,1.04,3.82,2.46,5.09c1.37,1.23,2.27-0.03,2.78-1.23C55.81,86.06,55.54,86.12,55.45,86.3z"
				/>
			<path class="st1" d="M70.02,100.31c-0.09-0.34-0.23-0.64-0.39-0.95c-0.21-0.39-0.37-0.79-0.6-1.15c-0.03-0.05-0.11,0.06-0.09,0.1
				c0.36,0.68,0.63,1.45,0.89,2.17C69.88,100.61,70.05,100.4,70.02,100.31z"/>
		</g>
		<path class="st11" d="M99.23,137.77c-0.67-2.53-3.02-4.87-0.67-6.14c3.44-1.59,7.72-5.96,4.03-3.69
			c-7.39,5.28-17.46-1.42-14.77,1.09c2.69,2.52,3.86,2.02,3.78,3.27c-0.5,2.61-0.67,7-4.11,7.44c-5.86,0.32-12.61-2.87-12.61-2.87
			l-0.25-3.6c-0.38,2.64-0.44,4.63-0.44,4.63s8.45,6.25,19.04,3.2c0,0,1.59-5.33,2.2-8.66c1.8,5.73,2.73,8.06,2.73,8.06
			s12.59,1.32,18.58-3.53c-0.05-0.45-0.11-0.9-0.18-1.34C109.04,140.12,99.87,140.16,99.23,137.77z"/>
		<path class="st9" d="M104.62,126.47c-5.16,2.13-12.55,4.4-17.63,0.79c-0.08-0.05-0.21,0.15-0.14,0.21
			c4.64,4.05,12.89,2.05,17.7-0.54C104.68,126.86,104.85,126.38,104.62,126.47z"/>
		<path class="st9" d="M76.48,132.74c-0.24-0.67-1.56-1.76-0.27-2.24c0.06-0.02,0.16-0.21,0.05-0.2c-0.4,0.05-0.78,0.34-0.97,0.7
			c-0.33,0.62,0.19,1.19,0.51,1.75c-1.17,0.63-0.97,3.37-0.84,4.3c0.05,0.29,0.38-0.16,0.39-0.28c0.07-0.58-0.26-3.5,0.74-3.51
			C76.31,133.26,76.55,132.94,76.48,132.74z"/>
		<path class="st9" d="M113.7,127.25c-0.04-0.08-0.15,0.09-0.14,0.14c0.79,2.46,1.63,4.84,1.75,7.43c0.02,0.32,0.38-0.02,0.38-0.21
			C115.67,132.06,114.81,129.53,113.7,127.25z"/>
		<g>
			<path class="st4" d="M116.84,165.92c-0.17,0.1-0.33,0.2-0.5,0.28c0.36,2.01,0.61,5.21-1.23,5.81c-2.02,0.65-3.45-2.65-4.06-4.4
				c-1.53,0.03-2.87-0.2-3.8-0.44c0.72,2.07,1.52,3.95,2.39,5.43c0,0,0.41,1.62,2.58,1.79c2.17,0.16,2.17,0.16,2.17,0.16
				s1.8-2.62,3.65-3.08C117.75,170.35,117.33,168.37,116.84,165.92z"/>
		</g>
		<g>
			<path class="st4" d="M85.03,182.81c-1.12-2.8-3.56-4.97-8.85-4.84c-1.85,0.05-3.35,0.56-4.55,1.26l0.01,0.03
				c0,0,8.4-2.44,9.58,2.03c0.79,3.44-5.29,5.99-13.79,3.53c-0.04,0.26-0.07,0.51-0.09,0.75c0,0.09-0.01,0.17-0.01,0.25
				c2.53,0.78,8.95,2.08,17.66-0.89C85.03,184.34,85.04,183.61,85.03,182.81z"/>
		</g>
		<g>
			<path class="st4" d="M129.7,177.4c2.45-3.29,5.38-1.56,5.88-1.23c-0.95-0.81-2.2-1.31-3.86-1.2c-0.36,0-0.71,0-1.05,0
				c-5.91,2.16-6.36,8.83-6.34,11.08c4.94,0.17,10.18-0.42,14.24-2.18c-0.05-0.58-0.12-1.34-0.27-2.17
				C130.63,186.31,127.22,180.74,129.7,177.4z"/>
		</g>
		<path class="st5" d="M109.21,179.09c0,0-0.25-3.08,1.07-3.02c1.32,0.07,3.46,1.2,3.91,3.15c0.44,1.95,0.88,1.07,1.07-0.63
			c0.18-1.7,0.63-1.89,0.82,0.07c0.19,1.95,1.19,1.83,2.64,1.2c1.45-0.63,1,1,0.81,2.39c-0.18,1.39-5.28,1.2-7.86,0.06
			C109.1,181.17,109.28,180.73,109.21,179.09z"/>
		<g>
			<path class="st15" d="M76.14,98.07c-0.7,1.04-1.72,2.46-2.89,3.69c-2.2,2.32-3.04-0.72-2.88-2.68c0.11-1.32,1.45-2.99,2.3-3.91
				c-0.42-0.29-0.69-0.48-0.67-0.52l-2.99,3.75c0,0-2.03-3.74-3.79-6.33c0.02,0.05,0.05,0.08,0.07,0.13
				c1.56,2.8,3.79,6.59,4.57,10.37c0.79,3.78-1.95,3.78-6.13-2.42c-4.18-6.19-3.53-8.55-4.18-8.15c-0.65,0.46-3.06,0.85-4.11-1.95
				c-1.04-2.81,3.01-4.18,3.86-3.07c1.04,2.03,2.86,1.64,2.28,0.86c-1.96-1.05-1.5-2.48-1.17-3.33c0.32-0.85,1.04-1.24-0.86-2.02
				c-2.81-1.64-2.21-3.39-0.65-2.48c1.57,0.91,1.37,0.78,3.91,1.57c0.48,0.15,0.91,0.4,1.28,0.71c-0.29-0.53-0.61-1.06-1-1.59
				c-2.55-3.64-6.14-5.49-7.33-2.39c-0.41-0.08-0.78-0.09-1.1-0.05c0.02,0.28,0.04,0.55,0.06,0.82c0.12,1.46,0.44,2.64,1.13,3.94
				c0.35,0.68,1.31,1.77,0.66,2.53c-0.78,0.9-2.38-1.41-2.65-1.91c-0.62-1.13-0.96-2.34-1.16-3.6c0,0.05-0.02,0.1-0.03,0.16
				c-0.39-0.02-0.71,0.09-0.97,0.28c0.18,1.22,0.54,2.41,1.19,3.38c0.5,0.76,2.06,2.25,1.19,3.26c-0.86,1-2.01-0.77-2.35-1.39
				c-0.56-1.04-0.92-2.13-1.11-3.28c-0.01,0.02-0.01,0.04-0.01,0.04c-0.23,0.05-0.43,0.15-0.59,0.27c0.31,0.32,0.41,0.99,0.51,1.36
				c0.27,0.93,1.03,1.56,1.43,2.4c0.29,0.6,0.35,1.45-0.14,1.93c1.24,0.65,1.94-0.03,1.94-0.03s-0.21,4.77,4.08,4.72
				c3.31,5.92,8.7,14.3,11.63,14.02c2.93-0.27,6.74-4.51,8.16-7.12C77.21,99.32,76.7,98.66,76.14,98.07z"/>
		</g>
		<g>
			<path class="st16" d="M55.66,84.84c-0.52-0.82-1.16-1.53-1.71-2.32c-0.63-0.92-0.79-1.84-0.88-2.93c0-0.05-0.06,0.02-0.06,0.04
				c-0.08,1.08-0.07,2.03,0.42,3.01c0.44,0.94,1.21,1.86,1.99,2.55C55.52,85.3,55.73,84.94,55.66,84.84z"/>
			<path class="st16" d="M53.34,87.02c-0.37-0.76-1.09-1.31-1.58-2.01c-0.59-0.88-0.8-1.78-0.89-2.8c-0.01-0.09-0.13,0.05-0.13,0.09
				c-0.17,1.95,0.52,4.05,2.32,5.09C53.22,87.47,53.4,87.14,53.34,87.02z"/>
			<path class="st16" d="M52.02,87.66c-0.43-0.55-0.99-0.96-1.41-1.53c-0.53-0.71-0.84-1.5-0.88-2.39c0-0.17-0.18,0.02-0.19,0.1
				c-0.21,1.76,0.66,3.36,2.11,4.32C51.84,88.29,52.15,87.81,52.02,87.66z"/>
			<path class="st16" d="M61.77,86.73c-0.33-0.47-0.62-0.9-0.73-1.48c-0.11-0.61,0.05-1.17,0.26-1.74c0,0,0.01,0,0.01,0
				c0.16,0.01,0.42-0.36,0.24-0.46c-0.64-0.36-1.27-0.72-1.89-1.12c-0.7-0.44-1.76-1.16-1.68-2.09c0-0.07-0.07-0.05-0.1-0.01
				c-0.55,0.7,0.04,1.42,0.58,1.94c0.43,0.41,0.95,0.71,1.44,1.05c0.36,0.25,0.71,0.53,1.13,0.63c0,0.01,0,0.01,0,0.02
				c-0.59,1.24-0.96,2.91,0.28,3.91C61.53,87.56,61.92,86.93,61.77,86.73z"/>
			<path class="st16" d="M58.18,86.58c-1.03-0.09-1.85,0.68-2.38,1.47c-0.67,1.01-0.21,2.24,0.37,3.15c0.19,0.3,0.65-0.37,0.53-0.62
				c-0.29-0.58-0.57-1.17-0.6-1.83c-0.03-0.93,1.18-1.8,1.97-1.88C58.17,86.86,58.31,86.59,58.18,86.58z"/>
			<path class="st16" d="M68.48,99.37c-1.18-3.35-3.15-7.12-5.73-9.6c-0.04-0.03-0.12,0.09-0.08,0.12c2.3,2.81,3.98,6.48,5.54,9.75
				C68.27,99.79,68.52,99.48,68.48,99.37z"/>
			<path class="st16" d="M72.58,95.25c-0.67,0.75-1.3,1.43-1.68,2.38c-0.35,0.88-0.45,1.88-0.51,2.81c-0.03,0.36,0.4-0.03,0.42-0.23
				c0.06-0.79,0.15-1.54,0.36-2.29c0.27-1.01,0.99-1.73,1.48-2.61C72.69,95.25,72.65,95.17,72.58,95.25z"/>
		</g>
		<g>
			<g>
				<path class="st0" d="M113.31,73.97c0,0,2.11-0.64,5.02-4.53c2.92-3.88,11.66-15.22,14.49-18.38c-1.85-0.72-1.68-1.86-1.23-3.97
					c0.45-2.12-0.59-4.69-1.49-5.7c-0.9-1-0.53-2.39,1.21-1.9c1.74,0.48,2.96,1.98,2.85,3.88c-0.07,0.9,0.66,0.8,0.87-1.64
					c0.21-2.43,0.81-9.6,2.22-9.4c1.22,0.17,1.85,2.47,1.22,6.63c-0.59,4.03-0.63,5.03,0.71,2.02c1.34-3.03,3.32-7.52,5-7.22
					c1.67,0.29,0.88,2.43-0.76,6.08c-1.64,3.65-2.27,5.03-1.43,3.95c0.84-1.09,5.5-5.71,6.8-4.95c1.3,0.75-0.8,3.44-2.69,5.11
					c-1.97,1.64-2.89,2.48-1.43,1.72c1.47-0.75,4.62-2.64,5.71-1.5c1.1,1.13-1.05,2.13-3.1,3.01c-2.05,0.89-3.77,0.97-4.44,2.52
					c-0.68,1.56-2.02,3.7-5.33,3.74c-1.43,3.31-3.24,7.72-7.39,13.7c-4.15,5.98-8.5,11.14-13.41,13.92
					C115.07,79.42,114,77.35,113.31,73.97z"/>
				<path class="st1" d="M116.7,81.25c-0.04,0-0.1-0.02-0.13-0.05c-1.74-1.74-2.77-3.89-3.45-7.18c-0.01-0.1,0.04-0.2,0.13-0.22
					c0.01-0.01,2.09-0.69,4.92-4.47c2.9-3.86,11.36-14.82,14.33-18.19c-1.79-0.82-1.5-2.21-1.09-4.08c0.43-2.04-0.59-4.57-1.46-5.54
					c-0.47-0.53-0.65-1.2-0.42-1.7c0.25-0.56,0.95-0.77,1.84-0.52c1.89,0.53,3.08,2.16,2.98,4.08c0,0.15,0,0.25,0.02,0.3
					c0.1-0.12,0.36-0.62,0.48-1.96l0.01-0.09c0.59-6.83,1.32-9.63,2.43-9.49c0.35,0.04,0.65,0.23,0.9,0.57
					c0.76,1.02,0.94,3.25,0.48,6.27c-0.14,1.01-0.41,2.78-0.38,3.4c0.12-0.19,0.35-0.61,0.73-1.5l0.05-0.12
					c1.41-3.16,3.37-7.52,5.16-7.21c0.44,0.08,0.75,0.28,0.92,0.61c0.52,0.98-0.31,3-1.54,5.74l-0.12,0.25
					c-0.63,1.41-1.14,2.56-1.43,3.26c1.06-1.23,4.76-4.87,6.4-4.87c0.17,0,0.32,0.04,0.44,0.11c0.29,0.17,0.46,0.44,0.5,0.77
					c0.14,1.34-1.92,3.56-3.15,4.66c-0.37,0.31-1.17,0.97-1.66,1.42c0.01-0.01,0.01-0.01,0.01-0.01c0.17-0.08,0.35-0.18,0.55-0.29
					c1.2-0.64,3.01-1.6,4.27-1.6c0.48,0,0.86,0.14,1.12,0.41c0.29,0.29,0.4,0.61,0.33,0.94c-0.18,0.9-1.76,1.65-3.49,2.39
					c-0.56,0.24-1.13,0.43-1.6,0.6c-1.33,0.45-2.29,0.77-2.75,1.83c-1.09,2.52-2.84,3.77-5.38,3.84l-0.17,0.4
					c-1.36,3.18-3.23,7.53-7.19,13.22c-5.03,7.25-9.19,11.56-13.47,13.98C116.78,81.24,116.74,81.25,116.7,81.25z M113.53,74.09
					c0.65,3.07,1.62,5.1,3.22,6.74c4.18-2.4,8.27-6.66,13.22-13.79c3.93-5.66,5.79-10,7.15-13.16l0.22-0.51
					c0.03-0.07,0.1-0.12,0.17-0.12c2.42-0.02,4.12-1.22,5.16-3.61c0.52-1.22,1.6-1.58,2.97-2.04c0.5-0.17,1.03-0.34,1.58-0.58
					c1.16-0.5,3.12-1.34,3.27-2.12c0.03-0.19-0.04-0.39-0.24-0.59c-0.18-0.2-0.46-0.29-0.84-0.29c-1.17,0-2.92,0.93-4.09,1.55
					c-0.2,0.1-0.39,0.2-0.54,0.29c-0.52,0.27-0.67,0.3-0.77,0.3c-0.08,0-0.19-0.08-0.23-0.15c-0.06-0.19-0.09-0.28,2.21-2.2
					c1.57-1.4,3.11-3.34,3.01-4.33c-0.02-0.22-0.12-0.36-0.3-0.48c-0.07-0.03-0.16-0.05-0.26-0.05c-1.52,0-5.54,3.96-6.3,4.96
					c-0.29,0.37-0.38,0.44-0.5,0.44c-0.06,0-0.14-0.04-0.17-0.08c-0.12-0.2,0-0.52,1.67-4.23l0.11-0.26
					c1.11-2.47,1.99-4.58,1.56-5.41c-0.12-0.21-0.34-0.35-0.66-0.41c-0.04,0-0.08-0.01-0.13-0.01c-1.5,0-3.36,4.22-4.61,7.01
					l-0.05,0.11c-0.78,1.74-0.97,1.86-1.17,1.86c-0.07,0-0.14-0.02-0.19-0.08c-0.18-0.21-0.17-0.83,0.28-3.9
					c0.44-2.89,0.29-5.07-0.41-5.99c-0.19-0.25-0.4-0.39-0.64-0.42c0,0,0,0-0.01,0c-0.57,0-1.35,1.58-2,9.15l-0.01,0.08
					c-0.13,1.46-0.45,2.33-0.88,2.33c-0.09,0-0.17-0.04-0.23-0.1c-0.14-0.15-0.16-0.42-0.14-0.62c0.09-1.73-1-3.22-2.72-3.7
					c-0.69-0.19-1.21-0.07-1.38,0.32c-0.16,0.35-0.01,0.87,0.36,1.29c0.94,1.06,2,3.67,1.53,5.86c-0.45,2.13-0.58,3.09,1.12,3.77
					c0.06,0.02,0.1,0.07,0.12,0.12c0.01,0.06,0,0.12-0.04,0.17c-2.79,3.1-11.53,14.42-14.49,18.37
					C115.99,72.88,114.08,73.87,113.53,74.09z"/>
			</g>
			<g>
				<path class="st1" d="M137.57,44.89c-0.76-0.86-2.01-0.86-3.03-0.67c-0.02,0-0.06,0.08-0.03,0.08c1.13-0.04,2.19,0.18,2.93,1.09
					c0.76,0.93,0.8,1.94,0.91,3.08c0.02,0.21,0.32-0.11,0.32-0.23C138.68,46.92,138.45,45.88,137.57,44.89z"/>
				<path class="st1" d="M135,43.19c-0.04,0.01-0.08,0.14-0.02,0.11c3.16-1.03,5.78,0.71,6.99,3.61c0.08,0.18,0.37-0.2,0.34-0.34
					C141.47,43.35,137.92,41.91,135,43.19z"/>
			</g>
			<g>
				<path class="st15" d="M144.68,45.67c-1.35,0.7-0.67,0.03,1.01-1.37c-2.96,1.41-1.95-0.88,1.12-3.93
					c0.88-0.88,1.51-1.34,1.97-1.54c-1.32-0.72-5.95,3.87-6.78,4.96c-0.84,1.09-0.21-0.29,1.43-3.95c0.04-0.11,0.09-0.2,0.13-0.3
					c-0.4,0.63-0.83,1.32-1.31,2.02c-2.19,3.26-1.42-1.25,0.36-5.15c0.69-1.51,1.36-2.23,1.94-2.54c-0.11-0.05-0.22-0.09-0.36-0.11
					c-1.68-0.3-3.65,4.19-5,7.22c-1.3,2.9-1.3,2.07-0.78-1.59c-0.44,1.4-1,2.31-1.31,2.34c-0.59,0.06-0.59-2.9-0.3-6.92
					c0.09-1.19,0.27-1.96,0.48-2.48c-0.01,0-0.01,0-0.03,0c-1.41-0.19-2.02,6.97-2.22,9.4c-0.14,1.56-0.48,2.16-0.69,2.16
					c0,0.21,0,0.43-0.02,0.62c0,0,3.25-1.01,3.84,4.38c0.06,1.06,2.37-3.55-1.42-4.91c-1.89-0.83,3.73-1.66,4.73,3.2
					c0.48,3.55-3.08,6.86-5.02,3.67c-2.49,0.59-4.62-0.89-3.96-3.08c0.65-2.19-0.06-5.38-1.66-7.1c-0.51-0.54-0.57-0.96-0.41-1.27
					c-0.94,0.15-1.05,1.19-0.32,1.98c0.9,1.01,1.94,3.58,1.49,5.7c-0.45,2.11-0.62,3.25,1.23,3.97c-1.95,2.18-6.73,8.27-10.46,13.1
					c0.01-0.01,0.03-0.01,0.03-0.02c0.26-0.17,9.15-11.34,11.42-11c2.27,0.34,0.46,5.37-6.13,14.44
					c-6.02,8.28-15.44,11.25-8.98,1.68c0.25-0.38,0.43-0.73,0.56-1.06c-0.35,0.46-0.66,0.88-0.93,1.23
					c-2.91,3.89-5.02,4.53-5.02,4.53c0.7,3.37,1.76,5.45,3.4,7.1c4.92-2.78,9.26-7.94,13.41-13.92c4.15-5.98,5.96-10.39,7.39-13.7
					c3.31-0.05,4.66-2.19,5.33-3.74c0.29-0.67,0.78-1.07,1.4-1.37c-0.99-0.65,2.02-3.05,4.64-3.94c0.72-0.24,1.2-0.3,1.51-0.23
					C149.3,43.04,146.15,44.92,144.68,45.67z"/>
			</g>
			<path class="st16" d="M132.64,53.32c-5.28,3.59-8.7,9.38-12.04,14.65c-0.28,0.44,0.1,0.66,0.39,0.25
				c1.83-2.57,3.26-5.33,5.23-7.81c1.93-2.43,4.04-4.82,6.44-6.8C132.75,53.55,132.82,53.21,132.64,53.32z"/>
			<path class="st16" d="M131.42,39.75c-0.11-0.07-0.27,0.19-0.17,0.27c1.6,1.42,2.43,2.96,2.91,5.04c0.03,0.16,0.22-0.08,0.22-0.16
				C134.43,42.64,133.38,40.84,131.42,39.75z"/>
			<path class="st16" d="M137.51,32.6c-0.09-0.08-0.24,0.17-0.19,0.26c1.57,2.61,0.47,5.86,0.2,8.62c-0.04,0.33,0.35-0.03,0.39-0.17
				C138.6,39,139.52,34.51,137.51,32.6z"/>
			<path class="st16" d="M144.59,33.95c-0.07-0.11-0.23,0.13-0.2,0.21c0.83,2.66-1.66,5.27-2.65,7.48c-0.2,0.46,0.27,0.35,0.44,0.03
				C143.13,39.79,146.04,36.22,144.59,33.95z"/>
			<path class="st16" d="M148.72,39.29c-0.01-0.12-0.18,0.07-0.18,0.13c-0.07,1.64-1.97,3.12-3.06,4.14
				c-0.17,0.17-0.22,0.69,0.09,0.41c0.82-0.71,1.6-1.5,2.23-2.39C148.27,40.91,148.82,40.15,148.72,39.29z"/>
			<path class="st16" d="M150.34,44.33c-0.04-0.15-0.22,0.07-0.22,0.15c-0.01,0.83-1.93,1.31-2.52,1.53
				c-0.89,0.32-1.76,0.68-2.57,1.16c-0.16,0.09-0.48,0.77-0.1,0.65c1.41-0.44,2.85-1.08,4.13-1.83
				C149.66,45.64,150.55,45.14,150.34,44.33z"/>
			<path class="st16" d="M138.43,43.4c-0.09-0.04-0.23,0.18-0.14,0.23c1.48,0.9,2.21,2.46,2.3,4.16c0.02,0.4,0.45-0.05,0.47-0.27
				C141.18,45.59,140.2,44.11,138.43,43.4z"/>
		</g>
		<g>
			<g>
				<path class="st17" d="M84.61,111.44c-3.66-7.7-3.15-17.34-0.54-25.33c0.07-0.2-0.17-0.09-0.22,0.03
					c-1.81,4.19-2.38,8.89-2.54,13.42c-0.15,4.22,0.46,8.99,2.65,12.66C84.18,112.59,84.76,111.76,84.61,111.44z"/>
				<path class="st17" d="M86.79,114.77c-0.54-0.45-1.08-0.89-1.51-1.46c-0.13-0.17-0.42,0.24-0.33,0.39
					c0.37,0.6,0.9,1.23,1.52,1.58C86.68,115.39,86.96,114.91,86.79,114.77z"/>
			</g>
			<path class="st17" d="M97.28,81.77c-1.61,1.07-3.11,2.37-5.13,2.47c-1.87,0.08-3.44-0.66-5.2-1.21
				c-0.04-0.02-0.09,0.09-0.06,0.11c1.65,0.97,3.38,2.51,5.45,2.08c1.91-0.4,3.79-1.21,5.08-2.75
				C97.57,82.29,97.75,81.46,97.28,81.77z"/>
			<path class="st17" d="M79.47,83.66c-0.91,1.08-1.68,1.97-2.47,3.13c-0.99,1.46-1.49,3.26-2.05,4.93
				c-0.16,0.48,0.45,0.17,0.53-0.15c0.45-1.6,0.95-3.17,1.73-4.65c0.64-1.19,1.5-2.11,2.32-3.17
				C79.59,83.68,79.56,83.55,79.47,83.66z"/>
			<path class="st17" d="M74.43,92.58c0,0.01-0.01,0.01-0.02,0.03c-0.06,0.07-0.11,0.14-0.16,0.21c-0.12,0.18-0.19,0.41-0.14,0.62
				c0.03,0.17,0.18,0.18,0.32,0.1c0.17-0.09,0.29-0.29,0.35-0.49c0.07-0.2,0.24-0.44,0.22-0.7C74.98,91.88,74.5,92.34,74.43,92.58z"
				/>
			<path class="st17" d="M110.62,74.93c-2.49-0.16-4.62,1.49-6.1,3.3c-0.09,0.1-0.04,0.27,0.08,0.14c1.62-1.78,3.44-2.46,5.8-2.75
				C110.61,75.58,110.94,74.94,110.62,74.93z"/>
			<path class="st17" d="M114.06,78.7c-1.46-1.5-2.54-3.42-2.15-5.59c0.02-0.1-0.09-0.03-0.1,0.03c-0.61,2.09-0.01,4.82,1.92,6.03
				C113.9,79.28,114.19,78.85,114.06,78.7z"/>
			<path class="st17" d="M105.65,116.35c-6.99,2.62-13.64,4.47-21.06,2.75c-0.1-0.02-0.22,0.2-0.11,0.24
				c3.54,0.96,6.63,1.47,10.31,0.99c3.62-0.47,7.56-1.5,10.75-3.31C105.71,116.92,106,116.21,105.65,116.35z"/>
		</g>
	</g>
	<g>
		<g>
			<g>
				<path class="st18" d="M121.95,59.3c2.7-3.99,1.35-7.99-0.61-8.84c-1.97-0.86-3.69-0.25-4.67,2.88
					c-0.18-8.47-6.08-16.08-6.08-16.08s0.62,3.33,1.55,7.19c-3.7-1.56-6.72-9.38-6.72-9.38s0.16,2.76,0.79,5.37
					c-3.54-1.3-7.4-6.41-8.13-9.01c-1.09,1.56-2.86,5.11-2.86,5.11s-0.31-2.14,0.31-4.38c-3.34,4.42-9.48,6.82-9.48,6.82
					s0.88-1.2,2.76-4.12c-6.14,6.83-12.35,6.19-12.35,6.19s1.14-2.13,2.76-6.5c-1.87,3.17-6.3,8.44-8.54,8.95
					c0.1-1.25,1.76-5.31,1.76-5.31s-3.85,5.99-4.79,9.48c-0.94,3.49-0.53,5.21,0,8.19c0.57,3.22,0.11,6.49,0.26,9.73
					c0.15,3.34,2.68,5.57,5.34,7.21c0.94,0.58,1.91,1.12,2.88,1.61c5.55,2.68,13.17,5.81,19.93,3.81
					c10.05-3.04,13.86-5.72,18.72-11.61c0,0,1.09-2.09,2.13-5.54C117.71,62.92,119.25,63.29,121.95,59.3z"/>
				<path class="st19" d="M91.48,79.04c-5.51,0-11.14-2.38-15.43-4.46c-1.12-0.58-2.06-1.1-2.91-1.63
					c-2.25-1.39-5.25-3.67-5.41-7.35c-0.06-1.2-0.03-2.42,0-3.6c0.04-2.02,0.09-4.1-0.27-6.11l-0.1-0.58
					c-0.47-2.64-0.78-4.38,0.1-7.68c0.94-3.47,4.66-9.28,4.82-9.52c0.05-0.09,0.15-0.11,0.24-0.07c0.08,0.05,0.12,0.15,0.08,0.23
					c-0.01,0.04-1.44,3.54-1.71,4.99c2.21-0.82,6.33-5.69,8.15-8.79c0.05-0.09,0.15-0.12,0.24-0.08c0.09,0.04,0.13,0.14,0.09,0.23
					c-1.29,3.49-2.3,5.58-2.64,6.27c1.26,0.02,6.61-0.26,11.91-6.15c0.07-0.08,0.17-0.09,0.24-0.02c0.09,0.07,0.1,0.17,0.05,0.26
					c-1.16,1.81-1.96,2.97-2.38,3.58c1.61-0.72,6.14-2.98,8.81-6.51c0.04-0.07,0.15-0.09,0.23-0.06c0.08,0.04,0.12,0.13,0.09,0.22
					c-0.41,1.46-0.41,2.88-0.36,3.68c0.55-1.07,1.76-3.37,2.59-4.56c0.04-0.06,0.1-0.09,0.18-0.08c0.07,0.01,0.12,0.06,0.15,0.13
					c0.71,2.53,4.37,7.32,7.69,8.76c-0.56-2.49-0.7-5.03-0.71-5.06c0-0.09,0.06-0.17,0.15-0.19c0.09-0.02,0.17,0.03,0.21,0.11
					c0.03,0.08,2.84,7.28,6.27,9.11c-0.88-3.65-1.47-6.79-1.47-6.82c-0.02-0.09,0.03-0.17,0.1-0.21c0.08-0.03,0.17-0.01,0.22,0.05
					c0.06,0.08,5.52,7.21,6.08,15.27c0.97-2.29,2.56-3.02,4.6-2.13c0.88,0.38,1.63,1.36,2,2.61c0.59,2.04,0.11,4.41-1.3,6.5
					c-1.46,2.15-2.66,3.19-3.68,3.19l0,0c-0.59,0-1.08-0.34-1.47-1.02c-0.99,3.16-2,5.11-2.01,5.12
					c-4.65,5.66-8.29,8.53-18.83,11.71C94.68,78.83,93.11,79.04,91.48,79.04z M71.53,40.06c-1.21,2.03-3.09,5.41-3.7,7.66
					c-0.86,3.23-0.56,4.94-0.1,7.54l0.1,0.57c0.35,2.06,0.31,4.15,0.26,6.18c-0.03,1.17-0.06,2.38,0,3.58
					c0.16,3.52,3.07,5.71,5.25,7.06c0.83,0.51,1.77,1.03,2.87,1.61c4.25,2.06,9.83,4.41,15.26,4.41c1.6,0,3.13-0.2,4.53-0.62
					c10.45-3.15,14.04-5.99,18.63-11.55l0,0c-0.01,0,1.07-2.11,2.1-5.47c0.02-0.07,0.09-0.12,0.17-0.13c0.08,0,0.14,0.04,0.17,0.12
					c0.35,0.81,0.8,1.22,1.34,1.22l0,0c0.61,0,1.68-0.53,3.37-3.03c1.36-2.01,1.82-4.26,1.25-6.19c-0.33-1.14-1-2.04-1.78-2.37
					c-2.07-0.91-3.56,0.03-4.42,2.77c-0.03,0.08-0.11,0.14-0.2,0.13c-0.09-0.02-0.15-0.09-0.15-0.18
					c-0.15-6.88-4.15-13.24-5.56-15.29c0.24,1.22,0.75,3.67,1.4,6.35c0.02,0.07-0.01,0.14-0.06,0.18c-0.06,0.05-0.13,0.06-0.19,0.03
					c-2.93-1.23-5.38-6.18-6.36-8.39c0.1,1.04,0.31,2.64,0.67,4.17c0.02,0.07,0,0.14-0.05,0.18c-0.05,0.04-0.12,0.06-0.18,0.04
					c-3.45-1.27-7.15-6.02-8.12-8.77c-1.08,1.65-2.63,4.74-2.64,4.77c-0.04,0.06-0.11,0.11-0.19,0.09
					c-0.08-0.01-0.14-0.08-0.15-0.16c-0.01-0.08-0.25-1.72,0.13-3.65c-3.41,4.02-8.99,6.23-9.05,6.25
					c-0.07,0.03-0.17,0.01-0.21-0.06c-0.04-0.07-0.04-0.16,0-0.22c0.01-0.01,0.57-0.78,1.73-2.53c-4.79,4.54-9.36,4.92-10.74,4.92
					c-0.29,0-0.44-0.01-0.44-0.01c-0.07,0-0.12-0.04-0.15-0.1c-0.03-0.05-0.03-0.11,0-0.17c0.01-0.01,0.87-1.63,2.13-4.84
					c-2.18,3.16-5.72,7.09-7.71,7.56c-0.06,0.01-0.11-0.01-0.16-0.05c-0.04-0.04-0.07-0.09-0.06-0.16
					C70.55,42.8,71.07,41.3,71.53,40.06z"/>
			</g>
			<g>
				<path class="st20" d="M128.99,33.33c0,0,0.78,0.44,2.17,1.65c-1.04-5.64-6.67-8.67-6.67-8.67s1.13,0.17,3.38,1.65
					c-4.94-8.49-12.65-10.83-16.29-10.49c0.7-0.87,2.69-2.08,2.69-2.08s-4.07-0.35-7.71,2.08c-2.08-3.29-6.68-6.07-6.68-6.07
					l1.65,3.46c-17.42-9.1-36.74,7.72-36.74,7.72s0.7-0.26,3.81-0.52c-6.32,2.43-11.18,10.13-11.18,10.13s1.56-1.38,4.07-1.82
					c-6.07,4.59-7.37,12.57-7.37,12.57s0.78-0.6,2.94-1.73c-1.38,1.48-0.95,3.55-0.95,3.55s0.43-0.61,1.56-1.56
					c-1.04,5.9,2.34,8.06,5.81,11.44c3.47,3.38,3.92,5.71,4.27,9.34c0.01,0.09,0.02,0.17,0.03,0.26h0.12c0,0,0.27-5.42-0.25-8.38
					c-0.53-2.97-0.94-4.69,0-8.19c0.94-3.48,4.79-9.48,4.79-9.48s-1.67,4.06-1.76,5.31c2.24-0.51,6.67-5.78,8.54-8.95
					c-1.62,4.37-2.76,6.5-2.76,6.5s6.21,0.63,12.35-6.19c-1.88,2.92-2.76,4.12-2.76,4.12s6.14-2.4,9.48-6.82
					c-0.62,2.24-0.31,4.38-0.31,4.38s1.77-3.55,2.86-5.11c0.73,2.61,4.59,7.71,8.13,9.01c-0.63-2.61-0.79-5.37-0.79-5.37
					s3.02,7.82,6.72,9.38c-0.93-3.86-1.55-7.19-1.55-7.19s5.9,7.61,6.08,16.08c0.98-3.13,2.7-3.74,4.67-2.88
					c1.96,0.85,3.31,4.85,0.61,8.84c-2.7,3.99-4.23,3.62-5.03,1.78c-1.04,3.44-2.13,5.54-2.13,5.54
					c12.91-5.99,10.66-16.9,10.66-16.9s1.56,2.17,1.66,4.08c3.29-7.28,1.47-13.95,1.47-13.95s1.21,0.52,2.6,2.52
					C131.85,35.77,128.99,33.33,128.99,33.33z"/>
				<path class="st21" d="M114.78,66.8c-0.05,0-0.09-0.02-0.13-0.05c-0.06-0.07-0.07-0.15-0.03-0.23c0-0.01,1.09-2.11,2.11-5.5
					c0.02-0.07,0.09-0.12,0.17-0.13c0.08,0,0.14,0.04,0.17,0.12c0.35,0.81,0.8,1.22,1.34,1.22c0.61,0,1.68-0.53,3.37-3.03
					c1.36-2.01,1.82-4.26,1.25-6.19c-0.33-1.14-1-2.04-1.78-2.37c-2.07-0.91-3.56,0.03-4.42,2.77c-0.03,0.08-0.11,0.14-0.2,0.13
					c-0.09-0.02-0.15-0.09-0.15-0.18c-0.15-6.88-4.15-13.25-5.56-15.29c0.24,1.21,0.74,3.63,1.39,6.29c0.02,0.03,0.03,0.06,0.03,0.1
					c0,0.1-0.09,0.18-0.19,0.18c-0.03,0-0.05,0-0.08-0.01c-2.93-1.23-5.38-6.18-6.36-8.39c0.1,1.03,0.31,2.6,0.67,4.11
					c0.01,0.03,0.02,0.07,0.02,0.1c0,0.11-0.09,0.19-0.18,0.18c-0.03,0.01-0.05,0-0.07,0c-3.45-1.27-7.15-6.02-8.12-8.77
					c-1.08,1.65-2.63,4.74-2.64,4.77c-0.04,0.06-0.11,0.11-0.19,0.09c-0.08-0.01-0.14-0.08-0.15-0.16
					c-0.01-0.08-0.25-1.72,0.13-3.65c-3.41,4.02-8.99,6.23-9.05,6.25c-0.07,0.03-0.17,0.01-0.21-0.06c-0.04-0.07-0.04-0.16,0-0.22
					c0.01-0.01,0.57-0.78,1.73-2.53c-4.79,4.54-9.36,4.92-10.74,4.92c-0.29,0-0.44-0.01-0.44-0.01c-0.07,0-0.12-0.04-0.15-0.1
					c-0.03-0.05-0.03-0.11,0-0.17c0.01-0.01,0.87-1.63,2.13-4.84c-2.18,3.16-5.72,7.09-7.71,7.56c-0.06,0.01-0.11-0.01-0.16-0.05
					c-0.04-0.04-0.07-0.09-0.06-0.16c0.05-0.7,0.57-2.2,1.04-3.44c-1.21,2.03-3.09,5.41-3.7,7.66c-0.86,3.23-0.56,4.94-0.1,7.53
					l0.1,0.58c0.52,2.96,0.25,8.38,0.25,8.44c0,0.09-0.09,0.17-0.18,0.17h-0.12c-0.09,0-0.17-0.08-0.17-0.16l-0.01-0.1
					c-0.01-0.06-0.02-0.1-0.02-0.16c-0.34-3.5-0.71-5.81-4.22-9.22c-0.44-0.43-0.87-0.83-1.3-1.23c-2.85-2.66-5.33-4.97-4.64-9.87
					c-0.81,0.73-1.14,1.19-1.15,1.2c-0.04,0.06-0.12,0.09-0.18,0.08c-0.07-0.02-0.13-0.08-0.14-0.15c-0.02-0.07-0.33-1.64,0.49-3.04
					c-1.58,0.86-2.19,1.33-2.2,1.33c-0.06,0.05-0.14,0.05-0.2,0.01c-0.07-0.04-0.11-0.11-0.09-0.18c0.01-0.09,1.28-7.55,6.81-12.19
					c-1.99,0.53-3.2,1.59-3.22,1.61c-0.07,0.06-0.17,0.06-0.24,0c-0.08-0.06-0.08-0.16-0.04-0.23c0.04-0.08,4.42-6.95,10.21-9.76
					c-2.07,0.21-2.61,0.4-2.62,0.4c-0.09,0.03-0.18,0-0.23-0.08c-0.04-0.08-0.03-0.17,0.04-0.23C64.78,22.35,76.84,12,90.34,12
					c3.83,0,7.47,0.83,10.79,2.47l-1.41-2.98c-0.03-0.07-0.01-0.16,0.05-0.22c0.06-0.05,0.15-0.06,0.22-0.01
					c0.05,0.02,4.5,2.74,6.63,5.97c2.84-1.83,5.9-2.03,7.1-2.03c0.37,0,0.57,0.02,0.57,0.02c0.08,0.01,0.15,0.06,0.17,0.14
					c0.01,0.08-0.01,0.17-0.08,0.2c-0.02,0-1.51,0.92-2.34,1.71c0.09,0,0.18,0,0.27,0c3.55,0,10.83,2.22,15.71,10.57
					c0.03,0.03,0.06,0.08,0.06,0.14c0,0.1-0.1,0.18-0.19,0.18c-0.05,0-0.07-0.01-0.1-0.04c-0.71-0.45-1.31-0.79-1.79-1.03
					c1.76,1.31,4.63,3.97,5.36,7.81c0.01,0.03,0.01,0.05,0.01,0.09c0,0.1-0.08,0.19-0.18,0.18c-0.06,0-0.09-0.01-0.13-0.04
					c-0.43-0.37-0.79-0.67-1.09-0.9c0.81,1.27,1.86,3.82,1.4,8.15c0,0.08-0.06,0.15-0.14,0.16c-0.08,0.03-0.15-0.01-0.19-0.07
					c-0.9-1.29-1.74-1.96-2.18-2.25c0.33,1.58,1.23,7.43-1.59,13.66c-0.03,0.08-0.11,0.12-0.19,0.09c-0.09,0-0.15-0.08-0.16-0.17
					c-0.05-1.2-0.71-2.52-1.18-3.29c0.22,2.67-0.02,11.26-10.85,16.28C114.84,66.79,114.81,66.8,114.78,66.8z M116.95,61.58
					c-0.71,2.25-1.42,3.88-1.77,4.65c12.11-5.9,10.11-16.36,10.08-16.47c-0.01-0.08,0.03-0.17,0.11-0.21c0.08-0.03,0.18,0,0.22,0.07
					c0.05,0.08,1.26,1.76,1.6,3.49c2.86-6.9,1.21-13.15,1.19-13.22c-0.02-0.07,0-0.13,0.06-0.18c0.06-0.05,0.13-0.06,0.2-0.04
					c0.05,0.02,1.11,0.5,2.38,2.18c0.49-6.03-2.12-8.34-2.15-8.37c-0.08-0.07-0.09-0.17-0.03-0.24c0.05-0.08,0.16-0.1,0.24-0.07
					c0.03,0.02,0.65,0.37,1.78,1.31c-1.25-5.15-6.42-7.98-6.46-8.01c-0.08-0.04-0.11-0.14-0.09-0.23c0.03-0.08,0.11-0.13,0.2-0.12
					c0.04,0.01,0.97,0.16,2.8,1.26c-4.78-7.69-11.63-9.77-15.02-9.77c-0.25,0-0.48,0.01-0.7,0.03c-0.08,0-0.15-0.03-0.18-0.09
					c-0.04-0.06-0.03-0.14,0.02-0.21c0.49-0.61,1.58-1.37,2.22-1.8c-1.23,0.01-4.25,0.23-7.01,2.07c-0.04,0.03-0.09,0.03-0.14,0.03
					c-0.05-0.01-0.09-0.04-0.12-0.08c-1.61-2.56-4.8-4.83-6.07-5.67l1.37,2.88c0.03,0.08,0.01,0.16-0.04,0.22
					c-0.05,0.06-0.14,0.06-0.21,0.03c-3.41-1.77-7.14-2.68-11.1-2.68c-11.68,0-22.28,7.83-24.84,9.89c0.57-0.1,1.53-0.24,3.09-0.36
					c0.09-0.01,0.17,0.05,0.19,0.14c0.02,0.09-0.03,0.19-0.11,0.22c-4.96,1.91-9.05,7.16-10.52,9.22c0.72-0.44,1.86-1.01,3.31-1.25
					c0.09-0.02,0.17,0.03,0.2,0.1c0.04,0.09,0.01,0.17-0.06,0.22c-5.12,3.88-6.83,10.27-7.21,12.01c0.43-0.28,1.24-0.79,2.59-1.49
					c0.08-0.04,0.17-0.02,0.23,0.05c0.06,0.07,0.06,0.18,0,0.24c-0.96,1.01-1,2.32-0.97,2.98c0.25-0.27,0.67-0.7,1.31-1.25
					c0.06-0.05,0.15-0.06,0.21-0.02c0.07,0.03,0.1,0.11,0.09,0.19c-0.89,5.05,1.47,7.26,4.45,10.04c0.43,0.4,0.87,0.81,1.31,1.24
					c3.02,2.94,3.79,5.16,4.16,8.01c0.04-1.84,0.04-4.76-0.3-6.64l-0.1-0.58c-0.47-2.64-0.78-4.38,0.1-7.68
					c0.94-3.47,4.66-9.28,4.82-9.52c0.05-0.09,0.15-0.11,0.24-0.07c0.08,0.05,0.12,0.15,0.08,0.23c-0.01,0.04-1.44,3.54-1.71,4.99
					c2.21-0.82,6.33-5.69,8.15-8.79c0.05-0.09,0.15-0.12,0.24-0.08c0.09,0.04,0.13,0.14,0.09,0.23c-1.29,3.49-2.3,5.58-2.64,6.27
					c1.26,0.02,6.61-0.26,11.91-6.15c0.07-0.08,0.17-0.09,0.24-0.02c0.09,0.07,0.1,0.17,0.05,0.26c-1.16,1.81-1.96,2.97-2.38,3.58
					c1.61-0.72,6.14-2.98,8.81-6.51c0.04-0.07,0.15-0.09,0.23-0.06c0.08,0.04,0.12,0.13,0.09,0.22c-0.41,1.46-0.41,2.88-0.36,3.68
					c0.55-1.07,1.76-3.37,2.59-4.56c0.04-0.06,0.1-0.09,0.18-0.08c0.07,0.01,0.12,0.06,0.15,0.13c0.71,2.53,4.37,7.32,7.69,8.76
					c-0.56-2.49-0.7-5.03-0.71-5.06c0-0.09,0.06-0.17,0.15-0.19c0.09-0.02,0.17,0.03,0.21,0.11c0.03,0.08,2.84,7.28,6.27,9.11
					c-0.88-3.65-1.47-6.79-1.47-6.82c-0.02-0.09,0.03-0.17,0.1-0.21c0.08-0.03,0.17-0.01,0.22,0.05c0.06,0.08,5.52,7.21,6.08,15.27
					c0.97-2.29,2.56-3.02,4.6-2.13c0.88,0.38,1.63,1.36,2,2.61c0.59,2.04,0.11,4.41-1.3,6.5c-1.46,2.15-2.66,3.19-3.68,3.19
					C117.83,62.6,117.34,62.26,116.95,61.58z"/>
			</g>
			<path class="st22" d="M82.89,69.71c0,0,8.45,1.23,15.82-2.47c0.24-0.76,0.71-0.86,0.71-0.86s-0.47,0.95,0.24,2.04
				c-0.43-0.1-0.71-0.48-0.71-0.48s-0.95,2.47-1.99,4.48c-1.06,1.99-3.18,4.2-6.86,3.23C86.25,74.63,85.23,71.34,82.89,69.71z"/>
			<path class="st23" d="M93.36,51.66c0,0,9.33-6.1,13.25-2.54C104.8,45.5,97.15,44.19,93.36,51.66z"/>
			<path class="st23" d="M82.29,52.63c0,0-5.63-4.53-10.22-1.81C72.97,48.56,78.67,46.16,82.29,52.63z"/>
			<path class="st23" d="M94.61,59.22c0,0,5.58,2.82,9.58,0.55c-0.28,1.24,0.13,1.85,0.13,1.85s1.52-6.19,6.48-5.5
				c-1.45-1.17-3.1-0.62-3.1-0.62s-1.45-5.24-7.17-4.34C94.81,52.05,94.47,58.18,94.61,59.22z"/>
			<path class="st23" d="M83.44,59.29c0,0-2.69,2.41-7.1,1.31c0.82,1.1,0.61,2.28,0.61,2.28s-3.24-6.2-8.19-3.59
				c0.82-1.52,2.41-1.58,2.41-1.58s-0.37-6.39,5.08-6.55C81.89,50.98,83.24,56.6,83.44,59.29z"/>
		</g>
		<g>
			<path class="st19" d="M120.06,53.6c1.28-0.63,1.74,1.06,1.81,1.91c0.01,0.11-0.12-0.01-0.13-0.08c-0.13-1.08-0.7-2-1.72-1.41
				c-0.42,0.24-0.65,0.85-0.84,1.27c-0.1,0.25-0.19,0.5-0.27,0.74c0.56,0.48,1.01,1.07,1.4,1.69c0.05,0.07,0,0.16-0.08,0.07
				c-0.27-0.33-0.52-0.68-0.81-1c-0.16-0.16-0.3-0.34-0.47-0.48c-0.04-0.02-0.07-0.04-0.09-0.07c-0.22,0.73-0.35,1.47-0.58,2.21
				c-0.06,0.17-0.26-0.08-0.25-0.17C118.07,56.85,118.64,54.29,120.06,53.6z"/>
			<path class="st24" d="M121.87,56.75c0.25-1.05-0.08-3.05-1.4-3.28c-1.09,0.06-1.74,1.2-2.07,2.16c-0.3,0.89-0.77,2.49-0.05,3.3
				C119.66,60.39,121.59,57.97,121.87,56.75z"/>
		</g>
		<g>
			<g>
				<path class="st19" d="M90.96,65.06c-0.78,0.18-1.47,0.49-2.29,0.44c-0.8-0.03-1.64-0.29-2.37-0.59c-0.36-0.15-1.3-0.71-0.8-1.29
					c0.21-0.25,0.52-0.44,0.78-0.66c0.56-0.46,1.14-1.05,1.51-1.67c0.03-0.03,0-0.18-0.05-0.13c-0.74,0.76-1.57,1.43-2.35,2.14
					c-0.38,0.35-0.33,0.77-0.12,1.18c0.43,0.84,1.65,1.13,2.47,1.35c1.12,0.3,2.26,0.23,3.26-0.41
					C91.08,65.37,91.1,65.03,90.96,65.06z"/>
				<path class="st23" d="M87.72,60.18c0,0-0.94,1.58-2.64,2.99c-1.58,1.32-0.8,3.34,2.85,3.8c2.29,0.29,3.9-1.02,4.12-2.62
					c0-1.12-2.38,2.3-5.92,0.09c-0.79-0.56-0.54-0.72,0.42-1.57C87.5,62.02,88.11,61.15,87.72,60.18z"/>
				<path class="st23" d="M86.57,65.39c0,0,2.63,1.36,4.39-0.33C90.82,66.24,88.75,67.83,86.57,65.39z"/>
			</g>
			<path class="st16" d="M88.56,60.23c0,0-0.23,1.89-1.86,2.94c-1.58,1.01,1.3,2.03,2.47,0.01C90.35,61.16,88.81,58.25,88.56,60.23z
				"/>
		</g>
		<g>
			<path class="st20" d="M72.43,50.03c0,0,3.38-3.25,9.06,1.41C79.46,47.53,76.28,45.16,72.43,50.03z"/>
			<path class="st21" d="M81.49,51.64c-0.04,0-0.08-0.01-0.11-0.05c-2-1.64-3.93-2.47-5.73-2.47c-1.97,0-3.08,1.03-3.09,1.04
				c-0.07,0.07-0.18,0.07-0.26,0c-0.07-0.06-0.08-0.17-0.02-0.26c1.48-1.86,2.96-2.79,4.4-2.79c2.29,0,3.96,2.3,4.97,4.25
				c0.03,0.08,0.02,0.17-0.05,0.23C81.57,51.63,81.53,51.64,81.49,51.64z M75.65,48.74c1.67,0,3.43,0.67,5.24,2.01
				c-0.97-1.63-2.39-3.27-4.2-3.27c-1.07,0-2.18,0.58-3.31,1.73C73.94,48.97,74.7,48.74,75.65,48.74z"/>
		</g>
		<g>
			<path class="st20" d="M94.26,50.23c0,0,8.25-6.08,11.89-1.82C104.33,44.35,99.8,42.8,94.26,50.23z"/>
			<path class="st21" d="M94.26,50.41c-0.05,0-0.1-0.01-0.13-0.05c-0.06-0.07-0.07-0.17-0.02-0.24c2.58-3.47,5.2-5.3,7.56-5.3
				c1.95,0,3.64,1.28,4.65,3.51c0.04,0.08,0.01,0.18-0.07,0.23c-0.08,0.05-0.18,0.04-0.24-0.03c-0.83-0.96-1.97-1.45-3.4-1.45
				c-3.72,0-8.2,3.27-8.25,3.31C94.33,50.4,94.3,50.41,94.26,50.41z M101.67,45.2c-2.03,0-4.28,1.46-6.55,4.23
				c1.54-0.98,4.67-2.72,7.49-2.72c1.12,0,2.09,0.28,2.87,0.83C104.55,46.04,103.19,45.2,101.67,45.2z"/>
		</g>
		<path class="st19" d="M99.35,67.65c-0.11-0.09-0.17-0.19-0.19-0.29c0.01-0.03,0-0.06-0.01-0.07c-0.01-0.14,0.03-0.29,0.1-0.44
			c0.03-0.06-0.03-0.1-0.07-0.04c-0.09,0.12-0.19,0.33-0.23,0.55c-2.16,1.13-4.54,1.93-6.95,2.29c-2.6,0.37-5.71,1.21-8.28,0.34
			c-0.04-0.01-0.09,0.07-0.06,0.1c0.17,0.1,0.36,0.18,0.55,0.25c1.13,1.46,2.45,2.85,3.93,3.97c1.48,1.12,3.28,1.21,5.01,0.69
			c3.42-1.02,4.23-4.47,5.64-7.29c0.04-0.03,0.09-0.06,0.14-0.09c0.02,0.16,0.09,0.28,0.27,0.33
			C99.31,67.96,99.44,67.72,99.35,67.65z"/>
		<g>
			<path class="st2" d="M91.42,72.01c3.48-0.71,5.94-2.16,6.75-3.95c-2.11,1.15-4.76,1.65-7.04,1.96c-1.32,0.18-2.64,0.39-3.96,0.48
				c-0.28,0.02-0.59,0.04-0.88,0.05C86.91,71.26,88.5,72.61,91.42,72.01z"/>
			<path class="st25" d="M90.17,74.8c0.81,0.22,1.69,0.25,2.67-0.05c1.5-0.46,2.82-1.35,3.66-2.66
				C93.55,71.16,91.19,73.51,90.17,74.8z"/>
			<path class="st26" d="M98.45,67.91c-0.09,0.06-0.19,0.1-0.28,0.15c-0.8,1.79-3.27,3.25-6.75,3.95c-2.93,0.6-4.51-0.75-5.13-1.46
				c-0.61,0.03-1.23,0.02-1.8-0.13c1.74,1.59,3.44,3.77,5.68,4.38c1.02-1.29,3.38-3.64,6.33-2.71c0.18-0.28,0.36-0.58,0.49-0.91
				C97.45,70.07,97.83,68.93,98.45,67.91z"/>
		</g>
		<g>
			<path class="st2" d="M72.01,57.97c0,0,6.34,4.53,10.74,0.97c-0.87-5.78-4.48-7.11-6.36-7.06C74.51,51.92,71.71,53.93,72.01,57.97
				z"/>
			<path class="st19" d="M72.01,57.97c0.41,0.26,0.82,0.49,1.25,0.71c0.43,0.22,0.86,0.42,1.31,0.6c0.22,0.09,0.44,0.18,0.68,0.25
				c0.22,0.07,0.44,0.17,0.68,0.22l0.69,0.18l0.7,0.13c0.24,0.05,0.48,0.06,0.71,0.09c0.24,0.02,0.48,0.02,0.71,0.01
				c0.24,0,0.47,0.01,0.7-0.03c0.24-0.04,0.47-0.07,0.7-0.11l0.67-0.2c0.23-0.04,0.43-0.18,0.64-0.27l0.32-0.15
				c0.1-0.04,0.19-0.13,0.29-0.18l0.57-0.41l-0.06,0.16c-0.08-0.37-0.14-0.76-0.23-1.13c-0.11-0.37-0.18-0.75-0.34-1.1l-0.19-0.54
				l-0.25-0.52c-0.08-0.18-0.17-0.34-0.27-0.5c-0.09-0.16-0.18-0.34-0.3-0.49c-0.12-0.15-0.22-0.31-0.34-0.45l-0.37-0.44l-0.41-0.39
				c-0.15-0.12-0.3-0.23-0.45-0.35c-0.15-0.11-0.31-0.21-0.47-0.31c-0.17-0.1-0.34-0.18-0.51-0.26c-0.35-0.14-0.71-0.27-1.07-0.35
				c-0.37-0.08-0.76-0.11-1.12-0.09c-0.2,0-0.37,0.05-0.55,0.09c-0.18,0.06-0.36,0.09-0.53,0.17c-0.36,0.13-0.68,0.34-0.99,0.55
				c-0.31,0.24-0.59,0.49-0.83,0.78c-0.13,0.16-0.25,0.3-0.35,0.47c-0.11,0.15-0.21,0.32-0.3,0.49c-0.1,0.17-0.17,0.35-0.25,0.53
				c-0.08,0.17-0.13,0.36-0.19,0.54c-0.06,0.18-0.09,0.37-0.13,0.56c-0.03,0.19-0.08,0.38-0.08,0.57
				C72,57.18,72.01,57.57,72.01,57.97z M72.01,57.97c-0.02-0.4-0.06-0.78-0.02-1.17c0-0.19,0.03-0.39,0.06-0.58
				c0.02-0.2,0.06-0.4,0.12-0.59c0.04-0.18,0.09-0.38,0.16-0.56c0.06-0.19,0.13-0.37,0.23-0.55c0.08-0.18,0.17-0.36,0.28-0.52
				c0.1-0.17,0.23-0.33,0.35-0.48c0.25-0.32,0.53-0.59,0.84-0.85c0.32-0.23,0.65-0.46,1.03-0.61c0.18-0.09,0.38-0.14,0.57-0.2
				c0.2-0.05,0.41-0.11,0.6-0.11c0.41-0.03,0.81,0,1.2,0.09c0.4,0.08,0.78,0.21,1.15,0.35c0.18,0.1,0.36,0.18,0.53,0.27
				c0.17,0.1,0.35,0.2,0.51,0.32c0.16,0.12,0.33,0.23,0.47,0.36l0.44,0.42l0.4,0.45c0.13,0.15,0.24,0.32,0.36,0.47
				c0.12,0.16,0.22,0.35,0.32,0.51c0.1,0.17,0.21,0.34,0.29,0.53l0.25,0.54l0.2,0.56c0.15,0.37,0.22,0.76,0.34,1.14
				c0.09,0.38,0.14,0.79,0.22,1.17v0c0.01,0.06,0,0.12-0.06,0.15l-0.61,0.41c-0.1,0.07-0.2,0.15-0.32,0.2l-0.33,0.15
				c-0.22,0.1-0.44,0.23-0.68,0.29L80.2,60.3c-0.24,0.05-0.49,0.06-0.73,0.09c-0.24,0.04-0.48,0.03-0.73,0.03
				c-0.24,0-0.49,0-0.73-0.05c-0.24-0.03-0.49-0.04-0.72-0.09l-0.71-0.15l-0.7-0.2c-0.23-0.07-0.45-0.17-0.68-0.25
				c-0.23-0.08-0.45-0.18-0.67-0.28c-0.44-0.19-0.88-0.42-1.29-0.66C72.81,58.51,72.4,58.25,72.01,57.97z"/>
		</g>
		<g>
			<path class="st2" d="M95.35,58.56c0,0,7.78,4.44,11.81-2.43c-1.33-4.17-5.68-5.45-8.79-3.25C95.26,55.08,95.35,58.56,95.35,58.56
				z"/>
			<path class="st19" d="M95.35,58.56c1,0.5,2.07,0.87,3.17,1.08c0.55,0.11,1.11,0.18,1.66,0.22c0.28,0,0.56,0.01,0.83-0.01
				c0.27-0.02,0.55-0.04,0.82-0.09c0.27-0.04,0.54-0.1,0.81-0.17c0.27-0.08,0.53-0.16,0.79-0.27c0.25-0.1,0.5-0.23,0.73-0.36
				c0.24-0.13,0.47-0.28,0.7-0.44c0.22-0.17,0.44-0.34,0.63-0.53c0.2-0.19,0.4-0.38,0.57-0.59c0.19-0.2,0.34-0.44,0.51-0.66
				c0.16-0.22,0.3-0.45,0.44-0.69L107,56.19c-0.13-0.33-0.23-0.68-0.42-0.99c-0.09-0.16-0.16-0.33-0.26-0.47l-0.29-0.45
				c-0.1-0.15-0.22-0.27-0.34-0.41c-0.11-0.15-0.24-0.27-0.37-0.39c-0.25-0.25-0.54-0.45-0.84-0.66l-0.46-0.27
				c-0.16-0.08-0.33-0.14-0.49-0.2c-0.17-0.09-0.34-0.11-0.51-0.17c-0.17-0.06-0.35-0.09-0.52-0.12c-0.35-0.07-0.71-0.07-1.07-0.07
				l-0.53,0.04l-0.53,0.11c-0.35,0.09-0.7,0.19-1.01,0.35c-0.34,0.14-0.64,0.35-0.94,0.53c-0.3,0.22-0.6,0.45-0.85,0.69
				c-0.14,0.12-0.26,0.26-0.38,0.39c-0.12,0.13-0.24,0.27-0.35,0.42c-0.11,0.14-0.22,0.29-0.31,0.45c-0.11,0.15-0.21,0.3-0.28,0.46
				c-0.18,0.31-0.33,0.65-0.45,0.99C95.55,57.1,95.39,57.82,95.35,58.56z M95.35,58.56c-0.02-0.74,0.12-1.48,0.35-2.19
				c0.11-0.34,0.24-0.69,0.42-1.03c0.08-0.17,0.17-0.33,0.27-0.48c0.09-0.17,0.19-0.32,0.3-0.48c0.11-0.15,0.22-0.29,0.35-0.43
				c0.12-0.14,0.24-0.29,0.38-0.41c0.26-0.27,0.55-0.51,0.84-0.73c0.32-0.21,0.62-0.43,0.97-0.58c0.33-0.18,0.7-0.29,1.06-0.39
				l0.55-0.12l0.56-0.05c0.38,0,0.76,0,1.14,0.07c0.19,0.02,0.38,0.06,0.55,0.12c0.19,0.05,0.38,0.08,0.54,0.17
				c0.17,0.07,0.35,0.13,0.53,0.22l0.5,0.27c0.31,0.22,0.63,0.43,0.9,0.7c0.14,0.13,0.28,0.26,0.39,0.41
				c0.12,0.14,0.27,0.27,0.36,0.43l0.32,0.48c0.1,0.16,0.17,0.33,0.27,0.5c0.18,0.33,0.28,0.69,0.43,1.04
				c0.02,0.05,0.01,0.1-0.02,0.13l0,0.01c-0.16,0.24-0.29,0.49-0.46,0.72c-0.18,0.22-0.34,0.46-0.53,0.67
				c-0.18,0.22-0.39,0.42-0.6,0.61c-0.21,0.2-0.44,0.38-0.67,0.55c-0.24,0.16-0.47,0.32-0.73,0.46c-0.25,0.13-0.51,0.26-0.77,0.36
				c-0.27,0.11-0.55,0.19-0.82,0.26c-0.28,0.07-0.56,0.12-0.85,0.15c-1.14,0.15-2.29,0.06-3.39-0.22
				C97.39,59.53,96.33,59.12,95.35,58.56z"/>
		</g>
		<g>
			<path class="st27" d="M80.67,56.13c0,2.01-1.33,3.65-2.97,3.66c-1.62,0.01-2.94-1.61-2.93-3.62c0.02-2,1.34-3.63,2.97-3.65
				C79.37,52.51,80.68,54.12,80.67,56.13z"/>
			<path class="st28" d="M80.67,56.13c0,2.01-1.33,3.65-2.97,3.66c-1.62,0.01-2.94-1.61-2.93-3.62c0.02-2,1.34-3.63,2.97-3.65
				C79.37,52.51,80.68,54.12,80.67,56.13z"/>
			<path class="st28" d="M79.97,56.27c-0.01,1.52-1.02,2.77-2.26,2.78c-1.24,0.01-2.24-1.23-2.23-2.76c0-1.53,1.02-2.78,2.26-2.78
				C78.99,53.5,79.98,54.73,79.97,56.27z"/>
			<g>
				<path class="st29" d="M79.59,56.13c0,1.21-0.8,2.2-1.79,2.2c-0.98,0-1.77-0.97-1.77-2.18c0.01-1.21,0.81-2.19,1.79-2.2
					C78.81,53.93,79.6,54.91,79.59,56.13z"/>
			</g>
			<g class="st30">
				<path class="st31" d="M74.82,55.58c-0.03,0.19-0.05,0.38-0.05,0.58c0,2.02,1.31,3.63,2.93,3.62c1.63-0.01,2.96-1.65,2.97-3.66
					c0-0.18-0.01-0.36-0.03-0.54C78.86,56.69,76.27,56.95,74.82,55.58z"/>
			</g>
			<path class="st2" d="M77.29,55.27c-0.07,0.62-0.53,1.09-1.04,1.05c-0.5-0.04-0.86-0.58-0.79-1.2c0.07-0.62,0.54-1.1,1.05-1.05
				C77.02,54.11,77.36,54.65,77.29,55.27z"/>
			<path class="st2" d="M76.73,57.21c-0.03,0.3-0.25,0.53-0.49,0.51c-0.25-0.02-0.41-0.27-0.38-0.57c0.04-0.29,0.26-0.52,0.49-0.5
				C76.59,56.66,76.76,56.92,76.73,57.21z"/>
		</g>
		<g>
			<path class="st27" d="M104.44,55.99c-0.01,2.12-1.41,3.83-3.13,3.85c-1.72,0.01-3.1-1.7-3.08-3.82c0-2.12,1.41-3.84,3.13-3.86
				C103.07,52.16,104.45,53.87,104.44,55.99z"/>
			<path class="st28" d="M104.44,55.99c-0.01,2.12-1.41,3.83-3.13,3.85c-1.72,0.01-3.1-1.7-3.08-3.82c0-2.12,1.41-3.84,3.13-3.86
				C103.07,52.16,104.45,53.87,104.44,55.99z"/>
			<path class="st28" d="M103.7,56.13c0,1.62-1.08,2.94-2.39,2.95c-1.32,0.01-2.37-1.3-2.36-2.92c0.01-1.61,1.08-2.93,2.39-2.93
				C102.66,53.21,103.71,54.51,103.7,56.13z"/>
			<g>
				<path class="st29" d="M103.31,55.98c-0.01,1.28-0.86,2.32-1.89,2.33c-1.03,0-1.86-1.03-1.86-2.31c0-1.27,0.85-2.31,1.89-2.32
					C102.47,53.67,103.31,54.7,103.31,55.98z"/>
			</g>
			<g class="st30">
				<path class="st31" d="M98.26,55.41c-0.03,0.21-0.03,0.41-0.04,0.62c-0.02,2.11,1.37,3.83,3.08,3.82
					c1.72-0.02,3.12-1.74,3.13-3.85c0-0.2-0.02-0.39-0.04-0.58C102.52,56.57,99.79,56.85,98.26,55.41z"/>
			</g>
			<path class="st2" d="M100.88,55.08c-0.07,0.65-0.56,1.15-1.1,1.11c-0.53-0.04-0.9-0.61-0.83-1.26c0.08-0.66,0.57-1.16,1.1-1.12
				C100.58,53.85,100.95,54.42,100.88,55.08z"/>
			<path class="st2" d="M100.28,57.13c-0.03,0.32-0.27,0.55-0.52,0.53c-0.26-0.03-0.44-0.29-0.4-0.61c0.04-0.32,0.28-0.55,0.53-0.52
				C100.14,56.55,100.31,56.82,100.28,57.13z"/>
		</g>
		<path class="st19" d="M95.1,75.89c-0.94,0.53-2.08,1.22-3.16,0.77c-0.05-0.03-0.13,0.1-0.08,0.12c1.04,0.51,2.4,0,3.25-0.72
			C95.15,76.02,95.21,75.83,95.1,75.89z"/>
		<path class="st22" d="M91.86,76.78c0,0,1.7,0.57,3.24-0.89C94.88,76.99,93.49,78.24,91.86,76.78z"/>
		<g>
			<path class="st32" d="M81.43,55.08c1.53,3.36-1.35,4.37-5.43,3.37c-3.53-0.87-3.53-3.12-3.43-3.78c-0.42,0.89-0.66,1.98-0.56,3.3
				c0,0,6.34,4.53,10.74,0.97c-0.27-1.79-0.8-3.14-1.46-4.17C81.33,54.87,81.38,54.96,81.43,55.08z"/>
		</g>
		<g>
			<path class="st32" d="M99.46,58.02c-3.98-0.53-3.08-2.86-2.82-3.41c-1.35,1.93-1.3,3.95-1.3,3.95s7.78,4.44,11.81-2.43
				c-0.38-1.21-1.03-2.17-1.82-2.87c0.04,0.04,0.06,0.07,0.1,0.12C107.5,55.72,103.98,58.6,99.46,58.02z"/>
		</g>
		<path class="st19" d="M69.05,59.12c0,0,0.11-0.1,0.31-0.25c0.11-0.08,0.25-0.16,0.41-0.25c0.08-0.04,0.16-0.09,0.25-0.13
			c0.1-0.03,0.2-0.08,0.31-0.11c0.21-0.07,0.44-0.13,0.7-0.17c0.13-0.01,0.27-0.02,0.4-0.05c0.14,0,0.28,0.02,0.42,0.02
			c0.15,0,0.29,0.03,0.43,0.06c0.15,0.03,0.3,0.04,0.44,0.09c0.28,0.12,0.58,0.2,0.84,0.36l0.39,0.22c0.13,0.09,0.24,0.19,0.36,0.27
			c0.11,0.09,0.23,0.19,0.34,0.27c0.1,0.1,0.2,0.2,0.3,0.31c0.19,0.2,0.39,0.39,0.53,0.6c0.15,0.2,0.29,0.4,0.43,0.58
			c0.14,0.18,0.22,0.36,0.32,0.52c0.08,0.16,0.16,0.29,0.22,0.41c0.13,0.22,0.19,0.35,0.19,0.35s-0.09-0.11-0.26-0.32
			c-0.08-0.1-0.17-0.22-0.27-0.36c-0.11-0.14-0.22-0.31-0.37-0.47c-0.15-0.17-0.3-0.34-0.47-0.53c-0.15-0.19-0.36-0.35-0.55-0.54
			c-0.1-0.09-0.2-0.19-0.3-0.29c-0.11-0.08-0.22-0.16-0.33-0.24c-0.11-0.09-0.23-0.18-0.34-0.26l-0.38-0.19
			c-0.24-0.17-0.51-0.24-0.77-0.35c-0.12-0.05-0.26-0.06-0.39-0.1c-0.13-0.03-0.27-0.07-0.39-0.07c-0.14-0.01-0.26-0.03-0.39-0.04
			c-0.12,0-0.26,0.01-0.37,0.01c-0.24,0.01-0.47,0.06-0.68,0.1c-0.2,0.06-0.39,0.11-0.56,0.17c-0.17,0.06-0.31,0.12-0.42,0.18
			C69.18,59.03,69.05,59.12,69.05,59.12z"/>
		<path class="st19" d="M104.42,60.92c0,0,0.07-0.53,0.33-1.3c0.14-0.38,0.3-0.82,0.54-1.27c0.24-0.45,0.54-0.9,0.91-1.31
			c0.18-0.2,0.39-0.39,0.6-0.55c0.22-0.18,0.45-0.31,0.69-0.42c0.23-0.11,0.47-0.19,0.71-0.23c0.23-0.05,0.45-0.07,0.66-0.06
			c0.2-0.01,0.39,0.03,0.55,0.06c0.16,0.04,0.3,0.08,0.41,0.11c0.22,0.08,0.35,0.13,0.35,0.13s-0.13-0.02-0.36-0.06
			c-0.11-0.02-0.26-0.03-0.41-0.04c-0.16,0.01-0.34-0.01-0.53,0.01c-0.78,0.04-1.73,0.52-2.4,1.29c-0.35,0.38-0.64,0.81-0.9,1.23
			c-0.25,0.41-0.46,0.82-0.62,1.18C104.61,60.42,104.42,60.92,104.42,60.92z"/>
		<path class="st33" d="M68.79,59.72c-0.7,0.44-0.64,1.12,0.41,1.65c1.01,0.53,2.26,0.52,3.26,1.02c0.67,0.34,2.15,2,2.94,1.72
			c1.33-0.47,0.32-2.57-0.19-3.24C73.77,59.02,70.82,58.47,68.79,59.72z"/>
		<path class="st33" d="M112.12,56.6c0.83,0.31,0.89,1.02-0.08,1.79c-0.95,0.74-2.23,0.98-3.18,1.73c-0.62,0.48-1.81,2.5-2.69,2.38
			c-1.48-0.22-0.87-2.6-0.46-3.4C106.83,56.88,109.77,55.71,112.12,56.6z"/>
		<g class="st34">
			<path class="st35" d="M121.34,50.46c-1.97-0.86-3.69-0.25-4.67,2.88c-0.18-8.47-6.08-16.08-6.08-16.08s0.62,3.33,1.55,7.19
				c-3.7-1.56-6.72-9.38-6.72-9.38s0.16,2.76,0.79,5.37c-3.54-1.3-7.4-6.41-8.13-9.01c-1.09,1.56-2.86,5.11-2.86,5.11
				s-0.31-2.14,0.31-4.38c-3.34,4.42-9.48,6.82-9.48,6.82s0.88-1.2,2.76-4.12c-6.14,6.83-12.35,6.19-12.35,6.19s1.14-2.13,2.76-6.5
				c-1.87,3.17-6.3,8.44-8.54,8.95c0.1-1.25,1.76-5.31,1.76-5.31s-3.85,5.99-4.79,9.48c-0.94,3.49-0.53,5.21,0,8.19
				c0.57,3.22,0.11,6.49,0.26,9.73c0.15,3.34,2.68,5.57,5.34,7.21c0.94,0.58,1.91,1.12,2.88,1.61c5.55,2.68,13.17,5.81,19.93,3.81
				c10.05-3.04,13.86-5.72,18.72-11.61c0,0,1.09-2.09,2.13-5.54c0.8,1.85,2.33,2.21,5.03-1.78
				C124.64,55.31,123.3,51.31,121.34,50.46z M111.82,65.75c-4.54,8.23-10.93,10.31-18.42,11.66c-7.49,1.35-15.72-3.56-21.13-7.25
				c-5.4-3.68-2.46-12.15-3.31-15.59c-1.23-5.28,0.62-7.25,0.62-7.25c3.56-2.58,5.52-5.16,5.52-5.16l-0.12,1.6
				c0,0,3.93-0.37,9.34-2.82c0,0,3.8,0.49,9.82-4.67c0,4.42,1.84,2.82,4.05-1.23c2.21,4.79,9.09,9.09,9.21,6.87
				c1.35,3.56,5.78,7,6.14,4.8C114.4,51.87,116,58.38,111.82,65.75z"/>
		</g>
		<path class="st36" d="M74.35,48.5c0,0,2.95-1.53,5.7,1.22C79.34,47.63,76.09,46.72,74.35,48.5z"/>
		<path class="st36" d="M96.47,48.22c0,0,4.36-4.26,8.35-1.39C103.75,44.47,99.3,44.61,96.47,48.22z"/>
		<g class="st37">
			<path class="st20" d="M130.8,41.86c-3.05-8.27-10.02-9.58-10.02-9.58s2.2,10.66,1.53,7.61c-0.68-3.55-6.59-9.81-6.59-9.81
				s1.52,5.57,1.01,11.66c-1.69-7.09-5.91-9.29-8.11-13.52c-0.68,4.56,0,8.79,0,8.79s-3.39-7.1-4.74-14.38
				c-0.68,1.86-1.52,6.09-0.18,12.52c-2.7-3.21-4.4-8.96-4.4-8.96l-3.04,5.07c0,0,0-1.86,1.35-6.25c-1.86,3.88-6.94,9.64-6.94,9.64
				s1.02-2.88,1.53-6.76c-3.22,6.08-7.44,8.79-12.68,10.65c2.03-3.05,3.55-9.13,3.55-9.13s-4.23,3.56-9.3,9.13
				c0.51-2.37,3.38-6.94,3.38-6.94s-5.24,3.72-10.14,11.5c0.51-5.24,4.06-10.99,10.65-14.21c-8.12,1.02-10.48,2.37-16.23,7.11
				c4.74-7.43,10.83-9.64,10.83-9.64c-7.77,1.97-12.11,3.87-14.31,5.05c-0.35,0.5-0.54,0.79-0.54,0.79s1.56-1.38,4.07-1.82
				c-6.07,4.59-7.37,12.57-7.37,12.57s0.78-0.6,2.94-1.73c-1.38,1.48-0.95,3.55-0.95,3.55s0.43-0.61,1.56-1.56
				c-1.04,5.9,2.34,8.06,5.81,11.44c3.47,3.38,3.92,5.71,4.27,9.34c0.01,0.09,0.02,0.17,0.03,0.26h0.12c0,0,0.27-5.42-0.25-8.38
				c-0.53-2.97-0.94-4.69,0-8.19c0.94-3.48,4.79-9.48,4.79-9.48s-1.67,4.06-1.76,5.31c2.24-0.51,6.67-5.78,8.54-8.95
				c-1.62,4.37-2.76,6.5-2.76,6.5s6.21,0.63,12.35-6.19c-1.88,2.92-2.76,4.12-2.76,4.12s6.14-2.4,9.48-6.82
				c-0.62,2.24-0.31,4.38-0.31,4.38s1.77-3.55,2.86-5.11c0.73,2.61,4.59,7.71,8.13,9.01c-0.63-2.61-0.79-5.37-0.79-5.37
				s3.02,7.82,6.72,9.38c-0.93-3.86-1.55-7.19-1.55-7.19s5.9,7.61,6.08,16.08c0.98-3.13,2.7-3.74,4.67-2.88
				c1.96,0.85,3.31,4.85,0.61,8.84c-2.7,3.99-4.23,3.62-5.03,1.78c-1.04,3.44-2.13,5.54-2.13,5.54c12.91-5.99,10.66-16.9,10.66-16.9
				s1.56,2.17,1.66,4.08c3.29-7.28,1.47-13.95,1.47-13.95S129.57,40.27,130.8,41.86z"/>
		</g>
		<g class="st37">
			<path class="st20" d="M102.19,16.22c-3.54-2.53-11.16-1.52-13.36,0.51c6.6-1.69,11.5-0.51,14.04,1.36
				c-4.57-0.85-5.91,2.03-5.91,2.03s8.28-3.04,13.69,3.38c0.85-3.04-2.2-4.4-2.2-4.4s7.95,0.68,10.31,5.58
				c-1.85-4.06-5.07-5.74-5.07-5.74s1.25-0.42,3.12-0.6c-2.06-0.74-3.92-0.97-5.23-0.85c0.7-0.87,2.69-2.08,2.69-2.08
				s-4.07-0.35-7.71,2.08c-2.08-3.29-6.68-6.07-6.68-6.07l1.65,3.46c-0.3-0.16-0.6-0.29-0.89-0.44
				C101.3,15.01,101.85,15.61,102.19,16.22z"/>
		</g>
		<path class="st38" d="M85.03,20.42c-1.64,2.13,0.63,1.04,4.98-1.1c4.36-2.15,0.24,0.59-2.78,5.2c-2.05,3.56,4.05-1.72,8.12-5.67
			c4.08-3.95-0.18,7.15-2.29,11.24c0.34-4.22,0.17-5.91,0.17-5.91s-3.89,5.75-9.31,10.48c2.2-4.4,1.19-9.98,1.19-9.98
			s-3.89,4.06-6.42,6.77c2.36-5.24,4.57-7.95,4.57-7.95s-10.31,3.38-13.53,6.43c3.72-3.72,9.47-7.11,9.47-7.11
			s-7.94-0.51-13.86,4.05c0.17-1.52,1.44-3.04,6.42-6.42c7.91-5.35,13.56-7.26,20.42-7.17c0,0-5.54,0.51-10.91,3.95
			C75.88,20.67,88.99,15.28,85.03,20.42z"/>
		<path class="st38" d="M102.9,21.47c0,0-1.57,4.28-0.57,8.99C99.9,27.03,100.19,23.76,102.9,21.47z"/>
		<path class="st38" d="M105.38,22.95c0,0,0.11,4.14,1.65,7.47c-0.47-3.79,0.6-5.93,0.6-5.93s5.45,4.98,7.58,10.67
			c-1.06-6.99-1.66-9.72-1.66-9.72s3.32,2.73,5.57,6.52c2.26,3.79-0.95-4.87-2.13-6.41c-1.19-1.54,7.47,2.73,10.79,5.93
			c-5.46-5.57-9.84-10.79-9.84-10.79l1.54,4.27c0,0-3.92-2.85-7.6-3.91c1.07,3.91,0.48,5.34,0.48,5.34S109.52,22.72,105.38,22.95z"
			/>
		<g>
			<path class="st18" d="M67.99,58.52c0,0-0.59-4.7-3.52-4.21c-2.93,0.48-4.46,4.97-1.57,8.2c2.49,2.73,4.94,2.16,5.04,1.33
				C68.04,63.01,68.19,60.03,67.99,58.52z"/>
			<path class="st19" d="M66.62,64.71L66.62,64.71c-0.59,0-2.14-0.19-3.85-2.08c-1.48-1.65-1.97-3.86-1.3-5.78
				c0.53-1.48,1.63-2.51,2.98-2.73c0.15-0.01,0.31-0.03,0.45-0.03c2.7,0,3.26,4.22,3.28,4.4c0.2,1.56,0.05,4.6-0.04,5.37
				C68.07,64.36,67.45,64.71,66.62,64.71z M64.9,54.45c-0.12,0-0.26,0.01-0.39,0.04c-1.21,0.2-2.21,1.13-2.69,2.48
				c-0.49,1.4-0.43,3.56,1.22,5.41c1.61,1.76,3.05,1.95,3.58,1.95l0,0c0.68,0,1.12-0.26,1.14-0.52c0.09-0.76,0.25-3.76,0.05-5.29
				C67.81,58.5,67.28,54.45,64.9,54.45z"/>
		</g>
		<path class="st23" d="M67.99,58.52c0,0-0.49-3.93-2.82-4.23c0.44,0.44,0.24,1.11-0.15,1.72c-0.23,0.37-0.58,0.62-0.95,0.85
			c-1.42,0.9-0.76,2.09-0.16,3.24c0.38,0.74,1.35,2,1,2.9c-0.11,0.3-0.29,0.58-0.53,0.79c1.9,1.21,3.47,0.71,3.55,0.06
			C68.04,63.01,68.19,60.03,67.99,58.52z"/>
		<g>
			<path class="st19" d="M65.21,57.2c-1.15-0.43-1.4,1.05-1.4,1.78c0,0.1,0.11-0.01,0.11-0.07c0.02-0.95,0.43-1.78,1.35-1.36
				c0.37,0.17,0.63,0.67,0.82,1.02c0.1,0.2,0.2,0.4,0.29,0.61c-0.44,0.46-0.78,1-1.06,1.56c-0.03,0.07,0.02,0.14,0.07,0.06
				c0.21-0.31,0.38-0.63,0.62-0.93c0.11-0.16,0.22-0.32,0.36-0.44c0.02-0.03,0.05-0.05,0.07-0.08c0.24,0.61,0.43,1.23,0.68,1.84
				c0.06,0.14,0.22-0.09,0.21-0.17C67.19,59.82,66.49,57.68,65.21,57.2z"/>
			<path class="st24" d="M63.93,60.05c-0.3-0.87-0.19-2.62,0.92-2.93c0.93-0.04,1.59,0.88,1.95,1.67c0.33,0.74,0.88,2.06,0.32,2.82
				C66.12,62.98,64.27,61.06,63.93,60.05z"/>
		</g>
		<g>
			<path class="st25" d="M93.92,72.76c0.12,0.24-0.25,0.66-0.81,0.95c-0.56,0.28-1.13,0.31-1.24,0.07s0.24-0.66,0.81-0.94
				C93.24,72.55,93.8,72.51,93.92,72.76z"/>
			<path class="st25" d="M94.97,72.34c0.04,0.14-0.08,0.3-0.26,0.36c-0.2,0.06-0.39,0-0.43-0.14c-0.05-0.14,0.08-0.3,0.27-0.36
				C94.74,72.14,94.93,72.2,94.97,72.34z"/>
		</g>
		<g>
			<path class="st7" d="M107.4,41.92c-0.12,2.22-7-2.08-9.21-6.87c-2.21,4.05-4.05,5.64-4.05,1.23c-6.02,5.16-9.82,4.67-9.82,4.67
				c-5.4,2.45-9.34,2.82-9.34,2.82l0.12-1.6c0,0-1.96,2.58-5.52,5.16c0,0-1.84,1.96-0.62,7.25c0.86,3.44-2.09,11.91,3.31,15.59
				c5.4,3.69,13.64,8.6,21.13,7.25c7.49-1.35,13.88-3.44,18.42-11.66c4.18-7.38,2.58-13.88,1.72-19.04
				C113.18,48.92,108.76,45.48,107.4,41.92z"/>
			<path class="st35" d="M69.97,44.76c-0.18,1.23,3.94-2.28,6.13-4.64c-0.62,2.36-0.62,2.36-0.62,2.36s7.53-1.49,10.17-4.2
				c-0.8,1.49-0.71,1.93-0.71,1.93s6.13-2.28,9.37-5.87c0.36,2.9,0.26,4.56,1.23,2.9c0.96-1.67,2.27-4.3,2.27-4.3s4.47,8.06,9.2,8.5
				c-0.27-1.67-0.35-2.11-0.35-2.11s2.98,6.22,6.14,6.31c-0.35-2.81-0.27-3.69-0.27-3.69s3.68,7.1,3.42,11.92
				c0,3.68,1.41-3.33,4.65-3.5c0.13-0.01,0.25-0.03,0.38-0.05c-1.83-0.64-3.4,0.07-4.33,3.02c-0.18-8.47-6.08-16.08-6.08-16.08
				s0.62,3.33,1.55,7.19c-3.7-1.56-6.72-9.38-6.72-9.38s0.16,2.76,0.79,5.37c-3.54-1.3-7.4-6.41-8.13-9.01
				c-1.09,1.56-2.86,5.11-2.86,5.11s-0.31-2.14,0.31-4.38c-3.34,4.42-9.48,6.82-9.48,6.82s0.88-1.2,2.76-4.12
				c-6.14,6.83-12.35,6.19-12.35,6.19s1.14-2.13,2.76-6.5c-1.87,3.17-6.3,8.44-8.54,8.95c0.1-1.25,1.76-5.31,1.76-5.31
				s-3.67,5.72-4.72,9.24C68.39,46.51,69.25,45.39,69.97,44.76z"/>
		</g>
	</g>
</g>
</svg>
