<svg id="Group_5919" data-name="Group 5919" xmlns="http://www.w3.org/2000/svg" xmlns:xlink="http://www.w3.org/1999/xlink" width="28" height="29" viewBox="0 0 28 29">
  <defs>
    <linearGradient id="linear-gradient" x1="0.5" x2="0.5" y2="1" gradientUnits="objectBoundingBox">
      <stop offset="0" stop-color="#00a948"/>
      <stop offset="1" stop-color="#005524"/>
    </linearGradient>
    <clipPath id="clip-path">
      <rect id="Rectangle_2794" data-name="Rectangle 2794" width="28" height="29" fill="url(#linear-gradient)"/>
    </clipPath>
  </defs>
  <g id="Group_5918" data-name="Group 5918" clip-path="url(#clip-path)">
    <path id="Path_1774" data-name="Path 1774" d="M14,24.167a1.841,1.841,0,0,0,1.38-.585,2.091,2.091,0,0,0,0-2.858,1.92,1.92,0,0,0-2.76,0,2.091,2.091,0,0,0,0,2.858,1.841,1.841,0,0,0,1.38.585m-1.4-6.2h2.878a5.475,5.475,0,0,1,.311-2.135A6.912,6.912,0,0,1,17.111,14.1a14.114,14.114,0,0,0,1.926-2.355A4.142,4.142,0,0,0,19.6,9.586a4.5,4.5,0,0,0-1.4-3.445,5.305,5.305,0,0,0-3.772-1.308,6.022,6.022,0,0,0-3.637,1.088,5.614,5.614,0,0,0-2.08,3.021l2.567,1.047a3.183,3.183,0,0,1,1.089-1.751,2.92,2.92,0,0,1,1.906-.665,2.637,2.637,0,0,1,1.75.585,1.915,1.915,0,0,1,.7,1.55,2.994,2.994,0,0,1-.428,1.45,7.184,7.184,0,0,1-1.439,1.692,7.2,7.2,0,0,0-1.769,2.236,7.031,7.031,0,0,0-.487,2.879M3.111,29a2.951,2.951,0,0,1-2.2-.946A3.165,3.165,0,0,1,0,25.778V3.222A3.165,3.165,0,0,1,.913.946,2.951,2.951,0,0,1,3.111,0H24.889a2.951,2.951,0,0,1,2.2.946A3.165,3.165,0,0,1,28,3.222V25.778a3.165,3.165,0,0,1-.913,2.276,2.951,2.951,0,0,1-2.2.946Zm0-3.222H24.889V3.222H3.111Zm0-22.556v0Z" transform="translate(0 0)" fill="url(#linear-gradient)"/>
  </g>
</svg>
