<svg id="Group_5915" data-name="Group 5915" xmlns="http://www.w3.org/2000/svg" xmlns:xlink="http://www.w3.org/1999/xlink" width="27" height="26" viewBox="0 0 27 26">
  <defs>
    <linearGradient id="linear-gradient" x1="0.5" x2="0.5" y2="1" gradientUnits="objectBoundingBox">
      <stop offset="0" stop-color="#00a948"/>
      <stop offset="1" stop-color="#005524"/>
    </linearGradient>
    <clipPath id="clip-path">
      <rect id="Rectangle_2792" data-name="Rectangle 2792" width="27" height="26" fill="url(#linear-gradient)"/>
    </clipPath>
  </defs>
  <g id="Group_5914" data-name="Group 5914" clip-path="url(#clip-path)">
    <path id="Path_1772" data-name="Path 1772" d="M13.356,26,12.02,22.1H2.671a2.613,2.613,0,0,1-1.887-.763A2.476,2.476,0,0,1,0,19.5V2.6A2.476,2.476,0,0,1,.784.763,2.613,2.613,0,0,1,2.671,0h8.013l1.169,3.9H24.04a2.64,2.64,0,0,1,1.921.731A2.5,2.5,0,0,1,26.711,6.5V23.4a2.526,2.526,0,0,1-.751,1.837A2.582,2.582,0,0,1,24.04,26ZM6.878,16.38a5.214,5.214,0,0,0,3.79-1.446,5.011,5.011,0,0,0,1.485-3.754c0-.173-.005-.33-.017-.471a2.162,2.162,0,0,0-.083-.439H6.778v2.015H9.75A2.487,2.487,0,0,1,8.732,13.7a3.2,3.2,0,0,1-1.82.5,3.093,3.093,0,0,1-2.237-.91A3.006,3.006,0,0,1,3.74,11.05a3.006,3.006,0,0,1,.935-2.243A3.093,3.093,0,0,1,6.912,7.9a3.044,3.044,0,0,1,1.135.212,2.9,2.9,0,0,1,.968.633l1.636-1.528A4.8,4.8,0,0,0,8.964,6.11a5.61,5.61,0,0,0-2.086-.39A5.282,5.282,0,0,0,3.056,7.263,5.08,5.08,0,0,0,1.469,11.05a5.08,5.08,0,0,0,1.587,3.787A5.282,5.282,0,0,0,6.878,16.38m8.948.65.735-.683q-.467-.552-.852-1.072t-.751-1.105ZM17.5,15.373a9.853,9.853,0,0,0,1.42-2.048,10.739,10.739,0,0,0,.65-1.528H14.257l.4,1.365h1.336q.266.487.634,1.056a10.656,10.656,0,0,0,.868,1.154m-2.8,9.328H24.04a1.3,1.3,0,0,0,.968-.374,1.269,1.269,0,0,0,.367-.926V6.5a1.257,1.257,0,0,0-.367-.942A1.33,1.33,0,0,0,24.04,5.2H12.254l1.569,5.265h2.638V9.1H17.83v1.365H22.7V11.8H21A10.27,10.27,0,0,1,20,14.2a12.684,12.684,0,0,1-1.569,2.177l3.639,3.477L21.1,20.8,17.5,17.29l-1.2,1.2L17.362,22.1Z" transform="translate(0 0)" fill="url(#linear-gradient)"/>
  </g>
</svg>
