<svg xmlns="http://www.w3.org/2000/svg" xmlns:xlink="http://www.w3.org/1999/xlink" width="23" height="22" viewBox="0 0 23 22">
  <defs>
    <linearGradient id="linear-gradient" x1="0.5" x2="0.5" y2="1" gradientUnits="objectBoundingBox">
      <stop offset="0" stop-color="#00a948"/>
      <stop offset="1" stop-color="#005524"/>
    </linearGradient>
    <clipPath id="clip-path">
      <rect id="Rectangle_2795" data-name="Rectangle 2795" width="23" height="22" transform="translate(0 0)" fill="url(#linear-gradient)"/>
    </clipPath>
  </defs>
  <g id="Group_5921" data-name="Group 5921" transform="translate(-0.351 -0.469)">
    <g id="Group_5920" data-name="Group 5920" transform="translate(0.351 0.469)" clip-path="url(#clip-path)">
      <path id="Path_1775" data-name="Path 1775" d="M2.63,22.938A2.579,2.579,0,0,1,.772,22.19,2.421,2.421,0,0,1,0,20.389V2.549A2.421,2.421,0,0,1,.772.748,2.579,2.579,0,0,1,2.63,0h9.206V2.549H2.63v17.84h9.206v2.549ZM17.1,17.84l-1.808-1.848,3.354-3.25H7.891V10.195H18.642l-3.354-3.25L17.1,5.1l6.576,6.372Z" transform="translate(-0.336 -0.469)" fill="url(#linear-gradient)"/>
    </g>
  </g>
</svg>
