<svg xmlns="http://www.w3.org/2000/svg" xmlns:xlink="http://www.w3.org/1999/xlink" width="29.237" height="29.237" viewBox="0 0 29.237 29.237">
  <defs>
    <linearGradient id="linear-gradient" x1="0.5" x2="0.5" y2="1" gradientUnits="objectBoundingBox">
      <stop offset="0" stop-color="#00a948"/>
      <stop offset="1" stop-color="#005524"/>
    </linearGradient>
  </defs>
  <path id="person_FILL0_wght400_GRAD0_opsz24" d="M174.618-785.381a7.038,7.038,0,0,1-5.162-2.147,7.039,7.039,0,0,1-2.147-5.162,7.038,7.038,0,0,1,2.147-5.162A7.038,7.038,0,0,1,174.618-800a7.038,7.038,0,0,1,5.162,2.147,7.038,7.038,0,0,1,2.147,5.162,7.039,7.039,0,0,1-2.147,5.162A7.038,7.038,0,0,1,174.618-785.381ZM160-770.763v-5.116a5.353,5.353,0,0,1,.8-2.856,5.33,5.33,0,0,1,2.124-1.987,27.127,27.127,0,0,1,5.756-2.124,25.139,25.139,0,0,1,5.939-.708,25.139,25.139,0,0,1,5.939.708,27.127,27.127,0,0,1,5.756,2.124,5.33,5.33,0,0,1,2.124,1.987,5.353,5.353,0,0,1,.8,2.856v5.116Zm3.655-3.655h21.928v-1.462a1.718,1.718,0,0,0-.251-.914,1.779,1.779,0,0,0-.662-.64,23.8,23.8,0,0,0-4.979-1.85,21.19,21.19,0,0,0-5.071-.617,21.189,21.189,0,0,0-5.071.617,23.8,23.8,0,0,0-4.979,1.85,1.779,1.779,0,0,0-.662.64,1.718,1.718,0,0,0-.251.914Zm10.964-14.619a3.519,3.519,0,0,0,2.581-1.073,3.519,3.519,0,0,0,1.074-2.581,3.52,3.52,0,0,0-1.074-2.581,3.519,3.519,0,0,0-2.581-1.073,3.519,3.519,0,0,0-2.581,1.073,3.52,3.52,0,0,0-1.074,2.581,3.519,3.519,0,0,0,1.074,2.581A3.519,3.519,0,0,0,174.618-789.036ZM174.618-792.691ZM174.618-774.417Z" transform="translate(-160 800)" fill="url(#linear-gradient)"/>
</svg>
