<svg xmlns="http://www.w3.org/2000/svg" xmlns:xlink="http://www.w3.org/1999/xlink" width="23.86" height="18.374" viewBox="0 0 23.86 18.374">
  <defs>
    <linearGradient id="linear-gradient" x1="0.5" x2="0.5" y2="1" gradientUnits="objectBoundingBox">
      <stop offset="0" stop-color="#00a948"/>
      <stop offset="1" stop-color="#005524"/>
    </linearGradient>
    <clipPath id="clip-path">
      <rect id="Rectangle_2638" data-name="Rectangle 2638" width="23.86" height="18.374" fill="url(#linear-gradient)"/>
    </clipPath>
  </defs>
  <g id="Group_5815" data-name="Group 5815" clip-path="url(#clip-path)">
    <path id="Path_1766" data-name="Path 1766" d="M11.93,13.144q-5.084,0-10.168.006c-.239,0-.323-.062-.358-.3C1.173,11.27.927,9.693.685,8.115Q.353,5.957.016,3.8a.8.8,0,0,1,.348-.886.8.8,0,0,1,.948.078Q3.457,4.6,5.606,6.212a1.125,1.125,0,0,0,1.841-.319c1.19-1.785,2.4-3.558,3.561-5.361A1.058,1.058,0,0,1,12.841.526c1.167,1.809,2.38,3.59,3.574,5.381a1.122,1.122,0,0,0,1.827.31Q20.4,4.6,22.555,2.982a.795.795,0,0,1,1.293.762l-.1.662q-.442,2.869-.884,5.738c-.143.924-.3,1.845-.426,2.771-.029.206-.114.237-.287.232-.331-.01-.663,0-.994,0H11.93" transform="translate(0 0)" fill="url(#linear-gradient)"/>
    <path id="Path_1767" data-name="Path 1767" d="M32.162,223.925q5.1,0,10.192,0c.223,0,.3.05.291.285-.017.662,0,1.326-.007,1.989a1.12,1.12,0,0,1-1.224,1.218H22.9a1.119,1.119,0,0,1-1.217-1.224c0-.655.01-1.31-.006-1.964-.006-.237.055-.3.3-.3q5.1.012,10.192.006" transform="translate(-20.232 -209.038)" fill="url(#linear-gradient)"/>
  </g>
</svg>
