<svg id="Group_5917" data-name="Group 5917" xmlns="http://www.w3.org/2000/svg" xmlns:xlink="http://www.w3.org/1999/xlink" width="28" height="28" viewBox="0 0 28 28">
  <defs>
    <linearGradient id="linear-gradient" x1="0.5" x2="0.5" y2="1" gradientUnits="objectBoundingBox">
      <stop offset="0" stop-color="#00a948"/>
      <stop offset="1" stop-color="#005524"/>
    </linearGradient>
    <clipPath id="clip-path">
      <rect id="Rectangle_2793" data-name="Rectangle 2793" width="28" height="28" fill="url(#linear-gradient)"/>
    </clipPath>
  </defs>
  <g id="Group_5916" data-name="Group 5916" clip-path="url(#clip-path)">
    <path id="Path_1773" data-name="Path 1773" d="M14,28a13.5,13.5,0,0,1-9.917-4.083A13.5,13.5,0,0,1,0,14,13.5,13.5,0,0,1,4.083,4.083,13.5,13.5,0,0,1,14,0q.544,0,1.069.039c.352.026.694.065,1.031.117a8.235,8.235,0,0,0-2.548,2.937A8.256,8.256,0,0,0,12.6,7a8.1,8.1,0,0,0,2.45,5.95A8.1,8.1,0,0,0,21,15.4a8.32,8.32,0,0,0,6.844-3.5c.051.338.09.68.117,1.031S28,13.638,28,14a13.5,13.5,0,0,1-4.083,9.917A13.5,13.5,0,0,1,14,28m0-3.111A10.538,10.538,0,0,0,20.144,23a10.91,10.91,0,0,0,3.967-4.92q-.777.194-1.556.311A10.472,10.472,0,0,1,21,18.511a11.1,11.1,0,0,1-8.148-3.363A11.1,11.1,0,0,1,9.489,7a10.472,10.472,0,0,1,.117-1.556c.078-.518.182-1.038.311-1.556A10.91,10.91,0,0,0,5,7.856,10.538,10.538,0,0,0,3.111,14,10.491,10.491,0,0,0,6.3,21.7,10.491,10.491,0,0,0,14,24.889" fill="url(#linear-gradient)"/>
  </g>
</svg>
