<svg xmlns="http://www.w3.org/2000/svg" xmlns:xlink="http://www.w3.org/1999/xlink" width="29.302" height="27.971" viewBox="0 0 29.302 27.971">
  <defs>
    <linearGradient id="linear-gradient" x1="0.5" x2="0.5" y2="1" gradientUnits="objectBoundingBox">
      <stop offset="0" stop-color="#00a948"/>
      <stop offset="1" stop-color="#005524"/>
    </linearGradient>
  </defs>
  <path id="Path_1770" data-name="Path 1770" d="M13.253,14.918l-2.864-2.8L8.524,13.984l4.728,4.73,7.525-7.525L18.913,9.257ZM18.048,3.4l1.931,3.2,3.663.8-.333,3.729,2.464,2.864-2.464,2.8.333,3.729-3.663.866-1.865,3.2-3.463-1.466-3.4,1.466-1.931-3.2-3.663-.8.333-3.795-2.464-2.8L5.994,11.12,5.661,7.391l3.663-.8,1.865-3.2L14.651,4.86ZM19.18,0,14.651,1.931,10.123,0,7.592,4.261,2.8,5.328l.466,4.927L0,13.984l3.263,3.729L2.8,22.643l4.795,1.064,2.531,4.264,4.529-1.931,4.529,1.931,2.531-4.264,4.795-1.064-.466-4.929L29.3,13.984l-3.263-3.729.466-4.927L21.71,4.261Z" fill="url(#linear-gradient)"/>
</svg>
