<svg xmlns="http://www.w3.org/2000/svg" xmlns:xlink="http://www.w3.org/1999/xlink" width="28.182" height="28.182" viewBox="0 0 28.182 28.182">
  <defs>
    <linearGradient id="linear-gradient" x1="0.5" x2="0.5" y2="1" gradientUnits="objectBoundingBox">
      <stop offset="0" stop-color="#f79011"/>
      <stop offset="1" stop-color="#f38908"/>
    </linearGradient>
  </defs>
  <g id="Group_8438" data-name="Group 8438" transform="translate(-350.719 -939.781)">
    <path id="Path_402" data-name="Path 402" d="M60.712,12.334a14.987,14.987,0,0,1-7.928,2.238,14.885,14.885,0,0,1-7.95-2.26,8,8,0,0,1,15.879.022" transform="translate(312.296 948.924)" fill="url(#linear-gradient)"/>
    <path id="Path_401" data-name="Path 401" d="M54.425,8.435a4.564,4.564,0,1,1-4.564-4.564,4.562,4.562,0,0,1,4.564,4.564" transform="translate(315.21 940.714)" fill="url(#linear-gradient)"/>
    <path id="Path_403" data-name="Path 403" d="M67.489,31.433H48.6a4.654,4.654,0,0,1-4.651-4.644V7.9A4.655,4.655,0,0,1,48.6,3.251H67.489A4.654,4.654,0,0,1,72.133,7.9V26.789a4.652,4.652,0,0,1-4.644,4.644M48.6,4.719A3.182,3.182,0,0,0,45.419,7.9V26.789A3.187,3.187,0,0,0,48.6,29.972H67.489a3.191,3.191,0,0,0,3.183-3.183V7.9a3.187,3.187,0,0,0-3.183-3.183Z" transform="translate(306.768 936.53)" fill="url(#linear-gradient)"/>
  </g>
</svg>
