<svg xmlns="http://www.w3.org/2000/svg" xmlns:xlink="http://www.w3.org/1999/xlink" width="31.678" height="28.189" viewBox="0 0 31.678 28.189">
  <defs>
    <linearGradient id="linear-gradient" x1="0.5" x2="0.5" y2="1" gradientUnits="objectBoundingBox">
      <stop offset="0" stop-color="#f79011"/>
      <stop offset="1" stop-color="#f38908"/>
    </linearGradient>
  </defs>
  <g id="Group_8437" data-name="Group 8437" transform="translate(-273.223 -939.781)">
    <path id="Path_400" data-name="Path 400" d="M46.176,31.362a2.236,2.236,0,0,1-1.591-.654l-11.9-11.9L32.7,18.8A9.388,9.388,0,0,1,46.176,5.746a9.392,9.392,0,0,1,13.1.174,9.408,9.408,0,0,1,0,13.277l-11.5,11.511a2.249,2.249,0,0,1-1.591.654M35.268,19.226l10.4,10.4a.742.742,0,0,0,1.017,0l11.5-11.5A7.857,7.857,0,1,0,47.077,7l-.9.9-.9-.9A7.86,7.86,0,0,0,34.157,7a7.873,7.873,0,0,0,0,11.111l1.119,1.1Z" transform="translate(242.888 936.608)" fill="url(#linear-gradient)"/>
    <path id="Path_407" data-name="Path 407" d="M32.092,9.267a3.065,3.065,0,0,1,4.346-4.324s1.875,2.231,4.288,2.231S45.012,4.95,45.012,4.95a3.063,3.063,0,1,1,4.331,4.331l-6.678,6.686a2.75,2.75,0,0,1-3.881,0Z" transform="translate(248.422 942.133)" fill="url(#linear-gradient)"/>
  </g>
</svg>
