<?xml version="1.0" encoding="utf-8"?>
<!-- Generator: Adobe Illustrator 28.0.0, SVG Export Plug-In . SVG Version: 6.00 Build 0)  -->
<svg version="1.1" id="Layer_1" xmlns="http://www.w3.org/2000/svg" xmlns:xlink="http://www.w3.org/1999/xlink" x="0px" y="0px"
	 viewBox="0 0 200 200" style="enable-background:new 0 0 200 200;" xml:space="preserve">
<style type="text/css">
	.st0{fill:#F3DFAD;}
	.st1{fill:#3B1B0D;}
	.st2{fill:#54220E;}
	.st3{fill:#772E16;}
	.st4{fill:#964A21;}
	.st5{fill:#FBB779;}
	.st6{fill:#F8A259;}
	.st7{fill:#FFE4BE;}
	.st8{fill:#FFE8D4;}
	.st9{fill:#FCC595;}
	.st10{fill:#B22927;}
	.st11{fill:#D94544;}
	.st12{fill:#C05327;}
	.st13{fill:#B55226;}
	.st14{fill:#F07422;}
	.st15{fill:#873A1C;}
	.st16{fill:#CE6127;}
</style>
<g>
	<path class="st0" d="M162.07,125.94l-2.5-10.1l-50.26-7.15L60.2,99.29l-5.25,4.97L23.3,143.43l61.33-2.42
		c-0.36,1.07,0.01,2.56,0.23,3.72c0.36,1.85-4.21,4.34-7.5,7.18c-3.29,2.85-6.68,9.96-6.68,9.96s7.39,1.32,7.59,1.34
		c0.21,0.02,9.45-18.24,10.01-19.78c0.19-0.51,0.61-1.04,1.09-1.52l70.18,28.06L162.07,125.94z"/>
	<g>
		<g>
			<g>
				<path class="st1" d="M177.23,51.02L56.17,97.87l-2.66,3.11c11.74-1.91,11.11,3.25,17.92,4.01
					c-6.95,4.28-13.34,15.48-20.32,17.14c-5.68,1.35-16.28,4.1-20.02,5.07l-10.11,11.83l2.32,4.39l152.41-50.61l3.31-39.68
					L177.23,51.02z"/>
			</g>
			<g>
				<path class="st1" d="M149.08,141.28c-5.02-4.28-3.69-17.16-7.08-23.85c6.76,2.11,12.01-2.04,22.65,6.5l0.35-7.24L61.48,38.57
					L23.75,65.3l-1.99,2.66l137.79,102.01l2.99-2.29l0.67-13.9C160.49,151.33,153.12,144.73,149.08,141.28z"/>
				<path class="st1" d="M164.65,123.93l-2.58,2.01c0,0-3.14-3.35-7.84-4.68c-4.7-1.33-6.71,0.8-13.13-1.69
					c-1.99-2.1-0.39-4.09-0.39-4.09l14.5,0.5L164.65,123.93z"/>
				<path class="st2" d="M149.08,141.28c-5.02-4.28-3.69-17.16-7.08-23.85c6.76,2.11,12.01-2.04,22.65,6.5l0.35-7.24L55.46,35.72
					L23.75,65.3l138.78,102.37l0.67-13.9C160.49,151.33,153.12,144.73,149.08,141.28z"/>
				<polygon class="st1" points="110.89,76.69 63.86,94.89 96.64,119.07 146.03,102.67 				"/>
				<path class="st1" d="M53.51,100.98l1.44,3.28c0,0,3.49-1.92,6.97,0c3.49,1.92,6.42,4.74,11.9,3.3c1.11-3.32,0-5.88,0-5.88
					s-12.39-3.81-12.67-3.81C60.87,97.89,53.51,100.98,53.51,100.98z"/>
				<path class="st3" d="M56.17,97.87l-2.66,3.11c11.74-1.91,11.11,3.25,17.92,4.01c-6.95,4.28-13.34,15.48-20.32,17.14
					c-5.68,1.35-16.28,4.1-20.02,5.07l-10.11,11.83l152.19-48.83l4.06-39.19L56.17,97.87z"/>
				<polygon class="st1" points="111.16,74.42 55.46,92.91 88.59,117.43 92.2,116.18 				"/>
				<polygon class="st2" points="111.16,74.42 59.36,91.62 92.2,116.18 				"/>
			</g>
			<g>
				<g>
					<g>
						<path class="st1" d="M26.89,64.29c0,0,56.77,43.82,58.87,45.37c2.1,1.55,6.42,4.21,13.17,2.1c6.75-2.1,72.07-23.1,72.07-23.1
							l4.71-39.53l-0.42-1.05l-64.74,19.97L61.42,31.98L26.89,63.13V64.29z"/>
						<path class="st4" d="M26.89,63.13c0,0,56.77,43.82,58.87,45.37c2.1,1.55,6.42,4.21,13.17,2.1s71.15-22.8,71.15-22.8l5.2-39.73
							l-64.74,18.81L61.42,30.81L26.89,63.13z"/>
						<g>
							<path class="st5" d="M64.18,30.04L28.66,62.79l56.77,43.82c0,0,3.1-1.44,5.31-1.44c2.21,0,6.97,4.32,6.97,4.32l69.6-22.68
								l5.53-39.28l-5.98-2.66l-54.78,19.7L66.29,30.04H64.18z"/>
							<path class="st6" d="M167.99,45.36c-0.54,3.23-1.12,6.44-1.71,9.66l-1.82,9.64l-1.92,9.62l-1,4.8l-1.04,4.79l0.83-4.83
								l0.88-4.83l1.82-9.64l1.92-9.62C166.61,51.76,167.28,48.56,167.99,45.36z"/>
							<path class="st6" d="M168.84,45.91c-0.47,3.18-0.99,6.35-1.51,9.52l-1.63,9.5l-1.73,9.48l-0.9,4.73l-0.95,4.73l0.73-4.76
								l0.78-4.76l1.63-9.5l1.73-9.48C167.59,52.21,168.19,49.06,168.84,45.91z"/>
							<path class="st6" d="M169.95,46.41c-0.45,3.18-0.94,6.36-1.44,9.53l-1.56,9.51l-1.66,9.49l-0.87,4.74l-0.91,4.73l0.7-4.77
								l0.74-4.76l1.56-9.51l1.66-9.49C168.74,52.72,169.32,49.56,169.95,46.41z"/>
							<path class="st6" d="M171.02,46.88c-0.42,3.18-0.89,6.36-1.37,9.54l-1.48,9.52l-1.59,9.5l-0.83,4.75l-0.87,4.74l0.66-4.77
								l0.71-4.76l1.49-9.52l1.59-9.5C169.87,53.2,170.42,50.03,171.02,46.88z"/>
							<path class="st6" d="M172.09,47.38c-0.4,3.22-0.85,6.44-1.3,9.65l-1.42,9.64l-1.52,9.62l-0.8,4.8l-0.84,4.8l0.63-4.83
								l0.67-4.82l1.42-9.64l1.52-9.62C170.97,53.77,171.51,50.57,172.09,47.38z"/>
							<path class="st7" d="M34.42,61.13c0,0,12.84,9.18,23.68,15.27c10.84,6.09,31.21,21.14,32.64,28.77
								c6.53-6.64,14.83-15.16,30.43-16.82c15.6-1.66,34.97-3.65,37.62-5.2c1.33-6.64,8.08-38.29,8.08-38.29s-7.75,1.55-16.05,2.1
								c-8.3,0.55-34.08,5.98-38.73,17.59c-3.76-9.3-9.3-14.83-20.03-19.7C81.34,40,66.29,30.04,66.29,30.04L34.42,61.13z"/>
							<path class="st8" d="M90.74,105.18c6.53-6.64,14.83-15.16,30.43-16.82c15.6-1.66,34.97-3.65,37.62-5.2
								c1.33-6.64,8.08-38.29,8.08-38.29s-7.75,1.55-16.05,2.1c-8.3,0.55-34.08,5.98-38.73,17.59L90.74,105.18z"/>
							<path class="st9" d="M132.46,88.58c-29.51,5.9-41.72,16.6-41.72,16.6c2.21,0,6.97,4.32,6.97,4.32l69.6-22.68
								c0,0-5.79-2.51-8.52-3.65C155.4,85.11,149.21,85.13,132.46,88.58z"/>
							<path class="st9" d="M72.93,83.82c-9.41-6.42-38.51-22.68-38.51-22.68l-5.75,1.66l56.77,43.82c0,0,3.1-1.44,5.31-1.44
								C91.85,98.31,82.33,90.24,72.93,83.82z"/>
							<path class="st5" d="M72.93,83.82c-9.41-6.42-38.51-22.68-38.51-22.68s37.51,25.12,42.27,28.33
								c4.76,3.21,13.72,11.4,14.05,15.71C91.85,98.31,82.33,90.24,72.93,83.82z"/>
						</g>
					</g>
					<g>
						<path class="st5" d="M33.86,62.57c0,0,48.36,34.19,56.88,42.6C84.54,96.88,49.47,71.68,33.86,62.57z"/>
						<polygon class="st5" points="32.28,62.57 39.32,67.72 46.34,72.9 60.33,83.33 74.26,93.84 81.21,99.12 88.12,104.44 
							81.08,99.29 74.06,94.11 60.07,83.68 46.14,73.17 39.19,67.89 						"/>
						<path class="st5" d="M92.95,105.18c2.57-1.39,5.18-2.7,7.79-4c2.63-1.28,5.27-2.51,7.94-3.71c1.33-0.6,2.67-1.18,4.03-1.74
							c1.35-0.56,2.71-1.1,4.11-1.58c2.79-0.93,5.62-1.67,8.47-2.36c2.85-0.65,5.71-1.26,8.57-1.83c2.86-0.57,5.72-1.15,8.6-1.67
							c2.87-0.53,5.74-1.06,8.6-1.62c2.86-0.56,5.73-1.09,8.52-1.96c-1.36,0.53-2.76,0.96-4.18,1.32c-1.41,0.38-2.83,0.72-4.25,1.06
							c-2.85,0.65-5.7,1.25-8.56,1.86c-5.71,1.21-11.43,2.33-17.1,3.69c-2.83,0.66-5.66,1.37-8.41,2.26
							c-1.37,0.45-2.73,0.98-4.08,1.53l-4.05,1.65c-2.69,1.12-5.36,2.29-8.02,3.48C98.26,102.73,95.61,103.96,92.95,105.18z"/>
						<path class="st5" d="M95.22,105.78c5.22-2.38,10.56-4.52,15.97-6.44c2.7-0.97,5.43-1.87,8.18-2.7
							c1.37-0.43,2.76-0.81,4.14-1.2c1.39-0.36,2.78-0.74,4.17-1.08c5.57-1.37,11.12-2.82,16.67-4.28c2.77-0.73,5.54-1.47,8.31-2.24
							c1.38-0.38,2.77-0.76,4.14-1.17c1.38-0.4,2.75-0.81,4.1-1.3c-5.39,1.98-10.94,3.48-16.46,5.04
							c-5.53,1.53-11.09,2.97-16.65,4.38c-5.58,1.33-11.06,3.01-16.48,4.87c-2.71,0.92-5.41,1.91-8.09,2.93
							C100.53,103.61,97.86,104.66,95.22,105.78z"/>
					</g>
				</g>
				<g>
					<path class="st6" d="M90.6,95.98l-0.45-0.8c-1.5-2.6-8.54-8.92-15.71-13.5c-6.86-4.38-27.09-17.57-27.3-17.71l-0.48-0.34
						l25.83-26.76l0.41,0.28c0.17,0.1,17.35,9.98,24.06,14.36c6.74,4.4,11.95,11.2,12.01,11.26l0.35,0.58l-0.07,0.13
						c-0.1,0.18-10.28,18.16-18.44,32.17L90.6,95.98z M47.61,63.75c2.25,1.46,20.61,13.43,27.07,17.56
						c6.49,4.14,13.63,10.23,15.66,13.33c7.77-13.33,17.26-30.08,18.18-31.72c-0.71-0.91-5.61-7.01-11.81-11.05
						c-6.37-4.15-22.18-13.27-23.89-14.26L47.61,63.75z"/>
				</g>
				<g>
					<path class="st6" d="M98.09,95.78l-1.04,1.05l17.38-33.73l0.02-0.02c0.06-0.06,5.94-6.23,12.77-8.72
						c10.31-3.51,27.91-5.27,28.09-5.29l1.16-0.12l-0.1,0.32c0,0-6.97,22.35-9.74,31.21l-0.05,0.14l-0.98,0.1
						C106.78,83.34,98.17,95.66,98.09,95.78z M114.8,63.37L98.88,94.25c3.39-3.27,15.12-11.82,46.55-13.96
						c2.6-8.31,8.74-27.99,9.59-30.74c-2.48,0.26-18.18,2-27.65,5.23C120.85,57.16,115.19,62.96,114.8,63.37z"/>
				</g>
			</g>
		</g>
		<g>
			<g>
				<g>
					<path class="st10" d="M77.64,163.21l-0.21-0.02c1.69-15.29,0.02-22.76,0-22.83l0.21-0.05
						C77.65,140.38,79.33,147.88,77.64,163.21z"/>
				</g>
				<g>
					<path class="st10" d="M78.27,163.2l-0.21-0.02c1.69-15.29,0.02-22.76,0-22.83l0.21-0.05C78.29,140.37,79.96,147.87,78.27,163.2
						z"/>
				</g>
				<g>
					<path class="st10" d="M76.47,163.05l-0.21-0.02c1.69-15.29,0.15-22.95,0.13-23.03l0.21-0.04
						C76.62,140.03,78.17,147.72,76.47,163.05z"/>
				</g>
				<g>
					<path class="st10" d="M70.87,161.88l-0.21-0.02c0.02-0.17,1.74-16.95,5.9-21.91l0.16,0.13C72.6,145,70.89,161.72,70.87,161.88z
						"/>
				</g>
				<g>
					<path class="st10" d="M71.22,161.88l-0.21-0.02c0.02-0.17,1.74-16.95,5.9-21.91l0.16,0.13C72.95,145,71.24,161.72,71.22,161.88
						z"/>
				</g>
				<g>
					<path class="st10" d="M71.87,162.46l-0.21-0.02c1.59-16.65,5.49-22.62,5.53-22.68l0.17,0.12
						C77.33,139.93,73.45,145.87,71.87,162.46z"/>
				</g>
				<g>
					<path class="st10" d="M72.43,162.66l-0.21-0.02c1.59-16.65,5.49-22.62,5.53-22.68l0.17,0.12
						C77.89,140.13,74.01,146.07,72.43,162.66z"/>
				</g>
				<g>
					<path class="st10" d="M75.99,163.18l-0.21-0.03c0.03-0.18,2.51-17.96,0.9-22.82l0.2-0.07
						C78.5,145.17,76.09,162.44,75.99,163.18z"/>
				</g>
				<g>
					<path class="st10" d="M76.84,163.37l-0.21-0.03c0.02-0.18,2.15-18.01,0.45-22.84l0.2-0.07C79,145.31,76.93,162.63,76.84,163.37
						z"/>
				</g>
				<g>
					<path class="st10" d="M72.96,162.44l-0.21-0.03c0.11-0.81,2.83-19.78,4.14-21.96l0.18,0.11
						C75.78,142.71,72.99,162.24,72.96,162.44z"/>
				</g>
				<g>
					<path class="st10" d="M75.17,162.81l-0.21-0.03c0.02-0.14,2.35-14.37,2.14-21.93l0.21-0.01
						C77.53,148.43,75.2,162.67,75.17,162.81z"/>
				</g>
				<g>
					<path class="st10" d="M74.83,162.81l-0.21-0.03c0.02-0.14,2.35-14.37,2.14-21.93l0.21-0.01
						C77.18,148.42,74.85,162.66,74.83,162.81z"/>
				</g>
				<g>
					<path class="st10" d="M74.16,162.77l-0.21-0.02c0.79-7.62,3.27-23.18,3.29-23.34l0.21,0.03
						C77.42,139.6,74.95,155.15,74.16,162.77z"/>
				</g>
				<g>
					<path class="st10" d="M73.81,162.77l-0.21-0.02c0.79-7.62,3.27-23.18,3.29-23.34l0.21,0.03
						C77.07,139.6,74.6,155.15,73.81,162.77z"/>
				</g>
				<g>
					<path class="st11" d="M77.98,163.21l-0.22-0.03c1.86-15.29,0.02-22.75,0-22.83l0.21-0.05C78,140.38,79.85,147.88,77.98,163.21z
						"/>
				</g>
				<g>
					<path class="st11" d="M76.7,163.05l-0.22-0.03c1.86-15.29,0.02-22.75,0-22.83l0.21-0.05C76.71,140.21,78.57,147.71,76.7,163.05
						z"/>
				</g>
				<g>
					<path class="st11" d="M70.51,161.89l-0.22-0.02c0.02-0.17,1.92-16.95,6.52-21.92l0.16,0.15
						C72.42,145.01,70.53,161.72,70.51,161.89z"/>
				</g>
				<g>
					<path class="st11" d="M70.9,161.89l-0.22-0.02c0.02-0.17,1.92-16.95,6.52-21.92l0.16,0.15
						C72.81,145.01,70.91,161.72,70.9,161.89z"/>
				</g>
				<g>
					<path class="st11" d="M71.51,162.42l-0.22-0.02c1.75-16.66,6.07-22.63,6.11-22.69l0.18,0.13
						C77.54,139.9,73.26,145.84,71.51,162.42z"/>
				</g>
				<g>
					<path class="st11" d="M72.05,162.62l-0.22-0.02c1.75-16.66,6.07-22.63,6.11-22.69l0.18,0.13
						C78.07,140.1,73.79,146.03,72.05,162.62z"/>
				</g>
				<g>
					<path class="st10" d="M76.32,163.22l-0.22-0.03c0.03-0.18,2.77-17.96,1-22.81l0.21-0.08
						C79.09,145.21,76.43,162.49,76.32,163.22z"/>
				</g>
				<g>
					<path class="st11" d="M77.1,163.37l-0.22-0.03c0.02-0.18,2.38-18.01,0.5-22.83l0.21-0.08C79.49,145.3,77.2,162.64,77.1,163.37z
						"/>
				</g>
				<g>
					<path class="st11" d="M72.55,162.37l-0.22-0.03c0.13-0.81,3.13-19.78,4.57-21.96l0.18,0.12
						C75.67,142.64,72.58,162.18,72.55,162.37z"/>
				</g>
				<g>
					<path class="st11" d="M75.48,162.89l-0.22-0.04c0.03-0.14,2.6-14.36,2.36-21.93l0.22-0.01
						C78.08,148.51,75.51,162.75,75.48,162.89z"/>
				</g>
				<g>
					<path class="st11" d="M74.32,162.78l-0.22-0.04c0.03-0.15,3.08-14.95,2.85-22.51l0.22-0.01
						C77.4,147.81,74.35,162.63,74.32,162.78z"/>
				</g>
				<g>
					<path class="st11" d="M74.14,162.77l-0.22-0.03c0.88-7.62,3.61-23.18,3.63-23.34l0.22,0.04
						C77.75,139.6,75.02,155.15,74.14,162.77z"/>
				</g>
				<g>
					<path class="st11" d="M73.37,162.77l-0.22-0.03c0.88-7.62,3.61-23.18,3.63-23.34l0.22,0.04
						C76.98,139.6,74.25,155.15,73.37,162.77z"/>
				</g>
			</g>
			<g>
				<g>
					<g>
						<path class="st7" d="M86.12,54.31c0.71-0.26,1.24-0.81,1.49-1.48c0.02,0.21,0.06,0.42,0.13,0.63
							c0.46,1.32,1.89,2.01,3.19,1.54c0.53-0.19,0.95-0.55,1.24-0.99c-0.07,0.42-0.05,0.87,0.1,1.3c0.46,1.32,1.89,2.01,3.19,1.54
							c0.07-0.03,0.14-0.05,0.2-0.08c0,0.27,0.05,0.55,0.14,0.82c0.46,1.32,1.89,2.01,3.19,1.54c0.16-0.06,0.32-0.14,0.46-0.23
							c-0.38,0.63-0.49,1.43-0.22,2.18c0.44,1.25,1.74,1.94,2.98,1.61c-0.58,0.67-0.8,1.64-0.48,2.54c0.46,1.32,1.89,2.01,3.19,1.54
							c1.3-0.47,1.98-1.93,1.51-3.25c-0.44-1.25-1.74-1.94-2.98-1.61c0.58-0.67,0.8-1.64,0.48-2.54c-0.46-1.32-1.89-2.01-3.19-1.54
							c-0.16,0.06-0.32,0.14-0.46,0.23c0.38-0.63,0.49-1.43,0.22-2.18c-0.46-1.32-1.89-2.01-3.19-1.54
							c-0.07,0.03-0.14,0.05-0.2,0.08c0-0.27-0.05-0.55-0.14-0.82c-0.46-1.32-1.89-2.01-3.19-1.54c-0.53,0.19-0.95,0.55-1.24,0.99
							c0.07-0.42,0.05-0.87-0.1-1.3c-0.46-1.32-1.89-2.01-3.19-1.54c-0.71,0.26-1.24,0.81-1.49,1.48c-0.02-0.21-0.06-0.42-0.13-0.63
							c-0.46-1.32-1.89-2.01-3.19-1.54c-1.3,0.47-1.98,1.93-1.51,3.25C83.39,54.09,84.82,54.78,86.12,54.31z"/>
						<path class="st7" d="M76.63,56.67c1.29-0.47,1.96-1.91,1.52-3.22c0.6,1.01,1.84,1.49,2.97,1.08c1.3-0.47,1.98-1.93,1.51-3.25
							c-0.46-1.32-1.89-2.01-3.19-1.54c-1.29,0.47-1.96,1.91-1.52,3.22c-0.6-1.01-1.84-1.49-2.97-1.08
							c-1.3,0.47-1.98,1.93-1.51,3.25C73.9,56.45,75.33,57.14,76.63,56.67z"/>
						<path class="st7" d="M90.12,98.15c-0.27-0.78-0.88-1.34-1.6-1.57c1.16-0.55,1.74-1.91,1.3-3.16
							c-0.36-1.03-1.31-1.68-2.33-1.69c0.59-0.67,0.82-1.65,0.5-2.56c-0.43-1.23-1.7-1.92-2.93-1.62c0.44-0.65,0.58-1.5,0.3-2.3
							c-0.42-1.19-1.6-1.86-2.78-1.65c0.1-0.45,0.08-0.94-0.08-1.41c-0.45-1.29-1.81-1.97-3.08-1.57c0.11-0.47,0.1-0.97-0.07-1.45
							c-0.43-1.24-1.72-1.93-2.95-1.62c0.11-0.46,0.09-0.96-0.08-1.44c-0.39-1.12-1.47-1.78-2.58-1.68
							c0.26-0.58,0.31-1.27,0.09-1.92c-0.33-0.93-1.13-1.55-2.03-1.67c0.3-0.6,0.37-1.33,0.13-2.02c-0.21-0.59-0.61-1.06-1.1-1.35
							c0.84-0.65,1.2-1.81,0.83-2.87c-0.13-0.37-0.34-0.69-0.59-0.95c1.22-0.52,1.84-1.92,1.39-3.2c-0.03-0.09-0.07-0.18-0.11-0.26
							c0.18-0.02,0.36-0.06,0.54-0.13c1.3-0.47,1.98-1.93,1.51-3.25c-0.46-1.32-1.89-2.01-3.19-1.54c-1.3,0.47-1.98,1.93-1.51,3.25
							c0.03,0.09,0.07,0.18,0.11,0.26c-0.18,0.02-0.36,0.06-0.54,0.13c-1.3,0.47-1.98,1.93-1.51,3.25c0.13,0.37,0.34,0.69,0.59,0.95
							c-1.22,0.52-1.84,1.92-1.39,3.2c0.21,0.59,0.61,1.06,1.1,1.35c-0.84,0.65-1.2,1.81-0.83,2.87c0.33,0.93,1.13,1.55,2.03,1.67
							c-0.3,0.6-0.37,1.33-0.13,2.02c0.39,1.12,1.47,1.78,2.58,1.68c-0.26,0.58-0.31,1.27-0.09,1.92c0.43,1.24,1.72,1.93,2.95,1.62
							c-0.11,0.46-0.09,0.96,0.08,1.44c0.45,1.29,1.81,1.97,3.08,1.57c-0.11,0.47-0.1,0.97,0.07,1.45c0.42,1.19,1.6,1.86,2.78,1.65
							c-0.1,0.45-0.08,0.94,0.08,1.41c0.43,1.23,1.7,1.92,2.93,1.62c-0.44,0.65-0.58,1.5-0.3,2.3c0.36,1.03,1.31,1.68,2.33,1.69
							c-0.59,0.67-0.82,1.65-0.5,2.56c0.27,0.78,0.88,1.34,1.6,1.57c-1.16,0.55-1.74,1.91-1.3,3.16c0.17,0.5,0.48,0.9,0.87,1.19
							c-0.38-0.05-0.78-0.02-1.16,0.12c-1.3,0.47-1.98,1.93-1.51,3.25c0.2,0.58,0.59,1.03,1.06,1.32c-0.58-0.29-1.28-0.35-1.94-0.11
							c-1.3,0.47-1.98,1.93-1.51,3.25c0.21,0.6,0.62,1.07,1.13,1.36c-0.44-0.1-0.91-0.07-1.36,0.09c-1.3,0.47-1.98,1.93-1.51,3.25
							c0.23,0.66,0.7,1.15,1.26,1.44c-0.3-0.01-0.62,0.03-0.92,0.14c-1.3,0.47-1.98,1.93-1.51,3.25c0.34,0.97,1.2,1.6,2.14,1.68
							c-0.05,0.01-0.1,0.03-0.15,0.05c-1.3,0.47-1.98,1.93-1.51,3.25c0.19,0.55,0.56,0.98,1.01,1.28c1.26-0.4,2.46-0.94,3.72-1.35
							c0.17-0.52,0.17-1.09-0.02-1.64c-0.34-0.97-1.2-1.6-2.14-1.68c0.05-0.01,0.1-0.03,0.15-0.05c1.3-0.47,1.98-1.93,1.51-3.25
							c-0.23-0.66-0.7-1.15-1.26-1.44c0.3,0.01,0.62-0.03,0.92-0.14c1.3-0.47,1.98-1.93,1.51-3.25c-0.21-0.6-0.62-1.07-1.13-1.36
							c0.44,0.1,0.91,0.07,1.36-0.09c1.3-0.47,1.98-1.93,1.51-3.25c-0.2-0.58-0.59-1.03-1.06-1.32c0.58,0.29,1.28,0.35,1.94,0.11
							c1.3-0.47,1.98-1.93,1.51-3.25c-0.17-0.5-0.48-0.9-0.87-1.19c0.38,0.05,0.78,0.02,1.16-0.12
							C89.91,100.93,90.58,99.48,90.12,98.15z"/>
						<path class="st7" d="M106.2,76.95c0.18-0.02,0.37-0.06,0.55-0.13c1.3-0.47,1.98-1.93,1.51-3.25c-0.4-1.13-1.5-1.8-2.63-1.67
							c0.04-0.01,0.07-0.02,0.11-0.03c1.3-0.47,1.98-1.93,1.51-3.25c-0.46-1.32-1.89-2.01-3.19-1.54c-1.3,0.47-1.98,1.93-1.51,3.25
							c0.4,1.13,1.5,1.8,2.63,1.67c-0.04,0.01-0.07,0.02-0.11,0.03c-1.3,0.47-1.98,1.93-1.51,3.25c0.26,0.74,0.82,1.28,1.49,1.53
							c-0.18,0.02-0.37,0.06-0.55,0.13c-1.3,0.47-1.98,1.93-1.51,3.25c0.26,0.73,0.8,1.26,1.46,1.52c-0.27,0-0.54,0.05-0.81,0.15
							c-1.3,0.47-1.98,1.93-1.51,3.25c0.2,0.56,0.57,1.01,1.03,1.31c-0.6-0.33-1.33-0.41-2.02-0.16c-1.3,0.47-1.98,1.93-1.51,3.25
							c0.23,0.66,0.7,1.16,1.27,1.44c-0.45-0.11-0.93-0.09-1.4,0.08c-1.3,0.47-1.98,1.93-1.51,3.25c0.09,0.24,0.2,0.47,0.35,0.66
							c-0.6-0.34-1.34-0.42-2.03-0.17c-1.3,0.47-1.98,1.93-1.51,3.25c0.17,0.48,0.47,0.88,0.84,1.17c-0.61-0.36-1.37-0.46-2.09-0.2
							c-1.3,0.47-1.98,1.93-1.51,3.25c0.13,0.37,0.33,0.68,0.58,0.94c-0.54-0.21-1.14-0.23-1.72-0.02c-1.3,0.47-1.98,1.93-1.51,3.25
							c0.29,0.84,0.97,1.42,1.76,1.62c-0.23,0.01-0.47,0.06-0.7,0.14c-1.3,0.47-1.98,1.93-1.51,3.25c0.36,1.03,1.31,1.68,2.33,1.69
							c-0.12,0.02-0.24,0.05-0.36,0.1c-1.3,0.47-1.98,1.93-1.51,3.25s1.89,2.01,3.19,1.54c1.3-0.47,1.98-1.93,1.51-3.25
							c-0.36-1.03-1.31-1.68-2.33-1.69c0.12-0.02,0.24-0.05,0.36-0.1c1.3-0.47,1.98-1.93,1.51-3.25c-0.29-0.84-0.97-1.42-1.76-1.62
							c0.23-0.01,0.47-0.06,0.7-0.14c1.3-0.47,1.98-1.93,1.51-3.25c-0.13-0.37-0.33-0.68-0.58-0.94c0.54,0.21,1.14,0.23,1.72,0.02
							c1.3-0.47,1.98-1.93,1.51-3.25c-0.17-0.48-0.47-0.88-0.84-1.17c0.61,0.36,1.37,0.46,2.09,0.2c1.3-0.47,1.98-1.93,1.51-3.25
							c-0.09-0.24-0.2-0.47-0.35-0.66c0.6,0.34,1.34,0.42,2.03,0.17c1.3-0.47,1.98-1.93,1.51-3.25c-0.23-0.66-0.7-1.16-1.27-1.44
							c0.45,0.11,0.93,0.09,1.4-0.08c1.3-0.47,1.98-1.93,1.51-3.25c-0.2-0.56-0.57-1.01-1.03-1.31c0.6,0.33,1.33,0.41,2.02,0.16
							c1.3-0.47,1.98-1.93,1.51-3.25c-0.26-0.73-0.8-1.26-1.46-1.52c0.27,0,0.54-0.05,0.81-0.15c1.3-0.47,1.98-1.93,1.51-3.25
							C107.43,77.75,106.87,77.2,106.2,76.95z"/>
					</g>
				</g>
				<g>
					<g>
						<path class="st12" d="M78.7,140.48c-0.35,0.56-1.15,0.7-1.77,0.3c-0.62-0.39-0.84-1.17-0.49-1.73c0.35-0.56,1.15-0.7,1.77-0.3
							S79.05,139.91,78.7,140.48z"/>
						<path class="st13" d="M78.21,138.75c-0.43-0.27-0.93-0.29-1.32-0.1c0,0.43,0.23,0.88,0.65,1.15c0.43,0.27,0.93,0.29,1.32,0.1
							C78.86,139.46,78.63,139.01,78.21,138.75z"/>
						<path class="st12" d="M77.85,139.3L77.85,139.3c-0.84-0.53-1.09-1.65-0.56-2.49l3.23-5.12c0.53-0.84,1.65-1.1,2.49-0.56l0,0
							c0.84,0.53,1.1,1.65,0.56,2.49l-3.23,5.12C79.82,139.58,78.69,139.83,77.85,139.3z"/>
						<path class="st13" d="M80.57,131.63c0.13,0.53,0.5,1.06,1.07,1.42c0.7,0.44,1.51,0.51,2.1,0.24c0.29-0.78,0-1.69-0.73-2.15
							C82.19,130.61,81.12,130.84,80.57,131.63z"/>
						<path class="st14" d="M78.11,138.31L78.11,138.31c-0.28-0.17-0.36-0.54-0.19-0.82l3.11-4.93c0.17-0.28,0.54-0.36,0.82-0.19
							l0,0c0.28,0.17,0.36,0.54,0.19,0.82l-3.11,4.93C78.75,138.4,78.38,138.48,78.11,138.31z"/>
						<path class="st12" d="M84.95,132.1c-0.5,0.8-1.73,0.93-2.74,0.29s-1.42-1.8-0.92-2.59c0.5-0.8,1.73-0.93,2.74-0.29
							C85.04,130.14,85.45,131.3,84.95,132.1z"/>
						<path class="st14" d="M84.5,130.85c-0.19,0.31-0.77,0.29-1.28-0.03c-0.51-0.32-0.77-0.84-0.58-1.14
							c0.19-0.31,0.77-0.29,1.28,0.03C84.43,130.03,84.69,130.55,84.5,130.85z"/>
						<g>
							<path class="st15" d="M83.46,130.23c0.66-1.85,0.12-3.31,0.11-3.32l0.21-0.08c0.02,0.06,0.49,1.32,0.03,3.02
								c0.77-0.7,2.02-1.37,2.44-1.39l0.01,0.22c-0.36,0.02-1.95,0.84-2.61,1.66L83.46,130.23z"/>
						</g>
					</g>
					<g>
						<g>
							<path class="st16" d="M91.59,53.34c0.48,1.35,1.97,2.06,3.33,1.58c1.35-0.48,2.06-1.97,1.58-3.33
								c-0.48-1.35-1.97-2.06-3.33-1.58C91.81,50.49,91.1,51.98,91.59,53.34z"/>
							<path class="st14" d="M92.8,51.33c0.03,0.58,0.61,1.02,1.29,0.99c0.68-0.04,1.21-0.53,1.18-1.12
								c-0.03-0.58-0.61-1.02-1.29-0.99C93.3,50.25,92.77,50.75,92.8,51.33z"/>
						</g>
						<g>
							<path class="st16" d="M86.86,51.44c0.48,1.35,1.97,2.06,3.33,1.58c1.35-0.48,2.06-1.97,1.58-3.33
								c-0.48-1.35-1.97-2.06-3.33-1.58C87.08,48.59,86.38,50.08,86.86,51.44z"/>
							<path class="st14" d="M88.08,49.43c0.03,0.58,0.61,1.02,1.29,0.99c0.68-0.04,1.21-0.53,1.18-1.12
								c-0.03-0.58-0.61-1.02-1.29-0.99C88.58,48.35,88.05,48.85,88.08,49.43z"/>
						</g>
						<g>
							<path class="st16" d="M81.84,50.73c0.48,1.35,1.97,2.06,3.33,1.58c1.35-0.48,2.06-1.97,1.58-3.33
								c-0.48-1.35-1.97-2.06-3.33-1.58C82.07,47.89,81.36,49.38,81.84,50.73z"/>
							<path class="st14" d="M83.06,48.73c0.03,0.58,0.61,1.02,1.29,0.99c0.68-0.04,1.21-0.53,1.18-1.12
								c-0.03-0.58-0.61-1.02-1.29-0.99C83.56,47.65,83.03,48.14,83.06,48.73z"/>
						</g>
						<g>
							<path class="st16" d="M76.64,50.96c0.48,1.35,1.97,2.06,3.33,1.58c1.35-0.48,2.06-1.97,1.58-3.33
								c-0.48-1.35-1.97-2.06-3.33-1.58C76.86,48.11,76.15,49.6,76.64,50.96z"/>
							<path class="st14" d="M77.85,48.95c0.03,0.58,0.61,1.02,1.29,0.99c0.68-0.04,1.21-0.53,1.18-1.12
								c-0.03-0.58-0.61-1.02-1.29-0.99C78.35,47.87,77.82,48.37,77.85,48.95z"/>
						</g>
						<g>
							<path class="st16" d="M71.95,53.15c0.48,1.35,1.97,2.06,3.33,1.58c1.35-0.48,2.06-1.97,1.58-3.33
								c-0.48-1.35-1.97-2.06-3.33-1.58C72.17,50.31,71.47,51.8,71.95,53.15z"/>
							<path class="st14" d="M73.17,51.14c0.03,0.58,0.61,1.02,1.29,0.99c0.68-0.03,1.21-0.53,1.18-1.12s-0.61-1.02-1.29-0.99
								C73.67,50.06,73.14,50.56,73.17,51.14z"/>
						</g>
						<g>
							<path class="st16" d="M68.04,56.64c0.48,1.35,1.97,2.06,3.33,1.58c1.35-0.48,2.06-1.97,1.58-3.33
								c-0.48-1.35-1.97-2.06-3.33-1.58C68.26,53.8,67.56,55.29,68.04,56.64z"/>
							<path class="st14" d="M69.26,54.64c0.03,0.58,0.61,1.02,1.29,0.99c0.68-0.03,1.21-0.53,1.18-1.12s-0.61-1.02-1.29-0.99
								C69.76,53.56,69.23,54.06,69.26,54.64z"/>
						</g>
						<g>
							<path class="st16" d="M66.01,60.37c0.48,1.35,1.97,2.06,3.33,1.58c1.35-0.48,2.06-1.97,1.58-3.33
								c-0.48-1.35-1.97-2.06-3.33-1.58C66.23,57.53,65.53,59.02,66.01,60.37z"/>
							<path class="st14" d="M67.23,58.36c0.03,0.58,0.61,1.02,1.29,0.99c0.68-0.04,1.21-0.53,1.18-1.12
								c-0.03-0.58-0.61-1.02-1.29-0.99C67.73,57.28,67.2,57.78,67.23,58.36z"/>
						</g>
						<g>
							<path class="st16" d="M65.18,64.61c0.48,1.35,1.97,2.06,3.33,1.58c1.35-0.48,2.06-1.97,1.58-3.33
								c-0.48-1.35-1.97-2.06-3.33-1.58S64.7,63.26,65.18,64.61z"/>
							<path class="st14" d="M66.4,62.6c0.03,0.58,0.61,1.02,1.29,0.99c0.68-0.04,1.21-0.53,1.18-1.12
								c-0.03-0.58-0.61-1.02-1.29-0.99C66.9,61.52,66.37,62.02,66.4,62.6z"/>
						</g>
						<g>
							<path class="st16" d="M65.46,68.93c0.48,1.35,1.97,2.06,3.33,1.58c1.35-0.48,2.06-1.97,1.58-3.33
								c-0.48-1.35-1.97-2.06-3.33-1.58C65.69,66.08,64.98,67.57,65.46,68.93z"/>
							<path class="st14" d="M66.68,66.92c0.03,0.58,0.61,1.02,1.29,0.99c0.68-0.04,1.21-0.53,1.18-1.12
								c-0.03-0.58-0.61-1.02-1.29-0.99C67.18,65.84,66.65,66.34,66.68,66.92z"/>
						</g>
						<g>
							<path class="st16" d="M67.44,72.69c0.48,1.35,1.97,2.06,3.33,1.58c1.35-0.48,2.06-1.97,1.58-3.33
								c-0.48-1.35-1.97-2.06-3.33-1.58S66.96,71.34,67.44,72.69z"/>
							<path class="st14" d="M68.66,70.69c0.03,0.58,0.61,1.02,1.29,0.99c0.68-0.04,1.21-0.53,1.18-1.12
								c-0.03-0.58-0.61-1.02-1.29-0.99C69.16,69.61,68.63,70.11,68.66,70.69z"/>
						</g>
						<g>
							<path class="st16" d="M70.05,76.37c0.48,1.35,1.97,2.06,3.33,1.58c1.35-0.48,2.06-1.97,1.58-3.33
								c-0.48-1.35-1.97-2.06-3.33-1.58C70.27,73.53,69.56,75.02,70.05,76.37z"/>
							<path class="st14" d="M71.26,74.37c0.03,0.58,0.61,1.02,1.29,0.99c0.68-0.04,1.21-0.53,1.18-1.12
								c-0.03-0.58-0.61-1.02-1.29-0.99C71.76,73.28,71.23,73.78,71.26,74.37z"/>
						</g>
						<g>
							<path class="st16" d="M73.2,79.5c0.48,1.35,1.97,2.06,3.33,1.58c1.35-0.48,2.06-1.97,1.58-3.33
								c-0.48-1.35-1.97-2.06-3.33-1.58S72.72,78.15,73.2,79.5z"/>
							<path class="st14" d="M74.42,77.49c0.03,0.58,0.61,1.02,1.29,0.99c0.68-0.03,1.21-0.53,1.18-1.12s-0.61-1.02-1.29-0.99
								C74.92,76.41,74.39,76.91,74.42,77.49z"/>
						</g>
						<g>
							<path class="st16" d="M76.49,82.6c0.48,1.35,1.97,2.06,3.33,1.58c1.35-0.48,2.06-1.97,1.58-3.33
								c-0.48-1.35-1.97-2.06-3.33-1.58S76.01,81.24,76.49,82.6z"/>
							<path class="st14" d="M77.71,80.59c0.03,0.58,0.61,1.02,1.29,0.99c0.68-0.04,1.21-0.53,1.18-1.12
								c-0.03-0.58-0.61-1.02-1.29-0.99C78.21,79.51,77.68,80.01,77.71,80.59z"/>
						</g>
						<g>
							<path class="st16" d="M79.48,85.72c0.48,1.35,1.97,2.06,3.33,1.58c1.35-0.48,2.06-1.97,1.58-3.33
								c-0.48-1.35-1.97-2.06-3.33-1.58C79.7,82.88,79,84.37,79.48,85.72z"/>
							<path class="st14" d="M80.7,83.72c0.03,0.58,0.61,1.02,1.29,0.99c0.68-0.04,1.21-0.53,1.18-1.12
								c-0.03-0.58-0.61-1.02-1.29-0.99C81.2,82.64,80.67,83.13,80.7,83.72z"/>
						</g>
						<g>
							<path class="st16" d="M82.22,89.74c0.48,1.35,1.97,2.06,3.33,1.58c1.35-0.48,2.06-1.97,1.58-3.33
								c-0.48-1.35-1.97-2.06-3.33-1.58C82.44,86.89,81.74,88.38,82.22,89.74z"/>
							<path class="st14" d="M83.44,87.73c0.03,0.58,0.61,1.02,1.29,0.99c0.68-0.04,1.21-0.53,1.18-1.12
								c-0.03-0.58-0.61-1.02-1.29-0.99C83.93,86.65,83.41,87.15,83.44,87.73z"/>
						</g>
						<g>
							<path class="st16" d="M84.13,94.08c0.48,1.35,1.97,2.06,3.33,1.58c1.35-0.48,2.06-1.97,1.58-3.33s-1.97-2.06-3.33-1.58
								C84.35,91.24,83.64,92.72,84.13,94.08z"/>
							<path class="st14" d="M85.35,92.07c0.03,0.58,0.61,1.02,1.29,0.99c0.68-0.04,1.21-0.53,1.18-1.12
								c-0.03-0.58-0.61-1.02-1.29-0.99C85.84,90.99,85.32,91.49,85.35,92.07z"/>
						</g>
						<g>
							<path class="st16" d="M84.44,98.92c0.48,1.35,1.97,2.06,3.33,1.58c1.35-0.48,2.06-1.97,1.58-3.33
								c-0.48-1.35-1.97-2.06-3.33-1.58C84.66,96.07,83.95,97.56,84.44,98.92z"/>
							<path class="st14" d="M85.66,96.91c0.03,0.58,0.61,1.02,1.29,0.99c0.68-0.03,1.21-0.53,1.18-1.12
								c-0.03-0.58-0.61-1.02-1.29-0.99C86.15,95.83,85.63,96.33,85.66,96.91z"/>
						</g>
						<g>
							<path class="st12" d="M82.56,103.59c0.48,1.35,1.97,2.06,3.33,1.58c1.35-0.48,2.06-1.97,1.58-3.33
								c-0.48-1.35-1.97-2.06-3.33-1.58C82.78,100.75,82.07,102.24,82.56,103.59z"/>
							<path class="st14" d="M83.77,101.58c0.03,0.58,0.61,1.02,1.29,0.99c0.68-0.03,1.21-0.53,1.18-1.12
								c-0.03-0.58-0.61-1.02-1.29-0.99C84.27,100.5,83.74,101,83.77,101.58z"/>
						</g>
						<g>
							<path class="st12" d="M80.07,108.16c0.48,1.35,1.97,2.06,3.33,1.58c1.35-0.48,2.06-1.97,1.58-3.33s-1.97-2.06-3.33-1.58
								C80.29,105.31,79.58,106.8,80.07,108.16z"/>
							<path class="st14" d="M81.28,106.15c0.03,0.58,0.61,1.02,1.29,0.99c0.68-0.04,1.21-0.53,1.18-1.12
								c-0.03-0.58-0.61-1.02-1.29-0.99C81.78,105.07,81.25,105.57,81.28,106.15z"/>
						</g>
						<g>
							<path class="st12" d="M78.26,112.97c0.48,1.35,1.97,2.06,3.33,1.58c1.35-0.48,2.06-1.97,1.58-3.33
								c-0.48-1.35-1.97-2.06-3.33-1.58C78.48,110.13,77.77,111.62,78.26,112.97z"/>
							<path class="st14" d="M79.47,110.96c0.03,0.58,0.61,1.02,1.29,0.99c0.68-0.03,1.21-0.53,1.18-1.12
								c-0.03-0.58-0.61-1.02-1.29-0.99C79.97,109.88,79.44,110.38,79.47,110.96z"/>
						</g>
						<g>
							<path class="st12" d="M77.04,117.91c0.48,1.35,1.97,2.06,3.33,1.58c1.35-0.48,2.06-1.97,1.58-3.33
								c-0.48-1.35-1.97-2.06-3.33-1.58C77.26,115.07,76.55,116.56,77.04,117.91z"/>
							<path class="st14" d="M78.26,115.9c0.03,0.58,0.61,1.02,1.29,0.99c0.68-0.04,1.21-0.53,1.18-1.12
								c-0.03-0.58-0.61-1.02-1.29-0.99C78.75,114.82,78.23,115.32,78.26,115.9z"/>
						</g>
						<g>
							<path class="st12" d="M77.54,123c0.48,1.35,1.97,2.06,3.33,1.58s2.06-1.97,1.58-3.33c-0.48-1.35-1.97-2.06-3.33-1.58
								C77.76,120.16,77.05,121.65,77.54,123z"/>
							<path class="st14" d="M78.75,120.99c0.03,0.58,0.61,1.02,1.29,0.99c0.68-0.04,1.21-0.53,1.18-1.12
								c-0.03-0.58-0.61-1.02-1.29-0.99C79.25,119.91,78.72,120.41,78.75,120.99z"/>
						</g>
						<g>
							<path class="st12" d="M80.27,127.34c0.48,1.35,1.97,2.06,3.33,1.58c1.35-0.48,2.06-1.97,1.58-3.33
								c-0.48-1.35-1.97-2.06-3.33-1.58C80.49,124.49,79.78,125.98,80.27,127.34z"/>
							<path class="st14" d="M81.48,125.33c0.03,0.58,0.61,1.02,1.29,0.99c0.68-0.04,1.21-0.53,1.18-1.12
								c-0.03-0.58-0.61-1.02-1.29-0.99C81.98,124.25,81.45,124.75,81.48,125.33z"/>
						</g>
						<g>
							<path class="st12" d="M85.01,129.35c0.48,1.35,1.97,2.06,3.33,1.58c1.35-0.48,2.06-1.97,1.58-3.33
								c-0.48-1.35-1.97-2.06-3.33-1.58C85.23,126.5,84.52,127.99,85.01,129.35z"/>
							<path class="st14" d="M86.22,127.34c0.03,0.58,0.61,1.02,1.29,0.99c0.68-0.04,1.21-0.53,1.18-1.12
								c-0.03-0.58-0.61-1.02-1.29-0.99C86.72,126.26,86.19,126.76,86.22,127.34z"/>
						</g>
						<g>
							<path class="st12" d="M89.1,126.25c0.48,1.35,1.97,2.06,3.33,1.58c1.35-0.48,2.06-1.97,1.58-3.33
								c-0.48-1.35-1.97-2.06-3.33-1.58C89.32,123.41,88.62,124.89,89.1,126.25z"/>
							<path class="st14" d="M90.32,124.24c0.03,0.58,0.61,1.02,1.29,0.99c0.68-0.04,1.21-0.53,1.18-1.12
								c-0.03-0.58-0.61-1.02-1.29-0.99C90.82,123.16,90.29,123.66,90.32,124.24z"/>
						</g>
						<g>
							<path class="st12" d="M88.56,121.12c0.48,1.35,1.97,2.06,3.33,1.58c1.35-0.48,2.06-1.97,1.58-3.33
								c-0.48-1.35-1.97-2.06-3.33-1.58C88.79,118.28,88.08,119.77,88.56,121.12z"/>
							<path class="st14" d="M89.78,119.11c0.03,0.58,0.61,1.02,1.29,0.99c0.68-0.04,1.21-0.53,1.18-1.12
								c-0.03-0.58-0.61-1.02-1.29-0.99C90.28,118.03,89.75,118.53,89.78,119.11z"/>
						</g>
						<g>
							<path class="st12" d="M88.56,115.91c0.48,1.35,1.97,2.06,3.33,1.58c1.35-0.48,2.06-1.97,1.58-3.33
								c-0.48-1.35-1.97-2.06-3.33-1.58C88.79,113.07,88.08,114.56,88.56,115.91z"/>
							<path class="st14" d="M89.78,113.91c0.03,0.58,0.61,1.02,1.29,0.99c0.68-0.04,1.21-0.53,1.18-1.12
								c-0.03-0.58-0.61-1.02-1.29-0.99C90.28,112.82,89.75,113.32,89.78,113.91z"/>
						</g>
						<g>
							<path class="st12" d="M88.09,110.76c0.48,1.35,1.97,2.06,3.33,1.58c1.35-0.48,2.06-1.97,1.58-3.33
								c-0.48-1.35-1.97-2.06-3.33-1.58C88.32,107.92,87.61,109.41,88.09,110.76z"/>
							<path class="st14" d="M89.31,108.75c0.03,0.58,0.61,1.02,1.29,0.99c0.68-0.03,1.21-0.53,1.18-1.12s-0.61-1.02-1.29-0.99
								C89.81,107.67,89.28,108.17,89.31,108.75z"/>
						</g>
						<g>
							<path class="st12" d="M88.56,105.63c0.48,1.35,1.97,2.06,3.33,1.58c1.35-0.48,2.06-1.97,1.58-3.33
								c-0.48-1.35-1.97-2.06-3.33-1.58C88.79,102.79,88.08,104.28,88.56,105.63z"/>
							<path class="st14" d="M89.78,103.63c0.03,0.58,0.61,1.02,1.29,0.99c0.68-0.04,1.21-0.53,1.18-1.12
								c-0.03-0.58-0.61-1.02-1.29-0.99C90.28,102.54,89.75,103.04,89.78,103.63z"/>
						</g>
						<g>
							<path class="st16" d="M91.33,101.37c0.48,1.35,1.97,2.06,3.33,1.58c1.35-0.48,2.06-1.97,1.58-3.33
								c-0.48-1.35-1.97-2.06-3.33-1.58C91.55,98.52,90.85,100.01,91.33,101.37z"/>
							<path class="st14" d="M92.55,99.36c0.03,0.58,0.61,1.02,1.29,0.99c0.68-0.04,1.21-0.53,1.18-1.12
								c-0.03-0.58-0.61-1.02-1.29-0.99C93.05,98.28,92.52,98.78,92.55,99.36z"/>
						</g>
						<g>
							<path class="st16" d="M94.21,97.05c0.48,1.35,1.97,2.06,3.33,1.58c1.35-0.48,2.06-1.97,1.58-3.33
								c-0.48-1.35-1.97-2.06-3.33-1.58C94.44,94.2,93.73,95.69,94.21,97.05z"/>
							<path class="st14" d="M95.43,95.04c0.03,0.58,0.61,1.02,1.29,0.99c0.68-0.03,1.21-0.53,1.18-1.12
								c-0.03-0.58-0.61-1.02-1.29-0.99C95.93,93.96,95.4,94.46,95.43,95.04z"/>
						</g>
						<g>
							<path class="st16" d="M97.55,93.21c0.48,1.35,1.97,2.06,3.33,1.58c1.35-0.48,2.06-1.97,1.58-3.33
								c-0.48-1.35-1.97-2.06-3.33-1.58C97.77,90.37,97.07,91.86,97.55,93.21z"/>
							<path class="st14" d="M98.77,91.2c0.03,0.58,0.61,1.02,1.29,0.99c0.68-0.04,1.21-0.53,1.18-1.12
								c-0.03-0.58-0.61-1.02-1.29-0.99C99.26,90.12,98.74,90.62,98.77,91.2z"/>
						</g>
						<g>
							<path class="st16" d="M99.25,88.33c0.48,1.35,1.97,2.06,3.33,1.58c1.35-0.48,2.06-1.97,1.58-3.33
								c-0.48-1.35-1.97-2.06-3.33-1.58C99.48,85.48,98.77,86.97,99.25,88.33z"/>
							<path class="st14" d="M100.47,86.32c0.03,0.58,0.61,1.02,1.29,0.99c0.68-0.04,1.21-0.53,1.18-1.12
								c-0.03-0.58-0.61-1.02-1.29-0.99C100.97,85.24,100.44,85.74,100.47,86.32z"/>
						</g>
						<g>
							<path class="st16" d="M101.86,83.83c0.48,1.35,1.97,2.06,3.33,1.58c1.35-0.48,2.06-1.97,1.58-3.33
								c-0.48-1.35-1.97-2.06-3.33-1.58C102.08,80.98,101.38,82.47,101.86,83.83z"/>
							<path class="st14" d="M103.08,81.82c0.03,0.58,0.61,1.02,1.29,0.99c0.68-0.04,1.21-0.53,1.18-1.12
								c-0.03-0.58-0.61-1.02-1.29-0.99C103.57,80.74,103.05,81.24,103.08,81.82z"/>
						</g>
						<g>
							<path class="st16" d="M102.76,78.8c0.48,1.35,1.97,2.06,3.33,1.58c1.35-0.48,2.06-1.97,1.58-3.33
								c-0.48-1.35-1.97-2.06-3.33-1.58C102.98,75.95,102.27,77.44,102.76,78.8z"/>
							<path class="st14" d="M103.97,76.79c0.03,0.58,0.61,1.02,1.29,0.99c0.68-0.04,1.21-0.53,1.18-1.12
								c-0.03-0.58-0.61-1.02-1.29-0.99C104.47,75.71,103.94,76.21,103.97,76.79z"/>
						</g>
						<g>
							<path class="st16" d="M103.35,73.77c0.48,1.35,1.97,2.06,3.33,1.58c1.35-0.48,2.06-1.97,1.58-3.33
								c-0.48-1.35-1.97-2.06-3.33-1.58C103.57,70.93,102.86,72.42,103.35,73.77z"/>
							<path class="st14" d="M104.56,71.76c0.03,0.58,0.61,1.02,1.29,0.99c0.68-0.04,1.21-0.53,1.18-1.12
								c-0.03-0.58-0.61-1.02-1.29-0.99C105.06,70.68,104.53,71.18,104.56,71.76z"/>
						</g>
						<g>
							<path class="st16" d="M102.3,68.7c0.48,1.35,1.97,2.06,3.33,1.58c1.35-0.48,2.06-1.97,1.58-3.33
								c-0.48-1.35-1.97-2.06-3.33-1.58C102.52,65.85,101.82,67.34,102.3,68.7z"/>
							<path class="st14" d="M103.52,66.69c0.03,0.58,0.61,1.02,1.29,0.99c0.68-0.04,1.21-0.53,1.18-1.12
								c-0.03-0.58-0.61-1.02-1.29-0.99C104.01,65.61,103.49,66.11,103.52,66.69z"/>
						</g>
						<g>
							<path class="st16" d="M101.45,63.49c0.48,1.35,1.97,2.06,3.33,1.58c1.35-0.48,2.06-1.97,1.58-3.33
								c-0.48-1.35-1.97-2.06-3.33-1.58C101.68,60.65,100.97,62.14,101.45,63.49z"/>
							<path class="st14" d="M102.67,61.48c0.03,0.58,0.61,1.02,1.29,0.99c0.68-0.04,1.21-0.53,1.18-1.12
								c-0.03-0.58-0.61-1.02-1.29-0.99C103.17,60.4,102.64,60.9,102.67,61.48z"/>
						</g>
						<g>
							<path class="st16" d="M98.85,59.25c0.48,1.35,1.97,2.06,3.33,1.58c1.35-0.48,2.06-1.97,1.58-3.33
								c-0.48-1.35-1.97-2.06-3.33-1.58C99.07,56.4,98.37,57.89,98.85,59.25z"/>
							<path class="st14" d="M100.07,57.24c0.03,0.58,0.61,1.02,1.29,0.99c0.68-0.04,1.21-0.53,1.18-1.12
								c-0.03-0.58-0.61-1.02-1.29-0.99C100.56,56.16,100.04,56.66,100.07,57.24z"/>
						</g>
						<g>
							<path class="st16" d="M95.27,55.67c0.48,1.35,1.97,2.06,3.33,1.58c1.35-0.48,2.06-1.97,1.58-3.33
								c-0.48-1.35-1.97-2.06-3.33-1.58C95.49,52.83,94.79,54.32,95.27,55.67z"/>
							<path class="st14" d="M96.49,53.66c0.03,0.58,0.61,1.02,1.29,0.99c0.68-0.04,1.21-0.53,1.18-1.12
								c-0.03-0.58-0.61-1.02-1.29-0.99C96.99,52.58,96.46,53.08,96.49,53.66z"/>
						</g>
					</g>
				</g>
			</g>
		</g>
	</g>
</g>
</svg>
