<svg xmlns="http://www.w3.org/2000/svg" xmlns:xlink="http://www.w3.org/1999/xlink" width="30.239" height="30.239" viewBox="0 0 30.239 30.239">
  <defs>
    <clipPath id="clip-path">
      <path id="Path_1661" data-name="Path 1661" d="M100.727,418.328v0a15.12,15.12,0,1,0,15.12-15.122,15.12,15.12,0,0,0-15.12,15.122" transform="translate(-100.727 -403.208)" fill="#fff"/>
    </clipPath>
    <linearGradient id="linear-gradient" x1="0.5" x2="0.5" y2="1" gradientUnits="objectBoundingBox">
      <stop offset="0" stop-color="#00a948"/>
      <stop offset="1" stop-color="#005524"/>
    </linearGradient>
  </defs>
  <g id="Group_6150" data-name="Group 6150" transform="translate(-40 -251)">
    <g id="Group_6148" data-name="Group 6148" transform="translate(-21 -56.739)">
      <g id="Group_5141" data-name="Group 5141" transform="translate(61 307.739)">
        <g id="Group_5140" data-name="Group 5140" clip-path="url(#clip-path)">
          <rect id="Rectangle_2307" data-name="Rectangle 2307" width="42.765" height="42.765" transform="translate(-15.12 15.12) rotate(-45)" fill="#fff"/>
        </g>
      </g>
    </g>
    <path id="support_agent_FILL0_wght400_GRAD0_opsz24" d="M88.389-823.222v-1.864h7.457V-831.7a6.3,6.3,0,0,0-1.9-4.626,6.3,6.3,0,0,0-4.626-1.9,6.3,6.3,0,0,0-4.626,1.9,6.3,6.3,0,0,0-1.9,4.626v5.686h-.932a1.8,1.8,0,0,1-1.317-.548A1.8,1.8,0,0,1,80-827.882v-1.864a1.836,1.836,0,0,1,.245-.921,1.826,1.826,0,0,1,.687-.687L81-832.59a8.066,8.066,0,0,1,.92-2.936,8.833,8.833,0,0,1,1.841-2.354,8.178,8.178,0,0,1,2.54-1.561A8.226,8.226,0,0,1,89.321-840a8.135,8.135,0,0,1,3.006.559,8.483,8.483,0,0,1,2.54,1.55,8.364,8.364,0,0,1,1.841,2.342,8.555,8.555,0,0,1,.932,2.936l.07,1.212a1.542,1.542,0,0,1,.687.629,1.731,1.731,0,0,1,.245.886v2.144a1.73,1.73,0,0,1-.245.885,1.541,1.541,0,0,1-.687.629v1.142a1.8,1.8,0,0,1-.548,1.317,1.8,1.8,0,0,1-1.317.548Zm-1.864-6.525a.9.9,0,0,1-.664-.268.9.9,0,0,1-.268-.664.9.9,0,0,1,.268-.664.9.9,0,0,1,.664-.268.9.9,0,0,1,.664.268.9.9,0,0,1,.268.664.9.9,0,0,1-.268.664A.9.9,0,0,1,86.525-829.747Zm5.593,0a.9.9,0,0,1-.664-.268.9.9,0,0,1-.268-.664.9.9,0,0,1,.268-.664.9.9,0,0,1,.664-.268.9.9,0,0,1,.664.268.9.9,0,0,1,.268.664.9.9,0,0,1-.268.664A.9.9,0,0,1,92.118-829.747Zm-8.366-1.445a5.435,5.435,0,0,1,1.491-4.241,5.412,5.412,0,0,1,4.125-1.771,5.512,5.512,0,0,1,3.647,1.317,5.347,5.347,0,0,1,1.9,3.367,7.358,7.358,0,0,1-3.9-1.142,7.425,7.425,0,0,1-2.738-3.029A7.435,7.435,0,0,1,86.7-833.37,7.451,7.451,0,0,1,83.752-831.191Z" transform="translate(-34.202 1095.931)" fill="url(#linear-gradient)"/>
  </g>
</svg>
