<?xml version="1.0" encoding="utf-8"?>
<!-- Generator: Adobe Illustrator 28.0.0, SVG Export Plug-In . SVG Version: 6.00 Build 0)  -->
<svg version="1.1" id="Layer_1" xmlns="http://www.w3.org/2000/svg" xmlns:xlink="http://www.w3.org/1999/xlink" x="0px" y="0px"
	 viewBox="0 0 200 200" style="enable-background:new 0 0 200 200;" xml:space="preserve">
<style type="text/css">
	.st0{fill:#F0BB94;}
	.st1{fill:#F1D6BC;}
	.st2{fill:#66BC46;}
	.st3{fill:#D0262C;}
	.st4{fill:#DEDEC8;}
	.st5{fill:#9E9F91;}
	.st6{fill:#254256;}
	.st7{opacity:0.54;fill:#254256;}
	.st8{fill:#7ECDC7;}
	.st9{opacity:0.42;fill:#3EB3B6;}
	.st10{fill:#E57327;}
	.st11{opacity:0.5;fill:#FCCBA8;}
	.st12{fill:#7D432D;}
	.st13{fill:#FFFFFF;}
	.st14{fill:#AB6129;}
	.st15{fill:#C09068;}
	.st16{opacity:0.5;fill:#F8D3CA;}
	.st17{opacity:0.5;}
	.st18{fill:#C26C2E;}
	.st19{fill:#3EB3B6;}
	.st20{fill:#0F1011;}
	.st21{fill:#222425;}
	.st22{fill:#101112;}
	.st23{fill:#393B3C;}
	.st24{fill:#6A6C6E;}
	.st25{fill:#252928;}
	.st26{fill:#4F5353;}
	.st27{fill:#656869;}
	.st28{fill:#B62729;}
	.st29{fill:#A9ABAE;}
	.st30{fill:#737577;}
	.st31{fill:#33352D;}
	.st32{fill:#595A4E;}
	.st33{fill:#141511;}
	.st34{fill:#A12022;}
	.st35{fill:#EC2D32;}
	.st36{opacity:0.5;fill:#FFFFFF;}
	.st37{opacity:0.3;fill:#FFFFFF;}
	.st38{fill:#F3D9BF;}
	.st39{fill:#C29369;}
	.st40{opacity:0.42;}
	.st41{fill:#C5D4D0;}
	.st42{fill:#035FA7;}
	.st43{fill:#DDE0E0;}
	.st44{fill:#AFAFB1;}
	.st45{fill:#E5F3ED;}
	.st46{fill:#BFC0C1;}
	.st47{fill:#941F32;}
	.st48{fill:#2A4669;}
</style>
<g>
	<path class="st0" d="M126.84,59.36c0,0-0.14-3.04,4.07-5.33l-0.05,5.09L126.84,59.36z"/>
	<g>
		<g>
			<path class="st1" d="M106.65,149.74c-0.63,0.11-1.25,0.22-1.88,0.32c-1.98,0.32-4.01,0.29-5.99,0.54
				c-0.58,2.53-1.4,6.01-1.2,9.52c0.33,5.84,0.91,13.88,0.91,13.88s-0.46,1.29,0.43,1.5c0.89,0.22,1.08,0.73,1.15,0.47
				c0.31-1.21,2.3-1.72,2.3-1.72c0.85-1.8,3.97-21.7,4.2-23.94C106.58,150.11,106.62,149.92,106.65,149.74z"/>
			<path class="st1" d="M106.65,149.74c-0.63,0.11-1.25,0.22-1.88,0.32c-1.98,0.32-4.01,0.29-5.99,0.54
				c-0.58,2.53-1.4,6.01-1.2,9.52c0.33,5.84,0.91,13.88,0.91,13.88s-0.46,1.29,0.43,1.5c0.89,0.22,1.08,0.73,1.15,0.47
				c0.31-1.21,2.3-1.72,2.3-1.72c0.85-1.8,3.97-21.7,4.2-23.94C106.58,150.11,106.62,149.92,106.65,149.74z"/>
			<path class="st2" d="M102.97,171.96c-0.25,1.17-0.46,2-0.61,2.3c0,0-1.99,0.5-2.3,1.72c-0.07,0.26-0.26-0.25-1.15-0.47
				c-0.89-0.22-0.43-1.5-0.43-1.5s-0.07-0.91-0.16-2.33C100.05,172.02,101.86,172.01,102.97,171.96z"/>
			<g>
				<path class="st3" d="M104.16,181.41c-4.85-0.66-6.94-2.18-8.39-2.93c0.09-0.99,0.44-2.77,0.59-3.42
					c0.2-0.81,2.11-1.05,2.11-1.05s-0.46,1.29,0.43,1.5c0.89,0.22,1.08,0.73,1.15,0.47c0.31-1.21,2.3-1.72,2.3-1.72
					s0.78,0.19,1.79,2.01c0.42,0.75,2.32,1.09,4.21,1.53c1.75,0.41,5.08,0.12,5.08,3.19C112.19,181.47,109.39,182.12,104.16,181.41z
					"/>
				<path class="st4" d="M108.37,177.8c-0.23-0.05-0.46-0.11-0.69-0.16c-0.98,0.38-1.85,1.03-2.18,1.7
					c-0.33,0.68-0.51,1.41-0.55,2.16c4.72,0.54,7.31-0.06,8.5-0.52C113.45,177.92,110.12,178.2,108.37,177.8z"/>
				<path class="st5" d="M104.16,181.41c5.23,0.71,8.03,0.06,9.29-0.42c0,0.25-0.02,0.51-0.07,0.81c-0.08,0.48-4.62,1.6-11.09,0.43
					c-6.48-1.17-6.44-2.59-6.53-3.18c-0.02-0.12-0.01-0.32,0.01-0.58C97.22,179.23,99.31,180.75,104.16,181.41z"/>
			</g>
		</g>
		<path class="st6" d="M102.58,90.09c0,0-16.39,8.34-16.4,8.35c-1.28,0.65,2.16,9.31,2.51,10.3c1.63,4.56,3.57,9.01,5.37,13.51
			c0.9,2.25,3.1,9.52,3.93,11.8c0.72,1.96-1.1,8.13-1.24,9.98c-0.16,2.15,0.01,4.35-0.01,6.51c-0.02,2.55-0.08,5.11-0.16,7.66
			c-0.08,2.54-0.17,5.08-0.21,7.62c-0.01,1.19-0.03,2.37-0.11,3.56c-0.07,1.1-0.2,2.29,0.13,3.35c0.01,0.02,0.02,0.04,0.04,0.06
			c-0.26-0.08-0.44,0.25-0.17,0.5c1.03,0.95,2.72,1.14,4.01,1.23c0.57,0.04,0.36,0.39,0.93,0.3c0.43-0.07,1.7-0.55,1.98-0.9
			c0.23-0.28,0.29-0.65,0.32-1.01c0.04-0.52,0.08-1.03,0.13-1.54c0.21-1.83,0.55-3.64,0.88-5.44c0.79-4.3,5.46-26.37,6.22-29.07
			c1.57-5.61-0.6-12.81-1.68-18.33C107.99,113.03,102.98,89.89,102.58,90.09z"/>
		<path class="st7" d="M109.07,118.53c-1.08-5.5-6.1-28.64-6.5-28.44c0,0-16.39,8.34-16.4,8.35c-1.28,0.65,2.16,9.31,2.51,10.3
			c0.62,1.73,1.28,3.44,1.96,5.14c0.25,0.39,0.49,0.77,0.73,1.16c2.98,4.7,5.98,9.43,8.21,14.55c2.27,5.21,3.61,10.75,3.62,16.44
			c0,0.22-2.69-4.97-3.4-7.67c-0.07,2.48-2.14,31.38-2.01,35.75c0.82,0.26,1.72,0.35,2.49,0.41c0.57,0.04,0.36,0.39,0.93,0.3
			c0.43-0.07,1.7-0.55,1.98-0.9c0.23-0.28,0.29-0.65,0.32-1.01c0.04-0.52,0.08-1.03,0.13-1.54c0.21-1.83,0.55-3.64,0.88-5.44
			c0.79-4.3,5.46-26.37,6.22-29.07C112.33,131.25,110.16,124.05,109.07,118.53z"/>
		<path class="st7" d="M97.96,118.81c1.43-3.68,2.89-7.35,4.61-10.91c0.93-1.91,1.93-3.78,3.03-5.6c-1.45-6.5-2.82-12.32-3.02-12.21
			c0,0-16.39,8.34-16.4,8.35c-1.28,0.65,2.16,9.31,2.51,10.3c0.62,1.73,1.28,3.44,1.96,5.14c0.25,0.39,0.49,0.77,0.73,1.16
			c1.68,2.65,3.36,5.31,4.91,8.04C96.86,121.66,97.41,120.24,97.96,118.81z"/>
	</g>
	<path class="st1" d="M109.12,77.36c0.26,2.66,3,5.31,4.93,5.98c4.11-4.65,15.93-21.04,15.93-21.04l-3.03-2.47
		C126.96,59.83,109.08,76.9,109.12,77.36z"/>
	<g>
		<g>
			<path class="st1" d="M114.99,76.29l-5.21-8.06c-3.47-11.37-7.84-7.08-10.09-4.8c-1.66,1.69,4.47,11.8,6.21,14.25
				c1.32,1.88,3.96,4.96,6.16,5.89c0.49,0.21,2.26,0.85,2.49-1.4C115.02,79.76,115.89,78.59,114.99,76.29z"/>
		</g>
		<g>
			<path class="st1" d="M105.35,75.02c2.19-1.19,4.05-2.86,5.84-4.6l-1.42-2.19c-3.47-11.37-7.84-7.08-10.09-4.8
				c-1.33,1.36,2.35,8.13,4.76,12.02C104.75,75.32,105.06,75.18,105.35,75.02z"/>
		</g>
		<g>
			<g>
				<path class="st8" d="M108.22,71.95c-1.76,1.09-3.58,2.09-5.51,2.71c-1.13-1.64-2.68-4.59-4.61-8.18
					c-2.25-4.2-3.97-11.06,1.06-11.23c0,0,3.93,0.65,6.2,3.67c1.18,1.57,4.64,7.3,6.26,10.24
					C110.62,70.22,109.51,71.15,108.22,71.95z"/>
			</g>
		</g>
		<g>
			<g>
				<path class="st9" d="M106.82,72.65c-0.06-4.57-0.2-9.29-1.46-13.72c0,0,0-0.01-0.01-0.01c-2.27-3.02-6.2-3.67-6.2-3.67
					c-5.03,0.17-3.32,7.03-1.06,11.23c1.92,3.59,3.48,6.54,4.61,8.18c1.43-0.46,2.8-1.13,4.12-1.89
					C106.83,72.74,106.83,72.7,106.82,72.65z"/>
				<path class="st8" d="M106.05,59.91c0.05,0.22,0.11,0.44,0.15,0.66c0.85,3.93,1,7.95,1.04,11.96c0.32-0.19,0.65-0.38,0.97-0.58
					c1.3-0.8,2.41-1.74,3.4-2.79C110.25,66.67,107.56,62.19,106.05,59.91z"/>
			</g>
		</g>
	</g>
	<g>
		<g>
			<path class="st1" d="M78.89,152.03c-0.61-0.19-1.22-0.38-1.82-0.57c-1.91-0.61-3.7-1.56-5.58-2.25
				c-1.67,1.98-3.99,4.71-5.41,7.93c-2.36,5.35-5.52,12.77-5.52,12.77s-1,0.93-0.3,1.53c0.69,0.6,1.5,1.18,1.68,0.97
				c0.83-0.94,1.96-0.51,1.96-0.51c1.58-1.21,13.42-17.51,14.65-19.4C78.66,152.33,78.78,152.17,78.89,152.03z"/>
			<path class="st1" d="M78.89,152.03c-0.61-0.19-1.22-0.38-1.82-0.57c-1.91-0.61-3.7-1.56-5.58-2.25
				c-1.67,1.98-3.99,4.71-5.41,7.93c-2.36,5.35-5.52,12.77-5.52,12.77s-1,0.93-0.3,1.53c0.69,0.6,1.5,1.18,1.68,0.97
				c0.83-0.94,1.96-0.51,1.96-0.51c1.58-1.21,13.42-17.51,14.65-19.4C78.66,152.33,78.78,152.17,78.89,152.03z"/>
			<path class="st2" d="M65.49,170.12c-0.76,0.93-1.32,1.57-1.59,1.77c0,0-1.14-0.43-1.96,0.51c-0.18,0.2-0.98-0.37-1.68-0.97
				c-0.69-0.6,0.3-1.53,0.3-1.53s0.35-0.84,0.92-2.15C62.86,168.85,64.48,169.67,65.49,170.12z"/>
			<g>
				<path class="st3" d="M63.1,179.11c-4.02-2.8-6.05-5.13-6.99-6.46c0.53-0.84,1.65-2.27,2.09-2.77c0.55-0.63,2.36,0.03,2.36,0.03
					s-1,0.93-0.3,1.53c0.69,0.6,1.5,1.18,1.68,0.97c0.83-0.94,1.96-0.51,1.96-0.51s1.47,0.55,1.55,2.63
					c0.03,0.86,1.57,2.03,3.05,3.29c1.37,1.16,4.46,2.43,3.07,5.16C70.23,182.83,67.43,182.13,63.1,179.11z"/>
				<path class="st4" d="M68.49,177.82c-0.18-0.15-0.36-0.3-0.54-0.45c-1.05-0.11-2.12,0.07-2.72,0.52
					c-0.6,0.45-1.09,1.03-1.47,1.67c3.96,2.63,6.53,3.28,7.8,3.42C72.96,180.24,69.87,178.98,68.49,177.82z"/>
				<path class="st5" d="M63.1,179.11c4.33,3.01,7.12,3.72,8.46,3.86c-0.11,0.22-0.25,0.45-0.43,0.69
					c-0.29,0.39-4.84-0.68-10.07-4.67c-5.23-3.99-5.41-5.27-5.22-5.84c0.04-0.11,0.14-0.29,0.27-0.51
					C57.06,173.98,59.08,176.32,63.1,179.11z"/>
			</g>
		</g>
		<path class="st6" d="M102.45,97.08c0,0-18.39-0.04-18.4-0.04c-1.43,0-2.32,9.27-2.46,10.31c-0.63,4.81-0.93,9.65-1.38,14.47
			c-0.23,2.42-1.58,9.89-1.88,12.29c-0.25,2.08-4.69,6.74-5.65,8.32c-1.13,1.84-1.97,3.88-2.97,5.79c-1.19,2.26-2.4,4.51-3.63,6.75
			c-1.22,2.23-2.47,4.44-3.66,6.69c-0.56,1.05-1.11,2.09-1.72,3.12c-0.56,0.95-1.22,1.95-1.41,3.05c0,0.02,0,0.04,0,0.07
			c-0.2-0.19-0.5,0.02-0.38,0.37c0.49,1.31,1.9,2.25,3.01,2.92c0.49,0.3,1.01,0.55,1.55,0.73c0.41,0.14,0.9,0.25,1.31,0.07
			c0.33-0.15,0.56-0.45,0.74-0.75c0.27-0.44,0.54-0.88,0.82-1.31c1.02-1.53,2.15-2.99,3.27-4.44c2.67-3.47,16.88-20.98,18.78-23.04
			c3.95-4.28,5.31-11.68,6.86-17.08C96.82,119.96,102.9,97.08,102.45,97.08z"/>
		<path class="st7" d="M102.45,97.08c0,0-18.39-0.04-18.4-0.04c-0.33,0-0.63,0.49-0.9,1.25c2.04,1.23,4.3,2.02,6.55,2.78
			c1.05,0.36,2.09,0.75,3.17,1.03c0.94,0.24,1.9,0.45,2.81,0.82c0.71,0.29,1.45,0.71,1.82,1.41c0.42,0.78,0.27,1.71,0.02,2.52
			c-0.31,1.02-0.83,1.94-1.17,2.95c-0.47,1.38-0.73,2.87-0.98,4.3c-0.26,1.44-0.51,2.87-0.84,4.3c-0.33,1.45-0.69,2.89-1.05,4.33
			c-0.64,2.57-1.25,5.13-2.3,7.57c-1.86,4.34-4.74,8.15-7.96,11.57c-3.14,3.34-6.61,6.34-10.02,9.4c1.51-0.39,2.95-1.07,4.31-1.81
			c1.63-0.89,3.2-1.91,4.6-3.14c0.18-0.15,0.46,0.04,0.33,0.26c-1.05,1.8-2.14,3.57-3.25,5.33c-2.15,3.4-4.41,6.73-6.73,10.01
			c5.07-6.33,14.43-17.82,15.95-19.46c3.95-4.28,5.31-11.68,6.86-17.08C96.82,119.96,102.9,97.08,102.45,97.08z"/>
	</g>
	<path class="st1" d="M98.16,53.95c0.07-0.08,0.43-1.06,0.48-1.15c1.82,0.6,4.34,0.05,5.93,1.2l-1.63,4.3c0,0,1.63,3.55,1.07,4.04
		c-0.56,0.49-6.85-5.19-6.85-5.19S98.39,54.31,98.16,53.95z"/>
	<path class="st0" d="M98.16,53.95c0.07-0.08,0.43-1.06,0.48-1.15c1.82,0.6,4.34,0.05,5.93,1.2l-1.63,4.3c0,0,1.63,3.55,1.07,4.04
		c-0.56,0.49-6.85-5.19-6.85-5.19S98.39,54.31,98.16,53.95z"/>
	<g>
		<g>
			<path class="st10" d="M115.97,34.2c0.71-1.81-2.21-4.8-2.21-4.8s0.5,1.85-1.24,2.86c1.05-4.39-1.63-6.19-1.63-6.19
				s0.84,8-6.28,9.51c2.41-2.05,1.4-4.88,1.4-4.88s-1.32,3.77-4.07,4.86c0.49-2.05-0.94-3.12-0.94-3.12s0.71,6.22-1.26,9.74
				c-1.06-4.43-4-4.46-5.52-2.5c-1.53,1.96-0.5,8.06,3.65,7.41c2.08,3.18,1.33,6.31,1.33,6.31l-1.46-2.57l-0.24,3.04l-0.59-2.13
				c0,0,0.04,1.87-0.94,3.16c-0.49-0.68-1.63-1.26-3.16-1.91c-2.44-1.05-11.82-4.18-11.96-7.61c-1.23,1.52-1.23,1.52-1.23,1.52
				s-1-1.76-0.81-3.06c-0.65,1.65-0.75,2.45-0.75,2.45s-4.12-4.04-1.32-8.22c-1.89,0.52-2.05,1.2-2.05,1.2s0.09-4.82,2.87-6.27
				c-2.1,0.23-2.74-0.55-2.74-0.55s1.97-0.71,2.63-4.57c0.66-3.86,4.99-6.28,6.59-5.77c-1.81-1.87-2.68-1.79-2.68-1.79
				s2.29-1,4.26,0.72c-0.94-3.01,0.1-3.76,0.1-3.76s-0.04,1.46,1.1,2.86c4.68-5.77,9.23-7.94,24.23-3.59
				c15,4.35,14.23,10.43,13.23,13.22c0.19-3.69-2.5-4.94-2.5-4.94s2.74,4.34-0.57,8.25c0.75-3.22-2.01-6.54-2.01-6.54
				s1.96,3.61-1.95,7.5c0,0,0,0.02,0,0.02C116.82,34.26,116.39,34.34,115.97,34.2z"/>
			<path class="st1" d="M94.21,39.68c1.53-1.96,4.46-1.94,5.52,2.5c1.97-3.52,1.26-9.74,1.26-9.74s1.43,1.07,0.94,3.12
				c2.75-1.09,4.07-4.86,4.07-4.86s1.01,2.84-1.4,4.88c7.12-1.5,6.28-9.51,6.28-9.51s2.68,1.8,1.63,6.19
				c1.74-1.01,1.24-2.86,1.24-2.86s2.92,3,2.21,4.8c0.42,0.13,0.85,0.06,1.27-0.13c-0.07,0.23-1.31,4.3,0.07,6.51
				c1.42,2.27,3.44,2.84,2.84,4.02c-0.61,1.18-3.53,1.75-3.53,1.75s-0.02,3.67-2.48,7.15c-2.45,3.47-4.64,5.05-17.72,0.63
				c0.51-1.16,0.49-2.4,0.49-2.4l0.59,2.13l0.24-3.04l1.46,2.57c0,0,0.75-3.12-1.33-6.31C93.72,47.75,92.69,41.65,94.21,39.68z"/>
			<path class="st11" d="M94.21,39.68c1.53-1.96,4.46-1.94,5.52,2.5c1.97-3.52,1.26-9.74,1.26-9.74s1.43,1.07,0.94,3.12
				c2.75-1.09,4.07-4.86,4.07-4.86s1.01,2.84-1.4,4.88c7.12-1.5,6.28-9.51,6.28-9.51s2.68,1.8,1.63,6.19
				c1.74-1.01,1.24-2.86,1.24-2.86s2.92,3,2.21,4.8c0.42,0.13,0.85,0.06,1.27-0.13c-0.07,0.23-1.31,4.3,0.07,6.51
				c1.42,2.27,3.44,2.84,2.84,4.02c-0.61,1.18-3.53,1.75-3.53,1.75s-0.02,3.67-2.48,7.15c-2.45,3.47-4.64,5.05-17.72,0.63
				c0.51-1.16,0.49-2.4,0.49-2.4l0.59,2.13l0.24-3.04l1.46,2.57c0,0,0.75-3.12-1.33-6.31C93.72,47.75,92.69,41.65,94.21,39.68z"/>
		</g>
		<g>
			<path class="st12" d="M112.13,40.81c-0.1,0.82,0.09,1.48,0.43,1.47c0.34-0.01,0.69-0.69,0.79-1.51c0.11-0.82-0.09-1.47-0.42-1.46
				C112.58,39.31,112.23,39.99,112.13,40.81z"/>
			<path class="st13" d="M112.9,40.17c-0.01,0.24,0.06,0.43,0.17,0.42c0.1-0.02,0.2-0.22,0.21-0.47c0.01-0.25-0.06-0.44-0.17-0.43
				C113.01,39.71,112.91,39.92,112.9,40.17z"/>
		</g>
		<path class="st14" d="M110.54,37.15c0,0,4.04-1.5,4.72,0.52C115.57,35.09,113.04,35.27,110.54,37.15z"/>
		<path class="st15" d="M115.93,49.87c0,0-0.04,0.03-0.12,0.07c-0.03,0.02-0.09,0.03-0.14,0.05c-0.05,0.02-0.12,0.02-0.18,0.03
			c-0.13,0.03-0.29,0.01-0.45,0.01c-0.08,0-0.18-0.03-0.26-0.03c-0.09-0.01-0.18-0.02-0.27-0.03c-0.18-0.04-0.36-0.07-0.54-0.09
			c-0.17-0.02-0.34-0.07-0.48-0.09c-0.29-0.04-0.5-0.05-0.5-0.05s0.16,0.12,0.43,0.26c0.13,0.07,0.28,0.16,0.46,0.21
			c0.18,0.06,0.37,0.1,0.57,0.15c0.21,0.01,0.41,0.03,0.6,0.02c0.1-0.02,0.19-0.04,0.28-0.06c0.09-0.01,0.17-0.06,0.24-0.09
			c0.07-0.03,0.13-0.07,0.18-0.12c0.05-0.05,0.09-0.08,0.12-0.12C115.92,49.92,115.93,49.87,115.93,49.87z"/>
		<path class="st16" d="M112.86,44.72c-0.04,0.5-1.03,0.82-2.22,0.72c-1.2-0.1-2.13-0.58-2.09-1.08c0.04-0.5,1.04-0.82,2.23-0.72
			C111.97,43.75,112.9,44.23,112.86,44.72z"/>
		<path class="st15" d="M96.97,41.63c-0.56-0.73-1.51-0.71-2.16-0.15c-0.07,0.06,0.02,0.07,0.06,0.04c0.94-0.7,1.89,0.11,2.16,1.02
			c0.02,0.07,0.03,0.13,0.05,0.2c-0.24,0.05-0.45,0.13-0.66,0.26c-0.14,0.09-0.27,0.18-0.38,0.3c-0.12,0.12-0.17,0.28-0.28,0.41
			c-0.05,0.06,0.05,0.06,0.08,0.03c0.06-0.05,0.07-0.07,0.11-0.14c0.1-0.17,0.24-0.28,0.4-0.38c0.24-0.15,0.49-0.22,0.76-0.27
			c0.04,0.49-0.07,0.97-0.14,1.45c-0.02,0.15,0.21,0.03,0.25-0.04C97.63,43.51,97.55,42.37,96.97,41.63z"/>
		<g class="st17">
			<path class="st18" d="M95.96,54.9c-0.49-0.68-1.63-1.26-3.16-1.91c-2.44-1.05-11.82-4.18-11.96-7.61
				c-1.23,1.52-1.23,1.52-1.23,1.52s-1-1.76-0.81-3.06c-0.65,1.65-0.75,2.45-0.75,2.45s-4.12-4.04-1.32-8.22
				c-1.89,0.52-2.05,1.2-2.05,1.2s0.09-4.82,2.87-6.27c-2.1,0.23-2.74-0.55-2.74-0.55s0.1-0.04,0.26-0.14
				c3.23,0.96,6.92-0.58,6.92-0.58s-1.29,1.41-4.07,4.75c1.95-1.6,5.66-1.63,5.66-1.63s-4.11,1.05-5.51,7.29
				c0.97-2.87,3.31-4.32,8.77-5.43c-3.38,2.96-3.89,6.16-3.89,6.16s3.26-4.93,7.82-6.39c0.03,3.7,1.72,3.82,1.72,3.82
				c1.29-4.12,3.79-3.36,3.79-3.36l-1.65-2.37c0,0,1.81,0.06,4.27,3.93c1.21-5.01,0.06-8.69-1.19-10.14c2.83,0.46,5.11,4.8,5.11,4.8
				c2.77-3.22,2.02-8.46,2.02-8.46s3.14,2.41,2.16,8.48c3.85-5.16,0.96-11.24,0.96-11.24s3.75,1.14,5.48,6.34
				c0.6-1.27-0.26-4.29-0.26-4.29s3.46,1.89,3.75,9.1c2.48-3.87,0.49-9.49,0.49-9.49s3.88,1.63,4.43,7.11
				c0.58-2.03-0.48-6.21-2.07-8.45c2.94,1.15,4.33,2.88,4.95,4.54c0.09,1.17-0.17,2.19-0.44,2.96c0.19-3.69-2.5-4.94-2.5-4.94
				s2.74,4.34-0.57,8.25c0.75-3.22-2.01-6.54-2.01-6.54s1.96,3.61-1.95,7.5c0,0,0,0.02,0,0.02c-0.42,0.19-0.85,0.26-1.27,0.13
				c0.71-1.81-2.21-4.8-2.21-4.8s0.5,1.85-1.24,2.86c1.05-4.39-1.63-6.19-1.63-6.19s0.84,8-6.28,9.51c2.41-2.05,1.4-4.88,1.4-4.88
				s-1.32,3.77-4.07,4.86c0.49-2.05-0.94-3.12-0.94-3.12s0.71,6.22-1.26,9.74c-1.06-4.43-4-4.46-5.52-2.5
				c-1.53,1.96-0.5,8.06,3.65,7.41c2.08,3.18,1.33,6.31,1.33,6.31l-1.46-2.57l-0.24,3.04l-0.59-2.13
				C96.9,51.74,96.93,53.62,95.96,54.9z"/>
		</g>
	</g>
	<path class="st19" d="M84.72,98.34c1.86,0.61,3.81,0.96,5.75,1.23c1.69,0.23,3.39,0.46,5.09,0.6c2.15,0.17,4.35,0.15,6.48-0.19
		c1.36-0.22,2.75-0.57,4-1.2c-0.06-5.76-0.38-36.08-0.7-37.17c-0.36-1.21-2.24-3.8-2.24-3.8l-0.21,0.59c0,0,1.56,2.75,1.02,3.38
		c-0.5,0.58-5.8-6.43-5.9-7.1c-3.97,1.93-7.93-0.13-13.68,25.84c-0.39,4.99-2.96,10.79-4.08,15.01
		C81.29,96.99,83.08,97.8,84.72,98.34z"/>
	<path class="st9" d="M92.93,92.56c-0.75-1.51-1.49-3.03-2.21-4.56c-0.3-0.63-0.57-1.27-0.94-1.86c-0.33-0.54-0.69-1.07-0.96-1.65
		c-0.24-0.51-0.36-1.04-0.24-1.61c0.14-0.61,0.53-1.12,0.92-1.59c0.95-1.14,1.77-2.35,2.52-3.63c1.58-2.7,2.86-5.56,4.21-8.38
		c0.68-1.4,1.42-2.76,2.12-4.15c0.72-1.44,1.37-2.96,1.51-4.57c0.01-0.18,0.22-0.28,0.36-0.15c1.19,1.11,1.99,2.56,2.58,4.06
		c0.62,1.59,1.22,3.2,1.9,4.77c0.37,0.86,0.69,1.75,0.98,2.65c-0.1-5.58-0.22-9.88-0.34-10.28c-0.36-1.21-2.24-3.8-2.24-3.8
		l-0.21,0.59c0,0,1.56,2.75,1.02,3.38c-0.5,0.58-5.8-6.43-5.9-7.1c-3.97,1.93-7.93-0.13-13.68,25.84c-0.23,2.86-1.16,5.98-2.13,8.92
		c0.41,0.54,0.83,1.07,1.25,1.6c2.42,3.01,5.01,5.89,7.74,8.62c1.45,0.2,2.91,0.38,4.37,0.5c0.52,0.04,1.04,0.07,1.57,0.09
		C95.61,97.76,94.24,95.18,92.93,92.56z"/>
	<g>
		<g>
			<g>
				<g>
					<path class="st20" d="M115.08,179.33c0.01,0.03,0.23,3.22,0.23,3.22s0.08,0.22,0.4,0.24c0,0,0.22-0.05,0.28-0.23l0.46-3.36
						L115.08,179.33z"/>
					<path class="st21" d="M116.77,182.23c0.03-0.36-0.03-0.7-0.16-0.99l0.26-0.51c0,0-0.58-0.17-1.06-0.23c0,0-0.2-0.02-0.2-0.02
						c-0.69-0.05-1.31,0.63-1.39,1.52c-0.07,0.79,0.32,1.49,0.89,1.69h0c0,0,0.61,0.19,1.21,0.25l0.08-0.72
						C116.6,182.97,116.74,182.62,116.77,182.23z"/>
					<path class="st22" d="M114.23,182.09c-0.04,0.76,0.34,1.42,0.89,1.61h0c0,0,0.61,0.19,1.21,0.25l0.08-0.72
						c0.16-0.21,0.28-0.47,0.34-0.75C115.88,182.4,115.01,182.41,114.23,182.09z"/>
					<path class="st23" d="M117.8,182.44c-0.08,0.9-0.71,1.58-1.41,1.52c-0.7-0.06-1.21-0.84-1.13-1.74
						c0.08-0.9,0.71-1.58,1.42-1.52C117.37,180.76,117.88,181.54,117.8,182.44z"/>
					<path class="st24" d="M117.8,182.44c-0.08,0.9-0.71,1.58-1.41,1.52c-0.7-0.06-1.21-0.84-1.13-1.74
						c0.08-0.9,0.71-1.58,1.42-1.52C117.37,180.76,117.88,181.54,117.8,182.44z"/>
					<path class="st23" d="M117.8,182.44c-0.08,0.86-0.68,1.51-1.35,1.46c-0.67-0.06-1.16-0.81-1.08-1.67
						c0.08-0.86,0.68-1.52,1.35-1.46C117.39,180.83,117.87,181.58,117.8,182.44z"/>
					<path class="st25" d="M117.29,182.45c-0.04,0.47-0.37,0.82-0.73,0.79c-0.37-0.03-0.63-0.44-0.59-0.91
						c0.04-0.47,0.37-0.82,0.73-0.79C117.07,181.57,117.33,181.98,117.29,182.45z"/>
					<path class="st26" d="M117.15,182.44c-0.04,0.42-0.33,0.74-0.66,0.71c-0.33-0.03-0.56-0.39-0.52-0.81
						c0.04-0.42,0.33-0.74,0.66-0.71C116.95,181.65,117.19,182.02,117.15,182.44z"/>
					<path class="st25" d="M116,179.42c0.01,0.03,0.23,3.22,0.23,3.22s0.08,0.22,0.4,0.24c0,0,0.22-0.05,0.28-0.23l0.46-3.36
						L116,179.42z"/>
				</g>
				<g>
					<path class="st27" d="M114.43,177.9l0.27,1.77c0,0,0.16,0.65,1.05,0.6c0,0,1.66,0.11,1.87-0.5c0.23-0.65,0.42-1.85,0.42-1.85
						L114.43,177.9z"/>
					<path class="st23" d="M116.32,179.51c0.52-0.01,0.95-0.13,1.45-0.22c0.16-0.63,0.28-1.36,0.28-1.36l-3.62-0.02l0.22,1.44
						C115.12,179.53,115.86,179.51,116.32,179.51z"/>
				</g>
				<path class="st23" d="M115.41,180.57c0,0-1.02,0.18-1.11,1.59C114.3,182.16,114.45,181.03,115.41,180.57z"/>
				<path class="st23" d="M114.67,178.93l0.16,0.77c0,0,0.12,0.43,0.73,0.44c0,0-0.29-0.14-0.34-0.43c-0.05-0.3-0.04-0.74-0.04-0.74
					L114.67,178.93z"/>
			</g>
			<g>
				<g>
					<path class="st20" d="M94.23,179.33c0.01,0.03,0.23,3.22,0.23,3.22s0.08,0.22,0.4,0.24c0,0,0.22-0.05,0.28-0.23l0.46-3.36
						L94.23,179.33z"/>
					<path class="st21" d="M95.93,182.23c0.03-0.36-0.03-0.7-0.16-0.99l0.26-0.51c0,0-0.58-0.17-1.05-0.23c0,0-0.2-0.02-0.2-0.02
						c-0.69-0.05-1.31,0.63-1.39,1.52c-0.07,0.79,0.31,1.49,0.89,1.69l0,0c0,0,0.61,0.19,1.21,0.25l0.08-0.72
						C95.76,182.97,95.9,182.62,95.93,182.23z"/>
					<path class="st22" d="M93.38,182.09c-0.04,0.76,0.34,1.42,0.89,1.61l0,0c0,0,0.61,0.19,1.21,0.25l0.08-0.72
						c0.16-0.21,0.27-0.47,0.33-0.75C95.04,182.4,94.16,182.41,93.38,182.09z"/>
					<path class="st23" d="M96.95,182.44c-0.08,0.9-0.71,1.58-1.42,1.52c-0.7-0.06-1.21-0.84-1.13-1.74
						c0.08-0.9,0.71-1.58,1.42-1.52C96.53,180.76,97.03,181.54,96.95,182.44z"/>
					<path class="st24" d="M96.95,182.44c-0.08,0.9-0.71,1.58-1.42,1.52c-0.7-0.06-1.21-0.84-1.13-1.74
						c0.08-0.9,0.71-1.58,1.42-1.52C96.53,180.76,97.03,181.54,96.95,182.44z"/>
					<path class="st23" d="M96.95,182.44c-0.08,0.86-0.68,1.51-1.35,1.46c-0.67-0.06-1.16-0.81-1.08-1.67
						c0.08-0.86,0.68-1.52,1.35-1.46C96.55,180.83,97.03,181.58,96.95,182.44z"/>
					<path class="st25" d="M96.44,182.45c-0.04,0.47-0.37,0.82-0.73,0.79c-0.36-0.03-0.63-0.44-0.59-0.91
						c0.04-0.47,0.37-0.82,0.73-0.79C96.22,181.57,96.49,181.98,96.44,182.45z"/>
					<path class="st26" d="M96.31,182.44c-0.04,0.42-0.33,0.74-0.66,0.71c-0.33-0.03-0.56-0.39-0.53-0.81
						c0.04-0.42,0.33-0.74,0.66-0.71C96.11,181.65,96.34,182.02,96.31,182.44z"/>
					<path class="st25" d="M95.16,179.42c0.01,0.03,0.23,3.22,0.23,3.22s0.08,0.22,0.4,0.24c0,0,0.22-0.05,0.28-0.23l0.46-3.36
						L95.16,179.42z"/>
				</g>
				<g>
					<path class="st27" d="M93.59,177.9l0.27,1.77c0,0,0.15,0.65,1.05,0.6c0,0,1.66,0.11,1.87-0.5c0.23-0.65,0.42-1.85,0.42-1.85
						L93.59,177.9z"/>
					<path class="st23" d="M95.48,179.51c0.52-0.01,0.95-0.13,1.45-0.22c0.16-0.63,0.28-1.36,0.28-1.36l-3.62-0.02l0.22,1.44
						C94.28,179.53,95.01,179.51,95.48,179.51z"/>
				</g>
				<path class="st23" d="M94.56,180.57c0,0-1.02,0.18-1.11,1.59C93.46,182.16,93.61,181.03,94.56,180.57z"/>
				<path class="st23" d="M93.82,178.93l0.16,0.77c0,0,0.12,0.43,0.73,0.44c0,0-0.29-0.14-0.34-0.43c-0.05-0.3-0.05-0.74-0.05-0.74
					L93.82,178.93z"/>
			</g>
		</g>
		<path class="st28" d="M117.45,121.59H85.17c-0.2,0-0.4,0.02-0.59,0.07l0,0l-8.69,1.52l-0.2,0.71l6.83,11.31l26.22,43.42l0.7,1.16
			l0.04,0.23l8.25-1.4c1.33-0.14,2.36-1.27,2.36-2.64v-51.7C120.09,122.78,118.91,121.59,117.45,121.59z"/>
		<g>
			<path class="st28" d="M119.78,168.56c0.03,1.4-0.51,1.37-0.51,1.37l-1.34,0.06c-1.02-0.06-1.08-0.83-1.08-0.83l-0.89-38.61
				c0,0-0.57,41.28-0.57,43.32c0,2.04-0.95,2.1-0.95,2.1l-1.27,0.26c-1.21,0.06-1.08-1.46-1.08-1.46l-0.76-44.65
				c0,0-14.31,14.14-19.98,19.69l17.4,28.81l0.7,1.16l0.04,0.23l8.25-1.4c1.33-0.14,2.36-1.27,2.36-2.64v-49.81
				C120.04,132.48,119.76,167.29,119.78,168.56z"/>
		</g>
		<g>
			<g>
				<g>
					<rect x="96.53" y="105.85" class="st29" width="1.43" height="15.71"/>
					<rect x="97.35" y="105.85" class="st30" width="0.6" height="15.71"/>
					<rect x="96.75" y="105.85" class="st13" width="0.22" height="15.71"/>
					<path class="st29" d="M97.96,106.91v-1.06h-1.43v1.04C96.8,107.15,97.44,107.07,97.96,106.91z"/>
					<rect x="96.53" y="117.94" class="st29" width="1.43" height="3.63"/>
				</g>
				<g>
					<rect x="109.59" y="105.85" class="st29" width="1.43" height="15.71"/>
					<rect x="110.41" y="105.85" class="st30" width="0.6" height="15.71"/>
					<rect x="109.81" y="105.85" class="st13" width="0.22" height="15.71"/>
					<path class="st29" d="M111.02,106.91v-1.06h-1.43v1.04C109.86,107.15,110.5,107.07,111.02,106.91z"/>
					<rect x="109.59" y="117.96" class="st29" width="1.43" height="3.6"/>
				</g>
				<path class="st31" d="M111.02,103.31c-0.09-0.9-0.21-1.77-1.6-2.04c0,0,0,0,0,0c-0.21-0.06-0.46-0.1-0.74-0.12
					c-2.08-0.17-8.67-0.14-10.26,0.08c-1.59,0.23-1.71,1.14-1.81,2.08c-0.05,0.5-0.15,1.59-0.22,2.5c0.01,0.08,0.04,0.16,0.07,0.23
					c0.14,0.25,0.39,0.29,0.65,0.31c0.26,0.02,0.64,0.07,0.88-0.08c0.09-0.06,0.14-0.14,0.17-0.23c-0.03-0.91-0.18-2.32,0.06-2.56
					c0.61-0.6,0.86,0.31,1.64,0.31c0.78,0,0.95-0.85,1.76-0.37c0.81,0.49,1.17,0.63,1.81,0.17c0.96-0.69,1.27,0.18,1.88,0.2
					c1.08,0.03,1.12-1.05,2.13-0.28c0.77,0.59,1.26-0.18,1.83-0.15c0.05,0.03,0.1,0.07,0.15,0.12c0.25,0.24,0.09,1.65,0.06,2.56
					c0.03,0.09,0.08,0.17,0.17,0.23c0.24,0.15,0.61,0.09,0.88,0.08c0.27-0.02,0.52-0.06,0.66-0.31c0.04-0.07,0.06-0.15,0.07-0.23
					C111.17,104.9,111.07,103.81,111.02,103.31z"/>
				<path class="st31" d="M111.02,103.31c-0.09-0.9-0.21-1.77-1.6-2.04c0,0,0,0,0,0c-0.21-0.06-0.46-0.1-0.74-0.12
					c-2.08-0.17-8.67-0.14-10.26,0.08c-1.59,0.23-1.71,1.14-1.81,2.08c-0.05,0.5-0.15,1.59-0.22,2.5c0.01,0.08,0.04,0.16,0.07,0.23
					c0.14,0.25,0.39,0.29,0.65,0.31c0.26,0.02,0.64,0.07,0.88-0.08c0.09-0.06,0.14-0.14,0.17-0.23c-0.03-0.91-0.18-2.32,0.06-2.56
					c0.61-0.6,0.86,0.31,1.64,0.31c0.78,0,0.95-0.85,1.76-0.37c0.81,0.49,1.17,0.63,1.81,0.17c0.96-0.69,1.27,0.18,1.88,0.2
					c1.08,0.03,1.12-1.05,2.13-0.28c0.77,0.59,1.26-0.18,1.83-0.15c0.05,0.03,0.1,0.07,0.15,0.12c0.25,0.24,0.09,1.65,0.06,2.56
					c0.03,0.09,0.08,0.17,0.17,0.23c0.24,0.15,0.61,0.09,0.88,0.08c0.27-0.02,0.52-0.06,0.66-0.31c0.04-0.07,0.06-0.15,0.07-0.23
					C111.17,104.9,111.07,103.81,111.02,103.31z"/>
				<path class="st31" d="M111.02,103.31c-0.09-0.82-0.19-1.62-1.29-1.96c0.11,0.11,0.21,0.21,0.27,0.28
					c0.55,0.61,0.53,1.51,0.62,2.29c0.06,0.54,0.28,1.89-0.46,2.13c-0.27,0.08-0.51,0-0.69-0.17c0,0.06-0.01,0.12-0.01,0.18
					c0.03,0.09,0.08,0.17,0.17,0.23c0.24,0.15,0.61,0.09,0.88,0.08c0.27-0.02,0.52-0.06,0.66-0.31c0.04-0.07,0.06-0.15,0.07-0.23
					C111.17,104.9,111.07,103.81,111.02,103.31z"/>
				<path class="st31" d="M98.65,103.01c-0.4-0.07-0.7,0.09-0.82,0.48c-0.19,0.61-0.07,1.26-0.09,1.89
					c-0.01,0.31-0.16,0.77-0.44,0.97c0.24,0.02,0.51,0.03,0.69-0.09c0.09-0.06,0.14-0.14,0.17-0.23c-0.03-0.91-0.18-2.32,0.06-2.56
					c0.53-0.52,0.78,0.1,1.35,0.27C99.31,103.45,99.04,103.08,98.65,103.01z"/>
				<path class="st31" d="M102.38,103.71c-0.33-0.23-0.69-0.74-1.16-0.61c-0.16,0.05-0.31,0.17-0.46,0.3
					c0.23-0.14,0.47-0.21,0.86,0.02c0.68,0.41,1.04,0.57,1.51,0.35C102.88,103.85,102.62,103.88,102.38,103.71z"/>
				<path class="st31" d="M105.24,103.54c-0.31-0.08-0.65-0.26-0.96-0.19c0.38,0.09,0.64,0.43,1.03,0.44
					c0.77,0.02,1.01-0.53,1.46-0.56C106.27,103.02,105.8,103.69,105.24,103.54z"/>
				<path class="st31" d="M109.54,104.35c0.02-0.06,0.03-0.12,0.04-0.18c0.06-0.27,0.15-0.71-0.04-0.96
					c-0.35-0.45-0.93,0.22-1.25,0.35c-0.25,0.11-0.49,0.1-0.73,0.04c0.69,0.4,1.16-0.27,1.68-0.24c0.05,0.03,0.1,0.07,0.15,0.12
					C109.51,103.58,109.55,103.92,109.54,104.35z"/>
				<path class="st32" d="M97.7,101.63c0,0-0.76,0.32-0.89,1.18l-0.24,2.51c0,0-0.06,0.54,0.19,0.62c0,0,0.62,0.22,0.68-0.29
					c0.06-0.51-0.06-2.51,0.32-2.86c0.38-0.35,0.81-0.33,1.11-0.11c0.3,0.22,0.78,0.75,1.46,0.22c0.68-0.52,1.08-0.62,1.45-0.22
					c0.37,0.4,0.94,0.6,1.54,0.19c0.6-0.41,0.87-0.59,1.42-0.14c0.54,0.44,0.67,0.54,1.29,0.06c0.62-0.48,0.89-0.57,1.32-0.19
					c0.43,0.38,1.13,0.33,1.43-0.27c0.3-0.6-0.37-0.91-1.11-1C106.93,101.24,100.5,100.98,97.7,101.63z"/>
			</g>
			<g>
				<path class="st33" d="M98.5,121.8l-0.22-2.61c0,0-0.03-0.64-0.41-0.73h-0.32h-0.64h-0.32c-0.38,0.1-0.41,0.73-0.41,0.73
					l-0.22,2.61H98.5z"/>
				<path class="st31" d="M97.86,120.31l-0.09-1.05c0,0-0.02-0.45-0.29-0.51h-0.88c-0.26,0.07-0.29,0.51-0.29,0.51l-0.09,1.05H97.86
					z"/>
			</g>
			<g>
				<path class="st33" d="M111.64,121.8l-0.22-2.61c0,0-0.03-0.64-0.41-0.73h-0.32h-0.64h-0.32c-0.38,0.1-0.41,0.73-0.41,0.73
					l-0.22,2.61H111.64z"/>
				<path class="st31" d="M111.01,120.31l-0.09-1.05c0,0-0.02-0.45-0.29-0.51h-0.88c-0.26,0.07-0.29,0.51-0.29,0.51l-0.09,1.05
					H111.01z"/>
			</g>
		</g>
		<g>
			<g>
				<g>
					<path class="st20" d="M101.21,180.73c0.01,0.03,0.23,3.22,0.23,3.22s0.08,0.22,0.4,0.24c0,0,0.22-0.05,0.28-0.23l0.46-3.36
						L101.21,180.73z"/>
					<path class="st21" d="M102.91,183.63c0.03-0.36-0.03-0.7-0.16-0.99l0.26-0.51c0,0-0.58-0.17-1.06-0.23c0,0-0.2-0.02-0.2-0.02
						c-0.69-0.04-1.31,0.63-1.39,1.52c-0.07,0.79,0.32,1.49,0.89,1.69v0c0,0,0.61,0.19,1.21,0.25l0.08-0.72
						C102.74,184.37,102.87,184.02,102.91,183.63z"/>
					<path class="st22" d="M100.36,183.49c-0.04,0.76,0.34,1.42,0.89,1.61v0c0,0,0.61,0.19,1.21,0.25l0.08-0.72
						c0.16-0.21,0.27-0.47,0.33-0.76C102.02,183.8,101.14,183.81,100.36,183.49z"/>
					<path class="st23" d="M103.93,183.84c-0.08,0.9-0.71,1.58-1.42,1.52c-0.7-0.06-1.21-0.84-1.13-1.74
						c0.08-0.9,0.71-1.58,1.42-1.52C103.5,182.16,104.01,182.94,103.93,183.84z"/>
					<path class="st24" d="M103.93,183.84c-0.08,0.9-0.71,1.58-1.42,1.52c-0.7-0.06-1.21-0.84-1.13-1.74
						c0.08-0.9,0.71-1.58,1.42-1.52C103.5,182.16,104.01,182.94,103.93,183.84z"/>
					<path class="st23" d="M103.93,183.84c-0.08,0.86-0.68,1.51-1.35,1.46c-0.67-0.06-1.16-0.81-1.08-1.67
						c0.08-0.86,0.68-1.51,1.35-1.46C103.52,182.23,104.01,182.98,103.93,183.84z"/>
					<path class="st25" d="M103.42,183.85c-0.04,0.47-0.37,0.82-0.73,0.79c-0.36-0.03-0.63-0.44-0.59-0.9
						c0.04-0.47,0.37-0.82,0.73-0.79C103.2,182.97,103.46,183.38,103.42,183.85z"/>
					<path class="st26" d="M103.28,183.83c-0.04,0.42-0.33,0.74-0.66,0.71c-0.33-0.03-0.56-0.39-0.52-0.81
						c0.04-0.42,0.33-0.74,0.66-0.71C103.08,183.05,103.32,183.42,103.28,183.83z"/>
					<path class="st25" d="M102.13,180.82c0.01,0.03,0.23,3.22,0.23,3.22s0.08,0.22,0.4,0.24c0,0,0.22-0.05,0.28-0.23l0.46-3.36
						L102.13,180.82z"/>
				</g>
				<g>
					<path class="st27" d="M100.57,179.3l0.27,1.77c0,0,0.15,0.65,1.05,0.6c0,0,1.66,0.12,1.87-0.5c0.23-0.65,0.42-1.85,0.42-1.85
						L100.57,179.3z"/>
					<path class="st23" d="M102.46,180.91c0.52-0.01,0.95-0.13,1.45-0.22c0.16-0.63,0.28-1.37,0.28-1.37l-3.62-0.02l0.22,1.44
						C101.26,180.93,101.99,180.91,102.46,180.91z"/>
				</g>
				<path class="st23" d="M101.54,181.97c0,0-1.02,0.18-1.1,1.59C100.44,183.56,100.59,182.43,101.54,181.97z"/>
				<path class="st23" d="M100.8,180.33l0.16,0.77c0,0,0.12,0.43,0.73,0.45c0,0-0.29-0.14-0.34-0.43c-0.05-0.3-0.04-0.74-0.04-0.74
					L100.8,180.33z"/>
			</g>
			<g>
				<g>
					<path class="st20" d="M79.58,181.09c0.01,0.03,0.23,3.22,0.23,3.22s0.08,0.22,0.4,0.24c0,0,0.22-0.05,0.28-0.23l0.46-3.36
						L79.58,181.09z"/>
					<path class="st21" d="M81.28,184c0.03-0.36-0.03-0.7-0.16-0.99l0.26-0.51c0,0-0.58-0.17-1.06-0.23c0,0-0.2-0.02-0.2-0.02
						c-0.69-0.04-1.31,0.63-1.39,1.52c-0.07,0.79,0.32,1.49,0.89,1.69l0,0c0,0,0.61,0.19,1.21,0.25l0.08-0.72
						C81.11,184.74,81.25,184.39,81.28,184z"/>
					<path class="st22" d="M78.73,183.86c-0.04,0.76,0.34,1.42,0.89,1.61l0,0c0,0,0.61,0.19,1.21,0.25l0.08-0.72
						c0.16-0.21,0.27-0.47,0.34-0.76C80.39,184.17,79.51,184.18,78.73,183.86z"/>
					<path class="st23" d="M82.3,184.21c-0.08,0.9-0.71,1.58-1.41,1.52c-0.7-0.06-1.21-0.84-1.13-1.74c0.08-0.9,0.71-1.58,1.42-1.52
						C81.88,182.53,82.38,183.31,82.3,184.21z"/>
					<path class="st24" d="M82.3,184.21c-0.08,0.9-0.71,1.58-1.41,1.52c-0.7-0.06-1.21-0.84-1.13-1.74c0.08-0.9,0.71-1.58,1.42-1.52
						C81.88,182.53,82.38,183.31,82.3,184.21z"/>
					<path class="st23" d="M82.3,184.21c-0.08,0.86-0.68,1.51-1.35,1.46c-0.67-0.06-1.16-0.81-1.08-1.67
						c0.08-0.86,0.68-1.51,1.35-1.46C81.89,182.6,82.38,183.35,82.3,184.21z"/>
					<path class="st25" d="M81.79,184.21c-0.04,0.47-0.37,0.82-0.73,0.79c-0.36-0.03-0.63-0.44-0.59-0.9
						c0.04-0.47,0.37-0.82,0.73-0.79C81.57,183.34,81.83,183.75,81.79,184.21z"/>
					<path class="st26" d="M81.66,184.2c-0.04,0.42-0.33,0.74-0.66,0.71c-0.33-0.03-0.56-0.39-0.52-0.81
						c0.04-0.42,0.33-0.74,0.66-0.71C81.46,183.42,81.69,183.78,81.66,184.2z"/>
					<path class="st25" d="M80.51,181.19c0.01,0.03,0.23,3.22,0.23,3.22s0.08,0.22,0.4,0.24c0,0,0.22-0.05,0.28-0.23l0.46-3.36
						L80.51,181.19z"/>
				</g>
				<g>
					<path class="st27" d="M78.94,179.66l0.27,1.77c0,0,0.15,0.65,1.05,0.6c0,0,1.66,0.12,1.88-0.5c0.23-0.65,0.42-1.85,0.42-1.85
						L78.94,179.66z"/>
					<path class="st23" d="M80.83,181.27c0.52-0.01,0.95-0.13,1.45-0.22c0.16-0.63,0.28-1.37,0.28-1.37l-3.62-0.02l0.22,1.44
						C79.63,181.29,80.36,181.28,80.83,181.27z"/>
				</g>
				<path class="st23" d="M79.91,182.34c0,0-1.02,0.18-1.11,1.59C78.81,183.93,78.96,182.8,79.91,182.34z"/>
				<path class="st23" d="M79.17,180.7l0.16,0.77c0,0,0.12,0.44,0.73,0.45c0,0-0.29-0.14-0.34-0.43c-0.05-0.3-0.04-0.74-0.04-0.74
					L79.17,180.7z"/>
			</g>
		</g>
		<g>
			<g>
				<path class="st34" d="M111.32,177.48c0,1.47-1.18,2.66-2.65,2.66L75.6,180.5c-1.46,0-2.65-1.19-2.65-2.66l0.78-52.07
					c0-1.47,1.18-2.66,2.65-2.66h32.28c1.46,0,2.65,1.19,2.65,2.66V177.48z"/>
				<path class="st35" d="M110.02,177.02c0,1.43-1.12,2.59-2.51,2.59l-31.39,0.37c-1.39,0-2.51-1.16-2.51-2.59l0.78-50.62
					c0-1.43,1.12-2.59,2.51-2.59h30.61c1.39,0,2.51,1.16,2.51,2.59V177.02z"/>
				<g>
					<g>
						<g>
							<g>
								<path class="st34" d="M77.7,178.14c0,0.49-0.54,0.89-1.21,0.89l0,0c-0.67,0-1.21-0.4-1.21-0.89l0.78-51.18
									c0-0.49,0.54-0.88,1.21-0.88l0,0c0.67,0,1.21,0.4,1.21,0.88L77.7,178.14z"/>
								<path class="st35" d="M77.31,178.14c0,0.49-0.39,0.89-0.86,0.89l0,0c-0.47,0-0.86-0.4-0.86-0.89l0.78-51.18
									c0-0.49,0.38-0.88,0.86-0.88l0,0c0.47,0,0.86,0.4,0.86,0.88L77.31,178.14z"/>
							</g>
							<path class="st36" d="M77.07,126.52c0,0-0.42,0.13-0.45,0.66l-0.78,50.83c0,0,0.03,0.69,0.46,0.73c0,0-0.31-0.35-0.25-0.85
								l0.76-50.75C76.81,127.14,76.88,126.64,77.07,126.52z"/>
						</g>
					</g>
					<g>
						<g>
							<g>
								<path class="st34" d="M82.68,178.14c0,0.49-0.54,0.89-1.21,0.89l0,0c-0.67,0-1.21-0.4-1.21-0.89l0.78-51.18
									c0-0.49,0.54-0.88,1.21-0.88l0,0c0.67,0,1.21,0.4,1.21,0.88L82.68,178.14z"/>
								<path class="st35" d="M82.28,178.14c0,0.49-0.38,0.89-0.86,0.89l0,0c-0.47,0-0.86-0.4-0.86-0.89l0.78-51.18
									c0-0.49,0.38-0.88,0.86-0.88l0,0c0.47,0,0.86,0.4,0.86,0.88L82.28,178.14z"/>
							</g>
							<path class="st36" d="M82.05,126.52c0,0-0.42,0.13-0.45,0.66l-0.78,50.83c0,0,0.03,0.69,0.46,0.73c0,0-0.31-0.35-0.24-0.85
								l0.76-50.75C81.79,127.14,81.86,126.64,82.05,126.52z"/>
						</g>
					</g>
					<g>
						<g>
							<g>
								<path class="st34" d="M88.44,177.78c0,0.49-0.54,0.88-1.21,0.88l0,0c-0.67,0-1.21-0.4-1.21-0.88v-50.81
									c0-0.49,0.54-0.88,1.21-0.88l0,0c0.67,0,1.21,0.4,1.21,0.88V177.78z"/>
								<path class="st35" d="M88.04,177.78c0,0.49-0.38,0.88-0.86,0.88l0,0c-0.47,0-0.86-0.4-0.86-0.88v-50.81
									c0-0.49,0.38-0.88,0.86-0.88l0,0c0.47,0,0.86,0.4,0.86,0.88V177.78z"/>
							</g>
							<path class="st36" d="M87.02,126.52c0,0-0.42,0.13-0.45,0.66v50.46c0,0,0.03,0.69,0.46,0.73c0,0-0.31-0.35-0.25-0.85
								l-0.02-50.38C86.77,127.14,86.84,126.64,87.02,126.52z"/>
						</g>
					</g>
					<g>
						<g>
							<g>
								<path class="st34" d="M93.42,177.78c0,0.49-0.54,0.88-1.21,0.88l0,0c-0.67,0-1.21-0.4-1.21-0.88v-50.81
									c0-0.49,0.54-0.88,1.21-0.88l0,0c0.67,0,1.21,0.4,1.21,0.88V177.78z"/>
								<path class="st35" d="M93.02,177.78c0,0.49-0.38,0.88-0.86,0.88l0,0c-0.47,0-0.86-0.4-0.86-0.88v-50.81
									c0-0.49,0.38-0.88,0.86-0.88l0,0c0.47,0,0.86,0.4,0.86,0.88V177.78z"/>
							</g>
							<path class="st36" d="M92,126.52c0,0-0.42,0.13-0.45,0.66v50.46c0,0,0.03,0.69,0.46,0.73c0,0-0.31-0.35-0.25-0.85
								l-0.02-50.38C91.75,127.14,91.82,126.64,92,126.52z"/>
						</g>
					</g>
					<g>
						<g>
							<g>
								<path class="st34" d="M98.4,177.78c0,0.49-0.54,0.88-1.21,0.88l0,0c-0.67,0-1.21-0.4-1.21-0.88v-50.81
									c0-0.49,0.54-0.88,1.21-0.88l0,0c0.67,0,1.21,0.4,1.21,0.88V177.78z"/>
								<path class="st35" d="M98,177.78c0,0.49-0.38,0.88-0.86,0.88l0,0c-0.47,0-0.86-0.4-0.86-0.88v-50.81
									c0-0.49,0.38-0.88,0.86-0.88l0,0c0.47,0,0.86,0.4,0.86,0.88V177.78z"/>
							</g>
							<path class="st36" d="M96.98,126.52c0,0-0.42,0.13-0.45,0.66v50.46c0,0,0.03,0.69,0.46,0.73c0,0-0.31-0.35-0.25-0.85
								l-0.02-50.38C96.72,127.14,96.79,126.64,96.98,126.52z"/>
						</g>
					</g>
					<g>
						<g>
							<g>
								<path class="st34" d="M103.38,177.78c0,0.49-0.54,0.88-1.21,0.88l0,0c-0.67,0-1.21-0.4-1.21-0.88v-50.81
									c0-0.49,0.54-0.88,1.21-0.88l0,0c0.67,0,1.21,0.4,1.21,0.88V177.78z"/>
								<path class="st35" d="M102.98,177.78c0,0.49-0.38,0.88-0.86,0.88l0,0c-0.47,0-0.86-0.4-0.86-0.88v-50.81
									c0-0.49,0.38-0.88,0.86-0.88l0,0c0.47,0,0.86,0.4,0.86,0.88V177.78z"/>
							</g>
							<path class="st36" d="M101.96,126.52c0,0-0.42,0.13-0.45,0.66v50.46c0,0,0.03,0.69,0.46,0.73c0,0-0.31-0.35-0.25-0.85
								l-0.02-50.38C101.7,127.14,101.77,126.64,101.96,126.52z"/>
						</g>
					</g>
					<g>
						<g>
							<g>
								<path class="st34" d="M108.36,177.78c0,0.49-0.54,0.88-1.21,0.88l0,0c-0.67,0-1.21-0.4-1.21-0.88v-50.81
									c0-0.49,0.54-0.88,1.21-0.88l0,0c0.67,0,1.21,0.4,1.21,0.88V177.78z"/>
								<path class="st35" d="M107.96,177.78c0,0.49-0.38,0.88-0.86,0.88l0,0c-0.47,0-0.86-0.4-0.86-0.88v-50.81
									c0-0.49,0.38-0.88,0.86-0.88l0,0c0.47,0,0.86,0.4,0.86,0.88V177.78z"/>
							</g>
							<path class="st36" d="M106.94,126.52c0,0-0.42,0.13-0.45,0.66v50.46c0,0,0.03,0.69,0.46,0.73c0,0-0.31-0.35-0.25-0.85
								l-0.02-50.38C106.68,127.14,106.75,126.64,106.94,126.52z"/>
						</g>
					</g>
				</g>
			</g>
		</g>
		<path class="st28" d="M109.61,122.88c0,0,1.57,0.47,1.86,1.99c0.3,1.53,0.17,4.07,0.17,4.07s-0.09,0.72,0.21,0.21
			c0.3-0.51,0.34-3.94,1.02-4.16c0.68-0.21,5.6-1.65,5.6-1.65s0.64-0.04,0.93,0.59c0,0,0.34,0.38,0.3-0.08
			c-0.04-0.47-0.59-1.99-2.37-2.12C115.54,121.61,108.67,122.54,109.61,122.88z"/>
		<g>
			<path class="st35" d="M116.05,176.27v-52.29l0-0.03c-0.2-0.81-0.98-1.41-2.24-1.73c-0.93-0.23-1.79-0.24-1.83-0.24H82.63
				l-1.46,0.25h30.81c0.03,0,3.36,0.02,3.82,1.75l0,52.28c0,0.02,0.19,2.2-0.9,2.63c-0.14,0.05-0.26,0.13-0.36,0.23l0.7-0.12
				C116.23,178.34,116.06,176.35,116.05,176.27z"/>
		</g>
		<path class="st37" d="M74.69,133.86v-7.08c0,0,0.04-2.03,2.04-2.33h28.43c0,0,3.5,0,3.88,0.89c0,0-2.93-0.25-3.94-0.19
			c-1.02,0.06-27.99,0.06-27.99,0.06s-1.51,0.11-1.89,1.82C74.83,128.75,74.69,133.86,74.69,133.86z"/>
	</g>
	<g>
		<g>
			<path class="st1" d="M79.04,83.19c-0.21-2.39,1.29-6.17,2.34-8.22c1.36-2.68,7.44-12.84,9.72-12.15
				c3.08,0.94,8.92,2.84,0.47,11.21l-4.76,8.5l9.52,16.2l-2.88,2.11C93.43,100.85,79.28,85.98,79.04,83.19z"/>
			<path class="st0" d="M84.59,73.58c1.57,1.08,3.25,2.01,5.01,2.75c0.18,0.08,0.37,0.14,0.56,0.22l1.41-2.51
				c8.45-8.37,2.61-10.27-0.47-11.21c-1.78-0.54-5.87,5.52-8.23,9.49C83.43,72.75,84,73.17,84.59,73.58z"/>
			<g>
				<path class="st38" d="M92.12,98.63c-0.01-0.01,0.78-1.07,2.88-1.6c1.29-0.1,3.99,0.66,4.48,0.89c1.27,0.59,1.44,0.61,1.71,1.57
					c0.27,0.96,0.28,2.02-0.67,2.73c-0.11,1.05-0.79,1.3-1.26,1.31c0.06,0.98-0.49,1.36-0.99,1.37c-0.35,0.92-1.2,1.04-2.04,0.54
					c-0.56-0.32-0.79-0.84,0.82-1.25c0.15-0.11-0.28-0.09-1.06-0.1c-0.79-0.01-2.34-1.63-3-2.26
					C92.35,101.21,91.97,99.34,92.12,98.63z"/>
				<g>
					<path class="st39" d="M100.31,99.08c0,0,0.04,0.14,0.05,0.37c0.01,0.11,0,0.24-0.03,0.39c-0.02,0.07-0.04,0.15-0.12,0.23
						c-0.02,0.02-0.04,0.04-0.07,0.05l-0.02,0.01c0,0-0.02,0.01,0,0l-0.01,0l-0.02,0.01c-0.03,0.02-0.07,0.03-0.09,0.05
						c-0.05,0.03-0.1,0.06-0.16,0.1c-0.06,0.04-0.11,0.08-0.16,0.12c-0.11,0.08-0.2,0.16-0.29,0.22c-0.17,0.14-0.28,0.23-0.28,0.23
						s0.05-0.14,0.19-0.32c0.07-0.09,0.15-0.19,0.25-0.29c0.05-0.05,0.1-0.1,0.16-0.14c0.06-0.05,0.12-0.09,0.2-0.14
						c0.04-0.02,0.07-0.03,0.1-0.05l0.03-0.01l0.01,0c0.02-0.01,0.01,0,0.01-0.01l0,0c0,0,0.01,0,0.01-0.01
						c0.02-0.02,0.06-0.07,0.08-0.13c0.04-0.11,0.07-0.24,0.09-0.34C100.28,99.23,100.31,99.08,100.31,99.08z"/>
					<path class="st39" d="M100.02,100.06c0,0,0.09,0.11,0.19,0.31c0.05,0.09,0.1,0.21,0.15,0.33c0.05,0.12,0.09,0.26,0.13,0.4
						c0.04,0.14,0.06,0.28,0.08,0.41c0.01,0.07,0.01,0.13,0.02,0.2c0,0.06,0,0.12,0,0.17c0,0.05-0.01,0.1-0.02,0.15
						c-0.01,0.04-0.01,0.08-0.02,0.11c-0.01,0.06-0.02,0.1-0.02,0.1s-0.01-0.04-0.02-0.1c-0.01-0.03-0.01-0.07-0.02-0.11
						c-0.01-0.04-0.01-0.09-0.03-0.14c-0.03-0.1-0.05-0.22-0.09-0.34c-0.04-0.12-0.07-0.26-0.11-0.39c-0.03-0.13-0.07-0.27-0.1-0.39
						c-0.03-0.13-0.06-0.25-0.08-0.35C100.04,100.2,100.02,100.06,100.02,100.06z"/>
					<path class="st39" d="M99.08,101.62c0,0-0.03,0.13-0.11,0.31c-0.08,0.18-0.19,0.41-0.33,0.63c-0.13,0.22-0.28,0.43-0.41,0.59
						c-0.12,0.15-0.22,0.24-0.22,0.24s0.03-0.13,0.11-0.31c0.08-0.18,0.19-0.41,0.33-0.63c0.13-0.22,0.28-0.43,0.41-0.58
						C98.98,101.71,99.08,101.62,99.08,101.62z"/>
					<path class="st39" d="M98.74,102.24c0,0,0.08,0.06,0.16,0.17c0.09,0.11,0.18,0.27,0.24,0.44c0.03,0.09,0.06,0.17,0.08,0.26
						c0.02,0.08,0.03,0.16,0.03,0.23c0,0.14-0.03,0.23-0.03,0.23s-0.05-0.08-0.1-0.2c-0.06-0.12-0.13-0.28-0.19-0.44
						c-0.06-0.16-0.11-0.33-0.15-0.46C98.75,102.34,98.74,102.24,98.74,102.24z"/>
					<path class="st39" d="M97.81,103.52c0,0,0.08,0.06,0.17,0.18c0.09,0.12,0.19,0.29,0.26,0.47c0.03,0.09,0.06,0.19,0.07,0.28
						c0.02,0.09,0.02,0.18,0.01,0.26c-0.01,0.08-0.03,0.14-0.04,0.18c-0.02,0.04-0.03,0.06-0.03,0.06s-0.01-0.03-0.01-0.07
						c-0.01-0.04-0.02-0.1-0.04-0.16c-0.02-0.07-0.05-0.14-0.08-0.22c-0.03-0.08-0.06-0.17-0.09-0.25
						c-0.06-0.17-0.12-0.35-0.16-0.49C97.82,103.62,97.81,103.52,97.81,103.52z"/>
				</g>
			</g>
		</g>
		<g>
			<g>
				<path class="st8" d="M87.53,74.37c-1.79-1.06-3.52-2.21-4.98-3.65c0.93-1.76,2.81-4.52,5.09-7.9c2.67-3.96,7.94-8.67,10.44-4.27
					c0,0,1.26,3.81-0.35,7.23c-0.84,1.79-4.29,7.52-6.15,10.33C90.2,75.71,88.85,75.15,87.53,74.37z"/>
			</g>
		</g>
		<g class="st40">
			<g>
				<path class="st19" d="M98.09,58.54c-0.5-0.88-1.12-1.39-1.8-1.62c0.15,0.14,0.3,0.28,0.43,0.45c0.43,0.56,0.65,1.24,0.74,1.94
					c0.21,1.74-0.34,3.55-0.95,5.17c-0.78,2.06-1.8,4.02-2.89,5.92c-1.03,1.8-2.15,3.56-3.29,5.29c0.42,0.15,0.84,0.29,1.26,0.41
					c1.85-2.81,5.31-8.54,6.15-10.33C99.35,62.35,98.09,58.54,98.09,58.54z"/>
			</g>
		</g>
	</g>
	<g>
		<g>
			<g>
				<g>
					<g>
						<path class="st41" d="M135.23,71.36c-0.2,0.54-0.79,0.82-1.33,0.62l-3.36-1.23c-0.54-0.2-0.82-0.79-0.62-1.33l7.94-21.76
							c0.2-0.54,0.79-0.82,1.33-0.62l3.36,1.23c0.54,0.2,0.82,0.79,0.62,1.33L135.23,71.36z"/>
						<path class="st42" d="M139.56,47.18l-0.38-0.14c-0.54-0.2-1.14,0.08-1.33,0.62l-7.94,21.76c-0.2,0.54,0.08,1.14,0.62,1.33
							l0.38,0.14L139.56,47.18z"/>
						<path class="st13" d="M141.12,51.73l0.17,0c0,0,0,0,0,0l0,0c0,0-0.04-0.13-0.06-0.14c-0.01-0.01-0.47-0.17-0.69-0.25
							c0,0,0-0.01,0-0.01c-0.01-0.1-0.03-0.2-0.04-0.31c0-0.01,0-0.02,0-0.03c-0.01-0.05-0.02-0.11-0.02-0.16c0-0.01,0-0.02,0-0.02
							c-0.01-0.05-0.02-0.1-0.03-0.16c0,0,0-0.01,0-0.01l0,0c-0.03-0.21-0.07-0.42-0.1-0.62l0.23,0v0c0,0,0,0,0,0.01c0,0,0,0,0,0
							c0,0,0,0,0,0c0,0.01,0.01,0.02,0.01,0.02c0,0,0,0,0.01,0l0,0c0.01,0,0.01,0,0.02,0v0c0,0,0,0,0,0c0-0.01,0-0.01,0-0.02h0
							c0,0,0,0,0-0.01c0,0,0,0,0,0l0.22,0l0,0c0,0,0,0,0,0.01c0,0,0,0,0,0l0,0c0,0.01,0.01,0.02,0.01,0.02c0,0,0,0,0,0l0,0
							c0.01,0,0.01,0,0.02,0v0c0,0,0,0,0,0c0-0.01,0-0.01,0-0.02c0,0,0,0,0,0c0,0,0,0,0-0.01c0,0,0,0,0,0l0.17,0h0.05c0,0,0,0,0,0
							c0,0,0,0,0,0.01c0,0,0,0,0,0c0,0.01,0.01,0.02,0.01,0.02l0.01,0h0c0.01,0,0.01,0,0.02,0l0,0c0,0,0,0,0,0c0-0.01,0-0.01,0-0.02
							l0,0c0,0,0,0,0-0.01l0.22,0c0,0,0,0,0,0c0,0,0,0,0,0c0,0,0,0,0,0h0c0,0.01,0.01,0.02,0.01,0.02l0.01,0l0,0
							c0.01,0,0.01,0,0.01,0v0c0,0,0,0,0,0c0,0,0-0.01,0-0.02c0,0,0,0,0,0c0,0,0-0.01,0-0.01l0,0l0.23,0l0,0l0,0
							c0,0,0.01-0.04-0.01-0.06c0,0,0,0-0.01,0l0,0c0,0,0,0-0.01,0c0,0,0,0,0,0c0,0-0.01-0.01-0.02-0.01c0,0,0,0,0,0
							c-0.02-0.01-0.04-0.02-0.06-0.03c0,0,0,0-0.01,0c-0.01-0.01-0.02-0.01-0.04-0.02c0,0,0,0,0,0c-0.01,0-0.01,0-0.01-0.01l0,0
							l0,0c-0.17-0.07-0.44-0.19-0.7-0.31c0-0.02-0.01-0.05-0.02-0.08h0h0c-0.01-0.02-0.02-0.05-0.03-0.07l0,0c0,0,0,0,0,0l0,0
							c0,0,0,0,0,0c0,0,0,0,0,0c0,0-0.01,0-0.01,0h0l0,0l0,0c0,0-0.01,0-0.01,0c-0.03,0-0.06,0-0.1,0.01l0,0
							c-0.01,0-0.01,0-0.02,0.01c0,0,0,0-0.01,0l0,0c0,0,0,0,0,0c0,0,0,0,0,0c-0.01,0-0.02,0.01-0.03,0.02c0,0,0,0.01,0,0.01
							c-0.06-0.03-0.12-0.05-0.18-0.08c-0.01,0-0.01-0.01-0.02-0.01l0,0c-0.04-0.02-0.07-0.03-0.1-0.04
							c-0.01-0.04-0.02-0.09-0.02-0.13l0,0c-0.02-0.09-0.03-0.17-0.04-0.23c0-0.01,0-0.01,0-0.02c0-0.01,0-0.02-0.01-0.03
							c0-0.01,0-0.01,0-0.02c0-0.01,0-0.02,0-0.02c0-0.01,0-0.01,0-0.01c0-0.01,0-0.02-0.01-0.03c-0.07-0.31-0.21-0.54-0.32-0.52
							c-0.11,0.02-0.15,0.29-0.09,0.6c0,0.01,0,0.02,0.01,0.03c0,0.01,0,0.01,0,0.02c0,0.01,0,0.01,0,0.02c0,0.01,0,0.02,0.01,0.02
							c0,0,0,0.01,0,0.01c0.01,0.03,0.02,0.06,0.02,0.1c0,0.02,0.01,0.03,0.01,0.05c0,0,0,0.01,0,0.01c0.01,0.03,0.02,0.07,0.03,0.1
							l0,0c0.01,0.04,0.02,0.08,0.03,0.13c-0.02,0.02-0.04,0.05-0.07,0.07l0,0c-0.04,0.05-0.09,0.1-0.14,0.16c0-0.01,0-0.01,0-0.01
							c-0.01,0-0.03,0-0.04,0h0h0l0,0c0,0,0,0-0.01,0c-0.01,0-0.01,0-0.02,0l0,0c-0.04,0-0.07,0.02-0.09,0.03
							c-0.01,0-0.01,0-0.01,0.01l0,0c0,0,0,0,0,0l0,0c0,0,0,0-0.01,0c0,0,0,0-0.01,0l0,0h0c0,0,0,0,0,0c0,0,0,0,0,0
							c0,0.02,0,0.05,0,0.07l0,0l0,0c0,0.03,0.01,0.06,0.02,0.08c-0.09,0.1-0.19,0.21-0.28,0.31c0,0-0.01,0.01-0.01,0.02
							c-0.01,0.01-0.02,0.03-0.04,0.04c-0.01,0.01-0.02,0.02-0.03,0.03c-0.01,0-0.01,0.01-0.01,0.01c-0.01,0.01-0.02,0.02-0.03,0.03
							c0,0-0.01,0.01-0.01,0.01c-0.01,0.01-0.02,0.03-0.04,0.04c0,0,0,0,0,0c-0.02,0.02-0.04,0.05-0.06,0.07c0,0,0,0,0,0s0,0,0,0
							c0,0-0.01,0.01-0.01,0.01c0,0,0,0,0,0c-0.01,0.01-0.02,0.02-0.03,0.03c0,0,0,0,0,0c-0.02,0.02-0.03,0.04-0.04,0.05
							c0,0,0,0,0,0c-0.01,0.01-0.01,0.01-0.01,0.02c0,0,0,0,0,0c0,0,0,0.01-0.01,0.01c0,0,0,0,0,0c0,0,0,0,0,0.01
							c-0.01,0.02,0.01,0.04,0.01,0.06c0,0,0,0.01,0,0.01l0.21-0.1h0c0,0,0,0.01,0,0.01c0,0,0,0,0,0c0,0.01,0,0.01,0.01,0.02
							c0,0,0,0,0,0v0c0.01,0,0.01,0,0.02,0l0,0c0,0,0,0,0,0c0-0.01,0-0.02,0-0.02l0,0v0c0,0,0-0.01,0-0.01l0.2-0.09c0,0,0,0,0,0.01
							v0c0,0.01,0.01,0.01,0.01,0.02l0,0v0c0,0,0.01,0,0.01,0l0,0c0,0,0,0,0,0c0-0.01,0-0.01,0-0.02c0,0,0,0,0,0c0,0,0,0,0,0
							c0,0,0,0,0-0.01l0.14-0.06l0.07-0.03c0,0,0,0.01,0,0.01c0,0,0,0,0,0c0,0.01,0,0.01,0.01,0.02c0,0,0,0,0,0l0,0
							c0.01,0,0.01,0,0.02,0v0c0,0,0,0,0,0c0-0.01,0-0.02,0-0.02l0,0c0,0,0,0,0,0c0,0,0-0.01,0-0.01l0.2-0.09c0,0,0,0,0,0
							c0,0,0,0.01,0,0.01l0,0c0,0.01,0.01,0.01,0.01,0.02c0,0,0,0,0,0l0,0c0.01,0,0.01,0,0.02,0l0,0c0,0,0,0,0,0
							c0-0.01,0-0.01,0-0.02l0,0c0,0,0,0,0,0c0,0,0-0.01,0-0.01l0.21-0.1c0.05,0.2,0.11,0.42,0.16,0.62l0,0c0,0.01,0,0.01,0.01,0.02
							c0.01,0.05,0.03,0.09,0.04,0.14c0,0.01,0,0.02,0.01,0.03c0.01,0.05,0.03,0.1,0.04,0.14c0,0.01,0.01,0.03,0.01,0.05
							c0.01,0.05,0.03,0.09,0.04,0.14c0,0,0,0.01,0,0.02c0.01,0.05,0.03,0.09,0.04,0.13c0,0,0,0.01,0,0.01
							c-0.01,0.01-0.03,0.03-0.05,0.05c0,0-0.01,0-0.01,0.01l0,0c-0.1,0.1-0.23,0.23-0.33,0.32c0,0-0.01,0.01-0.01,0.01
							c-0.01,0.01-0.02,0.02-0.03,0.03c0,0-0.01,0.01-0.01,0.01c-0.02,0.02-0.03,0.03-0.05,0.05c0,0,0,0,0,0
							c-0.01,0.01-0.01,0.01-0.02,0.02h0c0,0.01-0.01,0.01-0.01,0.01c0,0,0,0,0,0c0,0-0.01,0.01-0.01,0.01c-0.01,0.01,0,0.08,0,0.12
							l0,0c0,0.02,0,0.03,0,0.03l0.16-0.07l0,0l0.48-0.21l0.01,0c0,0.01,0,0.01,0.01,0.02c0,0.01,0,0.02,0.01,0.02
							c0.01,0.02,0.01,0.03,0.02,0.05c0.01,0,0.03,0,0.04,0c0.01,0,0.03-0.01,0.04-0.01c0-0.01,0-0.02,0-0.03c0,0,0,0,0,0
							c0-0.01,0-0.01,0-0.02c0,0,0,0,0,0c0,0,0-0.01,0-0.01c0,0,0,0,0,0l0,0c0-0.01,0-0.01,0-0.02L141.12,51.73L141.12,51.73z"/>
						<g>
							<polygon class="st13" points="137.37,51.17 137.12,51.08 138.44,47.48 138.69,47.56 							"/>
							<g>
								
									<rect x="137.66" y="49.31" transform="matrix(0.3439 -0.939 0.939 0.3439 44.2976 162.2853)" class="st13" width="1.23" height="0.26"/>
								
									<rect x="137.21" y="50.56" transform="matrix(0.3413 -0.94 0.94 0.3413 43.1365 162.94)" class="st13" width="1.23" height="0.26"/>
								
									<rect x="138.11" y="48.1" transform="matrix(0.3451 -0.9386 0.9386 0.3451 45.586 161.7846)" class="st13" width="1.23" height="0.26"/>
							</g>
						</g>
						<g>
							<g>
								<polygon class="st13" points="130.48,70.08 130.35,70.03 131.67,66.43 131.79,66.47 								"/>
								<g>
									<polygon class="st13" points="131.11,68.91 130.99,68.86 131.41,67.7 131.54,67.75 									"/>
									<polygon class="st13" points="130.66,70.16 130.54,70.11 130.96,68.95 131.08,69 									"/>
									<polygon class="st13" points="131.56,67.69 131.43,67.64 131.86,66.49 131.98,66.53 									"/>
								</g>
							</g>
							<g>
								<polygon class="st13" points="131.84,66.35 131.71,66.3 133.03,62.69 133.15,62.74 								"/>
								<g>
									
										<rect x="132.01" y="64.51" transform="matrix(0.3439 -0.939 0.939 0.3439 26.3797 166.8996)" class="st13" width="1.23" height="0.13"/>
									
										<rect x="131.55" y="65.76" transform="matrix(0.3467 -0.938 0.938 0.3467 24.6073 166.9723)" class="st13" width="1.23" height="0.13"/>
									
										<rect x="132.45" y="63.29" transform="matrix(0.3435 -0.9391 0.9391 0.3435 27.8541 166.5592)" class="st13" width="1.23" height="0.13"/>
								</g>
							</g>
						</g>
						<g>
							<path class="st43" d="M142.21,48.4l-0.56-0.21c0.48,0.17,0.71,0.74,0.52,1.27l-7.75,21.25c-0.19,0.53-0.74,0.81-1.22,0.64
								l0.57,0.21c0.48,0.18,1.02-0.11,1.22-0.64l7.75-21.25C142.92,49.15,142.69,48.58,142.21,48.4z"/>
						</g>
					</g>
					<g>
						<g>
							
								<rect x="129.57" y="67.1" transform="matrix(0.3421 -0.9397 0.9397 0.3421 24.5346 169.4972)" class="st44" width="7.49" height="0.25"/>
							<g>
								
									<rect x="132.49" y="67.2" transform="matrix(0.3444 -0.9388 0.9388 0.3444 24.4364 169.6483)" class="st44" width="2.4" height="0.26"/>
								<polygon class="st44" points="132.51,70.94 132.27,70.85 133.09,68.59 133.33,68.68 								"/>
								<polygon class="st44" points="134.26,66.13 134.02,66.04 134.85,63.78 135.09,63.87 								"/>
							</g>
						</g>
						<g>
							
								<rect x="132.23" y="59.82" transform="matrix(0.342 -0.9397 0.9397 0.342 33.1284 167.2146)" class="st44" width="7.49" height="0.25"/>
							<g>
								<polygon class="st44" points="136.05,61.22 135.81,61.14 136.63,58.88 136.87,58.97 								"/>
								<polygon class="st44" points="135.16,63.66 134.92,63.57 135.75,61.31 135.99,61.4 								"/>
								<polygon class="st44" points="136.92,58.85 136.68,58.76 137.5,56.51 137.74,56.59 								"/>
							</g>
						</g>
					</g>
				</g>
				<g>
					<g>
						<path class="st45" d="M136.16,70.51c-0.1,0.57-0.65,0.94-1.21,0.83l-3.52-0.65c-0.56-0.1-0.94-0.65-0.83-1.21l4.21-22.78
							c0.1-0.56,0.65-0.94,1.21-0.83l3.52,0.65c0.57,0.1,0.94,0.65,0.83,1.21L136.16,70.51z"/>
						<path class="st42" d="M136.42,45.95l-0.4-0.07c-0.57-0.1-1.11,0.27-1.21,0.83l-4.21,22.78c-0.1,0.57,0.27,1.11,0.83,1.21
							l0.4,0.07L136.42,45.95z"/>
						<path class="st13" d="M138.72,50.18l0.17-0.03c0,0,0,0,0,0l0,0c0,0-0.06-0.12-0.08-0.13c-0.01-0.01-0.5-0.09-0.72-0.13
							c0,0,0-0.01,0-0.01c-0.03-0.09-0.06-0.19-0.09-0.29c0-0.01-0.01-0.02-0.01-0.03c-0.02-0.05-0.03-0.1-0.05-0.16
							c0-0.01-0.01-0.02-0.01-0.02c-0.02-0.05-0.03-0.1-0.05-0.15c0,0,0-0.01,0-0.01l0,0c-0.07-0.2-0.14-0.4-0.2-0.59l0.23-0.04
							c0,0,0,0,0,0c0,0,0,0,0,0.01c0,0,0,0,0,0c0,0,0,0,0,0c0.01,0.01,0.01,0.02,0.01,0.02c0,0,0,0,0,0l0,0c0.01,0,0.01,0,0.01-0.01
							l0,0c0,0,0,0,0,0c0-0.01,0-0.01,0-0.02h0c0,0,0,0,0-0.01c0,0,0,0,0,0l0.22-0.03l0,0c0,0,0,0,0,0.01c0,0,0,0,0,0l0,0
							c0,0.01,0.01,0.01,0.01,0.02h0l0,0c0.01,0,0.01,0,0.01-0.01l0,0c0,0,0,0,0,0c0-0.01,0-0.01,0-0.02l0,0c0,0,0,0,0-0.01
							c0,0,0,0,0,0l0.17-0.03l0.05-0.01c0,0,0,0,0,0c0,0,0,0,0,0h0c0,0.01,0.01,0.02,0.01,0.02c0,0,0,0,0,0v0
							c0.01,0,0.01,0,0.02-0.01l0,0c0,0,0,0,0,0c0,0,0-0.01,0-0.02l0,0c0,0,0,0,0-0.01l0.22-0.03c0,0,0,0,0,0c0,0,0,0,0,0.01
							c0,0,0,0,0,0h0c0,0.01,0.01,0.02,0.01,0.02c0,0,0,0,0,0v0c0.01,0,0.01,0,0.01-0.01l0,0c0,0,0,0,0,0c0-0.01,0-0.01,0-0.02h0
							c0,0,0-0.01,0-0.01l0,0l0.23-0.03l0,0l0,0c0,0,0-0.04-0.02-0.06c0,0,0,0-0.01,0c0,0,0,0,0,0c0,0-0.01,0-0.01,0c0,0,0,0,0,0
							c-0.01,0-0.01,0-0.02,0c0,0,0,0,0,0c-0.02,0-0.04-0.01-0.06-0.02c0,0-0.01,0-0.01,0c-0.01,0-0.03-0.01-0.04-0.01c0,0,0,0,0,0
							c-0.01,0-0.01,0-0.01,0c0,0,0,0,0,0s0,0,0,0c-0.18-0.05-0.47-0.12-0.74-0.19c-0.01-0.02-0.02-0.05-0.03-0.08v0l0,0
							c-0.01-0.02-0.02-0.04-0.04-0.06c0,0,0,0,0,0h0l0,0h0h-0.01c0,0,0,0-0.01,0l0,0c0,0,0,0,0,0l0,0c0,0-0.01,0-0.01,0
							c-0.03,0-0.06,0.01-0.1,0.03h0c0,0-0.01,0.01-0.02,0.01c0,0,0,0,0,0l0,0c0,0,0,0,0,0c0,0,0,0,0,0
							c-0.01,0.01-0.02,0.01-0.03,0.02c0,0,0,0,0,0.01c-0.07-0.02-0.13-0.03-0.19-0.05c-0.01,0-0.01,0-0.02-0.01v0
							c-0.04-0.01-0.07-0.02-0.1-0.03c-0.02-0.04-0.03-0.08-0.04-0.12l0,0c-0.03-0.09-0.06-0.16-0.08-0.22c0-0.01,0-0.01-0.01-0.02
							c0-0.01-0.01-0.02-0.01-0.03c0-0.01,0-0.01-0.01-0.02c0-0.01-0.01-0.01-0.01-0.02c0,0,0-0.01-0.01-0.01
							c0-0.01-0.01-0.02-0.01-0.03c-0.12-0.29-0.3-0.5-0.41-0.46c-0.11,0.04-0.1,0.32,0.02,0.61c0,0.01,0.01,0.02,0.01,0.03
							c0,0.01,0,0.01,0.01,0.02c0,0,0,0.01,0.01,0.02c0,0.01,0.01,0.01,0.01,0.02c0,0.01,0,0.01,0.01,0.01
							c0.01,0.03,0.03,0.06,0.04,0.09c0.01,0.01,0.01,0.03,0.02,0.04c0,0,0,0.01,0,0.01c0.01,0.03,0.03,0.06,0.04,0.1l0,0
							c0.02,0.04,0.03,0.08,0.05,0.12c-0.02,0.03-0.03,0.05-0.05,0.08l0,0c-0.03,0.05-0.07,0.11-0.12,0.18
							c0-0.01-0.01-0.01-0.01-0.01c-0.01,0-0.02,0-0.04,0l0,0c0,0,0,0,0,0l0,0c0,0,0,0-0.01,0c-0.01,0-0.01,0-0.02,0l0,0
							c-0.04,0.01-0.06,0.03-0.08,0.04c-0.01,0-0.01,0.01-0.01,0.01l0,0c0,0,0,0,0,0l0,0c0,0,0,0-0.01,0c0,0,0,0,0,0l0,0
							c0,0,0,0,0,0l0,0c0,0,0,0,0,0c0,0.02,0.01,0.05,0.02,0.07l0,0l0,0c0.01,0.03,0.02,0.06,0.03,0.08
							c-0.08,0.12-0.16,0.24-0.23,0.36c0,0.01-0.01,0.01-0.01,0.02c-0.01,0.02-0.02,0.03-0.03,0.05c-0.01,0.01-0.02,0.02-0.02,0.04
							c0,0.01-0.01,0.01-0.01,0.02c-0.01,0.01-0.02,0.02-0.02,0.04c0,0-0.01,0.01-0.01,0.01c-0.01,0.02-0.02,0.03-0.03,0.04l0,0
							c-0.02,0.03-0.03,0.05-0.05,0.08c0,0,0,0,0,0s0,0,0,0c0,0,0,0.01-0.01,0.01c0,0,0,0,0,0c-0.01,0.01-0.01,0.02-0.02,0.03
							c0,0,0,0,0,0c-0.01,0.02-0.03,0.04-0.04,0.06c0,0,0,0,0,0c0,0.01-0.01,0.01-0.01,0.02c0,0,0,0,0,0c0,0,0,0.01-0.01,0.01
							c0,0,0,0,0,0c0,0,0,0.01,0,0.01c0,0.02,0.01,0.04,0.02,0.05c0,0,0.01,0,0.01,0l0.19-0.13l0,0c0,0,0,0.01,0,0.01l0,0
							c0,0.01,0.01,0.01,0.01,0.02c0,0,0,0,0.01,0h0c0.01,0,0.01,0,0.01-0.01l0,0c0,0,0,0,0,0c0-0.01,0-0.02,0-0.02l0,0c0,0,0,0,0,0
							c0,0,0-0.01,0-0.01l0.18-0.13c0,0,0,0,0,0.01h0c0,0.01,0.01,0.01,0.01,0.01c0,0,0,0,0,0l0,0c0.01,0,0.01,0,0.01-0.01l0,0
							c0,0,0,0,0,0c0-0.01,0-0.02,0-0.02h0c0,0,0,0,0,0c0,0,0,0,0-0.01l0.12-0.09l0.06-0.04c0,0,0,0.01,0,0.01l0,0
							c0,0,0.01,0.01,0.01,0.01c0,0,0,0,0,0v0c0.01,0,0.01,0,0.01-0.01l0,0c0,0,0,0,0,0c0-0.01,0-0.02,0-0.02l0,0c0,0,0,0,0,0
							c0,0,0,0,0-0.01l0.18-0.13c0,0,0,0,0,0c0,0,0,0.01,0,0.01l0,0c0,0,0.01,0.01,0.01,0.01c0,0,0,0,0,0v0c0.01,0,0.01,0,0.02-0.01
							v0c0,0,0,0,0,0c0-0.01,0-0.01,0-0.02c0,0,0,0,0,0l0,0c0,0,0-0.01,0-0.01l0.19-0.13c0.09,0.19,0.18,0.39,0.27,0.59l0,0
							c0,0.01,0.01,0.01,0.01,0.02c0.02,0.04,0.04,0.09,0.06,0.13c0,0.01,0.01,0.02,0.01,0.02c0.02,0.05,0.04,0.09,0.06,0.14
							c0.01,0.01,0.01,0.03,0.02,0.04c0.02,0.05,0.04,0.09,0.06,0.13c0,0.01,0.01,0.01,0.01,0.02c0.02,0.04,0.04,0.08,0.06,0.12
							c0,0,0,0.01,0.01,0.01c-0.01,0.02-0.03,0.03-0.04,0.05c0,0,0,0.01-0.01,0.01l0,0c-0.08,0.11-0.19,0.26-0.27,0.37
							c0,0-0.01,0.01-0.01,0.01c-0.01,0.01-0.01,0.02-0.02,0.03c0,0-0.01,0.01-0.01,0.01c-0.01,0.02-0.03,0.04-0.04,0.05
							c0,0,0,0,0,0c-0.01,0.01-0.01,0.01-0.01,0.02l0,0c0,0.01-0.01,0.01-0.01,0.01c0,0,0,0,0,0c0,0,0,0.01,0,0.01
							c-0.01,0.01,0.01,0.08,0.02,0.12l0,0c0.01,0.02,0.01,0.03,0.01,0.03l0.14-0.09v0l0.44-0.28l0,0c0,0.01,0,0.01,0.01,0.02
							c0,0.01,0.01,0.01,0.01,0.02c0.01,0.02,0.02,0.03,0.03,0.04c0.01,0,0.03-0.01,0.04-0.01c0.01,0,0.03-0.01,0.04-0.02
							c0-0.01,0-0.02-0.01-0.03c0,0,0,0,0,0c0-0.01,0-0.01,0-0.02c0,0,0,0,0,0c0,0,0-0.01,0-0.01c0,0,0,0,0,0c0,0,0,0,0,0
							c0-0.01,0-0.01,0-0.02L138.72,50.18L138.72,50.18z"/>
						<g>
							<polygon class="st13" points="134.92,50.25 134.67,50.2 135.36,46.43 135.62,46.47 							"/>
							<g>
								<polygon class="st13" points="135.55,49.02 135.29,48.98 135.52,47.76 135.78,47.81 								"/>
								<polygon class="st13" points="135.31,50.33 135.05,50.28 135.28,49.07 135.53,49.12 								"/>
								
									<rect x="135.15" y="46.99" transform="matrix(0.1858 -0.9826 0.9826 0.1858 64.2478 171.7734)" class="st13" width="1.23" height="0.26"/>
							</g>
						</g>
						<g>
							<g>
								<polygon class="st13" points="131.27,70.04 131.14,70.01 131.84,66.24 131.96,66.26 								"/>
								<g>
									<polygon class="st13" points="131.7,68.78 131.57,68.75 131.79,67.54 131.92,67.56 									"/>
									<polygon class="st13" points="131.46,70.08 131.33,70.06 131.55,68.85 131.68,68.87 									"/>
									<polygon class="st13" points="131.94,67.5 131.81,67.48 132.03,66.27 132.16,66.29 									"/>
								</g>
							</g>
							<g>
								<polygon class="st13" points="131.99,66.13 131.86,66.11 132.56,62.33 132.69,62.36 								"/>
								<g>
									<polygon class="st13" points="132.42,64.87 132.29,64.85 132.52,63.63 132.65,63.66 									"/>
									<polygon class="st13" points="132.18,66.18 132.05,66.15 132.28,64.94 132.4,64.97 									"/>
									<polygon class="st13" points="132.66,63.6 132.53,63.57 132.75,62.36 132.88,62.38 									"/>
								</g>
							</g>
						</g>
						<g>
							<path class="st43" d="M139.23,46.72l-0.59-0.11c0.5,0.09,0.83,0.61,0.73,1.17l-4.11,22.24c-0.1,0.55-0.59,0.92-1.09,0.83
								l0.59,0.11c0.5,0.09,0.99-0.28,1.09-0.83l4.11-22.24C140.06,47.33,139.74,46.81,139.23,46.72z"/>
						</g>
					</g>
					<g>
						<g>
							
								<rect x="129.85" y="66.63" transform="matrix(0.1818 -0.9833 0.9833 0.1818 43.6673 185.989)" class="st44" width="7.49" height="0.25"/>
							<g>
								
									<rect x="132.78" y="66.66" transform="matrix(0.1846 -0.9828 0.9828 0.1846 43.6018 186.137)" class="st44" width="2.4" height="0.26"/>
								
									<rect x="132.31" y="69.21" transform="matrix(0.1811 -0.9835 0.9835 0.1811 41.1333 188.0809)" class="st44" width="2.4" height="0.26"/>
								
									<rect x="133.24" y="64.18" transform="matrix(0.1851 -0.9827 0.9827 0.1851 46.3558 184.5192)" class="st44" width="2.4" height="0.26"/>
							</g>
						</g>
						<g>
							
								<rect x="131.26" y="59.01" transform="matrix(0.1817 -0.9833 0.9833 0.1817 52.3117 181.1439)" class="st44" width="7.49" height="0.25"/>
							<g>
								<polygon class="st44" points="135.29,60.38 135.04,60.33 135.48,57.97 135.73,58.02 								"/>
								
									<rect x="133.71" y="61.6" transform="matrix(0.181 -0.9835 0.9835 0.181 49.7908 183.2398)" class="st44" width="2.4" height="0.26"/>
								
									<rect x="134.64" y="56.56" transform="matrix(0.1812 -0.9835 0.9835 0.1812 55.4793 180.0187)" class="st44" width="2.4" height="0.26"/>
							</g>
						</g>
					</g>
				</g>
			</g>
			<path class="st46" d="M130,69.17l6.14,1.41c0.01-0.03,0.02-0.05,0.02-0.08l0.65-3.49l5.26-14.43l-8.01-1.84l-2.73,14.78
				L130,69.17z"/>
			<g>
				<g>
					<path class="st47" d="M139.8,71.11c0.22-0.02,0.51-0.08,0.6-0.46l3.8-16.49c0.07-0.33-0.06-0.62-0.29-0.74
						c-0.09-0.05-0.16-0.07-0.26-0.11L131.4,50.5l-4.09,17.77l12.25,2.82C139.65,71.11,139.75,71.12,139.8,71.11z"/>
					<g>
						<path class="st47" d="M128.76,67.32l3.56-15.45c0.28-0.95,2.58-0.55,2.58-0.55l0-0.01l-3.49-0.8l-4.09,17.77l3.31,0.76
							c-0.1-0.04-0.2-0.07-0.33-0.1C128.52,68.49,128.76,67.32,128.76,67.32z"/>
					</g>
				</g>
				<g>
					<path class="st13" d="M132.74,57.42l-0.12,0.54l-0.09-0.02l0.3-1.3l0.36,0.08c0.26,0.06,0.37,0.21,0.31,0.47
						c-0.06,0.27-0.23,0.35-0.49,0.29L132.74,57.42z M132.9,56.74l-0.14,0.59l0.27,0.06c0.2,0.05,0.32,0,0.38-0.23
						c0.05-0.23-0.04-0.32-0.24-0.37L132.9,56.74z"/>
					<path class="st13" d="M134.25,57.93l-0.57-0.13l-0.23,0.35l-0.1-0.02l0.78-1.19l0.09,0.02l0.18,1.41l-0.1-0.02L134.25,57.93z
						 M133.73,57.72l0.51,0.12l-0.09-0.76L133.73,57.72z"/>
					<path class="st13" d="M135,58.52c-0.16-0.04-0.3-0.12-0.39-0.22l0.06-0.07c0.09,0.1,0.19,0.17,0.35,0.21
						c0.2,0.05,0.35,0.01,0.4-0.2c0.1-0.43-0.69-0.29-0.57-0.83c0.05-0.22,0.25-0.28,0.46-0.23c0.16,0.04,0.28,0.11,0.37,0.19
						l-0.05,0.07c-0.08-0.07-0.19-0.15-0.34-0.18c-0.17-0.04-0.32,0.01-0.35,0.17c-0.1,0.44,0.69,0.3,0.57,0.83
						C135.45,58.54,135.23,58.58,135,58.52z"/>
					<path class="st13" d="M136.07,58.77c-0.16-0.04-0.3-0.12-0.4-0.22l0.06-0.07c0.09,0.1,0.19,0.17,0.35,0.21
						c0.19,0.05,0.35,0.01,0.4-0.19c0.1-0.43-0.69-0.29-0.57-0.83c0.05-0.22,0.25-0.28,0.47-0.23c0.16,0.04,0.28,0.11,0.37,0.19
						l-0.05,0.07c-0.08-0.07-0.19-0.15-0.34-0.18c-0.17-0.04-0.32,0.01-0.35,0.17c-0.1,0.44,0.69,0.3,0.57,0.83
						C136.52,58.78,136.31,58.83,136.07,58.77z"/>
					<path class="st13" d="M137.02,58.4l-0.12,0.54l-0.09-0.02l0.3-1.3l0.36,0.08c0.26,0.06,0.37,0.21,0.31,0.47
						c-0.06,0.27-0.23,0.35-0.49,0.29L137.02,58.4z M137.17,57.73l-0.14,0.6l0.27,0.06c0.2,0.05,0.32,0,0.38-0.23
						c0.05-0.22-0.04-0.32-0.24-0.37L137.17,57.73z"/>
					<path class="st13" d="M137.95,58.5c0.12-0.51,0.36-0.62,0.67-0.55c0.31,0.07,0.48,0.28,0.36,0.79
						c-0.12,0.51-0.36,0.62-0.67,0.55C138,59.22,137.83,59.01,137.95,58.5z M138.89,58.72c0.11-0.46-0.03-0.62-0.29-0.68
						c-0.26-0.06-0.45,0.03-0.56,0.49c-0.11,0.46,0.03,0.62,0.29,0.68C138.58,59.26,138.78,59.18,138.89,58.72z"/>
					<path class="st13" d="M139.71,58.97l0.21,0.67l-0.11-0.03l-0.21-0.67l-0.26-0.06l-0.13,0.59l-0.09-0.02l0.3-1.3l0.38,0.09
						c0.25,0.06,0.35,0.21,0.3,0.44C140.05,58.89,139.92,58.99,139.71,58.97z M139.49,58.26l-0.13,0.55l0.29,0.07
						c0.2,0.04,0.31-0.02,0.35-0.21c0.04-0.19-0.03-0.3-0.23-0.34L139.49,58.26z"/>
					<path class="st13" d="M140.78,58.55l-0.28,1.22l-0.09-0.02l0.28-1.22l-0.37-0.08l0.02-0.08l0.84,0.19l-0.02,0.08L140.78,58.55z
						"/>
				</g>
			</g>
		</g>
		<path class="st48" d="M141.65,52.92l1.76,0.4c0,0,0.77,0.15,0.72,0.78l-0.87,3.63l0.74-3.44c0,0-0.01-0.69-0.57-0.89
			C142.97,53.24,141.65,52.92,141.65,52.92z"/>
	</g>
	<path class="st1" d="M126.69,58.63c-0.23,0.83-0.26,1.72-0.07,2.55c0.28,1.23,1.43,3.09,2.94,2.53c0.7-0.26,1.24-0.9,1.35-1.64
		c0.2-1.45-0.72-3.27,0.34-4.48c0.47-0.53,1.04-0.97,1.6-1.41c0.06-0.05,0.12-0.1,0.15-0.17c0.03-0.06,0.03-0.13,0.02-0.19
		c-0.17-1.15-2.01,0.19-2.44,0.46c-1.15,0.74-2.73,1.02-3.67,2.02C126.83,58.42,126.76,58.52,126.69,58.63z"/>
</g>
</svg>
