<svg id="Group_6291" data-name="Group 6291" xmlns="http://www.w3.org/2000/svg" xmlns:xlink="http://www.w3.org/1999/xlink" width="35.592" height="35.592" viewBox="0 0 35.592 35.592">
  <defs>
    <clipPath id="clip-path">
      <rect id="Rectangle_3088" data-name="Rectangle 3088" width="35.592" height="35.592" fill="none"/>
    </clipPath>
  </defs>
  <g id="Group_6290" data-name="Group 6290" transform="translate(0 0)" clip-path="url(#clip-path)">
    <path id="Path_1907" data-name="Path 1907" d="M35.592,17.8A17.8,17.8,0,1,1,17.8,0a17.8,17.8,0,0,1,17.8,17.8" transform="translate(0 0.001)" fill="#1ba5d4"/>
    <path id="Path_1908" data-name="Path 1908" d="M11.993,19.983a4.2,4.2,0,0,1-3.893-2.9,4.143,4.143,0,0,0,1.794-.055A.308.308,0,0,0,9.953,17a4.179,4.179,0,0,1-2.717-1.919,4.069,4.069,0,0,1-.613-2.226,4.126,4.126,0,0,0,1.862.508,4.21,4.21,0,0,1-1.722-2.538,4.145,4.145,0,0,1,.449-3.031,11.978,11.978,0,0,0,8.63,4.372c-.024-.166-.05-.312-.066-.459a4.183,4.183,0,0,1,7.111-3.461.212.212,0,0,0,.223.068,8.44,8.44,0,0,0,2.435-.936.285.285,0,0,1,.055-.029s.012,0,.029,0a4.286,4.286,0,0,1-1.792,2.278,8.015,8.015,0,0,0,2.329-.628l.017.019c-.16.21-.314.425-.481.628a8.171,8.171,0,0,1-1.52,1.445.138.138,0,0,0-.069.131,11.448,11.448,0,0,1-.079,1.859A12.279,12.279,0,0,1,22.955,16.8a12.089,12.089,0,0,1-2.262,3.3,11.179,11.179,0,0,1-5.75,3.2,12.57,12.57,0,0,1-2.331.278,11.827,11.827,0,0,1-6.7-1.8c-.026-.016-.052-.035-.1-.065A8.446,8.446,0,0,0,10,21.143a8.307,8.307,0,0,0,1.99-1.16" transform="translate(2.558 3.085)" fill="#fff" fill-rule="evenodd"/>
  </g>
</svg>
