<svg xmlns="http://www.w3.org/2000/svg" xmlns:xlink="http://www.w3.org/1999/xlink" width="30.237" height="30.239" viewBox="0 0 30.237 30.239">
  <defs>
    <clipPath id="clip-path">
      <path id="Path_1657" data-name="Path 1657" d="M144.674,418.324v.006a15.119,15.119,0,1,0,0-.006" transform="translate(-144.674 -403.208)" fill="#fff"/>
    </clipPath>
    <linearGradient id="linear-gradient" x1="0.5" x2="0.5" y2="1" gradientUnits="objectBoundingBox">
      <stop offset="0" stop-color="#00a948"/>
      <stop offset="1" stop-color="#005524"/>
    </linearGradient>
  </defs>
  <g id="Group_5906" data-name="Group 5906" transform="translate(-41.616 -408.739)">
    <g id="Group_5132" data-name="Group 5132" transform="translate(41.616 408.739)" clip-path="url(#clip-path)">
      <rect id="Rectangle_2303" data-name="Rectangle 2303" width="42.765" height="42.765" transform="translate(-15.12 15.098) rotate(-44.96)" fill="#fff"/>
    </g>
    <path id="Path_1658" data-name="Path 1658" d="M164.733,409.1a6.9,6.9,0,0,1-1.666.475c.269-.041.662-.528.816-.725a3.148,3.148,0,0,0,.559-1.013c.01-.031.021-.062,0-.082a.1.1,0,0,0-.094,0,8.433,8.433,0,0,1-1.975.756.142.142,0,0,1-.134-.031c-.055-.06-.115-.121-.175-.175a3.381,3.381,0,0,0-2.429-.828,3.5,3.5,0,0,0-1.4.39,3.6,3.6,0,0,0-1.128.92,3.5,3.5,0,0,0-.672,1.344,3.649,3.649,0,0,0-.031,1.416c.01.082,0,.093-.072.082a10.564,10.564,0,0,1-6.8-3.44c-.082-.094-.125-.094-.195.01a3.451,3.451,0,0,0,.584,4.074c.134.125.269.247.413.372a3.518,3.518,0,0,1-1.313-.372c-.082-.053-.125-.021-.125.072a1.738,1.738,0,0,0,.021.39,3.506,3.506,0,0,0,2.143,2.782,2.123,2.123,0,0,0,.434.134,3.634,3.634,0,0,1-1.282.041c-.093-.021-.134.031-.093.113a3.646,3.646,0,0,0,2.694,2.258c.125.021.247.021.372.051l-.021.021c-.3.466-1.364.807-1.841.974a6.63,6.63,0,0,1-2.8.362c-.156-.022-.195-.022-.228,0s-.01.062.041.1a6.722,6.722,0,0,0,.584.341,8.77,8.77,0,0,0,1.872.744,9.974,9.974,0,0,0,9.69-2.258,10.173,10.173,0,0,0,2.679-7.415c0-.1.125-.166.195-.216a6.328,6.328,0,0,0,1.313-1.375.427.427,0,0,0,.082-.259v-.01c.047-.062.047-.053-.027-.021" transform="translate(-99.636 9.574)" fill="url(#linear-gradient)"/>
  </g>
</svg>
