<svg xmlns="http://www.w3.org/2000/svg" xmlns:xlink="http://www.w3.org/1999/xlink" width="30.239" height="30.239" viewBox="0 0 30.239 30.239">
  <defs>
    <linearGradient id="linear-gradient" x1="0.5" x2="0.5" y2="1" gradientUnits="objectBoundingBox">
      <stop offset="0" stop-color="#00a948"/>
      <stop offset="1" stop-color="#005524"/>
    </linearGradient>
    <clipPath id="clip-path">
      <path id="Path_1661" data-name="Path 1661" d="M100.727,418.328v0a15.12,15.12,0,1,0,15.12-15.122,15.12,15.12,0,0,0-15.12,15.122" transform="translate(-100.727 -403.208)" fill="#fff"/>
    </clipPath>
    <clipPath id="clip-path-2">
      <rect id="Rectangle_2780" data-name="Rectangle 2780" width="23.663" height="23.664" fill="url(#linear-gradient)"/>
    </clipPath>
  </defs>
  <g id="Group_6149" data-name="Group 6149" transform="translate(-40 -327.239)">
    <g id="Group_6147" data-name="Group 6147" transform="translate(-21 19.5)">
      <g id="Group_5141" data-name="Group 5141" transform="translate(61 307.739)">
        <g id="Group_5140" data-name="Group 5140" clip-path="url(#clip-path)">
          <rect id="Rectangle_2307" data-name="Rectangle 2307" width="42.765" height="42.765" transform="translate(-15.12 15.12) rotate(-45)" fill="#fff"/>
        </g>
      </g>
    </g>
    <g id="Group_5910" data-name="Group 5910" transform="translate(40.001 326)">
      <g id="Group_5909" data-name="Group 5909" transform="translate(3.287 4.287)" clip-path="url(#clip-path-2)">
        <path id="Path_1769" data-name="Path 1769" d="M23.613,10.73a11.832,11.832,0,0,0-23.561,0H0v2.2H.051a11.832,11.832,0,0,0,23.561,0h.051v-2.2Zm-2.215,0h-4.46a20.719,20.719,0,0,0-1.657-7.888A9.654,9.654,0,0,1,21.4,10.73M11.832,21.46c-.932,0-2.693-3-2.9-8.526h5.805c-.21,5.527-1.971,8.526-2.9,8.526m-2.9-10.73C9.139,5.2,10.9,2.2,11.832,2.2s2.693,3,2.9,8.527ZM8.383,2.842A20.731,20.731,0,0,0,6.725,10.73H2.266A9.653,9.653,0,0,1,8.383,2.842M2.266,12.934H6.725a20.734,20.734,0,0,0,1.657,7.888,9.655,9.655,0,0,1-6.116-7.888m13.014,7.888a20.722,20.722,0,0,0,1.657-7.888H21.4a9.656,9.656,0,0,1-6.117,7.888" transform="translate(0 0)" fill="url(#linear-gradient)"/>
      </g>
    </g>
  </g>
</svg>
